M48
; DRILL file {KiCad 9.0.4} date 2025-10-03T19:31:14+0200
; FORMAT={-:-/ absolute / metric / decimal}
; #@! TF.CreationDate,2025-10-03T19:31:14+02:00
; #@! TF.GenerationSoftware,Kicad,Pcbnew,9.0.4
; #@! TF.FileFunction,Plated,1,2,PTH
FMAT,2
METRIC
; #@! TA.AperFunction,Plated,PTH,ViaDrill
T1C0.300
; #@! TA.AperFunction,Plated,PTH,ComponentDrill
T2C0.600
; #@! TA.AperFunction,Plated,PTH,ComponentDrill
T3C0.800
; #@! TA.AperFunction,Plated,PTH,ComponentDrill
T4C0.900
; #@! TA.AperFunction,Plated,PTH,ComponentDrill
T5C1.000
; #@! TA.AperFunction,Plated,PTH,ComponentDrill
T6C1.100
; #@! TA.AperFunction,Plated,PTH,ComponentDrill
T7C1.800
; #@! TA.AperFunction,Plated,PTH,ComponentDrill
T8C2.000
%
G90
G05
T1
X44.55Y-128.85
X46.95Y-105.35
X47.55Y-106.75
X49.898Y-64.05
X56.85Y-82.7
X59.9Y-96.55
X61.55Y-56.7
X62.3Y-115.2
X63.65Y-56.1
X69.33Y-95.574
X69.55Y-141.4
X109.4Y-73.15
X126.955Y-119.745
X127.28Y-92.0
X127.88Y-105.4
X129.081Y-114.3
X129.7Y-106.4
X133.05Y-92.0
X135.8Y-46.0
X148.2Y-118.9
X151.299Y-102.151
X151.3Y-59.7
X152.007Y-140.407
X152.007Y-144.5
X165.2Y-139.7
T2
X45.75Y-178.75
X47.25Y-178.75
X53.223Y-178.75
X54.723Y-178.75
X145.25Y-178.75
X146.75Y-178.75
X152.75Y-178.75
X154.25Y-178.75
T3
X29.39Y-79.2
X29.49Y-124.5
X30.71Y-73.5
X30.71Y-85.25
X30.71Y-120.3
X30.71Y-130.3
X31.25Y-92.45
X31.25Y-105.2
X31.26Y-59.4
X31.27Y-96.3
X31.27Y-109.0
X31.28Y-63.265
X31.79Y-134.5
X31.79Y-137.5
X33.25Y-73.5
X33.25Y-85.25
X33.25Y-120.3
X33.25Y-130.3
X33.75Y-47.21
X33.75Y-49.75
X33.75Y-52.29
X33.79Y-92.45
X33.79Y-105.2
X33.8Y-59.4
X33.81Y-96.3
X33.81Y-109.0
X33.82Y-63.265
X34.39Y-114.6
X35.79Y-73.5
X35.79Y-85.25
X35.79Y-120.3
X35.79Y-130.3
X36.0Y-142.49
X36.0Y-150.11
X36.0Y-152.39
X36.0Y-160.01
X36.33Y-92.45
X36.33Y-105.2
X36.34Y-59.4
X36.35Y-96.3
X36.35Y-109.0
X36.36Y-63.265
X37.01Y-79.2
X37.11Y-124.5
X37.5Y-140.2
X38.96Y-57.54
X38.96Y-65.16
X39.0Y-90.49
X39.0Y-98.11
X39.0Y-103.29
X39.0Y-110.91
X39.0Y-142.49
X39.0Y-150.11
X39.0Y-152.39
X39.0Y-160.01
X39.41Y-134.5
X39.41Y-137.5
X40.75Y-47.21
X40.75Y-49.75
X40.75Y-52.29
X42.0Y-73.79
X42.0Y-81.41
X42.0Y-84.19
X42.0Y-91.81
X42.0Y-94.09
X42.0Y-101.71
X42.0Y-103.99
X42.0Y-111.61
X42.0Y-117.69
X42.0Y-125.31
X42.0Y-130.29
X42.0Y-137.91
X42.0Y-142.49
X42.0Y-150.11
X42.0Y-152.39
X42.0Y-160.01
X42.01Y-114.6
X42.5Y-140.2
X44.0Y-168.0
X44.0Y-173.5
X45.1Y-65.635
X45.1Y-68.175
X45.1Y-70.715
X45.1Y-73.255
X45.1Y-75.795
X45.1Y-78.335
X45.1Y-80.875
X45.1Y-99.135
X45.1Y-101.675
X45.1Y-104.215
X45.1Y-106.755
X45.1Y-109.295
X45.1Y-111.835
X45.1Y-114.375
X45.1Y-132.635
X45.1Y-135.175
X45.1Y-137.715
X45.1Y-140.255
X45.1Y-142.795
X45.1Y-145.335
X45.1Y-147.875
X46.19Y-45.1
X46.19Y-48.1
X49.0Y-168.0
X49.0Y-173.5
X51.5Y-168.0
X51.5Y-173.5
X52.72Y-65.635
X52.72Y-68.175
X52.72Y-70.715
X52.72Y-73.255
X52.72Y-75.795
X52.72Y-78.335
X52.72Y-80.875
X52.72Y-99.135
X52.72Y-101.675
X52.72Y-104.215
X52.72Y-106.755
X52.72Y-109.295
X52.72Y-111.835
X52.72Y-114.375
X52.72Y-132.635
X52.72Y-135.175
X52.72Y-137.715
X52.72Y-140.255
X52.72Y-142.795
X52.72Y-145.335
X52.72Y-147.875
X53.81Y-45.1
X53.81Y-48.1
X55.3Y-65.8
X55.3Y-141.4
X55.5Y-99.1
X55.5Y-104.1
X55.8Y-131.49
X55.8Y-139.11
X56.5Y-168.0
X56.5Y-173.5
X57.3Y-73.09
X57.3Y-80.71
X58.0Y-55.89
X58.0Y-63.51
X58.0Y-84.19
X58.0Y-91.81
X58.0Y-117.69
X58.0Y-125.31
X58.0Y-145.39
X58.0Y-153.01
X58.0Y-155.19
X58.0Y-162.81
X58.4Y-132.79
X58.5Y-70.75
X58.5Y-103.9
X59.25Y-47.21
X59.25Y-49.75
X59.25Y-52.29
X59.5Y-93.99
X59.5Y-101.61
X60.2Y-73.09
X60.2Y-80.71
X60.3Y-65.8
X60.3Y-141.4
X61.0Y-84.19
X61.0Y-91.81
X61.0Y-145.39
X61.0Y-153.01
X61.0Y-155.19
X61.0Y-162.81
X61.2Y-112.99
X61.2Y-120.61
X61.2Y-122.89
X61.2Y-130.51
X62.6Y-93.99
X62.6Y-101.61
X63.1Y-60.79
X63.1Y-68.41
X63.1Y-73.09
X63.1Y-80.71
X63.1Y-135.49
X63.1Y-143.11
X63.4Y-132.79
X63.5Y-70.75
X63.5Y-103.9
X63.79Y-121.9
X64.75Y-52.15
X64.75Y-54.69
X64.75Y-57.23
X64.75Y-83.2
X64.75Y-85.74
X64.75Y-88.28
X64.75Y-114.2
X64.75Y-116.74
X64.75Y-119.28
X64.75Y-145.25
X64.75Y-147.79
X64.75Y-150.33
X66.19Y-63.135
X66.19Y-65.675
X66.19Y-68.215
X66.19Y-70.755
X66.19Y-73.295
X66.19Y-75.835
X66.19Y-78.375
X66.19Y-94.135
X66.19Y-96.675
X66.19Y-99.215
X66.19Y-101.755
X66.19Y-104.295
X66.19Y-106.835
X66.19Y-109.375
X66.19Y-125.135
X66.19Y-127.675
X66.19Y-130.215
X66.19Y-132.755
X66.19Y-135.295
X66.19Y-137.835
X66.19Y-140.375
X71.41Y-121.9
X73.81Y-63.135
X73.81Y-65.675
X73.81Y-68.215
X73.81Y-70.755
X73.81Y-73.295
X73.81Y-75.835
X73.81Y-78.375
X73.81Y-94.135
X73.81Y-96.675
X73.81Y-99.215
X73.81Y-101.755
X73.81Y-104.295
X73.81Y-106.835
X73.81Y-109.375
X73.81Y-125.135
X73.81Y-127.675
X73.81Y-130.215
X73.81Y-132.755
X73.81Y-135.295
X73.81Y-137.835
X73.81Y-140.375
X74.0Y-50.89
X74.0Y-58.51
X74.0Y-81.99
X74.0Y-89.61
X74.0Y-112.99
X74.0Y-120.61
X74.0Y-143.99
X74.0Y-151.61
X76.4Y-70.7
X76.4Y-131.9
X76.75Y-96.75
X76.75Y-101.75
X76.9Y-60.79
X76.9Y-68.41
X76.9Y-134.19
X76.9Y-141.81
X77.0Y-72.99
X77.0Y-80.61
X77.0Y-121.99
X77.0Y-129.61
X79.59Y-129.4
X79.69Y-73.2
X80.0Y-58.09
X80.0Y-65.71
X80.0Y-86.59
X80.0Y-94.21
X80.0Y-115.09
X80.0Y-122.71
X80.0Y-143.59
X80.0Y-151.21
X81.4Y-70.7
X81.4Y-131.9
X87.21Y-129.4
X87.31Y-73.2
X112.79Y-73.3
X112.79Y-129.7
X118.25Y-132.2
X118.4Y-70.75
X120.0Y-58.09
X120.0Y-65.71
X120.0Y-86.59
X120.0Y-94.21
X120.0Y-115.09
X120.0Y-122.71
X120.0Y-144.29
X120.0Y-151.91
X120.41Y-73.3
X120.41Y-129.7
X122.9Y-134.49
X122.9Y-142.11
X123.0Y-60.79
X123.0Y-68.41
X123.0Y-73.09
X123.0Y-80.71
X123.0Y-122.29
X123.0Y-129.91
X123.25Y-101.75
X123.25Y-106.75
X123.25Y-132.2
X123.4Y-70.75
X125.45Y-52.22
X125.45Y-54.76
X125.45Y-57.3
X125.45Y-83.22
X125.45Y-85.76
X125.45Y-88.3
X125.45Y-114.22
X125.45Y-116.76
X125.45Y-119.3
X125.45Y-145.22
X125.45Y-147.76
X125.45Y-150.3
X126.1Y-63.135
X126.1Y-65.675
X126.1Y-68.215
X126.1Y-70.755
X126.1Y-73.295
X126.1Y-75.835
X126.1Y-78.375
X126.1Y-94.135
X126.1Y-96.675
X126.1Y-99.215
X126.1Y-101.755
X126.1Y-104.295
X126.1Y-106.835
X126.1Y-109.375
X126.1Y-125.135
X126.1Y-127.675
X126.1Y-130.215
X126.1Y-132.755
X126.1Y-135.295
X126.1Y-137.835
X126.1Y-140.375
X133.7Y-50.89
X133.7Y-58.51
X133.7Y-81.89
X133.7Y-89.51
X133.7Y-112.99
X133.7Y-120.61
X133.7Y-143.99
X133.7Y-151.61
X133.72Y-63.135
X133.72Y-65.675
X133.72Y-68.215
X133.72Y-70.755
X133.72Y-73.295
X133.72Y-75.835
X133.72Y-78.375
X133.72Y-94.135
X133.72Y-96.675
X133.72Y-99.215
X133.72Y-101.755
X133.72Y-104.295
X133.72Y-106.835
X133.72Y-109.375
X133.72Y-125.135
X133.72Y-127.675
X133.72Y-130.215
X133.72Y-132.755
X133.72Y-135.295
X133.72Y-137.835
X133.72Y-140.375
X136.3Y-70.7
X136.4Y-132.8
X136.5Y-101.5
X136.5Y-106.5
X136.8Y-60.79
X136.8Y-68.41
X136.8Y-72.99
X136.8Y-80.61
X136.8Y-112.99
X136.8Y-120.61
X136.8Y-122.89
X136.8Y-130.51
X136.8Y-135.09
X136.8Y-142.71
X138.9Y-145.39
X138.9Y-153.01
X138.9Y-155.19
X138.9Y-162.81
X139.0Y-84.19
X139.0Y-91.81
X139.6Y-60.79
X139.6Y-68.41
X139.7Y-141.4
X139.8Y-72.99
X139.8Y-80.61
X139.8Y-112.99
X139.8Y-120.61
X139.8Y-122.89
X139.8Y-130.51
X140.75Y-47.21
X140.75Y-49.75
X140.75Y-52.29
X141.3Y-70.7
X141.4Y-132.8
X142.0Y-84.19
X142.0Y-91.81
X142.0Y-145.39
X142.0Y-153.01
X142.0Y-155.19
X142.0Y-162.81
X143.5Y-168.0
X143.5Y-173.5
X144.2Y-64.49
X144.2Y-72.11
X144.2Y-74.29
X144.2Y-81.91
X144.2Y-98.09
X144.2Y-105.71
X144.2Y-107.89
X144.2Y-115.51
X144.2Y-131.49
X144.2Y-139.11
X144.7Y-141.4
X146.19Y-45.0
X146.19Y-48.1
X147.3Y-65.635
X147.3Y-68.175
X147.3Y-70.715
X147.3Y-73.255
X147.3Y-75.795
X147.3Y-78.335
X147.3Y-80.875
X147.3Y-99.135
X147.3Y-101.675
X147.3Y-104.215
X147.3Y-106.755
X147.3Y-109.295
X147.3Y-111.835
X147.3Y-114.375
X147.3Y-132.635
X147.3Y-135.175
X147.3Y-137.715
X147.3Y-140.255
X147.3Y-142.795
X147.3Y-145.335
X147.3Y-147.875
X148.5Y-168.0
X148.5Y-173.5
X151.0Y-168.0
X151.0Y-173.5
X153.81Y-45.0
X153.81Y-48.1
X154.92Y-65.635
X154.92Y-68.175
X154.92Y-70.715
X154.92Y-73.255
X154.92Y-75.795
X154.92Y-78.335
X154.92Y-80.875
X154.92Y-99.135
X154.92Y-101.675
X154.92Y-104.215
X154.92Y-106.755
X154.92Y-109.295
X154.92Y-111.835
X154.92Y-114.375
X154.92Y-132.635
X154.92Y-135.175
X154.92Y-137.715
X154.92Y-140.255
X154.92Y-142.795
X154.92Y-145.335
X154.92Y-147.875
X156.0Y-168.0
X156.0Y-173.5
X157.5Y-140.2
X157.7Y-99.1
X157.7Y-104.1
X158.0Y-84.19
X158.0Y-91.81
X158.0Y-107.29
X158.0Y-114.91
X158.0Y-117.69
X158.0Y-125.31
X158.0Y-127.49
X158.0Y-135.11
X158.0Y-142.49
X158.0Y-150.11
X158.0Y-152.29
X158.0Y-159.91
X158.4Y-66.5
X158.4Y-71.5
X159.25Y-47.21
X159.25Y-49.75
X159.25Y-52.29
X159.4Y-74.29
X159.4Y-81.91
X160.69Y-137.2
X160.8Y-142.49
X160.8Y-150.11
X161.09Y-67.8
X161.09Y-115.0
X161.09Y-118.0
X161.1Y-57.59
X161.1Y-65.21
X161.1Y-91.99
X161.1Y-99.61
X161.19Y-102.2
X162.5Y-140.2
X163.34Y-77.9
X163.34Y-81.1
X163.6Y-142.49
X163.6Y-150.11
X163.7Y-59.45
X163.7Y-92.45
X163.7Y-106.7
X163.72Y-63.3
X163.72Y-96.3
X163.72Y-110.55
X164.21Y-73.5
X164.21Y-86.9
X164.21Y-124.5
X164.21Y-131.5
X166.24Y-59.45
X166.24Y-92.45
X166.24Y-106.7
X166.25Y-47.21
X166.25Y-49.75
X166.25Y-52.29
X166.26Y-63.3
X166.26Y-96.3
X166.26Y-110.55
X166.6Y-142.49
X166.6Y-150.11
X166.75Y-73.5
X166.75Y-86.9
X166.75Y-124.5
X166.75Y-131.5
X168.31Y-137.2
X168.71Y-67.8
X168.71Y-115.0
X168.71Y-118.0
X168.78Y-59.45
X168.78Y-92.45
X168.78Y-106.7
X168.8Y-63.3
X168.8Y-96.3
X168.8Y-110.55
X168.81Y-102.2
X169.29Y-73.5
X169.29Y-86.9
X169.29Y-124.5
X169.29Y-131.5
X170.96Y-77.9
X170.96Y-81.1
T4
X68.73Y-54.75
X68.73Y-85.75
X68.73Y-116.75
X68.73Y-147.75
X71.27Y-54.75
X71.27Y-85.75
X71.27Y-116.75
X71.27Y-147.75
X128.48Y-54.75
X128.48Y-85.75
X128.48Y-116.75
X128.48Y-147.75
X131.02Y-54.75
X131.02Y-85.75
X131.02Y-116.75
X131.02Y-147.75
T5
X28.25Y-45.75
X28.25Y-48.29
X28.25Y-50.83
X28.25Y-53.37
X28.25Y-55.91
X28.25Y-58.45
X28.25Y-60.99
X28.25Y-63.53
X28.25Y-66.07
X28.25Y-68.61
X28.25Y-91.75
X28.25Y-94.29
X28.25Y-96.83
X28.25Y-99.37
X28.25Y-101.91
X28.25Y-104.45
X28.25Y-106.99
X28.25Y-109.53
X28.25Y-112.07
X28.25Y-114.61
X28.25Y-137.75
X28.25Y-140.29
X28.25Y-142.83
X28.25Y-145.37
X28.25Y-147.91
X28.25Y-150.45
X28.25Y-152.99
X28.25Y-155.53
X28.25Y-158.07
X28.25Y-160.61
X47.5Y-62.25
X47.5Y-95.75
X47.5Y-129.25
X47.5Y-162.75
X50.0Y-62.25
X50.0Y-95.75
X50.0Y-129.25
X50.0Y-162.75
X52.5Y-62.25
X52.5Y-95.75
X52.5Y-129.25
X52.5Y-162.75
X83.75Y-65.75
X83.75Y-94.25
X83.75Y-122.75
X83.75Y-151.25
X86.25Y-65.75
X86.25Y-94.25
X86.25Y-122.75
X86.25Y-151.25
X88.75Y-65.75
X88.75Y-94.25
X88.75Y-122.75
X88.75Y-151.25
X91.25Y-65.75
X91.25Y-94.25
X91.25Y-122.75
X91.25Y-151.25
X93.65Y-156.0
X96.19Y-156.0
X98.73Y-156.0
X101.27Y-156.0
X103.81Y-156.0
X106.35Y-156.0
X108.75Y-65.75
X108.75Y-94.25
X108.75Y-122.75
X108.75Y-151.25
X111.25Y-65.75
X111.25Y-94.25
X111.25Y-122.75
X111.25Y-151.25
X113.75Y-65.75
X113.75Y-94.25
X113.75Y-122.75
X113.75Y-151.25
X116.25Y-65.75
X116.25Y-94.25
X116.25Y-122.75
X116.25Y-151.25
X147.5Y-62.25
X147.5Y-95.75
X147.5Y-129.25
X147.5Y-162.75
X150.0Y-62.25
X150.0Y-95.75
X150.0Y-129.25
X150.0Y-162.75
X152.5Y-62.25
X152.5Y-95.75
X152.5Y-129.25
X152.5Y-162.75
X171.75Y-45.75
X171.75Y-48.29
X171.75Y-50.83
X171.75Y-53.37
X171.75Y-55.91
X171.75Y-58.45
X171.75Y-60.99
X171.75Y-63.53
X171.75Y-66.07
X171.75Y-68.61
X171.75Y-91.75
X171.75Y-94.29
X171.75Y-96.83
X171.75Y-99.37
X171.75Y-101.91
X171.75Y-104.45
X171.75Y-106.99
X171.75Y-109.53
X171.75Y-112.07
X171.75Y-114.61
X171.75Y-137.75
X171.75Y-140.29
X171.75Y-142.83
X171.75Y-145.37
X171.75Y-147.91
X171.75Y-150.45
X171.75Y-152.99
X171.75Y-155.53
X171.75Y-158.07
X171.75Y-160.61
T7
X67.587Y-163.8
X67.587Y-168.5
X67.587Y-173.2
X72.413Y-163.8
X72.413Y-168.5
X72.413Y-173.2
X82.587Y-163.8
X82.587Y-168.5
X82.587Y-173.2
X87.413Y-163.8
X87.413Y-168.5
X87.413Y-173.2
X100.0Y-163.8
X100.0Y-168.5
X100.0Y-173.2
X112.587Y-163.8
X112.587Y-168.5
X112.587Y-173.2
X117.413Y-163.8
X117.413Y-168.5
X117.413Y-173.2
X127.587Y-163.8
X127.587Y-168.5
X127.587Y-173.2
X132.413Y-163.8
X132.413Y-168.5
X132.413Y-173.2
T6
X45.2Y-55.1G85X45.2Y-54.4
G05
X45.2Y-88.6G85X45.2Y-87.9
G05
X45.2Y-122.1G85X45.2Y-121.4
G05
X45.2Y-155.6G85X45.2Y-154.9
G05
X54.8Y-55.1G85X54.8Y-54.4
G05
X54.8Y-88.6G85X54.8Y-87.9
G05
X54.8Y-122.1G85X54.8Y-121.4
G05
X54.8Y-155.6G85X54.8Y-154.9
G05
X145.2Y-55.1G85X145.2Y-54.4
G05
X145.2Y-88.6G85X145.2Y-87.9
G05
X145.2Y-122.1G85X145.2Y-121.4
G05
X145.2Y-155.6G85X145.2Y-154.9
G05
X154.8Y-55.1G85X154.8Y-54.4
G05
X154.8Y-88.6G85X154.8Y-87.9
G05
X154.8Y-122.1G85X154.8Y-121.4
G05
X154.8Y-155.6G85X154.8Y-154.9
G05
T8
X81.7Y-54.65G85X81.7Y-54.85
G05
X81.7Y-83.15G85X81.7Y-83.35
G05
X81.7Y-111.65G85X81.7Y-111.85
G05
X81.7Y-140.15G85X81.7Y-140.35
G05
X93.3Y-54.65G85X93.3Y-54.85
G05
X93.3Y-83.15G85X93.3Y-83.35
G05
X93.3Y-111.65G85X93.3Y-111.85
G05
X93.3Y-140.15G85X93.3Y-140.35
G05
X106.7Y-54.65G85X106.7Y-54.85
G05
X106.7Y-83.15G85X106.7Y-83.35
G05
X106.7Y-111.65G85X106.7Y-111.85
G05
X106.7Y-140.15G85X106.7Y-140.35
G05
X118.3Y-54.65G85X118.3Y-54.85
G05
X118.3Y-83.15G85X118.3Y-83.35
G05
X118.3Y-111.65G85X118.3Y-111.85
G05
X118.3Y-140.15G85X118.3Y-140.35
G05
M30
