%TF.GenerationSoftware,KiCad,Pcbnew,9.0.4*%
%TF.CreationDate,2025-10-04T20:02:18+02:00*%
%TF.ProjectId,DMH_VCEG_PCB_2,444d485f-5643-4454-975f-5043425f322e,1*%
%TF.SameCoordinates,Original*%
%TF.FileFunction,Legend,Bot*%
%TF.FilePolarity,Positive*%
%FSLAX46Y46*%
G04 Gerber Fmt 4.6, Leading zero omitted, Abs format (unit mm)*
G04 Created by KiCad (PCBNEW 9.0.4) date 2025-10-04 20:02:18*
%MOMM*%
%LPD*%
G01*
G04 APERTURE LIST*
G04 Aperture macros list*
%AMRoundRect*
0 Rectangle with rounded corners*
0 $1 Rounding radius*
0 $2 $3 $4 $5 $6 $7 $8 $9 X,Y pos of 4 corners*
0 Add a 4 corners polygon primitive as box body*
4,1,4,$2,$3,$4,$5,$6,$7,$8,$9,$2,$3,0*
0 Add four circle primitives for the rounded corners*
1,1,$1+$1,$2,$3*
1,1,$1+$1,$4,$5*
1,1,$1+$1,$6,$7*
1,1,$1+$1,$8,$9*
0 Add four rect primitives between the rounded corners*
20,1,$1+$1,$2,$3,$4,$5,0*
20,1,$1+$1,$4,$5,$6,$7,0*
20,1,$1+$1,$6,$7,$8,$9,0*
20,1,$1+$1,$8,$9,$2,$3,0*%
G04 Aperture macros list end*
%ADD10C,0.100000*%
%ADD11C,0.250000*%
%ADD12C,0.150000*%
%ADD13C,0.120000*%
%ADD14C,1.600000*%
%ADD15C,2.800000*%
%ADD16R,1.500000X1.500000*%
%ADD17C,1.500000*%
%ADD18C,1.440000*%
%ADD19RoundRect,0.250000X-0.550000X-0.550000X0.550000X-0.550000X0.550000X0.550000X-0.550000X0.550000X0*%
%ADD20O,2.720000X3.240000*%
%ADD21R,1.800000X1.800000*%
%ADD22C,1.800000*%
%ADD23RoundRect,0.250000X0.350000X0.350000X-0.350000X0.350000X-0.350000X-0.350000X0.350000X-0.350000X0*%
%ADD24C,1.200000*%
%ADD25O,4.000000X4.200000*%
%ADD26RoundRect,0.250000X0.550000X-0.550000X0.550000X0.550000X-0.550000X0.550000X-0.550000X-0.550000X0*%
%ADD27RoundRect,0.250000X-0.550000X0.550000X-0.550000X-0.550000X0.550000X-0.550000X0.550000X0.550000X0*%
%ADD28RoundRect,0.250000X0.550000X0.550000X-0.550000X0.550000X-0.550000X-0.550000X0.550000X-0.550000X0*%
%ADD29R,1.700000X1.700000*%
%ADD30C,1.700000*%
G04 APERTURE END LIST*
D10*
X95000000Y-176750000D02*
X105000000Y-176750000D01*
X105000000Y-178750000D01*
X95000000Y-178750000D01*
X95000000Y-176750000D01*
G36*
X95000000Y-176750000D02*
G01*
X105000000Y-176750000D01*
X105000000Y-178750000D01*
X95000000Y-178750000D01*
X95000000Y-176750000D01*
G37*
D11*
X108476190Y-180699619D02*
X108476190Y-179699619D01*
X108476190Y-179699619D02*
X108142857Y-180413904D01*
X108142857Y-180413904D02*
X107809524Y-179699619D01*
X107809524Y-179699619D02*
X107809524Y-180699619D01*
X107333333Y-180699619D02*
X107333333Y-179699619D01*
X107238095Y-180318666D02*
X106952381Y-180699619D01*
X106952381Y-180032952D02*
X107333333Y-180413904D01*
X106000000Y-180699619D02*
X106571428Y-180699619D01*
X106285714Y-180699619D02*
X106285714Y-179699619D01*
X106285714Y-179699619D02*
X106380952Y-179842476D01*
X106380952Y-179842476D02*
X106476190Y-179937714D01*
X106476190Y-179937714D02*
X106571428Y-179985333D01*
X105571428Y-180604380D02*
X105523809Y-180652000D01*
X105523809Y-180652000D02*
X105571428Y-180699619D01*
X105571428Y-180699619D02*
X105619047Y-180652000D01*
X105619047Y-180652000D02*
X105571428Y-180604380D01*
X105571428Y-180604380D02*
X105571428Y-180699619D01*
X104904762Y-179699619D02*
X104809524Y-179699619D01*
X104809524Y-179699619D02*
X104714286Y-179747238D01*
X104714286Y-179747238D02*
X104666667Y-179794857D01*
X104666667Y-179794857D02*
X104619048Y-179890095D01*
X104619048Y-179890095D02*
X104571429Y-180080571D01*
X104571429Y-180080571D02*
X104571429Y-180318666D01*
X104571429Y-180318666D02*
X104619048Y-180509142D01*
X104619048Y-180509142D02*
X104666667Y-180604380D01*
X104666667Y-180604380D02*
X104714286Y-180652000D01*
X104714286Y-180652000D02*
X104809524Y-180699619D01*
X104809524Y-180699619D02*
X104904762Y-180699619D01*
X104904762Y-180699619D02*
X105000000Y-180652000D01*
X105000000Y-180652000D02*
X105047619Y-180604380D01*
X105047619Y-180604380D02*
X105095238Y-180509142D01*
X105095238Y-180509142D02*
X105142857Y-180318666D01*
X105142857Y-180318666D02*
X105142857Y-180080571D01*
X105142857Y-180080571D02*
X105095238Y-179890095D01*
X105095238Y-179890095D02*
X105047619Y-179794857D01*
X105047619Y-179794857D02*
X105000000Y-179747238D01*
X105000000Y-179747238D02*
X104904762Y-179699619D01*
X103380952Y-180318666D02*
X102619048Y-180318666D01*
X101190476Y-179699619D02*
X101000000Y-179699619D01*
X101000000Y-179699619D02*
X100904762Y-179747238D01*
X100904762Y-179747238D02*
X100809524Y-179842476D01*
X100809524Y-179842476D02*
X100761905Y-180032952D01*
X100761905Y-180032952D02*
X100761905Y-180366285D01*
X100761905Y-180366285D02*
X100809524Y-180556761D01*
X100809524Y-180556761D02*
X100904762Y-180652000D01*
X100904762Y-180652000D02*
X101000000Y-180699619D01*
X101000000Y-180699619D02*
X101190476Y-180699619D01*
X101190476Y-180699619D02*
X101285714Y-180652000D01*
X101285714Y-180652000D02*
X101380952Y-180556761D01*
X101380952Y-180556761D02*
X101428571Y-180366285D01*
X101428571Y-180366285D02*
X101428571Y-180032952D01*
X101428571Y-180032952D02*
X101380952Y-179842476D01*
X101380952Y-179842476D02*
X101285714Y-179747238D01*
X101285714Y-179747238D02*
X101190476Y-179699619D01*
X99904762Y-180652000D02*
X100000000Y-180699619D01*
X100000000Y-180699619D02*
X100190476Y-180699619D01*
X100190476Y-180699619D02*
X100285714Y-180652000D01*
X100285714Y-180652000D02*
X100333333Y-180604380D01*
X100333333Y-180604380D02*
X100380952Y-180509142D01*
X100380952Y-180509142D02*
X100380952Y-180223428D01*
X100380952Y-180223428D02*
X100333333Y-180128190D01*
X100333333Y-180128190D02*
X100285714Y-180080571D01*
X100285714Y-180080571D02*
X100190476Y-180032952D01*
X100190476Y-180032952D02*
X100000000Y-180032952D01*
X100000000Y-180032952D02*
X99904762Y-180080571D01*
X99619047Y-180032952D02*
X99238095Y-180032952D01*
X99476190Y-179699619D02*
X99476190Y-180556761D01*
X99476190Y-180556761D02*
X99428571Y-180652000D01*
X99428571Y-180652000D02*
X99333333Y-180699619D01*
X99333333Y-180699619D02*
X99238095Y-180699619D01*
X98761904Y-180699619D02*
X98857142Y-180652000D01*
X98857142Y-180652000D02*
X98904761Y-180604380D01*
X98904761Y-180604380D02*
X98952380Y-180509142D01*
X98952380Y-180509142D02*
X98952380Y-180223428D01*
X98952380Y-180223428D02*
X98904761Y-180128190D01*
X98904761Y-180128190D02*
X98857142Y-180080571D01*
X98857142Y-180080571D02*
X98761904Y-180032952D01*
X98761904Y-180032952D02*
X98619047Y-180032952D01*
X98619047Y-180032952D02*
X98523809Y-180080571D01*
X98523809Y-180080571D02*
X98476190Y-180128190D01*
X98476190Y-180128190D02*
X98428571Y-180223428D01*
X98428571Y-180223428D02*
X98428571Y-180509142D01*
X98428571Y-180509142D02*
X98476190Y-180604380D01*
X98476190Y-180604380D02*
X98523809Y-180652000D01*
X98523809Y-180652000D02*
X98619047Y-180699619D01*
X98619047Y-180699619D02*
X98761904Y-180699619D01*
X97999999Y-180699619D02*
X97999999Y-179699619D01*
X97999999Y-180080571D02*
X97904761Y-180032952D01*
X97904761Y-180032952D02*
X97714285Y-180032952D01*
X97714285Y-180032952D02*
X97619047Y-180080571D01*
X97619047Y-180080571D02*
X97571428Y-180128190D01*
X97571428Y-180128190D02*
X97523809Y-180223428D01*
X97523809Y-180223428D02*
X97523809Y-180509142D01*
X97523809Y-180509142D02*
X97571428Y-180604380D01*
X97571428Y-180604380D02*
X97619047Y-180652000D01*
X97619047Y-180652000D02*
X97714285Y-180699619D01*
X97714285Y-180699619D02*
X97904761Y-180699619D01*
X97904761Y-180699619D02*
X97999999Y-180652000D01*
X96714285Y-180652000D02*
X96809523Y-180699619D01*
X96809523Y-180699619D02*
X96999999Y-180699619D01*
X96999999Y-180699619D02*
X97095237Y-180652000D01*
X97095237Y-180652000D02*
X97142856Y-180556761D01*
X97142856Y-180556761D02*
X97142856Y-180175809D01*
X97142856Y-180175809D02*
X97095237Y-180080571D01*
X97095237Y-180080571D02*
X96999999Y-180032952D01*
X96999999Y-180032952D02*
X96809523Y-180032952D01*
X96809523Y-180032952D02*
X96714285Y-180080571D01*
X96714285Y-180080571D02*
X96666666Y-180175809D01*
X96666666Y-180175809D02*
X96666666Y-180271047D01*
X96666666Y-180271047D02*
X97142856Y-180366285D01*
X96238094Y-180699619D02*
X96238094Y-180032952D01*
X96238094Y-180223428D02*
X96190475Y-180128190D01*
X96190475Y-180128190D02*
X96142856Y-180080571D01*
X96142856Y-180080571D02*
X96047618Y-180032952D01*
X96047618Y-180032952D02*
X95952380Y-180032952D01*
X94904760Y-179794857D02*
X94857141Y-179747238D01*
X94857141Y-179747238D02*
X94761903Y-179699619D01*
X94761903Y-179699619D02*
X94523808Y-179699619D01*
X94523808Y-179699619D02*
X94428570Y-179747238D01*
X94428570Y-179747238D02*
X94380951Y-179794857D01*
X94380951Y-179794857D02*
X94333332Y-179890095D01*
X94333332Y-179890095D02*
X94333332Y-179985333D01*
X94333332Y-179985333D02*
X94380951Y-180128190D01*
X94380951Y-180128190D02*
X94952379Y-180699619D01*
X94952379Y-180699619D02*
X94333332Y-180699619D01*
X93714284Y-179699619D02*
X93619046Y-179699619D01*
X93619046Y-179699619D02*
X93523808Y-179747238D01*
X93523808Y-179747238D02*
X93476189Y-179794857D01*
X93476189Y-179794857D02*
X93428570Y-179890095D01*
X93428570Y-179890095D02*
X93380951Y-180080571D01*
X93380951Y-180080571D02*
X93380951Y-180318666D01*
X93380951Y-180318666D02*
X93428570Y-180509142D01*
X93428570Y-180509142D02*
X93476189Y-180604380D01*
X93476189Y-180604380D02*
X93523808Y-180652000D01*
X93523808Y-180652000D02*
X93619046Y-180699619D01*
X93619046Y-180699619D02*
X93714284Y-180699619D01*
X93714284Y-180699619D02*
X93809522Y-180652000D01*
X93809522Y-180652000D02*
X93857141Y-180604380D01*
X93857141Y-180604380D02*
X93904760Y-180509142D01*
X93904760Y-180509142D02*
X93952379Y-180318666D01*
X93952379Y-180318666D02*
X93952379Y-180080571D01*
X93952379Y-180080571D02*
X93904760Y-179890095D01*
X93904760Y-179890095D02*
X93857141Y-179794857D01*
X93857141Y-179794857D02*
X93809522Y-179747238D01*
X93809522Y-179747238D02*
X93714284Y-179699619D01*
X92999998Y-179794857D02*
X92952379Y-179747238D01*
X92952379Y-179747238D02*
X92857141Y-179699619D01*
X92857141Y-179699619D02*
X92619046Y-179699619D01*
X92619046Y-179699619D02*
X92523808Y-179747238D01*
X92523808Y-179747238D02*
X92476189Y-179794857D01*
X92476189Y-179794857D02*
X92428570Y-179890095D01*
X92428570Y-179890095D02*
X92428570Y-179985333D01*
X92428570Y-179985333D02*
X92476189Y-180128190D01*
X92476189Y-180128190D02*
X93047617Y-180699619D01*
X93047617Y-180699619D02*
X92428570Y-180699619D01*
X91523808Y-179699619D02*
X91999998Y-179699619D01*
X91999998Y-179699619D02*
X92047617Y-180175809D01*
X92047617Y-180175809D02*
X91999998Y-180128190D01*
X91999998Y-180128190D02*
X91904760Y-180080571D01*
X91904760Y-180080571D02*
X91666665Y-180080571D01*
X91666665Y-180080571D02*
X91571427Y-180128190D01*
X91571427Y-180128190D02*
X91523808Y-180175809D01*
X91523808Y-180175809D02*
X91476189Y-180271047D01*
X91476189Y-180271047D02*
X91476189Y-180509142D01*
X91476189Y-180509142D02*
X91523808Y-180604380D01*
X91523808Y-180604380D02*
X91571427Y-180652000D01*
X91571427Y-180652000D02*
X91666665Y-180699619D01*
X91666665Y-180699619D02*
X91904760Y-180699619D01*
X91904760Y-180699619D02*
X91999998Y-180652000D01*
X91999998Y-180652000D02*
X92047617Y-180604380D01*
D12*
X90334819Y-155190476D02*
X91049104Y-155190476D01*
X91049104Y-155190476D02*
X91191961Y-155142857D01*
X91191961Y-155142857D02*
X91287200Y-155047619D01*
X91287200Y-155047619D02*
X91334819Y-154904762D01*
X91334819Y-154904762D02*
X91334819Y-154809524D01*
X90430057Y-155619048D02*
X90382438Y-155666667D01*
X90382438Y-155666667D02*
X90334819Y-155761905D01*
X90334819Y-155761905D02*
X90334819Y-156000000D01*
X90334819Y-156000000D02*
X90382438Y-156095238D01*
X90382438Y-156095238D02*
X90430057Y-156142857D01*
X90430057Y-156142857D02*
X90525295Y-156190476D01*
X90525295Y-156190476D02*
X90620533Y-156190476D01*
X90620533Y-156190476D02*
X90763390Y-156142857D01*
X90763390Y-156142857D02*
X91334819Y-155571429D01*
X91334819Y-155571429D02*
X91334819Y-156190476D01*
X90668152Y-157047619D02*
X91334819Y-157047619D01*
X90287200Y-156809524D02*
X91001485Y-156571429D01*
X91001485Y-156571429D02*
X91001485Y-157190476D01*
X29009523Y-42954819D02*
X29009523Y-43669104D01*
X29009523Y-43669104D02*
X29057142Y-43811961D01*
X29057142Y-43811961D02*
X29152380Y-43907200D01*
X29152380Y-43907200D02*
X29295237Y-43954819D01*
X29295237Y-43954819D02*
X29390475Y-43954819D01*
X28580951Y-43050057D02*
X28533332Y-43002438D01*
X28533332Y-43002438D02*
X28438094Y-42954819D01*
X28438094Y-42954819D02*
X28199999Y-42954819D01*
X28199999Y-42954819D02*
X28104761Y-43002438D01*
X28104761Y-43002438D02*
X28057142Y-43050057D01*
X28057142Y-43050057D02*
X28009523Y-43145295D01*
X28009523Y-43145295D02*
X28009523Y-43240533D01*
X28009523Y-43240533D02*
X28057142Y-43383390D01*
X28057142Y-43383390D02*
X28628570Y-43954819D01*
X28628570Y-43954819D02*
X28009523Y-43954819D01*
X27057142Y-43954819D02*
X27628570Y-43954819D01*
X27342856Y-43954819D02*
X27342856Y-42954819D01*
X27342856Y-42954819D02*
X27438094Y-43097676D01*
X27438094Y-43097676D02*
X27533332Y-43192914D01*
X27533332Y-43192914D02*
X27628570Y-43240533D01*
X172559523Y-134954819D02*
X172559523Y-135669104D01*
X172559523Y-135669104D02*
X172607142Y-135811961D01*
X172607142Y-135811961D02*
X172702380Y-135907200D01*
X172702380Y-135907200D02*
X172845237Y-135954819D01*
X172845237Y-135954819D02*
X172940475Y-135954819D01*
X172130951Y-135050057D02*
X172083332Y-135002438D01*
X172083332Y-135002438D02*
X171988094Y-134954819D01*
X171988094Y-134954819D02*
X171749999Y-134954819D01*
X171749999Y-134954819D02*
X171654761Y-135002438D01*
X171654761Y-135002438D02*
X171607142Y-135050057D01*
X171607142Y-135050057D02*
X171559523Y-135145295D01*
X171559523Y-135145295D02*
X171559523Y-135240533D01*
X171559523Y-135240533D02*
X171607142Y-135383390D01*
X171607142Y-135383390D02*
X172178570Y-135954819D01*
X172178570Y-135954819D02*
X171559523Y-135954819D01*
X171226189Y-134954819D02*
X170559523Y-134954819D01*
X170559523Y-134954819D02*
X170988094Y-135954819D01*
X29059523Y-134954819D02*
X29059523Y-135669104D01*
X29059523Y-135669104D02*
X29107142Y-135811961D01*
X29107142Y-135811961D02*
X29202380Y-135907200D01*
X29202380Y-135907200D02*
X29345237Y-135954819D01*
X29345237Y-135954819D02*
X29440475Y-135954819D01*
X28630951Y-135050057D02*
X28583332Y-135002438D01*
X28583332Y-135002438D02*
X28488094Y-134954819D01*
X28488094Y-134954819D02*
X28249999Y-134954819D01*
X28249999Y-134954819D02*
X28154761Y-135002438D01*
X28154761Y-135002438D02*
X28107142Y-135050057D01*
X28107142Y-135050057D02*
X28059523Y-135145295D01*
X28059523Y-135145295D02*
X28059523Y-135240533D01*
X28059523Y-135240533D02*
X28107142Y-135383390D01*
X28107142Y-135383390D02*
X28678570Y-135954819D01*
X28678570Y-135954819D02*
X28059523Y-135954819D01*
X27726189Y-134954819D02*
X27107142Y-134954819D01*
X27107142Y-134954819D02*
X27440475Y-135335771D01*
X27440475Y-135335771D02*
X27297618Y-135335771D01*
X27297618Y-135335771D02*
X27202380Y-135383390D01*
X27202380Y-135383390D02*
X27154761Y-135431009D01*
X27154761Y-135431009D02*
X27107142Y-135526247D01*
X27107142Y-135526247D02*
X27107142Y-135764342D01*
X27107142Y-135764342D02*
X27154761Y-135859580D01*
X27154761Y-135859580D02*
X27202380Y-135907200D01*
X27202380Y-135907200D02*
X27297618Y-135954819D01*
X27297618Y-135954819D02*
X27583332Y-135954819D01*
X27583332Y-135954819D02*
X27678570Y-135907200D01*
X27678570Y-135907200D02*
X27726189Y-135859580D01*
X172154819Y-88090476D02*
X172869104Y-88090476D01*
X172869104Y-88090476D02*
X173011961Y-88042857D01*
X173011961Y-88042857D02*
X173107200Y-87947619D01*
X173107200Y-87947619D02*
X173154819Y-87804762D01*
X173154819Y-87804762D02*
X173154819Y-87709524D01*
X172250057Y-88519048D02*
X172202438Y-88566667D01*
X172202438Y-88566667D02*
X172154819Y-88661905D01*
X172154819Y-88661905D02*
X172154819Y-88900000D01*
X172154819Y-88900000D02*
X172202438Y-88995238D01*
X172202438Y-88995238D02*
X172250057Y-89042857D01*
X172250057Y-89042857D02*
X172345295Y-89090476D01*
X172345295Y-89090476D02*
X172440533Y-89090476D01*
X172440533Y-89090476D02*
X172583390Y-89042857D01*
X172583390Y-89042857D02*
X173154819Y-88471429D01*
X173154819Y-88471429D02*
X173154819Y-89090476D01*
X172154819Y-89947619D02*
X172154819Y-89757143D01*
X172154819Y-89757143D02*
X172202438Y-89661905D01*
X172202438Y-89661905D02*
X172250057Y-89614286D01*
X172250057Y-89614286D02*
X172392914Y-89519048D01*
X172392914Y-89519048D02*
X172583390Y-89471429D01*
X172583390Y-89471429D02*
X172964342Y-89471429D01*
X172964342Y-89471429D02*
X173059580Y-89519048D01*
X173059580Y-89519048D02*
X173107200Y-89566667D01*
X173107200Y-89566667D02*
X173154819Y-89661905D01*
X173154819Y-89661905D02*
X173154819Y-89852381D01*
X173154819Y-89852381D02*
X173107200Y-89947619D01*
X173107200Y-89947619D02*
X173059580Y-89995238D01*
X173059580Y-89995238D02*
X172964342Y-90042857D01*
X172964342Y-90042857D02*
X172726247Y-90042857D01*
X172726247Y-90042857D02*
X172631009Y-89995238D01*
X172631009Y-89995238D02*
X172583390Y-89947619D01*
X172583390Y-89947619D02*
X172535771Y-89852381D01*
X172535771Y-89852381D02*
X172535771Y-89661905D01*
X172535771Y-89661905D02*
X172583390Y-89566667D01*
X172583390Y-89566667D02*
X172631009Y-89519048D01*
X172631009Y-89519048D02*
X172726247Y-89471429D01*
X29059523Y-88954819D02*
X29059523Y-89669104D01*
X29059523Y-89669104D02*
X29107142Y-89811961D01*
X29107142Y-89811961D02*
X29202380Y-89907200D01*
X29202380Y-89907200D02*
X29345237Y-89954819D01*
X29345237Y-89954819D02*
X29440475Y-89954819D01*
X28630951Y-89050057D02*
X28583332Y-89002438D01*
X28583332Y-89002438D02*
X28488094Y-88954819D01*
X28488094Y-88954819D02*
X28249999Y-88954819D01*
X28249999Y-88954819D02*
X28154761Y-89002438D01*
X28154761Y-89002438D02*
X28107142Y-89050057D01*
X28107142Y-89050057D02*
X28059523Y-89145295D01*
X28059523Y-89145295D02*
X28059523Y-89240533D01*
X28059523Y-89240533D02*
X28107142Y-89383390D01*
X28107142Y-89383390D02*
X28678570Y-89954819D01*
X28678570Y-89954819D02*
X28059523Y-89954819D01*
X27678570Y-89050057D02*
X27630951Y-89002438D01*
X27630951Y-89002438D02*
X27535713Y-88954819D01*
X27535713Y-88954819D02*
X27297618Y-88954819D01*
X27297618Y-88954819D02*
X27202380Y-89002438D01*
X27202380Y-89002438D02*
X27154761Y-89050057D01*
X27154761Y-89050057D02*
X27107142Y-89145295D01*
X27107142Y-89145295D02*
X27107142Y-89240533D01*
X27107142Y-89240533D02*
X27154761Y-89383390D01*
X27154761Y-89383390D02*
X27726189Y-89954819D01*
X27726189Y-89954819D02*
X27107142Y-89954819D01*
X172509523Y-42954819D02*
X172509523Y-43669104D01*
X172509523Y-43669104D02*
X172557142Y-43811961D01*
X172557142Y-43811961D02*
X172652380Y-43907200D01*
X172652380Y-43907200D02*
X172795237Y-43954819D01*
X172795237Y-43954819D02*
X172890475Y-43954819D01*
X172080951Y-43050057D02*
X172033332Y-43002438D01*
X172033332Y-43002438D02*
X171938094Y-42954819D01*
X171938094Y-42954819D02*
X171699999Y-42954819D01*
X171699999Y-42954819D02*
X171604761Y-43002438D01*
X171604761Y-43002438D02*
X171557142Y-43050057D01*
X171557142Y-43050057D02*
X171509523Y-43145295D01*
X171509523Y-43145295D02*
X171509523Y-43240533D01*
X171509523Y-43240533D02*
X171557142Y-43383390D01*
X171557142Y-43383390D02*
X172128570Y-43954819D01*
X172128570Y-43954819D02*
X171509523Y-43954819D01*
X170604761Y-42954819D02*
X171080951Y-42954819D01*
X171080951Y-42954819D02*
X171128570Y-43431009D01*
X171128570Y-43431009D02*
X171080951Y-43383390D01*
X171080951Y-43383390D02*
X170985713Y-43335771D01*
X170985713Y-43335771D02*
X170747618Y-43335771D01*
X170747618Y-43335771D02*
X170652380Y-43383390D01*
X170652380Y-43383390D02*
X170604761Y-43431009D01*
X170604761Y-43431009D02*
X170557142Y-43526247D01*
X170557142Y-43526247D02*
X170557142Y-43764342D01*
X170557142Y-43764342D02*
X170604761Y-43859580D01*
X170604761Y-43859580D02*
X170652380Y-43907200D01*
X170652380Y-43907200D02*
X170747618Y-43954819D01*
X170747618Y-43954819D02*
X170985713Y-43954819D01*
X170985713Y-43954819D02*
X171080951Y-43907200D01*
X171080951Y-43907200D02*
X171128570Y-43859580D01*
D13*
%TO.C,J24*%
X92320000Y-156000000D02*
X92320000Y-157330000D01*
X92320000Y-157330000D02*
X93650000Y-157330000D01*
X94920000Y-154670000D02*
X94920000Y-157330000D01*
X94920000Y-154670000D02*
X107680000Y-154670000D01*
X94920000Y-157330000D02*
X107680000Y-157330000D01*
X107680000Y-154670000D02*
X107680000Y-157330000D01*
%TO.C,J21*%
X26920000Y-44420000D02*
X26920000Y-45750000D01*
X26920000Y-47020000D02*
X26920000Y-69940000D01*
X28250000Y-44420000D02*
X26920000Y-44420000D01*
X29580000Y-47020000D02*
X26920000Y-47020000D01*
X29580000Y-47020000D02*
X29580000Y-69940000D01*
X29580000Y-69940000D02*
X26920000Y-69940000D01*
%TO.C,J27*%
X170420000Y-136420000D02*
X170420000Y-137750000D01*
X170420000Y-139020000D02*
X170420000Y-161940000D01*
X171750000Y-136420000D02*
X170420000Y-136420000D01*
X173080000Y-139020000D02*
X170420000Y-139020000D01*
X173080000Y-139020000D02*
X173080000Y-161940000D01*
X173080000Y-161940000D02*
X170420000Y-161940000D01*
%TO.C,J23*%
X26920000Y-136420000D02*
X26920000Y-137750000D01*
X26920000Y-139020000D02*
X26920000Y-161940000D01*
X28250000Y-136420000D02*
X26920000Y-136420000D01*
X29580000Y-139020000D02*
X26920000Y-139020000D01*
X29580000Y-139020000D02*
X29580000Y-161940000D01*
X29580000Y-161940000D02*
X26920000Y-161940000D01*
%TO.C,J26*%
X170420000Y-90420000D02*
X170420000Y-91750000D01*
X170420000Y-93020000D02*
X170420000Y-115940000D01*
X171750000Y-90420000D02*
X170420000Y-90420000D01*
X173080000Y-93020000D02*
X170420000Y-93020000D01*
X173080000Y-93020000D02*
X173080000Y-115940000D01*
X173080000Y-115940000D02*
X170420000Y-115940000D01*
%TO.C,J22*%
X26920000Y-90420000D02*
X26920000Y-91750000D01*
X26920000Y-93020000D02*
X26920000Y-115940000D01*
X28250000Y-90420000D02*
X26920000Y-90420000D01*
X29580000Y-93020000D02*
X26920000Y-93020000D01*
X29580000Y-93020000D02*
X29580000Y-115940000D01*
X29580000Y-115940000D02*
X26920000Y-115940000D01*
%TO.C,J25*%
X170420000Y-44420000D02*
X170420000Y-45750000D01*
X170420000Y-47020000D02*
X170420000Y-69940000D01*
X171750000Y-44420000D02*
X170420000Y-44420000D01*
X173080000Y-47020000D02*
X170420000Y-47020000D01*
X173080000Y-47020000D02*
X173080000Y-69940000D01*
X173080000Y-69940000D02*
X170420000Y-69940000D01*
%TD*%
%LPC*%
D14*
%TO.C,R149*%
X136800000Y-72990000D03*
X136800000Y-80610000D03*
%TD*%
%TO.C,R50*%
X63100000Y-68410000D03*
X63100000Y-60790000D03*
%TD*%
D15*
%TO.C,SW4*%
X117413000Y-163800000D03*
X117413000Y-168500000D03*
X117413000Y-173200000D03*
X112587000Y-163800000D03*
X112587000Y-168500000D03*
X112587000Y-173200000D03*
%TD*%
D14*
%TO.C,R11*%
X144200000Y-115510000D03*
X144200000Y-107890000D03*
%TD*%
%TO.C,C35*%
X141300000Y-70700000D03*
X136300000Y-70700000D03*
%TD*%
%TO.C,R65*%
X42000000Y-84190000D03*
X42000000Y-91810000D03*
%TD*%
%TO.C,R145*%
X144200000Y-74290000D03*
X144200000Y-81910000D03*
%TD*%
D16*
%TO.C,Q10*%
X64750000Y-145250000D03*
D17*
X64750000Y-147790000D03*
X64750000Y-150330000D03*
%TD*%
D14*
%TO.C,R29*%
X74000000Y-120610000D03*
X74000000Y-112990000D03*
%TD*%
%TO.C,C26*%
X158400000Y-66500000D03*
X158400000Y-71500000D03*
%TD*%
D16*
%TO.C,Q15*%
X31250000Y-105200000D03*
D17*
X33790000Y-105200000D03*
X36330000Y-105200000D03*
%TD*%
D18*
%TO.C,RV11*%
X40750000Y-52290000D03*
X40750000Y-49750000D03*
X40750000Y-47210000D03*
%TD*%
D16*
%TO.C,Q11*%
X31260000Y-59400000D03*
D17*
X33800000Y-59400000D03*
X36340000Y-59400000D03*
%TD*%
D16*
%TO.C,Q27*%
X168800000Y-63300000D03*
D17*
X166260000Y-63300000D03*
X163720000Y-63300000D03*
%TD*%
D14*
%TO.C,R187*%
X161100000Y-91990000D03*
X161100000Y-99610000D03*
%TD*%
%TO.C,R158*%
X142000000Y-145390000D03*
X142000000Y-153010000D03*
%TD*%
%TO.C,R80*%
X39410000Y-134500000D03*
X31790000Y-134500000D03*
%TD*%
D19*
%TO.C,U21*%
X66190000Y-94135000D03*
D14*
X66190000Y-96675000D03*
X66190000Y-99215000D03*
X66190000Y-101755000D03*
X66190000Y-104295000D03*
X66190000Y-106835000D03*
X66190000Y-109375000D03*
X73810000Y-109375000D03*
X73810000Y-106835000D03*
X73810000Y-104295000D03*
X73810000Y-101755000D03*
X73810000Y-99215000D03*
X73810000Y-96675000D03*
X73810000Y-94135000D03*
%TD*%
D16*
%TO.C,Q16*%
X36350000Y-109000000D03*
D17*
X33810000Y-109000000D03*
X31270000Y-109000000D03*
%TD*%
D14*
%TO.C,R70*%
X61200000Y-122890000D03*
X61200000Y-130510000D03*
%TD*%
%TO.C,R27*%
X74000000Y-58510000D03*
X74000000Y-50890000D03*
%TD*%
D16*
%TO.C,Q7*%
X64750000Y-52150000D03*
D17*
X64750000Y-54690000D03*
X64750000Y-57230000D03*
%TD*%
D14*
%TO.C,C37*%
X141400000Y-132800000D03*
X136400000Y-132800000D03*
%TD*%
%TO.C,R77*%
X77000000Y-129610000D03*
X77000000Y-121990000D03*
%TD*%
D16*
%TO.C,Q8*%
X64750000Y-83200000D03*
D17*
X64750000Y-85740000D03*
X64750000Y-88280000D03*
%TD*%
D16*
%TO.C,Q13*%
X31250000Y-92450000D03*
D17*
X33790000Y-92450000D03*
X36330000Y-92450000D03*
%TD*%
D14*
%TO.C,C36*%
X123250000Y-132200000D03*
X118250000Y-132200000D03*
%TD*%
D16*
%TO.C,Q26*%
X125450000Y-150300000D03*
D17*
X125450000Y-147760000D03*
X125450000Y-145220000D03*
%TD*%
D14*
%TO.C,R146*%
X146190000Y-48100000D03*
X153810000Y-48100000D03*
%TD*%
%TO.C,R89*%
X42000000Y-103990000D03*
X42000000Y-111610000D03*
%TD*%
%TO.C,R55*%
X46190000Y-45100000D03*
X53810000Y-45100000D03*
%TD*%
D15*
%TO.C,SW5*%
X132413000Y-163800000D03*
X132413000Y-168500000D03*
X132413000Y-173200000D03*
X127587000Y-163800000D03*
X127587000Y-168500000D03*
X127587000Y-173200000D03*
%TD*%
D20*
%TO.C,RV31*%
X145200000Y-155250000D03*
X154800000Y-155250000D03*
D21*
X147500000Y-162750000D03*
D22*
X150000000Y-162750000D03*
X152500000Y-162750000D03*
%TD*%
D14*
%TO.C,R63*%
X62600000Y-93990000D03*
X62600000Y-101610000D03*
%TD*%
D16*
%TO.C,Q9*%
X64750000Y-114200000D03*
D17*
X64750000Y-116740000D03*
X64750000Y-119280000D03*
%TD*%
D14*
%TO.C,R74*%
X29490000Y-124500000D03*
X37110000Y-124500000D03*
%TD*%
%TO.C,C38*%
X123250000Y-101750000D03*
X123250000Y-106750000D03*
%TD*%
D18*
%TO.C,RV4*%
X33750000Y-52290000D03*
X33750000Y-49750000D03*
X33750000Y-47210000D03*
%TD*%
%TO.C,RV34*%
X164210000Y-86900000D03*
X166750000Y-86900000D03*
X169290000Y-86900000D03*
%TD*%
D14*
%TO.C,R163*%
X168810000Y-102200000D03*
X161190000Y-102200000D03*
%TD*%
%TO.C,R154*%
X159400000Y-74290000D03*
X159400000Y-81910000D03*
%TD*%
D23*
%TO.C,C51*%
X47250000Y-178750000D03*
D24*
X45750000Y-178750000D03*
%TD*%
D14*
%TO.C,R61*%
X58000000Y-145390000D03*
X58000000Y-153010000D03*
%TD*%
D19*
%TO.C,U23*%
X126100000Y-94135000D03*
D14*
X126100000Y-96675000D03*
X126100000Y-99215000D03*
X126100000Y-101755000D03*
X126100000Y-104295000D03*
X126100000Y-106835000D03*
X126100000Y-109375000D03*
X133720000Y-109375000D03*
X133720000Y-106835000D03*
X133720000Y-104295000D03*
X133720000Y-101755000D03*
X133720000Y-99215000D03*
X133720000Y-96675000D03*
X133720000Y-94135000D03*
%TD*%
%TO.C,R85*%
X80000000Y-86590000D03*
X80000000Y-94210000D03*
%TD*%
D16*
%TO.C,Q14*%
X36350000Y-96300000D03*
D17*
X33810000Y-96300000D03*
X31270000Y-96300000D03*
%TD*%
D25*
%TO.C,RV33*%
X106700000Y-54750000D03*
D22*
X116250000Y-65750000D03*
D25*
X118300000Y-54750000D03*
D21*
X108750000Y-65750000D03*
D22*
X111250000Y-65750000D03*
X113750000Y-65750000D03*
%TD*%
D14*
%TO.C,C16*%
X81400000Y-70700000D03*
X76400000Y-70700000D03*
%TD*%
%TO.C,R153*%
X163340000Y-81100000D03*
X170960000Y-81100000D03*
%TD*%
D18*
%TO.C,RV17*%
X35790000Y-130300000D03*
X33250000Y-130300000D03*
X30710000Y-130300000D03*
%TD*%
D14*
%TO.C,R112*%
X163340000Y-77900000D03*
X170960000Y-77900000D03*
%TD*%
%TO.C,C45*%
X51500000Y-168000000D03*
X56500000Y-168000000D03*
%TD*%
D25*
%TO.C,RV35*%
X106700000Y-83250000D03*
D22*
X116250000Y-94250000D03*
D25*
X118300000Y-83250000D03*
D21*
X108750000Y-94250000D03*
D22*
X111250000Y-94250000D03*
X113750000Y-94250000D03*
%TD*%
D18*
%TO.C,RV9*%
X35790000Y-120300000D03*
X33250000Y-120300000D03*
X30710000Y-120300000D03*
%TD*%
D21*
%TO.C,D11*%
X68730000Y-147750000D03*
D22*
X71270000Y-147750000D03*
%TD*%
D14*
%TO.C,R82*%
X61000000Y-155190000D03*
X61000000Y-162810000D03*
%TD*%
D23*
%TO.C,C49*%
X54722600Y-178750000D03*
D24*
X53222600Y-178750000D03*
%TD*%
D18*
%TO.C,RV15*%
X59250000Y-52290000D03*
X59250000Y-49750000D03*
X59250000Y-47210000D03*
%TD*%
D23*
%TO.C,C65*%
X154250000Y-178750000D03*
D24*
X152750000Y-178750000D03*
%TD*%
D14*
%TO.C,C66*%
X143500000Y-168000000D03*
X148500000Y-168000000D03*
%TD*%
D26*
%TO.C,D17*%
X60200000Y-80710000D03*
D14*
X60200000Y-73090000D03*
%TD*%
%TO.C,C14*%
X60300000Y-141400000D03*
X55300000Y-141400000D03*
%TD*%
%TO.C,R86*%
X80000000Y-122710000D03*
X80000000Y-115090000D03*
%TD*%
D16*
%TO.C,Q28*%
X163700000Y-59450000D03*
D17*
X166240000Y-59450000D03*
X168780000Y-59450000D03*
%TD*%
D14*
%TO.C,C50*%
X44000000Y-168000000D03*
X49000000Y-168000000D03*
%TD*%
%TO.C,R165*%
X136800000Y-130510000D03*
X136800000Y-122890000D03*
%TD*%
%TO.C,R18*%
X160690000Y-137200000D03*
X168310000Y-137200000D03*
%TD*%
D19*
%TO.C,U19*%
X126100000Y-63135000D03*
D14*
X126100000Y-65675000D03*
X126100000Y-68215000D03*
X126100000Y-70755000D03*
X126100000Y-73295000D03*
X126100000Y-75835000D03*
X126100000Y-78375000D03*
X133720000Y-78375000D03*
X133720000Y-75835000D03*
X133720000Y-73295000D03*
X133720000Y-70755000D03*
X133720000Y-68215000D03*
X133720000Y-65675000D03*
X133720000Y-63135000D03*
%TD*%
D19*
%TO.C,U4*%
X45100000Y-65635000D03*
D14*
X45100000Y-68175000D03*
X45100000Y-70715000D03*
X45100000Y-73255000D03*
X45100000Y-75795000D03*
X45100000Y-78335000D03*
X45100000Y-80875000D03*
X52720000Y-80875000D03*
X52720000Y-78335000D03*
X52720000Y-75795000D03*
X52720000Y-73255000D03*
X52720000Y-70715000D03*
X52720000Y-68175000D03*
X52720000Y-65635000D03*
%TD*%
D26*
%TO.C,D19*%
X61000000Y-153010000D03*
D14*
X61000000Y-145390000D03*
%TD*%
%TO.C,R30*%
X74000000Y-151610000D03*
X74000000Y-143990000D03*
%TD*%
%TO.C,C40*%
X157700000Y-99100000D03*
X157700000Y-104100000D03*
%TD*%
%TO.C,R76*%
X76900000Y-134190000D03*
X76900000Y-141810000D03*
%TD*%
%TO.C,R69*%
X36000000Y-142490000D03*
X36000000Y-150110000D03*
%TD*%
%TO.C,R68*%
X61200000Y-120610000D03*
X61200000Y-112990000D03*
%TD*%
%TO.C,R151*%
X139800000Y-80610000D03*
X139800000Y-72990000D03*
%TD*%
D19*
%TO.C,U8*%
X45100000Y-132635000D03*
D14*
X45100000Y-135175000D03*
X45100000Y-137715000D03*
X45100000Y-140255000D03*
X45100000Y-142795000D03*
X45100000Y-145335000D03*
X45100000Y-147875000D03*
X52720000Y-147875000D03*
X52720000Y-145335000D03*
X52720000Y-142795000D03*
X52720000Y-140255000D03*
X52720000Y-137715000D03*
X52720000Y-135175000D03*
X52720000Y-132635000D03*
%TD*%
%TO.C,R184*%
X120000000Y-151910000D03*
X120000000Y-144290000D03*
%TD*%
%TO.C,R79*%
X58000000Y-162810000D03*
X58000000Y-155190000D03*
%TD*%
%TO.C,R162*%
X158000000Y-84190000D03*
X158000000Y-91810000D03*
%TD*%
%TO.C,R179*%
X158000000Y-152290000D03*
X158000000Y-159910000D03*
%TD*%
%TO.C,R62*%
X58000000Y-91810000D03*
X58000000Y-84190000D03*
%TD*%
D16*
%TO.C,Q30*%
X163700000Y-92450000D03*
D17*
X166240000Y-92450000D03*
X168780000Y-92450000D03*
%TD*%
D14*
%TO.C,R87*%
X80000000Y-151210000D03*
X80000000Y-143590000D03*
%TD*%
%TO.C,R84*%
X80000000Y-65710000D03*
X80000000Y-58090000D03*
%TD*%
D20*
%TO.C,RV26*%
X145200000Y-54750000D03*
X154800000Y-54750000D03*
D21*
X147500000Y-62250000D03*
D22*
X150000000Y-62250000D03*
X152500000Y-62250000D03*
%TD*%
D14*
%TO.C,R53*%
X58000000Y-55890000D03*
X58000000Y-63510000D03*
%TD*%
%TO.C,R127*%
X133700000Y-143990000D03*
X133700000Y-151610000D03*
%TD*%
%TO.C,C32*%
X144700000Y-141400000D03*
X139700000Y-141400000D03*
%TD*%
%TO.C,R124*%
X133700000Y-50890000D03*
X133700000Y-58510000D03*
%TD*%
D18*
%TO.C,RV36*%
X140750000Y-52290000D03*
X140750000Y-49750000D03*
X140750000Y-47210000D03*
%TD*%
D27*
%TO.C,D39*%
X160800000Y-142490000D03*
D14*
X160800000Y-150110000D03*
%TD*%
%TO.C,R181*%
X120000000Y-58090000D03*
X120000000Y-65710000D03*
%TD*%
D16*
%TO.C,Q29*%
X168800000Y-96300000D03*
D17*
X166260000Y-96300000D03*
X163720000Y-96300000D03*
%TD*%
D14*
%TO.C,R88*%
X55800000Y-139110000D03*
X55800000Y-131490000D03*
%TD*%
D21*
%TO.C,D29*%
X128480000Y-116750000D03*
D22*
X131020000Y-116750000D03*
%TD*%
D14*
%TO.C,C34*%
X123400000Y-70750000D03*
X118400000Y-70750000D03*
%TD*%
D19*
%TO.C,D18*%
X79690000Y-73200000D03*
D14*
X87310000Y-73200000D03*
%TD*%
%TO.C,R90*%
X42000000Y-94090000D03*
X42000000Y-101710000D03*
%TD*%
D16*
%TO.C,Q25*%
X125450000Y-119300000D03*
D17*
X125450000Y-116760000D03*
X125450000Y-114220000D03*
%TD*%
D18*
%TO.C,RV13*%
X35790000Y-85250000D03*
X33250000Y-85250000D03*
X30710000Y-85250000D03*
%TD*%
D14*
%TO.C,R72*%
X58000000Y-117690000D03*
X58000000Y-125310000D03*
%TD*%
D16*
%TO.C,Q12*%
X36360000Y-63265000D03*
D17*
X33820000Y-63265000D03*
X31280000Y-63265000D03*
%TD*%
D14*
%TO.C,R174*%
X123000000Y-129910000D03*
X123000000Y-122290000D03*
%TD*%
D21*
%TO.C,D9*%
X68730000Y-85750000D03*
D22*
X71270000Y-85750000D03*
%TD*%
D19*
%TO.C,U22*%
X45100000Y-99135000D03*
D14*
X45100000Y-101675000D03*
X45100000Y-104215000D03*
X45100000Y-106755000D03*
X45100000Y-109295000D03*
X45100000Y-111835000D03*
X45100000Y-114375000D03*
X52720000Y-114375000D03*
X52720000Y-111835000D03*
X52720000Y-109295000D03*
X52720000Y-106755000D03*
X52720000Y-104215000D03*
X52720000Y-101675000D03*
X52720000Y-99135000D03*
%TD*%
D27*
%TO.C,D20*%
X39000000Y-142490000D03*
D14*
X39000000Y-150110000D03*
%TD*%
%TO.C,R161*%
X161090000Y-115000000D03*
X168710000Y-115000000D03*
%TD*%
D21*
%TO.C,D10*%
X68730000Y-116750000D03*
D22*
X71270000Y-116750000D03*
%TD*%
D14*
%TO.C,C75*%
X148500000Y-173500000D03*
X143500000Y-173500000D03*
%TD*%
%TO.C,R164*%
X136800000Y-112990000D03*
X136800000Y-120610000D03*
%TD*%
%TO.C,R51*%
X38960000Y-57540000D03*
X38960000Y-65160000D03*
%TD*%
D26*
%TO.C,D38*%
X138900000Y-153010000D03*
D14*
X138900000Y-145390000D03*
%TD*%
%TO.C,R180*%
X168710000Y-118000000D03*
X161090000Y-118000000D03*
%TD*%
%TO.C,C13*%
X42500000Y-140200000D03*
X37500000Y-140200000D03*
%TD*%
D19*
%TO.C,U14*%
X147300000Y-65635000D03*
D14*
X147300000Y-68175000D03*
X147300000Y-70715000D03*
X147300000Y-73255000D03*
X147300000Y-75795000D03*
X147300000Y-78335000D03*
X147300000Y-80875000D03*
X154920000Y-80875000D03*
X154920000Y-78335000D03*
X154920000Y-75795000D03*
X154920000Y-73255000D03*
X154920000Y-70715000D03*
X154920000Y-68175000D03*
X154920000Y-65635000D03*
%TD*%
%TO.C,C18*%
X81400000Y-131900000D03*
X76400000Y-131900000D03*
%TD*%
%TO.C,C19*%
X63500000Y-103900000D03*
X58500000Y-103900000D03*
%TD*%
%TO.C,R126*%
X133700000Y-112990000D03*
X133700000Y-120610000D03*
%TD*%
D21*
%TO.C,D28*%
X128480000Y-85750000D03*
D22*
X131020000Y-85750000D03*
%TD*%
D14*
%TO.C,R159*%
X142000000Y-91810000D03*
X142000000Y-84190000D03*
%TD*%
%TO.C,R67*%
X71410000Y-121900000D03*
X63790000Y-121900000D03*
%TD*%
%TO.C,R160*%
X161090000Y-67800000D03*
X168710000Y-67800000D03*
%TD*%
%TO.C,R157*%
X123000000Y-68410000D03*
X123000000Y-60790000D03*
%TD*%
D18*
%TO.C,RV6*%
X35790000Y-73500000D03*
X33250000Y-73500000D03*
X30710000Y-73500000D03*
%TD*%
D15*
%TO.C,SW1*%
X72413000Y-163800000D03*
X72413000Y-168500000D03*
X72413000Y-173200000D03*
X67587000Y-163800000D03*
X67587000Y-168500000D03*
X67587000Y-173200000D03*
%TD*%
D14*
%TO.C,R56*%
X61000000Y-84190000D03*
X61000000Y-91810000D03*
%TD*%
%TO.C,R198*%
X36000000Y-152390000D03*
X36000000Y-160010000D03*
%TD*%
%TO.C,C20*%
X76750000Y-96750000D03*
X76750000Y-101750000D03*
%TD*%
%TO.C,R152*%
X146190000Y-45000000D03*
X153810000Y-45000000D03*
%TD*%
D18*
%TO.C,RV32*%
X159250000Y-52290000D03*
X159250000Y-49750000D03*
X159250000Y-47210000D03*
%TD*%
D14*
%TO.C,R173*%
X122900000Y-134490000D03*
X122900000Y-142110000D03*
%TD*%
D19*
%TO.C,D21*%
X79590000Y-129400000D03*
D14*
X87210000Y-129400000D03*
%TD*%
D15*
%TO.C,SW2*%
X87413000Y-163800000D03*
X87413000Y-168500000D03*
X87413000Y-173200000D03*
X82587000Y-163800000D03*
X82587000Y-168500000D03*
X82587000Y-173200000D03*
%TD*%
D14*
%TO.C,C61*%
X151000000Y-168000000D03*
X156000000Y-168000000D03*
%TD*%
%TO.C,C39*%
X136500000Y-106500000D03*
X136500000Y-101500000D03*
%TD*%
%TO.C,R15*%
X42010000Y-114600000D03*
X34390000Y-114600000D03*
%TD*%
D18*
%TO.C,RV27*%
X164210000Y-73500000D03*
X166750000Y-73500000D03*
X169290000Y-73500000D03*
%TD*%
D14*
%TO.C,R64*%
X42000000Y-137910000D03*
X42000000Y-130290000D03*
%TD*%
%TO.C,R48*%
X57300000Y-73090000D03*
X57300000Y-80710000D03*
%TD*%
D20*
%TO.C,RV8*%
X45200000Y-121750000D03*
X54800000Y-121750000D03*
D21*
X47500000Y-129250000D03*
D22*
X50000000Y-129250000D03*
X52500000Y-129250000D03*
%TD*%
D28*
%TO.C,D40*%
X120410000Y-129700000D03*
D14*
X112790000Y-129700000D03*
%TD*%
%TO.C,C74*%
X51500000Y-173500000D03*
X56500000Y-173500000D03*
%TD*%
D25*
%TO.C,RV18*%
X81700000Y-140250000D03*
D22*
X91250000Y-151250000D03*
D25*
X93300000Y-140250000D03*
D21*
X83750000Y-151250000D03*
D22*
X86250000Y-151250000D03*
X88750000Y-151250000D03*
%TD*%
D14*
%TO.C,R125*%
X133700000Y-81890000D03*
X133700000Y-89510000D03*
%TD*%
%TO.C,R170*%
X166600000Y-150110000D03*
X166600000Y-142490000D03*
%TD*%
%TO.C,R197*%
X39410000Y-137500000D03*
X31790000Y-137500000D03*
%TD*%
%TO.C,R156*%
X123000000Y-73090000D03*
X123000000Y-80710000D03*
%TD*%
%TO.C,R28*%
X74000000Y-89610000D03*
X74000000Y-81990000D03*
%TD*%
%TO.C,R147*%
X136800000Y-68410000D03*
X136800000Y-60790000D03*
%TD*%
D16*
%TO.C,Q32*%
X163700000Y-106700000D03*
D17*
X166240000Y-106700000D03*
X168780000Y-106700000D03*
%TD*%
D14*
%TO.C,C73*%
X49000000Y-173500000D03*
X44000000Y-173500000D03*
%TD*%
D20*
%TO.C,RV5*%
X45200000Y-54750000D03*
X54800000Y-54750000D03*
D21*
X47500000Y-62250000D03*
D22*
X50000000Y-62250000D03*
X52500000Y-62250000D03*
%TD*%
D14*
%TO.C,R169*%
X139800000Y-112990000D03*
X139800000Y-120610000D03*
%TD*%
D19*
%TO.C,U9*%
X66190000Y-63135000D03*
D14*
X66190000Y-65675000D03*
X66190000Y-68215000D03*
X66190000Y-70755000D03*
X66190000Y-73295000D03*
X66190000Y-75835000D03*
X66190000Y-78375000D03*
X73810000Y-78375000D03*
X73810000Y-75835000D03*
X73810000Y-73295000D03*
X73810000Y-70755000D03*
X73810000Y-68215000D03*
X73810000Y-65675000D03*
X73810000Y-63135000D03*
%TD*%
D20*
%TO.C,RV7*%
X45200000Y-88250000D03*
X54800000Y-88250000D03*
D21*
X47500000Y-95750000D03*
D22*
X50000000Y-95750000D03*
X52500000Y-95750000D03*
%TD*%
D16*
%TO.C,Q31*%
X168800000Y-110550000D03*
D17*
X166260000Y-110550000D03*
X163720000Y-110550000D03*
%TD*%
D14*
%TO.C,R71*%
X63100000Y-135490000D03*
X63100000Y-143110000D03*
%TD*%
D25*
%TO.C,RV14*%
X81700000Y-83250000D03*
D22*
X91250000Y-94250000D03*
D25*
X93300000Y-83250000D03*
D21*
X83750000Y-94250000D03*
D22*
X86250000Y-94250000D03*
X88750000Y-94250000D03*
%TD*%
D14*
%TO.C,R155*%
X139000000Y-91810000D03*
X139000000Y-84190000D03*
%TD*%
%TO.C,R185*%
X144200000Y-139110000D03*
X144200000Y-131490000D03*
%TD*%
%TO.C,R177*%
X158000000Y-127490000D03*
X158000000Y-135110000D03*
%TD*%
%TO.C,R172*%
X138900000Y-162810000D03*
X138900000Y-155190000D03*
%TD*%
D25*
%TO.C,RV39*%
X106700000Y-140250000D03*
D22*
X116250000Y-151250000D03*
D25*
X118300000Y-140250000D03*
D21*
X108750000Y-151250000D03*
D22*
X111250000Y-151250000D03*
X113750000Y-151250000D03*
%TD*%
D14*
%TO.C,R150*%
X144200000Y-64490000D03*
X144200000Y-72110000D03*
%TD*%
%TO.C,R182*%
X120000000Y-86590000D03*
X120000000Y-94210000D03*
%TD*%
%TO.C,R59*%
X77000000Y-72990000D03*
X77000000Y-80610000D03*
%TD*%
%TO.C,R166*%
X163600000Y-150110000D03*
X163600000Y-142490000D03*
%TD*%
D16*
%TO.C,Q24*%
X125450000Y-88300000D03*
D17*
X125450000Y-85760000D03*
X125450000Y-83220000D03*
%TD*%
D14*
%TO.C,R73*%
X39000000Y-160010000D03*
X39000000Y-152390000D03*
%TD*%
%TO.C,C7*%
X55300000Y-65800000D03*
X60300000Y-65800000D03*
%TD*%
D28*
%TO.C,D37*%
X120410000Y-73300000D03*
D14*
X112790000Y-73300000D03*
%TD*%
%TO.C,R168*%
X136800000Y-135090000D03*
X136800000Y-142710000D03*
%TD*%
D15*
%TO.C,SW3*%
X100000000Y-173200000D03*
X100000000Y-168500000D03*
X100000000Y-163800000D03*
%TD*%
D23*
%TO.C,C67*%
X146750000Y-178750000D03*
D24*
X145250000Y-178750000D03*
%TD*%
D18*
%TO.C,RV38*%
X164210000Y-131500000D03*
X166750000Y-131500000D03*
X169290000Y-131500000D03*
%TD*%
D14*
%TO.C,C17*%
X63400000Y-132790000D03*
X58400000Y-132790000D03*
%TD*%
%TO.C,C76*%
X151000000Y-173500000D03*
X156000000Y-173500000D03*
%TD*%
%TO.C,C33*%
X162500000Y-140200000D03*
X157500000Y-140200000D03*
%TD*%
D19*
%TO.C,U10*%
X66190000Y-125135000D03*
D14*
X66190000Y-127675000D03*
X66190000Y-130215000D03*
X66190000Y-132755000D03*
X66190000Y-135295000D03*
X66190000Y-137835000D03*
X66190000Y-140375000D03*
X73810000Y-140375000D03*
X73810000Y-137835000D03*
X73810000Y-135295000D03*
X73810000Y-132755000D03*
X73810000Y-130215000D03*
X73810000Y-127675000D03*
X73810000Y-125135000D03*
%TD*%
%TO.C,R171*%
X158000000Y-125310000D03*
X158000000Y-117690000D03*
%TD*%
%TO.C,C21*%
X55500000Y-99100000D03*
X55500000Y-104100000D03*
%TD*%
D19*
%TO.C,U20*%
X126100000Y-125135000D03*
D14*
X126100000Y-127675000D03*
X126100000Y-130215000D03*
X126100000Y-132755000D03*
X126100000Y-135295000D03*
X126100000Y-137835000D03*
X126100000Y-140375000D03*
X133720000Y-140375000D03*
X133720000Y-137835000D03*
X133720000Y-135295000D03*
X133720000Y-132755000D03*
X133720000Y-130215000D03*
X133720000Y-127675000D03*
X133720000Y-125135000D03*
%TD*%
%TO.C,R58*%
X37010000Y-79200000D03*
X29390000Y-79200000D03*
%TD*%
%TO.C,C15*%
X63500000Y-70750000D03*
X58500000Y-70750000D03*
%TD*%
D25*
%TO.C,RV16*%
X81700000Y-111750000D03*
D22*
X91250000Y-122750000D03*
D25*
X93300000Y-111750000D03*
D21*
X83750000Y-122750000D03*
D22*
X86250000Y-122750000D03*
X88750000Y-122750000D03*
%TD*%
D25*
%TO.C,RV37*%
X106700000Y-111750000D03*
D22*
X116250000Y-122750000D03*
D25*
X118300000Y-111750000D03*
D21*
X108750000Y-122750000D03*
D22*
X111250000Y-122750000D03*
X113750000Y-122750000D03*
%TD*%
D20*
%TO.C,RV29*%
X145200000Y-121750000D03*
X154800000Y-121750000D03*
D21*
X147500000Y-129250000D03*
D22*
X150000000Y-129250000D03*
X152500000Y-129250000D03*
%TD*%
D14*
%TO.C,R57*%
X59500000Y-101610000D03*
X59500000Y-93990000D03*
%TD*%
D19*
%TO.C,U18*%
X147300000Y-132635000D03*
D14*
X147300000Y-135175000D03*
X147300000Y-137715000D03*
X147300000Y-140255000D03*
X147300000Y-142795000D03*
X147300000Y-145335000D03*
X147300000Y-147875000D03*
X154920000Y-147875000D03*
X154920000Y-145335000D03*
X154920000Y-142795000D03*
X154920000Y-140255000D03*
X154920000Y-137715000D03*
X154920000Y-135175000D03*
X154920000Y-132635000D03*
%TD*%
D18*
%TO.C,RV30*%
X164210000Y-124500000D03*
X166750000Y-124500000D03*
X169290000Y-124500000D03*
%TD*%
D14*
%TO.C,R78*%
X42000000Y-142490000D03*
X42000000Y-150110000D03*
%TD*%
%TO.C,R75*%
X42000000Y-160010000D03*
X42000000Y-152390000D03*
%TD*%
%TO.C,R60*%
X76900000Y-68410000D03*
X76900000Y-60790000D03*
%TD*%
D21*
%TO.C,D27*%
X128480000Y-54750000D03*
D22*
X131020000Y-54750000D03*
%TD*%
D14*
%TO.C,R54*%
X42000000Y-81410000D03*
X42000000Y-73790000D03*
%TD*%
D21*
%TO.C,D30*%
X128480000Y-147750000D03*
D22*
X131020000Y-147750000D03*
%TD*%
D19*
%TO.C,U24*%
X147300000Y-99135000D03*
D14*
X147300000Y-101675000D03*
X147300000Y-104215000D03*
X147300000Y-106755000D03*
X147300000Y-109295000D03*
X147300000Y-111835000D03*
X147300000Y-114375000D03*
X154920000Y-114375000D03*
X154920000Y-111835000D03*
X154920000Y-109295000D03*
X154920000Y-106755000D03*
X154920000Y-104215000D03*
X154920000Y-101675000D03*
X154920000Y-99135000D03*
%TD*%
D18*
%TO.C,RV25*%
X166250000Y-52290000D03*
X166250000Y-49750000D03*
X166250000Y-47210000D03*
%TD*%
D25*
%TO.C,RV12*%
X81700000Y-54750000D03*
D22*
X91250000Y-65750000D03*
D25*
X93300000Y-54750000D03*
D21*
X83750000Y-65750000D03*
D22*
X86250000Y-65750000D03*
X88750000Y-65750000D03*
%TD*%
D14*
%TO.C,R178*%
X158000000Y-114910000D03*
X158000000Y-107290000D03*
%TD*%
%TO.C,R52*%
X63100000Y-73090000D03*
X63100000Y-80710000D03*
%TD*%
D21*
%TO.C,D8*%
X68730000Y-54750000D03*
D22*
X71270000Y-54750000D03*
%TD*%
D20*
%TO.C,RV28*%
X145200000Y-88250000D03*
X154800000Y-88250000D03*
D21*
X147500000Y-95750000D03*
D22*
X150000000Y-95750000D03*
X152500000Y-95750000D03*
%TD*%
D20*
%TO.C,RV10*%
X45200000Y-155250000D03*
X54800000Y-155250000D03*
D21*
X47500000Y-162750000D03*
D22*
X50000000Y-162750000D03*
X52500000Y-162750000D03*
%TD*%
D14*
%TO.C,R83*%
X39000000Y-110910000D03*
X39000000Y-103290000D03*
%TD*%
D26*
%TO.C,D36*%
X139600000Y-68410000D03*
D14*
X139600000Y-60790000D03*
%TD*%
%TO.C,R49*%
X46190000Y-48100000D03*
X53810000Y-48100000D03*
%TD*%
%TO.C,R167*%
X139800000Y-122890000D03*
X139800000Y-130510000D03*
%TD*%
%TO.C,R175*%
X158000000Y-142490000D03*
X158000000Y-150110000D03*
%TD*%
%TO.C,R183*%
X120000000Y-122710000D03*
X120000000Y-115090000D03*
%TD*%
%TO.C,R176*%
X142000000Y-162810000D03*
X142000000Y-155190000D03*
%TD*%
%TO.C,R81*%
X42000000Y-125310000D03*
X42000000Y-117690000D03*
%TD*%
%TO.C,R148*%
X161100000Y-65210000D03*
X161100000Y-57590000D03*
%TD*%
%TO.C,R66*%
X39000000Y-98110000D03*
X39000000Y-90490000D03*
%TD*%
D16*
%TO.C,Q23*%
X125450000Y-57300000D03*
D17*
X125450000Y-54760000D03*
X125450000Y-52220000D03*
%TD*%
D14*
%TO.C,R186*%
X144200000Y-98090000D03*
X144200000Y-105710000D03*
%TD*%
D29*
%TO.C,J24*%
X93650000Y-156000000D03*
D30*
X96190000Y-156000000D03*
X98730000Y-156000000D03*
X101270000Y-156000000D03*
X103810000Y-156000000D03*
X106350000Y-156000000D03*
%TD*%
D29*
%TO.C,J21*%
X28250000Y-45750000D03*
D30*
X28250000Y-48290000D03*
X28250000Y-50830000D03*
X28250000Y-53370000D03*
X28250000Y-55910000D03*
X28250000Y-58450000D03*
X28250000Y-60990000D03*
X28250000Y-63530000D03*
X28250000Y-66070000D03*
X28250000Y-68610000D03*
%TD*%
D29*
%TO.C,J27*%
X171750000Y-137750000D03*
D30*
X171750000Y-140290000D03*
X171750000Y-142830000D03*
X171750000Y-145370000D03*
X171750000Y-147910000D03*
X171750000Y-150450000D03*
X171750000Y-152990000D03*
X171750000Y-155530000D03*
X171750000Y-158070000D03*
X171750000Y-160610000D03*
%TD*%
D29*
%TO.C,J23*%
X28250000Y-137750000D03*
D30*
X28250000Y-140290000D03*
X28250000Y-142830000D03*
X28250000Y-145370000D03*
X28250000Y-147910000D03*
X28250000Y-150450000D03*
X28250000Y-152990000D03*
X28250000Y-155530000D03*
X28250000Y-158070000D03*
X28250000Y-160610000D03*
%TD*%
D29*
%TO.C,J26*%
X171750000Y-91750000D03*
D30*
X171750000Y-94290000D03*
X171750000Y-96830000D03*
X171750000Y-99370000D03*
X171750000Y-101910000D03*
X171750000Y-104450000D03*
X171750000Y-106990000D03*
X171750000Y-109530000D03*
X171750000Y-112070000D03*
X171750000Y-114610000D03*
%TD*%
D29*
%TO.C,J22*%
X28250000Y-91750000D03*
D30*
X28250000Y-94290000D03*
X28250000Y-96830000D03*
X28250000Y-99370000D03*
X28250000Y-101910000D03*
X28250000Y-104450000D03*
X28250000Y-106990000D03*
X28250000Y-109530000D03*
X28250000Y-112070000D03*
X28250000Y-114610000D03*
%TD*%
D29*
%TO.C,J25*%
X171750000Y-45750000D03*
D30*
X171750000Y-48290000D03*
X171750000Y-50830000D03*
X171750000Y-53370000D03*
X171750000Y-55910000D03*
X171750000Y-58450000D03*
X171750000Y-60990000D03*
X171750000Y-63530000D03*
X171750000Y-66070000D03*
X171750000Y-68610000D03*
%TD*%
%LPD*%
M02*
