%TF.GenerationSoftware,KiCad,Pcbnew,9.0.4*%
%TF.CreationDate,2025-10-03T19:31:14+02:00*%
%TF.ProjectId,DMH_VCEG_PCB_2,444d485f-5643-4454-975f-5043425f322e,1*%
%TF.SameCoordinates,Original*%
%TF.FileFunction,Drillmap*%
%TF.FilePolarity,Positive*%
%FSLAX45Y45*%
G04 Gerber Fmt 4.5, Leading zero omitted, Abs format (unit mm)*
G04 Created by KiCad (PCBNEW 9.0.4) date 2025-10-03 19:31:14*
%MOMM*%
%LPD*%
G01*
G04 APERTURE LIST*
%ADD10C,0.050000*%
%ADD11C,0.200000*%
G04 APERTURE END LIST*
D10*
X17400000Y-4250000D02*
X17400000Y-16300000D01*
X15800000Y-18150000D02*
X4200000Y-18150000D01*
X15800000Y-16300000D02*
X15800000Y-18150000D01*
X2600000Y-4250000D02*
X17400000Y-4250000D01*
X4200000Y-18150000D02*
X4200000Y-16300000D01*
X2600000Y-16300000D02*
X2600000Y-4250000D01*
X17400000Y-16300000D02*
X15800000Y-16300000D01*
X4200000Y-16300000D02*
X2600000Y-16300000D01*
D11*
X2858277Y-18463984D02*
X2858277Y-18263984D01*
X2858277Y-18263984D02*
X2905896Y-18263984D01*
X2905896Y-18263984D02*
X2934467Y-18273508D01*
X2934467Y-18273508D02*
X2953515Y-18292555D01*
X2953515Y-18292555D02*
X2963039Y-18311603D01*
X2963039Y-18311603D02*
X2972562Y-18349698D01*
X2972562Y-18349698D02*
X2972562Y-18378270D01*
X2972562Y-18378270D02*
X2963039Y-18416365D01*
X2963039Y-18416365D02*
X2953515Y-18435412D01*
X2953515Y-18435412D02*
X2934467Y-18454460D01*
X2934467Y-18454460D02*
X2905896Y-18463984D01*
X2905896Y-18463984D02*
X2858277Y-18463984D01*
X3058277Y-18463984D02*
X3058277Y-18330650D01*
X3058277Y-18368746D02*
X3067801Y-18349698D01*
X3067801Y-18349698D02*
X3077324Y-18340174D01*
X3077324Y-18340174D02*
X3096372Y-18330650D01*
X3096372Y-18330650D02*
X3115420Y-18330650D01*
X3182086Y-18463984D02*
X3182086Y-18330650D01*
X3182086Y-18263984D02*
X3172562Y-18273508D01*
X3172562Y-18273508D02*
X3182086Y-18283031D01*
X3182086Y-18283031D02*
X3191610Y-18273508D01*
X3191610Y-18273508D02*
X3182086Y-18263984D01*
X3182086Y-18263984D02*
X3182086Y-18283031D01*
X3305896Y-18463984D02*
X3286848Y-18454460D01*
X3286848Y-18454460D02*
X3277324Y-18435412D01*
X3277324Y-18435412D02*
X3277324Y-18263984D01*
X3410658Y-18463984D02*
X3391610Y-18454460D01*
X3391610Y-18454460D02*
X3382086Y-18435412D01*
X3382086Y-18435412D02*
X3382086Y-18263984D01*
X3639229Y-18463984D02*
X3639229Y-18263984D01*
X3639229Y-18263984D02*
X3705896Y-18406841D01*
X3705896Y-18406841D02*
X3772562Y-18263984D01*
X3772562Y-18263984D02*
X3772562Y-18463984D01*
X3953515Y-18463984D02*
X3953515Y-18359222D01*
X3953515Y-18359222D02*
X3943991Y-18340174D01*
X3943991Y-18340174D02*
X3924943Y-18330650D01*
X3924943Y-18330650D02*
X3886848Y-18330650D01*
X3886848Y-18330650D02*
X3867801Y-18340174D01*
X3953515Y-18454460D02*
X3934467Y-18463984D01*
X3934467Y-18463984D02*
X3886848Y-18463984D01*
X3886848Y-18463984D02*
X3867801Y-18454460D01*
X3867801Y-18454460D02*
X3858277Y-18435412D01*
X3858277Y-18435412D02*
X3858277Y-18416365D01*
X3858277Y-18416365D02*
X3867801Y-18397317D01*
X3867801Y-18397317D02*
X3886848Y-18387793D01*
X3886848Y-18387793D02*
X3934467Y-18387793D01*
X3934467Y-18387793D02*
X3953515Y-18378270D01*
X4048753Y-18330650D02*
X4048753Y-18530650D01*
X4048753Y-18340174D02*
X4067801Y-18330650D01*
X4067801Y-18330650D02*
X4105896Y-18330650D01*
X4105896Y-18330650D02*
X4124943Y-18340174D01*
X4124943Y-18340174D02*
X4134467Y-18349698D01*
X4134467Y-18349698D02*
X4143991Y-18368746D01*
X4143991Y-18368746D02*
X4143991Y-18425889D01*
X4143991Y-18425889D02*
X4134467Y-18444936D01*
X4134467Y-18444936D02*
X4124943Y-18454460D01*
X4124943Y-18454460D02*
X4105896Y-18463984D01*
X4105896Y-18463984D02*
X4067801Y-18463984D01*
X4067801Y-18463984D02*
X4048753Y-18454460D01*
X4229705Y-18444936D02*
X4239229Y-18454460D01*
X4239229Y-18454460D02*
X4229705Y-18463984D01*
X4229705Y-18463984D02*
X4220182Y-18454460D01*
X4220182Y-18454460D02*
X4229705Y-18444936D01*
X4229705Y-18444936D02*
X4229705Y-18463984D01*
X4229705Y-18340174D02*
X4239229Y-18349698D01*
X4239229Y-18349698D02*
X4229705Y-18359222D01*
X4229705Y-18359222D02*
X4220182Y-18349698D01*
X4220182Y-18349698D02*
X4229705Y-18340174D01*
X4229705Y-18340174D02*
X4229705Y-18359222D01*
M02*
