%TF.GenerationSoftware,KiCad,Pcbnew,9.0.4*%
%TF.CreationDate,2025-10-03T19:30:02+02:00*%
%TF.ProjectId,DMH_VCEG_PCB_1,444d485f-5643-4454-975f-5043425f312e,1*%
%TF.SameCoordinates,Original*%
%TF.FileFunction,Drillmap*%
%TF.FilePolarity,Positive*%
%FSLAX45Y45*%
G04 Gerber Fmt 4.5, Leading zero omitted, Abs format (unit mm)*
G04 Created by KiCad (PCBNEW 9.0.4) date 2025-10-03 19:30:02*
%MOMM*%
%LPD*%
G01*
G04 APERTURE LIST*
%ADD10C,0.050000*%
%ADD11C,0.200000*%
%ADD12C,0.100000*%
%ADD13C,0.110000*%
G04 APERTURE END LIST*
D10*
X2600000Y-4250000D02*
X17400000Y-4250000D01*
X17400000Y-21750000D01*
X2600000Y-21750000D01*
X2600000Y-4250000D01*
D11*
D12*
X3035000Y-6652000D02*
X3065000Y-6682000D01*
X3065000Y-6652000D02*
X3035000Y-6682000D01*
X3085000Y-7935000D02*
X3115000Y-7965000D01*
X3115000Y-7935000D02*
X3085000Y-7965000D01*
X3425000Y-7765000D02*
X3455000Y-7795000D01*
X3455000Y-7765000D02*
X3425000Y-7795000D01*
X3425000Y-7935000D02*
X3455000Y-7965000D01*
X3455000Y-7935000D02*
X3425000Y-7965000D01*
X4120000Y-17560000D02*
X4150000Y-17590000D01*
X4150000Y-17560000D02*
X4120000Y-17590000D01*
X4125000Y-17465000D02*
X4155000Y-17495000D01*
X4155000Y-17465000D02*
X4125000Y-17495000D01*
X4355000Y-12555000D02*
X4385000Y-12585000D01*
X4385000Y-12555000D02*
X4355000Y-12585000D01*
X4395000Y-15852000D02*
X4425000Y-15882000D01*
X4425000Y-15852000D02*
X4395000Y-15882000D01*
X4809677Y-12619676D02*
X4839677Y-12649676D01*
X4839677Y-12619676D02*
X4809677Y-12649676D01*
X4825000Y-20325000D02*
X4855000Y-20355000D01*
X4855000Y-20325000D02*
X4825000Y-20355000D01*
X4975000Y-5365000D02*
X5005000Y-5395000D01*
X5005000Y-5365000D02*
X4975000Y-5395000D01*
X5725000Y-13045000D02*
X5755000Y-13075000D01*
X5755000Y-13045000D02*
X5725000Y-13075000D01*
X5955000Y-10315000D02*
X5985000Y-10345000D01*
X5985000Y-10315000D02*
X5955000Y-10345000D01*
X6555000Y-11895000D02*
X6585000Y-11925000D01*
X6585000Y-11895000D02*
X6555000Y-11925000D01*
X7450100Y-11237600D02*
X7480100Y-11267600D01*
X7480100Y-11237600D02*
X7450100Y-11267600D01*
X7735000Y-16015000D02*
X7765000Y-16045000D01*
X7765000Y-16015000D02*
X7735000Y-16045000D01*
X9315000Y-8995000D02*
X9345000Y-9025000D01*
X9345000Y-8995000D02*
X9315000Y-9025000D01*
X9535000Y-10735000D02*
X9565000Y-10765000D01*
X9565000Y-10735000D02*
X9535000Y-10765000D01*
X10635000Y-8995000D02*
X10665000Y-9025000D01*
X10665000Y-8995000D02*
X10635000Y-9025000D01*
X12985000Y-9225000D02*
X13015000Y-9255000D01*
X13015000Y-9225000D02*
X12985000Y-9255000D01*
X13285000Y-12444900D02*
X13315000Y-12474900D01*
X13315000Y-12444900D02*
X13285000Y-12474900D01*
X13735000Y-14095000D02*
X13765000Y-14125000D01*
X13765000Y-14095000D02*
X13735000Y-14125000D01*
X14255000Y-11945000D02*
X14285000Y-11975000D01*
X14285000Y-11945000D02*
X14255000Y-11975000D01*
X14315000Y-14625000D02*
X14345000Y-14655000D01*
X14345000Y-14625000D02*
X14315000Y-14655000D01*
X14315000Y-14715000D02*
X14345000Y-14745000D01*
X14345000Y-14715000D02*
X14315000Y-14745000D01*
X14855000Y-7950000D02*
X14885000Y-7980000D01*
X14885000Y-7950000D02*
X14855000Y-7980000D01*
X15495000Y-12595000D02*
X15525000Y-12625000D01*
X15525000Y-12595000D02*
X15495000Y-12625000D01*
X15595781Y-19954219D02*
X15625781Y-19984219D01*
X15625781Y-19954219D02*
X15595781Y-19984219D01*
X15707426Y-15937426D02*
X15737426Y-15967426D01*
X15737426Y-15937426D02*
X15707426Y-15967426D01*
X16932573Y-18312574D02*
X16962573Y-18342574D01*
X16962573Y-18312574D02*
X16932573Y-18342574D01*
X16935000Y-6545000D02*
X16965000Y-6575000D01*
X16965000Y-6545000D02*
X16935000Y-6575000D01*
X17015000Y-18315000D02*
X17045000Y-18345000D01*
X17045000Y-18315000D02*
X17015000Y-18345000D01*
X7410500Y-8727000D02*
G75*
G02*
X7335500Y-8727000I-37500J0D01*
G01*
X7335500Y-8727000D02*
G75*
G02*
X7410500Y-8727000I37500J0D01*
G01*
X7410500Y-12399000D02*
G75*
G02*
X7335500Y-12399000I-37500J0D01*
G01*
X7335500Y-12399000D02*
G75*
G02*
X7410500Y-12399000I37500J0D01*
G01*
X7537500Y-8727000D02*
G75*
G02*
X7462500Y-8727000I-37500J0D01*
G01*
X7462500Y-8727000D02*
G75*
G02*
X7537500Y-8727000I37500J0D01*
G01*
X7537500Y-12399000D02*
G75*
G02*
X7462500Y-12399000I-37500J0D01*
G01*
X7462500Y-12399000D02*
G75*
G02*
X7537500Y-12399000I37500J0D01*
G01*
X7664500Y-8727000D02*
G75*
G02*
X7589500Y-8727000I-37500J0D01*
G01*
X7589500Y-8727000D02*
G75*
G02*
X7664500Y-8727000I37500J0D01*
G01*
X7664500Y-12399000D02*
G75*
G02*
X7589500Y-12399000I-37500J0D01*
G01*
X7589500Y-12399000D02*
G75*
G02*
X7664500Y-12399000I37500J0D01*
G01*
X12410500Y-8727000D02*
G75*
G02*
X12335500Y-8727000I-37500J0D01*
G01*
X12335500Y-8727000D02*
G75*
G02*
X12410500Y-8727000I37500J0D01*
G01*
X12410500Y-12399000D02*
G75*
G02*
X12335500Y-12399000I-37500J0D01*
G01*
X12335500Y-12399000D02*
G75*
G02*
X12410500Y-12399000I37500J0D01*
G01*
X12537500Y-8727000D02*
G75*
G02*
X12462500Y-8727000I-37500J0D01*
G01*
X12462500Y-8727000D02*
G75*
G02*
X12537500Y-8727000I37500J0D01*
G01*
X12537500Y-12399000D02*
G75*
G02*
X12462500Y-12399000I-37500J0D01*
G01*
X12462500Y-12399000D02*
G75*
G02*
X12537500Y-12399000I37500J0D01*
G01*
X12664500Y-8727000D02*
G75*
G02*
X12589500Y-8727000I-37500J0D01*
G01*
X12589500Y-8727000D02*
G75*
G02*
X12664500Y-8727000I37500J0D01*
G01*
X12664500Y-12399000D02*
G75*
G02*
X12589500Y-12399000I-37500J0D01*
G01*
X12589500Y-12399000D02*
G75*
G02*
X12664500Y-12399000I37500J0D01*
G01*
X2909000Y-11750000D02*
X2909000Y-11830000D01*
X2869000Y-11790000D02*
X2949000Y-11790000D01*
X2919000Y-12930000D02*
X2919000Y-13010000D01*
X2879000Y-12970000D02*
X2959000Y-12970000D01*
X3036000Y-12340500D02*
X3036000Y-12420500D01*
X2996000Y-12380500D02*
X3076000Y-12380500D01*
X3290000Y-12340500D02*
X3290000Y-12420500D01*
X3250000Y-12380500D02*
X3330000Y-12380500D01*
X3490000Y-9140000D02*
X3490000Y-9220000D01*
X3450000Y-9180000D02*
X3530000Y-9180000D01*
X3490000Y-9640000D02*
X3490000Y-9720000D01*
X3450000Y-9680000D02*
X3530000Y-9680000D01*
X3544000Y-12340500D02*
X3544000Y-12420500D01*
X3504000Y-12380500D02*
X3584000Y-12380500D01*
X3671000Y-11750000D02*
X3671000Y-11830000D01*
X3631000Y-11790000D02*
X3711000Y-11790000D01*
X3681000Y-12930000D02*
X3681000Y-13010000D01*
X3641000Y-12970000D02*
X3721000Y-12970000D01*
X3760000Y-9009000D02*
X3760000Y-9089000D01*
X3720000Y-9049000D02*
X3800000Y-9049000D01*
X3760000Y-9771000D02*
X3760000Y-9851000D01*
X3720000Y-9811000D02*
X3800000Y-9811000D01*
X4010000Y-5329000D02*
X4010000Y-5409000D01*
X3970000Y-5369000D02*
X4050000Y-5369000D01*
X4010000Y-6091000D02*
X4010000Y-6171000D01*
X3970000Y-6131000D02*
X4050000Y-6131000D01*
X4010000Y-6480000D02*
X4010000Y-6560000D01*
X3970000Y-6520000D02*
X4050000Y-6520000D01*
X4010000Y-6980000D02*
X4010000Y-7060000D01*
X3970000Y-7020000D02*
X4050000Y-7020000D01*
X4049000Y-11750000D02*
X4049000Y-11830000D01*
X4009000Y-11790000D02*
X4089000Y-11790000D01*
X4060000Y-9009000D02*
X4060000Y-9089000D01*
X4020000Y-9049000D02*
X4100000Y-9049000D01*
X4060000Y-9771000D02*
X4060000Y-9851000D01*
X4020000Y-9811000D02*
X4100000Y-9811000D01*
X4176000Y-12340500D02*
X4176000Y-12420500D01*
X4136000Y-12380500D02*
X4216000Y-12380500D01*
X4310000Y-5329000D02*
X4310000Y-5409000D01*
X4270000Y-5369000D02*
X4350000Y-5369000D01*
X4310000Y-6091000D02*
X4310000Y-6171000D01*
X4270000Y-6131000D02*
X4350000Y-6131000D01*
X4310000Y-6349000D02*
X4310000Y-6429000D01*
X4270000Y-6389000D02*
X4350000Y-6389000D01*
X4310000Y-7111000D02*
X4310000Y-7191000D01*
X4270000Y-7151000D02*
X4350000Y-7151000D01*
X4340000Y-9009000D02*
X4340000Y-9089000D01*
X4300000Y-9049000D02*
X4380000Y-9049000D01*
X4340000Y-9771000D02*
X4340000Y-9851000D01*
X4300000Y-9811000D02*
X4380000Y-9811000D01*
X4430000Y-12340500D02*
X4430000Y-12420500D01*
X4390000Y-12380500D02*
X4470000Y-12380500D01*
X4619000Y-5838500D02*
X4619000Y-5918500D01*
X4579000Y-5878500D02*
X4659000Y-5878500D01*
X4619000Y-6092500D02*
X4619000Y-6172500D01*
X4579000Y-6132500D02*
X4659000Y-6132500D01*
X4619000Y-6346500D02*
X4619000Y-6426500D01*
X4579000Y-6386500D02*
X4659000Y-6386500D01*
X4619000Y-6600500D02*
X4619000Y-6680500D01*
X4579000Y-6640500D02*
X4659000Y-6640500D01*
X4619000Y-6854500D02*
X4619000Y-6934500D01*
X4579000Y-6894500D02*
X4659000Y-6894500D01*
X4619000Y-7108500D02*
X4619000Y-7188500D01*
X4579000Y-7148500D02*
X4659000Y-7148500D01*
X4619000Y-7362500D02*
X4619000Y-7442500D01*
X4579000Y-7402500D02*
X4659000Y-7402500D01*
X4619000Y-7910000D02*
X4619000Y-7990000D01*
X4579000Y-7950000D02*
X4659000Y-7950000D01*
X4619000Y-9518500D02*
X4619000Y-9598500D01*
X4579000Y-9558500D02*
X4659000Y-9558500D01*
X4619000Y-9772500D02*
X4619000Y-9852500D01*
X4579000Y-9812500D02*
X4659000Y-9812500D01*
X4619000Y-10026500D02*
X4619000Y-10106500D01*
X4579000Y-10066500D02*
X4659000Y-10066500D01*
X4619000Y-10280500D02*
X4619000Y-10360500D01*
X4579000Y-10320500D02*
X4659000Y-10320500D01*
X4619000Y-10534500D02*
X4619000Y-10614500D01*
X4579000Y-10574500D02*
X4659000Y-10574500D01*
X4619000Y-10788500D02*
X4619000Y-10868500D01*
X4579000Y-10828500D02*
X4659000Y-10828500D01*
X4619000Y-11042500D02*
X4619000Y-11122500D01*
X4579000Y-11082500D02*
X4659000Y-11082500D01*
X4619000Y-13198500D02*
X4619000Y-13278500D01*
X4579000Y-13238500D02*
X4659000Y-13238500D01*
X4619000Y-13452500D02*
X4619000Y-13532500D01*
X4579000Y-13492500D02*
X4659000Y-13492500D01*
X4619000Y-13706500D02*
X4619000Y-13786500D01*
X4579000Y-13746500D02*
X4659000Y-13746500D01*
X4619000Y-13960500D02*
X4619000Y-14040500D01*
X4579000Y-14000500D02*
X4659000Y-14000500D01*
X4619000Y-14214500D02*
X4619000Y-14294500D01*
X4579000Y-14254500D02*
X4659000Y-14254500D01*
X4619000Y-14468500D02*
X4619000Y-14548500D01*
X4579000Y-14508500D02*
X4659000Y-14508500D01*
X4619000Y-14722500D02*
X4619000Y-14802500D01*
X4579000Y-14762500D02*
X4659000Y-14762500D01*
X4684000Y-12340500D02*
X4684000Y-12420500D01*
X4644000Y-12380500D02*
X4724000Y-12380500D01*
X4746000Y-4969500D02*
X4746000Y-5049500D01*
X4706000Y-5009500D02*
X4786000Y-5009500D01*
X4746000Y-15480000D02*
X4746000Y-15560000D01*
X4706000Y-15520000D02*
X4786000Y-15520000D01*
X4746000Y-16190500D02*
X4746000Y-16270500D01*
X4706000Y-16230500D02*
X4786000Y-16230500D01*
X4750000Y-5560000D02*
X4750000Y-5640000D01*
X4710000Y-5600000D02*
X4790000Y-5600000D01*
X4750000Y-7640000D02*
X4750000Y-7720000D01*
X4710000Y-7680000D02*
X4790000Y-7680000D01*
X4750000Y-9240000D02*
X4750000Y-9320000D01*
X4710000Y-9280000D02*
X4790000Y-9280000D01*
X4750000Y-12920000D02*
X4750000Y-13000000D01*
X4710000Y-12960000D02*
X4790000Y-12960000D01*
X4750000Y-15000000D02*
X4750000Y-15080000D01*
X4710000Y-15040000D02*
X4790000Y-15040000D01*
X4811000Y-11750000D02*
X4811000Y-11830000D01*
X4771000Y-11790000D02*
X4851000Y-11790000D01*
X5000000Y-4969500D02*
X5000000Y-5049500D01*
X4960000Y-5009500D02*
X5040000Y-5009500D01*
X5000000Y-15480000D02*
X5000000Y-15560000D01*
X4960000Y-15520000D02*
X5040000Y-15520000D01*
X5000000Y-16190500D02*
X5000000Y-16270500D01*
X4960000Y-16230500D02*
X5040000Y-16230500D01*
X5189000Y-11750000D02*
X5189000Y-11830000D01*
X5149000Y-11790000D02*
X5229000Y-11790000D01*
X5250000Y-5560000D02*
X5250000Y-5640000D01*
X5210000Y-5600000D02*
X5290000Y-5600000D01*
X5250000Y-7640000D02*
X5250000Y-7720000D01*
X5210000Y-7680000D02*
X5290000Y-7680000D01*
X5250000Y-9240000D02*
X5250000Y-9320000D01*
X5210000Y-9280000D02*
X5290000Y-9280000D01*
X5250000Y-12920000D02*
X5250000Y-13000000D01*
X5210000Y-12960000D02*
X5290000Y-12960000D01*
X5250000Y-15000000D02*
X5250000Y-15080000D01*
X5210000Y-15040000D02*
X5290000Y-15040000D01*
X5254000Y-4969500D02*
X5254000Y-5049500D01*
X5214000Y-5009500D02*
X5294000Y-5009500D01*
X5254000Y-15480000D02*
X5254000Y-15560000D01*
X5214000Y-15520000D02*
X5294000Y-15520000D01*
X5254000Y-16190500D02*
X5254000Y-16270500D01*
X5214000Y-16230500D02*
X5294000Y-16230500D01*
X5316000Y-12340500D02*
X5316000Y-12420500D01*
X5276000Y-12380500D02*
X5356000Y-12380500D01*
X5360000Y-17089000D02*
X5360000Y-17169000D01*
X5320000Y-17129000D02*
X5400000Y-17129000D01*
X5360000Y-17851000D02*
X5360000Y-17931000D01*
X5320000Y-17891000D02*
X5400000Y-17891000D01*
X5381000Y-5838500D02*
X5381000Y-5918500D01*
X5341000Y-5878500D02*
X5421000Y-5878500D01*
X5381000Y-6092500D02*
X5381000Y-6172500D01*
X5341000Y-6132500D02*
X5421000Y-6132500D01*
X5381000Y-6346500D02*
X5381000Y-6426500D01*
X5341000Y-6386500D02*
X5421000Y-6386500D01*
X5381000Y-6600500D02*
X5381000Y-6680500D01*
X5341000Y-6640500D02*
X5421000Y-6640500D01*
X5381000Y-6854500D02*
X5381000Y-6934500D01*
X5341000Y-6894500D02*
X5421000Y-6894500D01*
X5381000Y-7108500D02*
X5381000Y-7188500D01*
X5341000Y-7148500D02*
X5421000Y-7148500D01*
X5381000Y-7362500D02*
X5381000Y-7442500D01*
X5341000Y-7402500D02*
X5421000Y-7402500D01*
X5381000Y-7910000D02*
X5381000Y-7990000D01*
X5341000Y-7950000D02*
X5421000Y-7950000D01*
X5381000Y-9518500D02*
X5381000Y-9598500D01*
X5341000Y-9558500D02*
X5421000Y-9558500D01*
X5381000Y-9772500D02*
X5381000Y-9852500D01*
X5341000Y-9812500D02*
X5421000Y-9812500D01*
X5381000Y-10026500D02*
X5381000Y-10106500D01*
X5341000Y-10066500D02*
X5421000Y-10066500D01*
X5381000Y-10280500D02*
X5381000Y-10360500D01*
X5341000Y-10320500D02*
X5421000Y-10320500D01*
X5381000Y-10534500D02*
X5381000Y-10614500D01*
X5341000Y-10574500D02*
X5421000Y-10574500D01*
X5381000Y-10788500D02*
X5381000Y-10868500D01*
X5341000Y-10828500D02*
X5421000Y-10828500D01*
X5381000Y-11042500D02*
X5381000Y-11122500D01*
X5341000Y-11082500D02*
X5421000Y-11082500D01*
X5381000Y-13198500D02*
X5381000Y-13278500D01*
X5341000Y-13238500D02*
X5421000Y-13238500D01*
X5381000Y-13452500D02*
X5381000Y-13532500D01*
X5341000Y-13492500D02*
X5421000Y-13492500D01*
X5381000Y-13706500D02*
X5381000Y-13786500D01*
X5341000Y-13746500D02*
X5421000Y-13746500D01*
X5381000Y-13960500D02*
X5381000Y-14040500D01*
X5341000Y-14000500D02*
X5421000Y-14000500D01*
X5381000Y-14214500D02*
X5381000Y-14294500D01*
X5341000Y-14254500D02*
X5421000Y-14254500D01*
X5381000Y-14468500D02*
X5381000Y-14548500D01*
X5341000Y-14508500D02*
X5421000Y-14508500D01*
X5381000Y-14722500D02*
X5381000Y-14802500D01*
X5341000Y-14762500D02*
X5421000Y-14762500D01*
X5570000Y-12340500D02*
X5570000Y-12420500D01*
X5530000Y-12380500D02*
X5610000Y-12380500D01*
X5660000Y-17089000D02*
X5660000Y-17169000D01*
X5620000Y-17129000D02*
X5700000Y-17129000D01*
X5660000Y-17851000D02*
X5660000Y-17931000D01*
X5620000Y-17891000D02*
X5700000Y-17891000D01*
X5680000Y-9004000D02*
X5680000Y-9084000D01*
X5640000Y-9044000D02*
X5720000Y-9044000D01*
X5680000Y-9766000D02*
X5680000Y-9846000D01*
X5640000Y-9806000D02*
X5720000Y-9806000D01*
X5690000Y-5579000D02*
X5690000Y-5659000D01*
X5650000Y-5619000D02*
X5730000Y-5619000D01*
X5690000Y-6341000D02*
X5690000Y-6421000D01*
X5650000Y-6381000D02*
X5730000Y-6381000D01*
X5690000Y-7109000D02*
X5690000Y-7189000D01*
X5650000Y-7149000D02*
X5730000Y-7149000D01*
X5690000Y-7871000D02*
X5690000Y-7951000D01*
X5650000Y-7911000D02*
X5730000Y-7911000D01*
X5690000Y-14209000D02*
X5690000Y-14289000D01*
X5650000Y-14249000D02*
X5730000Y-14249000D01*
X5690000Y-14971000D02*
X5690000Y-15051000D01*
X5650000Y-15011000D02*
X5730000Y-15011000D01*
X5800000Y-13189000D02*
X5800000Y-13269000D01*
X5760000Y-13229000D02*
X5840000Y-13229000D01*
X5800000Y-13951000D02*
X5800000Y-14031000D01*
X5760000Y-13991000D02*
X5840000Y-13991000D01*
X5824000Y-12340500D02*
X5824000Y-12420500D01*
X5784000Y-12380500D02*
X5864000Y-12380500D01*
X5869000Y-8135000D02*
X5869000Y-8215000D01*
X5829000Y-8175000D02*
X5909000Y-8175000D01*
X5869000Y-8435000D02*
X5869000Y-8515000D01*
X5829000Y-8475000D02*
X5909000Y-8475000D01*
X5951000Y-11750000D02*
X5951000Y-11830000D01*
X5911000Y-11790000D02*
X5991000Y-11790000D01*
X5960000Y-9004000D02*
X5960000Y-9084000D01*
X5920000Y-9044000D02*
X6000000Y-9044000D01*
X5960000Y-9766000D02*
X5960000Y-9846000D01*
X5920000Y-9806000D02*
X6000000Y-9806000D01*
X5960000Y-17089000D02*
X5960000Y-17169000D01*
X5920000Y-17129000D02*
X6000000Y-17129000D01*
X5960000Y-17851000D02*
X5960000Y-17931000D01*
X5920000Y-17891000D02*
X6000000Y-17891000D01*
X5970000Y-7109000D02*
X5970000Y-7189000D01*
X5930000Y-7149000D02*
X6010000Y-7149000D01*
X5970000Y-7871000D02*
X5970000Y-7951000D01*
X5930000Y-7911000D02*
X6010000Y-7911000D01*
X5990000Y-14209000D02*
X5990000Y-14289000D01*
X5950000Y-14249000D02*
X6030000Y-14249000D01*
X5990000Y-14971000D02*
X5990000Y-15051000D01*
X5950000Y-15011000D02*
X6030000Y-15011000D01*
X6000000Y-6880000D02*
X6000000Y-6960000D01*
X5960000Y-6920000D02*
X6040000Y-6920000D01*
X6000000Y-8770000D02*
X6000000Y-8850000D01*
X5960000Y-8810000D02*
X6040000Y-8810000D01*
X6000000Y-15200000D02*
X6000000Y-15280000D01*
X5960000Y-15240000D02*
X6040000Y-15240000D01*
X6100000Y-13189000D02*
X6100000Y-13269000D01*
X6060000Y-13229000D02*
X6140000Y-13229000D01*
X6100000Y-13951000D02*
X6100000Y-14031000D01*
X6060000Y-13991000D02*
X6140000Y-13991000D01*
X6229000Y-12590000D02*
X6229000Y-12670000D01*
X6189000Y-12630000D02*
X6269000Y-12630000D01*
X6229000Y-12890000D02*
X6229000Y-12970000D01*
X6189000Y-12930000D02*
X6269000Y-12930000D01*
X6250000Y-7110000D02*
X6250000Y-7190000D01*
X6210000Y-7150000D02*
X6290000Y-7150000D01*
X6250000Y-7872000D02*
X6250000Y-7952000D01*
X6210000Y-7912000D02*
X6290000Y-7912000D01*
X6250000Y-9140000D02*
X6250000Y-9220000D01*
X6210000Y-9180000D02*
X6290000Y-9180000D01*
X6250000Y-9640000D02*
X6250000Y-9720000D01*
X6210000Y-9680000D02*
X6290000Y-9680000D01*
X6400000Y-13189000D02*
X6400000Y-13269000D01*
X6360000Y-13229000D02*
X6440000Y-13229000D01*
X6400000Y-13951000D02*
X6400000Y-14031000D01*
X6360000Y-13991000D02*
X6440000Y-13991000D01*
X6460000Y-11469000D02*
X6460000Y-11549000D01*
X6420000Y-11509000D02*
X6500000Y-11509000D01*
X6460000Y-12231000D02*
X6460000Y-12311000D01*
X6420000Y-12271000D02*
X6500000Y-12271000D01*
X6500000Y-6880000D02*
X6500000Y-6960000D01*
X6460000Y-6920000D02*
X6540000Y-6920000D01*
X6500000Y-8770000D02*
X6500000Y-8850000D01*
X6460000Y-8810000D02*
X6540000Y-8810000D01*
X6500000Y-15200000D02*
X6500000Y-15280000D01*
X6460000Y-15240000D02*
X6540000Y-15240000D01*
X6510000Y-14209000D02*
X6510000Y-14289000D01*
X6470000Y-14249000D02*
X6550000Y-14249000D01*
X6510000Y-14971000D02*
X6510000Y-15051000D01*
X6470000Y-15011000D02*
X6550000Y-15011000D01*
X6530000Y-7109000D02*
X6530000Y-7189000D01*
X6490000Y-7149000D02*
X6570000Y-7149000D01*
X6530000Y-7871000D02*
X6530000Y-7951000D01*
X6490000Y-7911000D02*
X6570000Y-7911000D01*
X6550000Y-9004000D02*
X6550000Y-9084000D01*
X6510000Y-9044000D02*
X6590000Y-9044000D01*
X6550000Y-9766000D02*
X6550000Y-9846000D01*
X6510000Y-9806000D02*
X6590000Y-9806000D01*
X6631000Y-8135000D02*
X6631000Y-8215000D01*
X6591000Y-8175000D02*
X6671000Y-8175000D01*
X6631000Y-8435000D02*
X6631000Y-8515000D01*
X6591000Y-8475000D02*
X6671000Y-8475000D01*
X6700000Y-13189000D02*
X6700000Y-13269000D01*
X6660000Y-13229000D02*
X6740000Y-13229000D01*
X6700000Y-13951000D02*
X6700000Y-14031000D01*
X6660000Y-13991000D02*
X6740000Y-13991000D01*
X6760000Y-11469000D02*
X6760000Y-11549000D01*
X6720000Y-11509000D02*
X6800000Y-11509000D01*
X6760000Y-12231000D02*
X6760000Y-12311000D01*
X6720000Y-12271000D02*
X6800000Y-12271000D01*
X6810000Y-7109000D02*
X6810000Y-7189000D01*
X6770000Y-7149000D02*
X6850000Y-7149000D01*
X6810000Y-7871000D02*
X6810000Y-7951000D01*
X6770000Y-7911000D02*
X6850000Y-7911000D01*
X6810000Y-14209000D02*
X6810000Y-14289000D01*
X6770000Y-14249000D02*
X6850000Y-14249000D01*
X6810000Y-14971000D02*
X6810000Y-15051000D01*
X6770000Y-15011000D02*
X6850000Y-15011000D01*
X6825000Y-9004000D02*
X6825000Y-9084000D01*
X6785000Y-9044000D02*
X6865000Y-9044000D01*
X6825000Y-9766000D02*
X6825000Y-9846000D01*
X6785000Y-9806000D02*
X6865000Y-9806000D01*
X6840000Y-10389000D02*
X6840000Y-10469000D01*
X6800000Y-10429000D02*
X6880000Y-10429000D01*
X6840000Y-11151000D02*
X6840000Y-11231000D01*
X6800000Y-11191000D02*
X6880000Y-11191000D01*
X6991000Y-12590000D02*
X6991000Y-12670000D01*
X6951000Y-12630000D02*
X7031000Y-12630000D01*
X6991000Y-12890000D02*
X6991000Y-12970000D01*
X6951000Y-12930000D02*
X7031000Y-12930000D01*
X7110000Y-15690000D02*
X7110000Y-15770000D01*
X7070000Y-15730000D02*
X7150000Y-15730000D01*
X7110000Y-16190000D02*
X7110000Y-16270000D01*
X7070000Y-16230000D02*
X7150000Y-16230000D01*
X7119000Y-5838500D02*
X7119000Y-5918500D01*
X7079000Y-5878500D02*
X7159000Y-5878500D01*
X7119000Y-6092500D02*
X7119000Y-6172500D01*
X7079000Y-6132500D02*
X7159000Y-6132500D01*
X7119000Y-6346500D02*
X7119000Y-6426500D01*
X7079000Y-6386500D02*
X7159000Y-6386500D01*
X7119000Y-6600500D02*
X7119000Y-6680500D01*
X7079000Y-6640500D02*
X7159000Y-6640500D01*
X7119000Y-6854500D02*
X7119000Y-6934500D01*
X7079000Y-6894500D02*
X7159000Y-6894500D01*
X7119000Y-7108500D02*
X7119000Y-7188500D01*
X7079000Y-7148500D02*
X7159000Y-7148500D01*
X7119000Y-7362500D02*
X7119000Y-7442500D01*
X7079000Y-7402500D02*
X7159000Y-7402500D01*
X7119000Y-9518500D02*
X7119000Y-9598500D01*
X7079000Y-9558500D02*
X7159000Y-9558500D01*
X7119000Y-9772500D02*
X7119000Y-9852500D01*
X7079000Y-9812500D02*
X7159000Y-9812500D01*
X7119000Y-10026500D02*
X7119000Y-10106500D01*
X7079000Y-10066500D02*
X7159000Y-10066500D01*
X7119000Y-10280500D02*
X7119000Y-10360500D01*
X7079000Y-10320500D02*
X7159000Y-10320500D01*
X7119000Y-10534500D02*
X7119000Y-10614500D01*
X7079000Y-10574500D02*
X7159000Y-10574500D01*
X7119000Y-10788500D02*
X7119000Y-10868500D01*
X7079000Y-10828500D02*
X7159000Y-10828500D01*
X7119000Y-11042500D02*
X7119000Y-11122500D01*
X7079000Y-11082500D02*
X7159000Y-11082500D01*
X7119000Y-13198500D02*
X7119000Y-13278500D01*
X7079000Y-13238500D02*
X7159000Y-13238500D01*
X7119000Y-13452500D02*
X7119000Y-13532500D01*
X7079000Y-13492500D02*
X7159000Y-13492500D01*
X7119000Y-13706500D02*
X7119000Y-13786500D01*
X7079000Y-13746500D02*
X7159000Y-13746500D01*
X7119000Y-13960500D02*
X7119000Y-14040500D01*
X7079000Y-14000500D02*
X7159000Y-14000500D01*
X7119000Y-14214500D02*
X7119000Y-14294500D01*
X7079000Y-14254500D02*
X7159000Y-14254500D01*
X7119000Y-14468500D02*
X7119000Y-14548500D01*
X7079000Y-14508500D02*
X7159000Y-14508500D01*
X7119000Y-14722500D02*
X7119000Y-14802500D01*
X7079000Y-14762500D02*
X7159000Y-14762500D01*
X7250000Y-5560000D02*
X7250000Y-5640000D01*
X7210000Y-5600000D02*
X7290000Y-5600000D01*
X7250000Y-9240000D02*
X7250000Y-9320000D01*
X7210000Y-9280000D02*
X7290000Y-9280000D01*
X7250000Y-12920000D02*
X7250000Y-13000000D01*
X7210000Y-12960000D02*
X7290000Y-12960000D01*
X7250000Y-15000000D02*
X7250000Y-15080000D01*
X7210000Y-15040000D02*
X7290000Y-15040000D01*
X7300000Y-7806000D02*
X7300000Y-7886000D01*
X7260000Y-7846000D02*
X7340000Y-7846000D01*
X7300000Y-8060000D02*
X7300000Y-8140000D01*
X7260000Y-8100000D02*
X7340000Y-8100000D01*
X7300000Y-8314000D02*
X7300000Y-8394000D01*
X7260000Y-8354000D02*
X7340000Y-8354000D01*
X7300000Y-11480000D02*
X7300000Y-11560000D01*
X7260000Y-11520000D02*
X7340000Y-11520000D01*
X7300000Y-11734000D02*
X7300000Y-11814000D01*
X7260000Y-11774000D02*
X7340000Y-11774000D01*
X7300000Y-11988000D02*
X7300000Y-12068000D01*
X7260000Y-12028000D02*
X7340000Y-12028000D01*
X7338000Y-17440000D02*
X7338000Y-17520000D01*
X7298000Y-17480000D02*
X7378000Y-17480000D01*
X7339000Y-15655000D02*
X7339000Y-15735000D01*
X7299000Y-15695000D02*
X7379000Y-15695000D01*
X7339000Y-15935000D02*
X7339000Y-16015000D01*
X7299000Y-15975000D02*
X7379000Y-15975000D01*
X7339000Y-16235000D02*
X7339000Y-16315000D01*
X7299000Y-16275000D02*
X7379000Y-16275000D01*
X7339000Y-16540000D02*
X7339000Y-16620000D01*
X7299000Y-16580000D02*
X7379000Y-16580000D01*
X7339000Y-16840000D02*
X7339000Y-16920000D01*
X7299000Y-16880000D02*
X7379000Y-16880000D01*
X7339000Y-17140000D02*
X7339000Y-17220000D01*
X7299000Y-17180000D02*
X7379000Y-17180000D01*
X7550000Y-4430511D02*
X7550000Y-4510511D01*
X7510000Y-4470511D02*
X7590000Y-4470511D01*
X7550000Y-4630511D02*
X7550000Y-4710511D01*
X7510000Y-4670511D02*
X7590000Y-4670511D01*
X7700000Y-7808000D02*
X7700000Y-7888000D01*
X7660000Y-7848000D02*
X7740000Y-7848000D01*
X7700000Y-8062000D02*
X7700000Y-8142000D01*
X7660000Y-8102000D02*
X7740000Y-8102000D01*
X7700000Y-8316000D02*
X7700000Y-8396000D01*
X7660000Y-8356000D02*
X7740000Y-8356000D01*
X7700000Y-11481000D02*
X7700000Y-11561000D01*
X7660000Y-11521000D02*
X7740000Y-11521000D01*
X7700000Y-11735000D02*
X7700000Y-11815000D01*
X7660000Y-11775000D02*
X7740000Y-11775000D01*
X7700000Y-11989000D02*
X7700000Y-12069000D01*
X7660000Y-12029000D02*
X7740000Y-12029000D01*
X7750000Y-5560000D02*
X7750000Y-5640000D01*
X7710000Y-5600000D02*
X7790000Y-5600000D01*
X7750000Y-9240000D02*
X7750000Y-9320000D01*
X7710000Y-9280000D02*
X7790000Y-9280000D01*
X7750000Y-12920000D02*
X7750000Y-13000000D01*
X7710000Y-12960000D02*
X7790000Y-12960000D01*
X7750000Y-15000000D02*
X7750000Y-15080000D01*
X7710000Y-15040000D02*
X7790000Y-15040000D01*
X7881000Y-5838500D02*
X7881000Y-5918500D01*
X7841000Y-5878500D02*
X7921000Y-5878500D01*
X7881000Y-6092500D02*
X7881000Y-6172500D01*
X7841000Y-6132500D02*
X7921000Y-6132500D01*
X7881000Y-6346500D02*
X7881000Y-6426500D01*
X7841000Y-6386500D02*
X7921000Y-6386500D01*
X7881000Y-6600500D02*
X7881000Y-6680500D01*
X7841000Y-6640500D02*
X7921000Y-6640500D01*
X7881000Y-6854500D02*
X7881000Y-6934500D01*
X7841000Y-6894500D02*
X7921000Y-6894500D01*
X7881000Y-7108500D02*
X7881000Y-7188500D01*
X7841000Y-7148500D02*
X7921000Y-7148500D01*
X7881000Y-7362500D02*
X7881000Y-7442500D01*
X7841000Y-7402500D02*
X7921000Y-7402500D01*
X7881000Y-9518500D02*
X7881000Y-9598500D01*
X7841000Y-9558500D02*
X7921000Y-9558500D01*
X7881000Y-9772500D02*
X7881000Y-9852500D01*
X7841000Y-9812500D02*
X7921000Y-9812500D01*
X7881000Y-10026500D02*
X7881000Y-10106500D01*
X7841000Y-10066500D02*
X7921000Y-10066500D01*
X7881000Y-10280500D02*
X7881000Y-10360500D01*
X7841000Y-10320500D02*
X7921000Y-10320500D01*
X7881000Y-10534500D02*
X7881000Y-10614500D01*
X7841000Y-10574500D02*
X7921000Y-10574500D01*
X7881000Y-10788500D02*
X7881000Y-10868500D01*
X7841000Y-10828500D02*
X7921000Y-10828500D01*
X7881000Y-11042500D02*
X7881000Y-11122500D01*
X7841000Y-11082500D02*
X7921000Y-11082500D01*
X7881000Y-13198500D02*
X7881000Y-13278500D01*
X7841000Y-13238500D02*
X7921000Y-13238500D01*
X7881000Y-13452500D02*
X7881000Y-13532500D01*
X7841000Y-13492500D02*
X7921000Y-13492500D01*
X7881000Y-13706500D02*
X7881000Y-13786500D01*
X7841000Y-13746500D02*
X7921000Y-13746500D01*
X7881000Y-13960500D02*
X7881000Y-14040500D01*
X7841000Y-14000500D02*
X7921000Y-14000500D01*
X7881000Y-14214500D02*
X7881000Y-14294500D01*
X7841000Y-14254500D02*
X7921000Y-14254500D01*
X7881000Y-14468500D02*
X7881000Y-14548500D01*
X7841000Y-14508500D02*
X7921000Y-14508500D01*
X7881000Y-14722500D02*
X7881000Y-14802500D01*
X7841000Y-14762500D02*
X7921000Y-14762500D01*
X8100000Y-17440000D02*
X8100000Y-17520000D01*
X8060000Y-17480000D02*
X8140000Y-17480000D01*
X8101000Y-15655000D02*
X8101000Y-15735000D01*
X8061000Y-15695000D02*
X8141000Y-15695000D01*
X8101000Y-15935000D02*
X8101000Y-16015000D01*
X8061000Y-15975000D02*
X8141000Y-15975000D01*
X8101000Y-16235000D02*
X8101000Y-16315000D01*
X8061000Y-16275000D02*
X8141000Y-16275000D01*
X8101000Y-16540000D02*
X8101000Y-16620000D01*
X8061000Y-16580000D02*
X8141000Y-16580000D01*
X8101000Y-16840000D02*
X8101000Y-16920000D01*
X8061000Y-16880000D02*
X8141000Y-16880000D01*
X8101000Y-17140000D02*
X8101000Y-17220000D01*
X8061000Y-17180000D02*
X8141000Y-17180000D01*
X8160000Y-9409000D02*
X8160000Y-9489000D01*
X8120000Y-9449000D02*
X8200000Y-9449000D01*
X8160000Y-10171000D02*
X8160000Y-10251000D01*
X8120000Y-10211000D02*
X8200000Y-10211000D01*
X8160000Y-10389000D02*
X8160000Y-10469000D01*
X8120000Y-10429000D02*
X8200000Y-10429000D01*
X8160000Y-11151000D02*
X8160000Y-11231000D01*
X8120000Y-11191000D02*
X8200000Y-11191000D01*
X8190000Y-11659000D02*
X8190000Y-11739000D01*
X8150000Y-11699000D02*
X8230000Y-11699000D01*
X8190000Y-12421000D02*
X8190000Y-12501000D01*
X8150000Y-12461000D02*
X8230000Y-12461000D01*
X8190000Y-12949000D02*
X8190000Y-13029000D01*
X8150000Y-12989000D02*
X8230000Y-12989000D01*
X8190000Y-13711000D02*
X8190000Y-13791000D01*
X8150000Y-13751000D02*
X8230000Y-13751000D01*
X8190000Y-14219000D02*
X8190000Y-14299000D01*
X8150000Y-14259000D02*
X8230000Y-14259000D01*
X8190000Y-14981000D02*
X8190000Y-15061000D01*
X8150000Y-15021000D02*
X8230000Y-15021000D01*
X8200000Y-9180000D02*
X8200000Y-9260000D01*
X8160000Y-9220000D02*
X8240000Y-9220000D01*
X8200000Y-11380000D02*
X8200000Y-11460000D01*
X8160000Y-11420000D02*
X8240000Y-11420000D01*
X8320000Y-5869000D02*
X8320000Y-5949000D01*
X8280000Y-5909000D02*
X8360000Y-5909000D01*
X8320000Y-6631000D02*
X8320000Y-6711000D01*
X8280000Y-6671000D02*
X8360000Y-6671000D01*
X8440000Y-9409000D02*
X8440000Y-9489000D01*
X8400000Y-9449000D02*
X8480000Y-9449000D01*
X8440000Y-10171000D02*
X8440000Y-10251000D01*
X8400000Y-10211000D02*
X8480000Y-10211000D01*
X8440000Y-10389000D02*
X8440000Y-10469000D01*
X8400000Y-10429000D02*
X8480000Y-10429000D01*
X8440000Y-11151000D02*
X8440000Y-11231000D01*
X8400000Y-11191000D02*
X8480000Y-11191000D01*
X8470000Y-11659000D02*
X8470000Y-11739000D01*
X8430000Y-11699000D02*
X8510000Y-11699000D01*
X8470000Y-12421000D02*
X8470000Y-12501000D01*
X8430000Y-12461000D02*
X8510000Y-12461000D01*
X8590000Y-13205000D02*
X8590000Y-13285000D01*
X8550000Y-13245000D02*
X8630000Y-13245000D01*
X8590000Y-13455000D02*
X8590000Y-13535000D01*
X8550000Y-13495000D02*
X8630000Y-13495000D01*
X8590000Y-13825000D02*
X8590000Y-13905000D01*
X8550000Y-13865000D02*
X8630000Y-13865000D01*
X8590000Y-14075000D02*
X8590000Y-14155000D01*
X8550000Y-14115000D02*
X8630000Y-14115000D01*
X8590000Y-14475000D02*
X8590000Y-14555000D01*
X8550000Y-14515000D02*
X8630000Y-14515000D01*
X8590000Y-14725000D02*
X8590000Y-14805000D01*
X8550000Y-14765000D02*
X8630000Y-14765000D01*
X8600000Y-5869000D02*
X8600000Y-5949000D01*
X8560000Y-5909000D02*
X8640000Y-5909000D01*
X8600000Y-6631000D02*
X8600000Y-6711000D01*
X8560000Y-6671000D02*
X8640000Y-6671000D01*
X8700000Y-9180000D02*
X8700000Y-9260000D01*
X8660000Y-9220000D02*
X8740000Y-9220000D01*
X8700000Y-11380000D02*
X8700000Y-11460000D01*
X8660000Y-11420000D02*
X8740000Y-11420000D01*
X8720000Y-11790000D02*
X8720000Y-11870000D01*
X8680000Y-11830000D02*
X8760000Y-11830000D01*
X8720000Y-12290000D02*
X8720000Y-12370000D01*
X8680000Y-12330000D02*
X8760000Y-12330000D01*
X8740000Y-9409000D02*
X8740000Y-9489000D01*
X8700000Y-9449000D02*
X8780000Y-9449000D01*
X8740000Y-10171000D02*
X8740000Y-10251000D01*
X8700000Y-10211000D02*
X8780000Y-10211000D01*
X8740000Y-10389000D02*
X8740000Y-10469000D01*
X8700000Y-10429000D02*
X8780000Y-10429000D01*
X8740000Y-11151000D02*
X8740000Y-11231000D01*
X8700000Y-11191000D02*
X8780000Y-11191000D01*
X9010000Y-12979000D02*
X9010000Y-13059000D01*
X8970000Y-13019000D02*
X9050000Y-13019000D01*
X9010000Y-13741000D02*
X9010000Y-13821000D01*
X8970000Y-13781000D02*
X9050000Y-13781000D01*
X9010000Y-13959000D02*
X9010000Y-14039000D01*
X8970000Y-13999000D02*
X9050000Y-13999000D01*
X9010000Y-14721000D02*
X9010000Y-14801000D01*
X8970000Y-14761000D02*
X9050000Y-14761000D01*
X9310000Y-12979000D02*
X9310000Y-13059000D01*
X9270000Y-13019000D02*
X9350000Y-13019000D01*
X9310000Y-13741000D02*
X9310000Y-13821000D01*
X9270000Y-13781000D02*
X9350000Y-13781000D01*
X9310000Y-13959000D02*
X9310000Y-14039000D01*
X9270000Y-13999000D02*
X9350000Y-13999000D01*
X9310000Y-14721000D02*
X9310000Y-14801000D01*
X9270000Y-14761000D02*
X9350000Y-14761000D01*
X9619000Y-13198500D02*
X9619000Y-13278500D01*
X9579000Y-13238500D02*
X9659000Y-13238500D01*
X9619000Y-13452500D02*
X9619000Y-13532500D01*
X9579000Y-13492500D02*
X9659000Y-13492500D01*
X9619000Y-13706500D02*
X9619000Y-13786500D01*
X9579000Y-13746500D02*
X9659000Y-13746500D01*
X9619000Y-13960500D02*
X9619000Y-14040500D01*
X9579000Y-14000500D02*
X9659000Y-14000500D01*
X9619000Y-14214500D02*
X9619000Y-14294500D01*
X9579000Y-14254500D02*
X9659000Y-14254500D01*
X9619000Y-14468500D02*
X9619000Y-14548500D01*
X9579000Y-14508500D02*
X9659000Y-14508500D01*
X9619000Y-14722500D02*
X9619000Y-14802500D01*
X9579000Y-14762500D02*
X9659000Y-14762500D01*
X9750000Y-12920000D02*
X9750000Y-13000000D01*
X9710000Y-12960000D02*
X9790000Y-12960000D01*
X10250000Y-12920000D02*
X10250000Y-13000000D01*
X10210000Y-12960000D02*
X10290000Y-12960000D01*
X10381000Y-13198500D02*
X10381000Y-13278500D01*
X10341000Y-13238500D02*
X10421000Y-13238500D01*
X10381000Y-13452500D02*
X10381000Y-13532500D01*
X10341000Y-13492500D02*
X10421000Y-13492500D01*
X10381000Y-13706500D02*
X10381000Y-13786500D01*
X10341000Y-13746500D02*
X10421000Y-13746500D01*
X10381000Y-13960500D02*
X10381000Y-14040500D01*
X10341000Y-14000500D02*
X10421000Y-14000500D01*
X10381000Y-14214500D02*
X10381000Y-14294500D01*
X10341000Y-14254500D02*
X10421000Y-14254500D01*
X10381000Y-14468500D02*
X10381000Y-14548500D01*
X10341000Y-14508500D02*
X10421000Y-14508500D01*
X10381000Y-14722500D02*
X10381000Y-14802500D01*
X10341000Y-14762500D02*
X10421000Y-14762500D01*
X10690000Y-12979000D02*
X10690000Y-13059000D01*
X10650000Y-13019000D02*
X10730000Y-13019000D01*
X10690000Y-13741000D02*
X10690000Y-13821000D01*
X10650000Y-13781000D02*
X10730000Y-13781000D01*
X10690000Y-13959000D02*
X10690000Y-14039000D01*
X10650000Y-13999000D02*
X10730000Y-13999000D01*
X10690000Y-14721000D02*
X10690000Y-14801000D01*
X10650000Y-14761000D02*
X10730000Y-14761000D01*
X10990000Y-12979000D02*
X10990000Y-13059000D01*
X10950000Y-13019000D02*
X11030000Y-13019000D01*
X10990000Y-13741000D02*
X10990000Y-13821000D01*
X10950000Y-13781000D02*
X11030000Y-13781000D01*
X10990000Y-13959000D02*
X10990000Y-14039000D01*
X10950000Y-13999000D02*
X11030000Y-13999000D01*
X10990000Y-14721000D02*
X10990000Y-14801000D01*
X10950000Y-14761000D02*
X11030000Y-14761000D01*
X11260000Y-9409000D02*
X11260000Y-9489000D01*
X11220000Y-9449000D02*
X11300000Y-9449000D01*
X11260000Y-10171000D02*
X11260000Y-10251000D01*
X11220000Y-10211000D02*
X11300000Y-10211000D01*
X11260000Y-10389000D02*
X11260000Y-10469000D01*
X11220000Y-10429000D02*
X11300000Y-10429000D01*
X11260000Y-11151000D02*
X11260000Y-11231000D01*
X11220000Y-11191000D02*
X11300000Y-11191000D01*
X11280000Y-9180000D02*
X11280000Y-9260000D01*
X11240000Y-9220000D02*
X11320000Y-9220000D01*
X11280000Y-11790000D02*
X11280000Y-11870000D01*
X11240000Y-11830000D02*
X11320000Y-11830000D01*
X11280000Y-12290000D02*
X11280000Y-12370000D01*
X11240000Y-12330000D02*
X11320000Y-12330000D01*
X11290000Y-11380000D02*
X11290000Y-11460000D01*
X11250000Y-11420000D02*
X11330000Y-11420000D01*
X11399000Y-5869000D02*
X11399000Y-5949000D01*
X11359000Y-5909000D02*
X11439000Y-5909000D01*
X11399000Y-6631000D02*
X11399000Y-6711000D01*
X11359000Y-6671000D02*
X11439000Y-6671000D01*
X11410000Y-13205000D02*
X11410000Y-13285000D01*
X11370000Y-13245000D02*
X11450000Y-13245000D01*
X11410000Y-13455000D02*
X11410000Y-13535000D01*
X11370000Y-13495000D02*
X11450000Y-13495000D01*
X11410000Y-13825000D02*
X11410000Y-13905000D01*
X11370000Y-13865000D02*
X11450000Y-13865000D01*
X11410000Y-14075000D02*
X11410000Y-14155000D01*
X11370000Y-14115000D02*
X11450000Y-14115000D01*
X11410000Y-14474000D02*
X11410000Y-14554000D01*
X11370000Y-14514000D02*
X11450000Y-14514000D01*
X11410000Y-14724000D02*
X11410000Y-14804000D01*
X11370000Y-14764000D02*
X11450000Y-14764000D01*
X11530000Y-11659000D02*
X11530000Y-11739000D01*
X11490000Y-11699000D02*
X11570000Y-11699000D01*
X11530000Y-12421000D02*
X11530000Y-12501000D01*
X11490000Y-12461000D02*
X11570000Y-12461000D01*
X11560000Y-9409000D02*
X11560000Y-9489000D01*
X11520000Y-9449000D02*
X11600000Y-9449000D01*
X11560000Y-10171000D02*
X11560000Y-10251000D01*
X11520000Y-10211000D02*
X11600000Y-10211000D01*
X11560000Y-10389000D02*
X11560000Y-10469000D01*
X11520000Y-10429000D02*
X11600000Y-10429000D01*
X11560000Y-11151000D02*
X11560000Y-11231000D01*
X11520000Y-11191000D02*
X11600000Y-11191000D01*
X11680000Y-5869000D02*
X11680000Y-5949000D01*
X11640000Y-5909000D02*
X11720000Y-5909000D01*
X11680000Y-6631000D02*
X11680000Y-6711000D01*
X11640000Y-6671000D02*
X11720000Y-6671000D01*
X11780000Y-9180000D02*
X11780000Y-9260000D01*
X11740000Y-9220000D02*
X11820000Y-9220000D01*
X11790000Y-11380000D02*
X11790000Y-11460000D01*
X11750000Y-11420000D02*
X11830000Y-11420000D01*
X11810000Y-11659000D02*
X11810000Y-11739000D01*
X11770000Y-11699000D02*
X11850000Y-11699000D01*
X11810000Y-12421000D02*
X11810000Y-12501000D01*
X11770000Y-12461000D02*
X11850000Y-12461000D01*
X11810000Y-12949000D02*
X11810000Y-13029000D01*
X11770000Y-12989000D02*
X11850000Y-12989000D01*
X11810000Y-13711000D02*
X11810000Y-13791000D01*
X11770000Y-13751000D02*
X11850000Y-13751000D01*
X11810000Y-14219000D02*
X11810000Y-14299000D01*
X11770000Y-14259000D02*
X11850000Y-14259000D01*
X11810000Y-14981000D02*
X11810000Y-15061000D01*
X11770000Y-15021000D02*
X11850000Y-15021000D01*
X11840000Y-9409000D02*
X11840000Y-9489000D01*
X11800000Y-9449000D02*
X11880000Y-9449000D01*
X11840000Y-10171000D02*
X11840000Y-10251000D01*
X11800000Y-10211000D02*
X11880000Y-10211000D01*
X11840000Y-10389000D02*
X11840000Y-10469000D01*
X11800000Y-10429000D02*
X11880000Y-10429000D01*
X11840000Y-11151000D02*
X11840000Y-11231000D01*
X11800000Y-11191000D02*
X11880000Y-11191000D01*
X11899000Y-16540000D02*
X11899000Y-16620000D01*
X11859000Y-16580000D02*
X11939000Y-16580000D01*
X11899000Y-16840000D02*
X11899000Y-16920000D01*
X11859000Y-16880000D02*
X11939000Y-16880000D01*
X11899000Y-17140000D02*
X11899000Y-17220000D01*
X11859000Y-17180000D02*
X11939000Y-17180000D01*
X11899000Y-17440000D02*
X11899000Y-17520000D01*
X11859000Y-17480000D02*
X11939000Y-17480000D01*
X11900000Y-15655000D02*
X11900000Y-15735000D01*
X11860000Y-15695000D02*
X11940000Y-15695000D01*
X11900000Y-15935000D02*
X11900000Y-16015000D01*
X11860000Y-15975000D02*
X11940000Y-15975000D01*
X11900000Y-16235000D02*
X11900000Y-16315000D01*
X11860000Y-16275000D02*
X11940000Y-16275000D01*
X12119000Y-5838500D02*
X12119000Y-5918500D01*
X12079000Y-5878500D02*
X12159000Y-5878500D01*
X12119000Y-6092500D02*
X12119000Y-6172500D01*
X12079000Y-6132500D02*
X12159000Y-6132500D01*
X12119000Y-6346500D02*
X12119000Y-6426500D01*
X12079000Y-6386500D02*
X12159000Y-6386500D01*
X12119000Y-6600500D02*
X12119000Y-6680500D01*
X12079000Y-6640500D02*
X12159000Y-6640500D01*
X12119000Y-6854500D02*
X12119000Y-6934500D01*
X12079000Y-6894500D02*
X12159000Y-6894500D01*
X12119000Y-7108500D02*
X12119000Y-7188500D01*
X12079000Y-7148500D02*
X12159000Y-7148500D01*
X12119000Y-7362500D02*
X12119000Y-7442500D01*
X12079000Y-7402500D02*
X12159000Y-7402500D01*
X12119000Y-9518500D02*
X12119000Y-9598500D01*
X12079000Y-9558500D02*
X12159000Y-9558500D01*
X12119000Y-9772500D02*
X12119000Y-9852500D01*
X12079000Y-9812500D02*
X12159000Y-9812500D01*
X12119000Y-10026500D02*
X12119000Y-10106500D01*
X12079000Y-10066500D02*
X12159000Y-10066500D01*
X12119000Y-10280500D02*
X12119000Y-10360500D01*
X12079000Y-10320500D02*
X12159000Y-10320500D01*
X12119000Y-10534500D02*
X12119000Y-10614500D01*
X12079000Y-10574500D02*
X12159000Y-10574500D01*
X12119000Y-10788500D02*
X12119000Y-10868500D01*
X12079000Y-10828500D02*
X12159000Y-10828500D01*
X12119000Y-11042500D02*
X12119000Y-11122500D01*
X12079000Y-11082500D02*
X12159000Y-11082500D01*
X12119000Y-13198500D02*
X12119000Y-13278500D01*
X12079000Y-13238500D02*
X12159000Y-13238500D01*
X12119000Y-13452500D02*
X12119000Y-13532500D01*
X12079000Y-13492500D02*
X12159000Y-13492500D01*
X12119000Y-13706500D02*
X12119000Y-13786500D01*
X12079000Y-13746500D02*
X12159000Y-13746500D01*
X12119000Y-13960500D02*
X12119000Y-14040500D01*
X12079000Y-14000500D02*
X12159000Y-14000500D01*
X12119000Y-14214500D02*
X12119000Y-14294500D01*
X12079000Y-14254500D02*
X12159000Y-14254500D01*
X12119000Y-14468500D02*
X12119000Y-14548500D01*
X12079000Y-14508500D02*
X12159000Y-14508500D01*
X12119000Y-14722500D02*
X12119000Y-14802500D01*
X12079000Y-14762500D02*
X12159000Y-14762500D01*
X12250000Y-5560000D02*
X12250000Y-5640000D01*
X12210000Y-5600000D02*
X12290000Y-5600000D01*
X12250000Y-9240000D02*
X12250000Y-9320000D01*
X12210000Y-9280000D02*
X12290000Y-9280000D01*
X12250000Y-12920000D02*
X12250000Y-13000000D01*
X12210000Y-12960000D02*
X12290000Y-12960000D01*
X12250000Y-15000000D02*
X12250000Y-15080000D01*
X12210000Y-15040000D02*
X12290000Y-15040000D01*
X12300000Y-7806000D02*
X12300000Y-7886000D01*
X12260000Y-7846000D02*
X12340000Y-7846000D01*
X12300000Y-8060000D02*
X12300000Y-8140000D01*
X12260000Y-8100000D02*
X12340000Y-8100000D01*
X12300000Y-8314000D02*
X12300000Y-8394000D01*
X12260000Y-8354000D02*
X12340000Y-8354000D01*
X12300000Y-11480000D02*
X12300000Y-11560000D01*
X12260000Y-11520000D02*
X12340000Y-11520000D01*
X12300000Y-11734000D02*
X12300000Y-11814000D01*
X12260000Y-11774000D02*
X12340000Y-11774000D01*
X12300000Y-11988000D02*
X12300000Y-12068000D01*
X12260000Y-12028000D02*
X12340000Y-12028000D01*
X12450000Y-4439489D02*
X12450000Y-4519489D01*
X12410000Y-4479489D02*
X12490000Y-4479489D01*
X12450000Y-4639489D02*
X12450000Y-4719489D01*
X12410000Y-4679489D02*
X12490000Y-4679489D01*
X12661000Y-16540000D02*
X12661000Y-16620000D01*
X12621000Y-16580000D02*
X12701000Y-16580000D01*
X12661000Y-16840000D02*
X12661000Y-16920000D01*
X12621000Y-16880000D02*
X12701000Y-16880000D01*
X12661000Y-17140000D02*
X12661000Y-17220000D01*
X12621000Y-17180000D02*
X12701000Y-17180000D01*
X12661000Y-17440000D02*
X12661000Y-17520000D01*
X12621000Y-17480000D02*
X12701000Y-17480000D01*
X12662000Y-15655000D02*
X12662000Y-15735000D01*
X12622000Y-15695000D02*
X12702000Y-15695000D01*
X12662000Y-15935000D02*
X12662000Y-16015000D01*
X12622000Y-15975000D02*
X12702000Y-15975000D01*
X12662000Y-16235000D02*
X12662000Y-16315000D01*
X12622000Y-16275000D02*
X12702000Y-16275000D01*
X12700000Y-7808000D02*
X12700000Y-7888000D01*
X12660000Y-7848000D02*
X12740000Y-7848000D01*
X12700000Y-8062000D02*
X12700000Y-8142000D01*
X12660000Y-8102000D02*
X12740000Y-8102000D01*
X12700000Y-8316000D02*
X12700000Y-8396000D01*
X12660000Y-8356000D02*
X12740000Y-8356000D01*
X12700000Y-11481000D02*
X12700000Y-11561000D01*
X12660000Y-11521000D02*
X12740000Y-11521000D01*
X12700000Y-11735000D02*
X12700000Y-11815000D01*
X12660000Y-11775000D02*
X12740000Y-11775000D01*
X12700000Y-11989000D02*
X12700000Y-12069000D01*
X12660000Y-12029000D02*
X12740000Y-12029000D01*
X12750000Y-5560000D02*
X12750000Y-5640000D01*
X12710000Y-5600000D02*
X12790000Y-5600000D01*
X12750000Y-9240000D02*
X12750000Y-9320000D01*
X12710000Y-9280000D02*
X12790000Y-9280000D01*
X12750000Y-12920000D02*
X12750000Y-13000000D01*
X12710000Y-12960000D02*
X12790000Y-12960000D01*
X12750000Y-15000000D02*
X12750000Y-15080000D01*
X12710000Y-15040000D02*
X12790000Y-15040000D01*
X12881000Y-5838500D02*
X12881000Y-5918500D01*
X12841000Y-5878500D02*
X12921000Y-5878500D01*
X12881000Y-6092500D02*
X12881000Y-6172500D01*
X12841000Y-6132500D02*
X12921000Y-6132500D01*
X12881000Y-6346500D02*
X12881000Y-6426500D01*
X12841000Y-6386500D02*
X12921000Y-6386500D01*
X12881000Y-6600500D02*
X12881000Y-6680500D01*
X12841000Y-6640500D02*
X12921000Y-6640500D01*
X12881000Y-6854500D02*
X12881000Y-6934500D01*
X12841000Y-6894500D02*
X12921000Y-6894500D01*
X12881000Y-7108500D02*
X12881000Y-7188500D01*
X12841000Y-7148500D02*
X12921000Y-7148500D01*
X12881000Y-7362500D02*
X12881000Y-7442500D01*
X12841000Y-7402500D02*
X12921000Y-7402500D01*
X12881000Y-9518500D02*
X12881000Y-9598500D01*
X12841000Y-9558500D02*
X12921000Y-9558500D01*
X12881000Y-9772500D02*
X12881000Y-9852500D01*
X12841000Y-9812500D02*
X12921000Y-9812500D01*
X12881000Y-10026500D02*
X12881000Y-10106500D01*
X12841000Y-10066500D02*
X12921000Y-10066500D01*
X12881000Y-10280500D02*
X12881000Y-10360500D01*
X12841000Y-10320500D02*
X12921000Y-10320500D01*
X12881000Y-10534500D02*
X12881000Y-10614500D01*
X12841000Y-10574500D02*
X12921000Y-10574500D01*
X12881000Y-10788500D02*
X12881000Y-10868500D01*
X12841000Y-10828500D02*
X12921000Y-10828500D01*
X12881000Y-11042500D02*
X12881000Y-11122500D01*
X12841000Y-11082500D02*
X12921000Y-11082500D01*
X12881000Y-13198500D02*
X12881000Y-13278500D01*
X12841000Y-13238500D02*
X12921000Y-13238500D01*
X12881000Y-13452500D02*
X12881000Y-13532500D01*
X12841000Y-13492500D02*
X12921000Y-13492500D01*
X12881000Y-13706500D02*
X12881000Y-13786500D01*
X12841000Y-13746500D02*
X12921000Y-13746500D01*
X12881000Y-13960500D02*
X12881000Y-14040500D01*
X12841000Y-14000500D02*
X12921000Y-14000500D01*
X12881000Y-14214500D02*
X12881000Y-14294500D01*
X12841000Y-14254500D02*
X12921000Y-14254500D01*
X12881000Y-14468500D02*
X12881000Y-14548500D01*
X12841000Y-14508500D02*
X12921000Y-14508500D01*
X12881000Y-14722500D02*
X12881000Y-14802500D01*
X12841000Y-14762500D02*
X12921000Y-14762500D01*
X12890000Y-15690000D02*
X12890000Y-15770000D01*
X12850000Y-15730000D02*
X12930000Y-15730000D01*
X12890000Y-16190000D02*
X12890000Y-16270000D01*
X12850000Y-16230000D02*
X12930000Y-16230000D01*
X13009000Y-12590000D02*
X13009000Y-12670000D01*
X12969000Y-12630000D02*
X13049000Y-12630000D01*
X13009000Y-12890000D02*
X13009000Y-12970000D01*
X12969000Y-12930000D02*
X13049000Y-12930000D01*
X13160000Y-10389000D02*
X13160000Y-10469000D01*
X13120000Y-10429000D02*
X13200000Y-10429000D01*
X13160000Y-11151000D02*
X13160000Y-11231000D01*
X13120000Y-11191000D02*
X13200000Y-11191000D01*
X13170000Y-9004000D02*
X13170000Y-9084000D01*
X13130000Y-9044000D02*
X13210000Y-9044000D01*
X13170000Y-9766000D02*
X13170000Y-9846000D01*
X13130000Y-9806000D02*
X13210000Y-9806000D01*
X13190000Y-7109000D02*
X13190000Y-7189000D01*
X13150000Y-7149000D02*
X13230000Y-7149000D01*
X13190000Y-7871000D02*
X13190000Y-7951000D01*
X13150000Y-7911000D02*
X13230000Y-7911000D01*
X13190000Y-14209000D02*
X13190000Y-14289000D01*
X13150000Y-14249000D02*
X13230000Y-14249000D01*
X13190000Y-14971000D02*
X13190000Y-15051000D01*
X13150000Y-15011000D02*
X13230000Y-15011000D01*
X13240000Y-11469000D02*
X13240000Y-11549000D01*
X13200000Y-11509000D02*
X13280000Y-11509000D01*
X13240000Y-12231000D02*
X13240000Y-12311000D01*
X13200000Y-12271000D02*
X13280000Y-12271000D01*
X13300000Y-13189000D02*
X13300000Y-13269000D01*
X13260000Y-13229000D02*
X13340000Y-13229000D01*
X13300000Y-13951000D02*
X13300000Y-14031000D01*
X13260000Y-13991000D02*
X13340000Y-13991000D01*
X13369000Y-8130000D02*
X13369000Y-8210000D01*
X13329000Y-8170000D02*
X13409000Y-8170000D01*
X13369000Y-8430000D02*
X13369000Y-8510000D01*
X13329000Y-8470000D02*
X13409000Y-8470000D01*
X13450000Y-9004000D02*
X13450000Y-9084000D01*
X13410000Y-9044000D02*
X13490000Y-9044000D01*
X13450000Y-9766000D02*
X13450000Y-9846000D01*
X13410000Y-9806000D02*
X13490000Y-9806000D01*
X13470000Y-7110000D02*
X13470000Y-7190000D01*
X13430000Y-7150000D02*
X13510000Y-7150000D01*
X13470000Y-7872000D02*
X13470000Y-7952000D01*
X13430000Y-7912000D02*
X13510000Y-7912000D01*
X13490000Y-14209000D02*
X13490000Y-14289000D01*
X13450000Y-14249000D02*
X13530000Y-14249000D01*
X13490000Y-14971000D02*
X13490000Y-15051000D01*
X13450000Y-15011000D02*
X13530000Y-15011000D01*
X13500000Y-6881000D02*
X13500000Y-6961000D01*
X13460000Y-6921000D02*
X13540000Y-6921000D01*
X13500000Y-8770000D02*
X13500000Y-8850000D01*
X13460000Y-8810000D02*
X13540000Y-8810000D01*
X13500000Y-15200000D02*
X13500000Y-15280000D01*
X13460000Y-15240000D02*
X13540000Y-15240000D01*
X13540000Y-11469000D02*
X13540000Y-11549000D01*
X13500000Y-11509000D02*
X13580000Y-11509000D01*
X13540000Y-12231000D02*
X13540000Y-12311000D01*
X13500000Y-12271000D02*
X13580000Y-12271000D01*
X13600000Y-13189000D02*
X13600000Y-13269000D01*
X13560000Y-13229000D02*
X13640000Y-13229000D01*
X13600000Y-13951000D02*
X13600000Y-14031000D01*
X13560000Y-13991000D02*
X13640000Y-13991000D01*
X13740000Y-9140000D02*
X13740000Y-9220000D01*
X13700000Y-9180000D02*
X13780000Y-9180000D01*
X13740000Y-9640000D02*
X13740000Y-9720000D01*
X13700000Y-9680000D02*
X13780000Y-9680000D01*
X13750000Y-7110000D02*
X13750000Y-7190000D01*
X13710000Y-7150000D02*
X13790000Y-7150000D01*
X13750000Y-7872000D02*
X13750000Y-7952000D01*
X13710000Y-7912000D02*
X13790000Y-7912000D01*
X13771000Y-12590000D02*
X13771000Y-12670000D01*
X13731000Y-12630000D02*
X13811000Y-12630000D01*
X13771000Y-12890000D02*
X13771000Y-12970000D01*
X13731000Y-12930000D02*
X13811000Y-12930000D01*
X13900000Y-13189000D02*
X13900000Y-13269000D01*
X13860000Y-13229000D02*
X13940000Y-13229000D01*
X13900000Y-13951000D02*
X13900000Y-14031000D01*
X13860000Y-13991000D02*
X13940000Y-13991000D01*
X14000000Y-6881000D02*
X14000000Y-6961000D01*
X13960000Y-6921000D02*
X14040000Y-6921000D01*
X14000000Y-8770000D02*
X14000000Y-8850000D01*
X13960000Y-8810000D02*
X14040000Y-8810000D01*
X14000000Y-15200000D02*
X14000000Y-15280000D01*
X13960000Y-15240000D02*
X14040000Y-15240000D01*
X14010000Y-14209000D02*
X14010000Y-14289000D01*
X13970000Y-14249000D02*
X14050000Y-14249000D01*
X14010000Y-14971000D02*
X14010000Y-15051000D01*
X13970000Y-15011000D02*
X14050000Y-15011000D01*
X14030000Y-7110000D02*
X14030000Y-7190000D01*
X13990000Y-7150000D02*
X14070000Y-7150000D01*
X14030000Y-7872000D02*
X14030000Y-7952000D01*
X13990000Y-7912000D02*
X14070000Y-7912000D01*
X14040000Y-17089000D02*
X14040000Y-17169000D01*
X14000000Y-17129000D02*
X14080000Y-17129000D01*
X14040000Y-17851000D02*
X14040000Y-17931000D01*
X14000000Y-17891000D02*
X14080000Y-17891000D01*
X14050000Y-9004000D02*
X14050000Y-9084000D01*
X14010000Y-9044000D02*
X14090000Y-9044000D01*
X14050000Y-9766000D02*
X14050000Y-9846000D01*
X14010000Y-9806000D02*
X14090000Y-9806000D01*
X14059000Y-11750000D02*
X14059000Y-11830000D01*
X14019000Y-11790000D02*
X14099000Y-11790000D01*
X14131000Y-8130000D02*
X14131000Y-8210000D01*
X14091000Y-8170000D02*
X14171000Y-8170000D01*
X14131000Y-8430000D02*
X14131000Y-8510000D01*
X14091000Y-8470000D02*
X14171000Y-8470000D01*
X14186000Y-12340500D02*
X14186000Y-12420500D01*
X14146000Y-12380500D02*
X14226000Y-12380500D01*
X14200000Y-13189000D02*
X14200000Y-13269000D01*
X14160000Y-13229000D02*
X14240000Y-13229000D01*
X14200000Y-13951000D02*
X14200000Y-14031000D01*
X14160000Y-13991000D02*
X14240000Y-13991000D01*
X14310000Y-5579000D02*
X14310000Y-5659000D01*
X14270000Y-5619000D02*
X14350000Y-5619000D01*
X14310000Y-6341000D02*
X14310000Y-6421000D01*
X14270000Y-6381000D02*
X14350000Y-6381000D01*
X14310000Y-7110000D02*
X14310000Y-7190000D01*
X14270000Y-7150000D02*
X14350000Y-7150000D01*
X14310000Y-7872000D02*
X14310000Y-7952000D01*
X14270000Y-7912000D02*
X14350000Y-7912000D01*
X14310000Y-14209000D02*
X14310000Y-14289000D01*
X14270000Y-14249000D02*
X14350000Y-14249000D01*
X14310000Y-14971000D02*
X14310000Y-15051000D01*
X14270000Y-15011000D02*
X14350000Y-15011000D01*
X14330000Y-9004000D02*
X14330000Y-9084000D01*
X14290000Y-9044000D02*
X14370000Y-9044000D01*
X14330000Y-9766000D02*
X14330000Y-9846000D01*
X14290000Y-9806000D02*
X14370000Y-9806000D01*
X14340000Y-17089000D02*
X14340000Y-17169000D01*
X14300000Y-17129000D02*
X14380000Y-17129000D01*
X14340000Y-17851000D02*
X14340000Y-17931000D01*
X14300000Y-17891000D02*
X14380000Y-17891000D01*
X14440000Y-12340500D02*
X14440000Y-12420500D01*
X14400000Y-12380500D02*
X14480000Y-12380500D01*
X14619000Y-5838500D02*
X14619000Y-5918500D01*
X14579000Y-5878500D02*
X14659000Y-5878500D01*
X14619000Y-6092500D02*
X14619000Y-6172500D01*
X14579000Y-6132500D02*
X14659000Y-6132500D01*
X14619000Y-6346500D02*
X14619000Y-6426500D01*
X14579000Y-6386500D02*
X14659000Y-6386500D01*
X14619000Y-6600500D02*
X14619000Y-6680500D01*
X14579000Y-6640500D02*
X14659000Y-6640500D01*
X14619000Y-6854500D02*
X14619000Y-6934500D01*
X14579000Y-6894500D02*
X14659000Y-6894500D01*
X14619000Y-7108500D02*
X14619000Y-7188500D01*
X14579000Y-7148500D02*
X14659000Y-7148500D01*
X14619000Y-7362500D02*
X14619000Y-7442500D01*
X14579000Y-7402500D02*
X14659000Y-7402500D01*
X14619000Y-7910000D02*
X14619000Y-7990000D01*
X14579000Y-7950000D02*
X14659000Y-7950000D01*
X14619000Y-9518500D02*
X14619000Y-9598500D01*
X14579000Y-9558500D02*
X14659000Y-9558500D01*
X14619000Y-9772500D02*
X14619000Y-9852500D01*
X14579000Y-9812500D02*
X14659000Y-9812500D01*
X14619000Y-10026500D02*
X14619000Y-10106500D01*
X14579000Y-10066500D02*
X14659000Y-10066500D01*
X14619000Y-10280500D02*
X14619000Y-10360500D01*
X14579000Y-10320500D02*
X14659000Y-10320500D01*
X14619000Y-10534500D02*
X14619000Y-10614500D01*
X14579000Y-10574500D02*
X14659000Y-10574500D01*
X14619000Y-10788500D02*
X14619000Y-10868500D01*
X14579000Y-10828500D02*
X14659000Y-10828500D01*
X14619000Y-11042500D02*
X14619000Y-11122500D01*
X14579000Y-11082500D02*
X14659000Y-11082500D01*
X14619000Y-13198500D02*
X14619000Y-13278500D01*
X14579000Y-13238500D02*
X14659000Y-13238500D01*
X14619000Y-13452500D02*
X14619000Y-13532500D01*
X14579000Y-13492500D02*
X14659000Y-13492500D01*
X14619000Y-13706500D02*
X14619000Y-13786500D01*
X14579000Y-13746500D02*
X14659000Y-13746500D01*
X14619000Y-13960500D02*
X14619000Y-14040500D01*
X14579000Y-14000500D02*
X14659000Y-14000500D01*
X14619000Y-14214500D02*
X14619000Y-14294500D01*
X14579000Y-14254500D02*
X14659000Y-14254500D01*
X14619000Y-14468500D02*
X14619000Y-14548500D01*
X14579000Y-14508500D02*
X14659000Y-14508500D01*
X14619000Y-14722500D02*
X14619000Y-14802500D01*
X14579000Y-14762500D02*
X14659000Y-14762500D01*
X14640000Y-17089000D02*
X14640000Y-17169000D01*
X14600000Y-17129000D02*
X14680000Y-17129000D01*
X14640000Y-17851000D02*
X14640000Y-17931000D01*
X14600000Y-17891000D02*
X14680000Y-17891000D01*
X14694000Y-12340500D02*
X14694000Y-12420500D01*
X14654000Y-12380500D02*
X14734000Y-12380500D01*
X14746000Y-4969500D02*
X14746000Y-5049500D01*
X14706000Y-5009500D02*
X14786000Y-5009500D01*
X14746000Y-15480000D02*
X14746000Y-15560000D01*
X14706000Y-15520000D02*
X14786000Y-15520000D01*
X14746000Y-16190500D02*
X14746000Y-16270500D01*
X14706000Y-16230500D02*
X14786000Y-16230500D01*
X14750000Y-5560000D02*
X14750000Y-5640000D01*
X14710000Y-5600000D02*
X14790000Y-5600000D01*
X14750000Y-7640000D02*
X14750000Y-7720000D01*
X14710000Y-7680000D02*
X14790000Y-7680000D01*
X14750000Y-9240000D02*
X14750000Y-9320000D01*
X14710000Y-9280000D02*
X14790000Y-9280000D01*
X14750000Y-12920000D02*
X14750000Y-13000000D01*
X14710000Y-12960000D02*
X14790000Y-12960000D01*
X14750000Y-15000000D02*
X14750000Y-15080000D01*
X14710000Y-15040000D02*
X14790000Y-15040000D01*
X14821000Y-11750000D02*
X14821000Y-11830000D01*
X14781000Y-11790000D02*
X14861000Y-11790000D01*
X15000000Y-4969500D02*
X15000000Y-5049500D01*
X14960000Y-5009500D02*
X15040000Y-5009500D01*
X15000000Y-15480000D02*
X15000000Y-15560000D01*
X14960000Y-15520000D02*
X15040000Y-15520000D01*
X15000000Y-16190500D02*
X15000000Y-16270500D01*
X14960000Y-16230500D02*
X15040000Y-16230500D01*
X15179000Y-11750000D02*
X15179000Y-11830000D01*
X15139000Y-11790000D02*
X15219000Y-11790000D01*
X15250000Y-5560000D02*
X15250000Y-5640000D01*
X15210000Y-5600000D02*
X15290000Y-5600000D01*
X15250000Y-7640000D02*
X15250000Y-7720000D01*
X15210000Y-7680000D02*
X15290000Y-7680000D01*
X15250000Y-9240000D02*
X15250000Y-9320000D01*
X15210000Y-9280000D02*
X15290000Y-9280000D01*
X15250000Y-12920000D02*
X15250000Y-13000000D01*
X15210000Y-12960000D02*
X15290000Y-12960000D01*
X15250000Y-15000000D02*
X15250000Y-15080000D01*
X15210000Y-15040000D02*
X15290000Y-15040000D01*
X15254000Y-4969500D02*
X15254000Y-5049500D01*
X15214000Y-5009500D02*
X15294000Y-5009500D01*
X15254000Y-15480000D02*
X15254000Y-15560000D01*
X15214000Y-15520000D02*
X15294000Y-15520000D01*
X15254000Y-16190500D02*
X15254000Y-16270500D01*
X15214000Y-16230500D02*
X15294000Y-16230500D01*
X15306000Y-12340500D02*
X15306000Y-12420500D01*
X15266000Y-12380500D02*
X15346000Y-12380500D01*
X15381000Y-5838500D02*
X15381000Y-5918500D01*
X15341000Y-5878500D02*
X15421000Y-5878500D01*
X15381000Y-6092500D02*
X15381000Y-6172500D01*
X15341000Y-6132500D02*
X15421000Y-6132500D01*
X15381000Y-6346500D02*
X15381000Y-6426500D01*
X15341000Y-6386500D02*
X15421000Y-6386500D01*
X15381000Y-6600500D02*
X15381000Y-6680500D01*
X15341000Y-6640500D02*
X15421000Y-6640500D01*
X15381000Y-6854500D02*
X15381000Y-6934500D01*
X15341000Y-6894500D02*
X15421000Y-6894500D01*
X15381000Y-7108500D02*
X15381000Y-7188500D01*
X15341000Y-7148500D02*
X15421000Y-7148500D01*
X15381000Y-7362500D02*
X15381000Y-7442500D01*
X15341000Y-7402500D02*
X15421000Y-7402500D01*
X15381000Y-7910000D02*
X15381000Y-7990000D01*
X15341000Y-7950000D02*
X15421000Y-7950000D01*
X15381000Y-9518500D02*
X15381000Y-9598500D01*
X15341000Y-9558500D02*
X15421000Y-9558500D01*
X15381000Y-9772500D02*
X15381000Y-9852500D01*
X15341000Y-9812500D02*
X15421000Y-9812500D01*
X15381000Y-10026500D02*
X15381000Y-10106500D01*
X15341000Y-10066500D02*
X15421000Y-10066500D01*
X15381000Y-10280500D02*
X15381000Y-10360500D01*
X15341000Y-10320500D02*
X15421000Y-10320500D01*
X15381000Y-10534500D02*
X15381000Y-10614500D01*
X15341000Y-10574500D02*
X15421000Y-10574500D01*
X15381000Y-10788500D02*
X15381000Y-10868500D01*
X15341000Y-10828500D02*
X15421000Y-10828500D01*
X15381000Y-11042500D02*
X15381000Y-11122500D01*
X15341000Y-11082500D02*
X15421000Y-11082500D01*
X15381000Y-13198500D02*
X15381000Y-13278500D01*
X15341000Y-13238500D02*
X15421000Y-13238500D01*
X15381000Y-13452500D02*
X15381000Y-13532500D01*
X15341000Y-13492500D02*
X15421000Y-13492500D01*
X15381000Y-13706500D02*
X15381000Y-13786500D01*
X15341000Y-13746500D02*
X15421000Y-13746500D01*
X15381000Y-13960500D02*
X15381000Y-14040500D01*
X15341000Y-14000500D02*
X15421000Y-14000500D01*
X15381000Y-14214500D02*
X15381000Y-14294500D01*
X15341000Y-14254500D02*
X15421000Y-14254500D01*
X15381000Y-14468500D02*
X15381000Y-14548500D01*
X15341000Y-14508500D02*
X15421000Y-14508500D01*
X15381000Y-14722500D02*
X15381000Y-14802500D01*
X15341000Y-14762500D02*
X15421000Y-14762500D01*
X15560000Y-12340500D02*
X15560000Y-12420500D01*
X15520000Y-12380500D02*
X15600000Y-12380500D01*
X15660000Y-9009000D02*
X15660000Y-9089000D01*
X15620000Y-9049000D02*
X15700000Y-9049000D01*
X15660000Y-9771000D02*
X15660000Y-9851000D01*
X15620000Y-9811000D02*
X15700000Y-9811000D01*
X15690000Y-5329000D02*
X15690000Y-5409000D01*
X15650000Y-5369000D02*
X15730000Y-5369000D01*
X15690000Y-6091000D02*
X15690000Y-6171000D01*
X15650000Y-6131000D02*
X15730000Y-6131000D01*
X15690000Y-6349000D02*
X15690000Y-6429000D01*
X15650000Y-6389000D02*
X15730000Y-6389000D01*
X15690000Y-7111000D02*
X15690000Y-7191000D01*
X15650000Y-7151000D02*
X15730000Y-7151000D01*
X15814000Y-12340500D02*
X15814000Y-12420500D01*
X15774000Y-12380500D02*
X15854000Y-12380500D01*
X15940000Y-9009000D02*
X15940000Y-9089000D01*
X15900000Y-9049000D02*
X15980000Y-9049000D01*
X15940000Y-9771000D02*
X15940000Y-9851000D01*
X15900000Y-9811000D02*
X15980000Y-9811000D01*
X15941000Y-11750000D02*
X15941000Y-11830000D01*
X15901000Y-11790000D02*
X15981000Y-11790000D01*
X15990000Y-5329000D02*
X15990000Y-5409000D01*
X15950000Y-5369000D02*
X16030000Y-5369000D01*
X15990000Y-6091000D02*
X15990000Y-6171000D01*
X15950000Y-6131000D02*
X16030000Y-6131000D01*
X15990000Y-6480000D02*
X15990000Y-6560000D01*
X15950000Y-6520000D02*
X16030000Y-6520000D01*
X15990000Y-6980000D02*
X15990000Y-7060000D01*
X15950000Y-7020000D02*
X16030000Y-7020000D01*
X16240000Y-9009000D02*
X16240000Y-9089000D01*
X16200000Y-9049000D02*
X16280000Y-9049000D01*
X16240000Y-9771000D02*
X16240000Y-9851000D01*
X16200000Y-9811000D02*
X16280000Y-9811000D01*
X16299000Y-11750000D02*
X16299000Y-11830000D01*
X16259000Y-11790000D02*
X16339000Y-11790000D01*
X16299000Y-12930000D02*
X16299000Y-13010000D01*
X16259000Y-12970000D02*
X16339000Y-12970000D01*
X16426000Y-12340000D02*
X16426000Y-12420000D01*
X16386000Y-12380000D02*
X16466000Y-12380000D01*
X16510000Y-9140000D02*
X16510000Y-9220000D01*
X16470000Y-9180000D02*
X16550000Y-9180000D01*
X16510000Y-9640000D02*
X16510000Y-9720000D01*
X16470000Y-9680000D02*
X16550000Y-9680000D01*
X16680000Y-12340000D02*
X16680000Y-12420000D01*
X16640000Y-12380000D02*
X16720000Y-12380000D01*
X16934000Y-12340000D02*
X16934000Y-12420000D01*
X16894000Y-12380000D02*
X16974000Y-12380000D01*
X17061000Y-11750000D02*
X17061000Y-11830000D01*
X17021000Y-11790000D02*
X17101000Y-11790000D01*
X17061000Y-12930000D02*
X17061000Y-13010000D01*
X17021000Y-12970000D02*
X17101000Y-12970000D01*
X2860356Y-4610356D02*
X2860356Y-4539644D01*
X2789644Y-4539644D01*
X2789644Y-4610356D01*
X2860356Y-4610356D01*
X2860356Y-4864356D02*
X2860356Y-4793644D01*
X2789644Y-4793644D01*
X2789644Y-4864356D01*
X2860356Y-4864356D01*
X2860356Y-5118356D02*
X2860356Y-5047644D01*
X2789644Y-5047644D01*
X2789644Y-5118356D01*
X2860356Y-5118356D01*
X2860356Y-5372356D02*
X2860356Y-5301644D01*
X2789644Y-5301644D01*
X2789644Y-5372356D01*
X2860356Y-5372356D01*
X2860356Y-5626356D02*
X2860356Y-5555644D01*
X2789644Y-5555644D01*
X2789644Y-5626356D01*
X2860356Y-5626356D01*
X2860356Y-5880356D02*
X2860356Y-5809644D01*
X2789644Y-5809644D01*
X2789644Y-5880356D01*
X2860356Y-5880356D01*
X2860356Y-6134356D02*
X2860356Y-6063644D01*
X2789644Y-6063644D01*
X2789644Y-6134356D01*
X2860356Y-6134356D01*
X2860356Y-6388356D02*
X2860356Y-6317644D01*
X2789644Y-6317644D01*
X2789644Y-6388356D01*
X2860356Y-6388356D01*
X2860356Y-6642356D02*
X2860356Y-6571644D01*
X2789644Y-6571644D01*
X2789644Y-6642356D01*
X2860356Y-6642356D01*
X2860356Y-6896356D02*
X2860356Y-6825644D01*
X2789644Y-6825644D01*
X2789644Y-6896356D01*
X2860356Y-6896356D01*
X2860356Y-9210356D02*
X2860356Y-9139644D01*
X2789644Y-9139644D01*
X2789644Y-9210356D01*
X2860356Y-9210356D01*
X2860356Y-9464356D02*
X2860356Y-9393644D01*
X2789644Y-9393644D01*
X2789644Y-9464356D01*
X2860356Y-9464356D01*
X2860356Y-9718356D02*
X2860356Y-9647644D01*
X2789644Y-9647644D01*
X2789644Y-9718356D01*
X2860356Y-9718356D01*
X2860356Y-9972356D02*
X2860356Y-9901644D01*
X2789644Y-9901644D01*
X2789644Y-9972356D01*
X2860356Y-9972356D01*
X2860356Y-10226356D02*
X2860356Y-10155644D01*
X2789644Y-10155644D01*
X2789644Y-10226356D01*
X2860356Y-10226356D01*
X2860356Y-10480356D02*
X2860356Y-10409644D01*
X2789644Y-10409644D01*
X2789644Y-10480356D01*
X2860356Y-10480356D01*
X2860356Y-10734356D02*
X2860356Y-10663644D01*
X2789644Y-10663644D01*
X2789644Y-10734356D01*
X2860356Y-10734356D01*
X2860356Y-10988356D02*
X2860356Y-10917644D01*
X2789644Y-10917644D01*
X2789644Y-10988356D01*
X2860356Y-10988356D01*
X2860356Y-11242356D02*
X2860356Y-11171644D01*
X2789644Y-11171644D01*
X2789644Y-11242356D01*
X2860356Y-11242356D01*
X2860356Y-11496356D02*
X2860356Y-11425644D01*
X2789644Y-11425644D01*
X2789644Y-11496356D01*
X2860356Y-11496356D01*
X2860356Y-13810356D02*
X2860356Y-13739644D01*
X2789644Y-13739644D01*
X2789644Y-13810356D01*
X2860356Y-13810356D01*
X2860356Y-14064356D02*
X2860356Y-13993644D01*
X2789644Y-13993644D01*
X2789644Y-14064356D01*
X2860356Y-14064356D01*
X2860356Y-14318356D02*
X2860356Y-14247644D01*
X2789644Y-14247644D01*
X2789644Y-14318356D01*
X2860356Y-14318356D01*
X2860356Y-14572356D02*
X2860356Y-14501644D01*
X2789644Y-14501644D01*
X2789644Y-14572356D01*
X2860356Y-14572356D01*
X2860356Y-14826356D02*
X2860356Y-14755644D01*
X2789644Y-14755644D01*
X2789644Y-14826356D01*
X2860356Y-14826356D01*
X2860356Y-15080356D02*
X2860356Y-15009644D01*
X2789644Y-15009644D01*
X2789644Y-15080356D01*
X2860356Y-15080356D01*
X2860356Y-15334356D02*
X2860356Y-15263644D01*
X2789644Y-15263644D01*
X2789644Y-15334356D01*
X2860356Y-15334356D01*
X2860356Y-15588356D02*
X2860356Y-15517644D01*
X2789644Y-15517644D01*
X2789644Y-15588356D01*
X2860356Y-15588356D01*
X2860356Y-15842356D02*
X2860356Y-15771644D01*
X2789644Y-15771644D01*
X2789644Y-15842356D01*
X2860356Y-15842356D01*
X2860356Y-16096356D02*
X2860356Y-16025644D01*
X2789644Y-16025644D01*
X2789644Y-16096356D01*
X2860356Y-16096356D01*
X2925737Y-16750737D02*
X2925737Y-16680025D01*
X2855025Y-16680025D01*
X2855025Y-16750737D01*
X2925737Y-16750737D01*
X2908059Y-16626993D02*
X2801993Y-16733059D01*
X2872703Y-16803769D02*
G75*
G02*
X2801993Y-16733059I-35355J35355D01*
G01*
X2872703Y-16803769D02*
X2978769Y-16697703D01*
X2978769Y-16697703D02*
G75*
G03*
X2908059Y-16626993I-35355J35355D01*
G01*
X2925737Y-18600737D02*
X2925737Y-18530025D01*
X2855025Y-18530025D01*
X2855025Y-18600737D01*
X2925737Y-18600737D01*
X2908059Y-18476993D02*
X2801993Y-18583059D01*
X2872703Y-18653769D02*
G75*
G02*
X2801993Y-18583059I-35355J35355D01*
G01*
X2872703Y-18653769D02*
X2978769Y-18547703D01*
X2978769Y-18547703D02*
G75*
G03*
X2908059Y-18476993I-35355J35355D01*
G01*
X2925737Y-20450737D02*
X2925737Y-20380025D01*
X2855025Y-20380025D01*
X2855025Y-20450737D01*
X2925737Y-20450737D01*
X2908059Y-20326993D02*
X2801993Y-20433059D01*
X2872703Y-20503769D02*
G75*
G02*
X2801993Y-20433059I-35355J35355D01*
G01*
X2872703Y-20503769D02*
X2978769Y-20397703D01*
X2978769Y-20397703D02*
G75*
G03*
X2908059Y-20326993I-35355J35355D01*
G01*
X3635356Y-16560356D02*
X3635356Y-16489644D01*
X3564644Y-16489644D01*
X3564644Y-16560356D01*
X3635356Y-16560356D01*
X3525000Y-16575000D02*
X3675000Y-16575000D01*
X3675000Y-16475000D02*
G75*
G02*
X3675000Y-16575000I0J-50000D01*
G01*
X3675000Y-16475000D02*
X3525000Y-16475000D01*
X3525000Y-16475000D02*
G75*
G03*
X3525000Y-16575000I0J-50000D01*
G01*
X3635356Y-18410356D02*
X3635356Y-18339644D01*
X3564644Y-18339644D01*
X3564644Y-18410356D01*
X3635356Y-18410356D01*
X3525000Y-18425000D02*
X3675000Y-18425000D01*
X3675000Y-18325000D02*
G75*
G02*
X3675000Y-18425000I0J-50000D01*
G01*
X3675000Y-18325000D02*
X3525000Y-18325000D01*
X3525000Y-18325000D02*
G75*
G03*
X3525000Y-18425000I0J-50000D01*
G01*
X3635356Y-20260356D02*
X3635356Y-20189644D01*
X3564644Y-20189644D01*
X3564644Y-20260356D01*
X3635356Y-20260356D01*
X3525000Y-20275000D02*
X3675000Y-20275000D01*
X3675000Y-20175000D02*
G75*
G02*
X3675000Y-20275000I0J-50000D01*
G01*
X3675000Y-20175000D02*
X3525000Y-20175000D01*
X3525000Y-20175000D02*
G75*
G03*
X3525000Y-20275000I0J-50000D01*
G01*
X4035356Y-17160356D02*
X4035356Y-17089644D01*
X3964644Y-17089644D01*
X3964644Y-17160356D01*
X4035356Y-17160356D01*
X3950000Y-17050000D02*
X3950000Y-17200000D01*
X4050000Y-17200000D02*
G75*
G02*
X3950000Y-17200000I-50000J0D01*
G01*
X4050000Y-17200000D02*
X4050000Y-17050000D01*
X4050000Y-17050000D02*
G75*
G03*
X3950000Y-17050000I-50000J0D01*
G01*
X4035356Y-19010356D02*
X4035356Y-18939644D01*
X3964644Y-18939644D01*
X3964644Y-19010356D01*
X4035356Y-19010356D01*
X3950000Y-18900000D02*
X3950000Y-19050000D01*
X4050000Y-19050000D02*
G75*
G02*
X3950000Y-19050000I-50000J0D01*
G01*
X4050000Y-19050000D02*
X4050000Y-18900000D01*
X4050000Y-18900000D02*
G75*
G03*
X3950000Y-18900000I-50000J0D01*
G01*
X4035356Y-20860356D02*
X4035356Y-20789644D01*
X3964644Y-20789644D01*
X3964644Y-20860356D01*
X4035356Y-20860356D01*
X3950000Y-20750000D02*
X3950000Y-20900000D01*
X4050000Y-20900000D02*
G75*
G02*
X3950000Y-20900000I-50000J0D01*
G01*
X4050000Y-20900000D02*
X4050000Y-20750000D01*
X4050000Y-20750000D02*
G75*
G03*
X3950000Y-20750000I-50000J0D01*
G01*
X4575737Y-18600737D02*
X4575737Y-18530025D01*
X4505025Y-18530025D01*
X4505025Y-18600737D01*
X4575737Y-18600737D01*
X4558059Y-18476993D02*
X4451993Y-18583059D01*
X4522703Y-18653769D02*
G75*
G02*
X4451993Y-18583059I-35355J35355D01*
G01*
X4522703Y-18653769D02*
X4628769Y-18547703D01*
X4628769Y-18547703D02*
G75*
G03*
X4558059Y-18476993I-35355J35355D01*
G01*
X4575737Y-20450737D02*
X4575737Y-20380025D01*
X4505025Y-20380025D01*
X4505025Y-20450737D01*
X4575737Y-20450737D01*
X4558059Y-20326993D02*
X4451993Y-20433059D01*
X4522703Y-20503769D02*
G75*
G02*
X4451993Y-20433059I-35355J35355D01*
G01*
X4522703Y-20503769D02*
X4628769Y-20397703D01*
X4628769Y-20397703D02*
G75*
G03*
X4558059Y-20326993I-35355J35355D01*
G01*
X5285356Y-18410356D02*
X5285356Y-18339644D01*
X5214644Y-18339644D01*
X5214644Y-18410356D01*
X5285356Y-18410356D01*
X5175000Y-18425000D02*
X5325000Y-18425000D01*
X5325000Y-18325000D02*
G75*
G02*
X5325000Y-18425000I0J-50000D01*
G01*
X5325000Y-18325000D02*
X5175000Y-18325000D01*
X5175000Y-18325000D02*
G75*
G03*
X5175000Y-18425000I0J-50000D01*
G01*
X5285356Y-20260356D02*
X5285356Y-20189644D01*
X5214644Y-20189644D01*
X5214644Y-20260356D01*
X5285356Y-20260356D01*
X5175000Y-20275000D02*
X5325000Y-20275000D01*
X5325000Y-20175000D02*
G75*
G02*
X5325000Y-20275000I0J-50000D01*
G01*
X5325000Y-20175000D02*
X5175000Y-20175000D01*
X5175000Y-20175000D02*
G75*
G03*
X5175000Y-20275000I0J-50000D01*
G01*
X5685356Y-19010356D02*
X5685356Y-18939644D01*
X5614644Y-18939644D01*
X5614644Y-19010356D01*
X5685356Y-19010356D01*
X5600000Y-18900000D02*
X5600000Y-19050000D01*
X5700000Y-19050000D02*
G75*
G02*
X5600000Y-19050000I-50000J0D01*
G01*
X5700000Y-19050000D02*
X5700000Y-18900000D01*
X5700000Y-18900000D02*
G75*
G03*
X5600000Y-18900000I-50000J0D01*
G01*
X5685356Y-20860356D02*
X5685356Y-20789644D01*
X5614644Y-20789644D01*
X5614644Y-20860356D01*
X5685356Y-20860356D01*
X5600000Y-20750000D02*
X5600000Y-20900000D01*
X5700000Y-20900000D02*
G75*
G02*
X5600000Y-20900000I-50000J0D01*
G01*
X5700000Y-20900000D02*
X5700000Y-20750000D01*
X5700000Y-20750000D02*
G75*
G03*
X5600000Y-20750000I-50000J0D01*
G01*
X6225737Y-18600737D02*
X6225737Y-18530025D01*
X6155025Y-18530025D01*
X6155025Y-18600737D01*
X6225737Y-18600737D01*
X6208059Y-18476993D02*
X6101993Y-18583059D01*
X6172703Y-18653769D02*
G75*
G02*
X6101993Y-18583059I-35355J35355D01*
G01*
X6172703Y-18653769D02*
X6278769Y-18547703D01*
X6278769Y-18547703D02*
G75*
G03*
X6208059Y-18476993I-35355J35355D01*
G01*
X6225737Y-20450737D02*
X6225737Y-20380025D01*
X6155025Y-20380025D01*
X6155025Y-20450737D01*
X6225737Y-20450737D01*
X6208059Y-20326993D02*
X6101993Y-20433059D01*
X6172703Y-20503769D02*
G75*
G02*
X6101993Y-20433059I-35355J35355D01*
G01*
X6172703Y-20503769D02*
X6278769Y-20397703D01*
X6278769Y-20397703D02*
G75*
G03*
X6208059Y-20326993I-35355J35355D01*
G01*
X6935356Y-18410356D02*
X6935356Y-18339644D01*
X6864644Y-18339644D01*
X6864644Y-18410356D01*
X6935356Y-18410356D01*
X6825000Y-18425000D02*
X6975000Y-18425000D01*
X6975000Y-18325000D02*
G75*
G02*
X6975000Y-18425000I0J-50000D01*
G01*
X6975000Y-18325000D02*
X6825000Y-18325000D01*
X6825000Y-18325000D02*
G75*
G03*
X6825000Y-18425000I0J-50000D01*
G01*
X6935356Y-20260356D02*
X6935356Y-20189644D01*
X6864644Y-20189644D01*
X6864644Y-20260356D01*
X6935356Y-20260356D01*
X6825000Y-20275000D02*
X6975000Y-20275000D01*
X6975000Y-20175000D02*
G75*
G02*
X6975000Y-20275000I0J-50000D01*
G01*
X6975000Y-20175000D02*
X6825000Y-20175000D01*
X6825000Y-20175000D02*
G75*
G03*
X6825000Y-20275000I0J-50000D01*
G01*
X7335356Y-19010356D02*
X7335356Y-18939644D01*
X7264644Y-18939644D01*
X7264644Y-19010356D01*
X7335356Y-19010356D01*
X7250000Y-18900000D02*
X7250000Y-19050000D01*
X7350000Y-19050000D02*
G75*
G02*
X7250000Y-19050000I-50000J0D01*
G01*
X7350000Y-19050000D02*
X7350000Y-18900000D01*
X7350000Y-18900000D02*
G75*
G03*
X7250000Y-18900000I-50000J0D01*
G01*
X7335356Y-20860356D02*
X7335356Y-20789644D01*
X7264644Y-20789644D01*
X7264644Y-20860356D01*
X7335356Y-20860356D01*
X7250000Y-20750000D02*
X7250000Y-20900000D01*
X7350000Y-20900000D02*
G75*
G02*
X7250000Y-20900000I-50000J0D01*
G01*
X7350000Y-20900000D02*
X7350000Y-20750000D01*
X7350000Y-20750000D02*
G75*
G03*
X7250000Y-20750000I-50000J0D01*
G01*
X7875737Y-18600737D02*
X7875737Y-18530025D01*
X7805025Y-18530025D01*
X7805025Y-18600737D01*
X7875737Y-18600737D01*
X7858059Y-18476993D02*
X7751993Y-18583059D01*
X7822703Y-18653769D02*
G75*
G02*
X7751993Y-18583059I-35355J35355D01*
G01*
X7822703Y-18653769D02*
X7928769Y-18547703D01*
X7928769Y-18547703D02*
G75*
G03*
X7858059Y-18476993I-35355J35355D01*
G01*
X7875737Y-20450737D02*
X7875737Y-20380025D01*
X7805025Y-20380025D01*
X7805025Y-20450737D01*
X7875737Y-20450737D01*
X7858059Y-20326993D02*
X7751993Y-20433059D01*
X7822703Y-20503769D02*
G75*
G02*
X7751993Y-20433059I-35355J35355D01*
G01*
X7822703Y-20503769D02*
X7928769Y-20397703D01*
X7928769Y-20397703D02*
G75*
G03*
X7858059Y-20326993I-35355J35355D01*
G01*
X8585356Y-18410356D02*
X8585356Y-18339644D01*
X8514644Y-18339644D01*
X8514644Y-18410356D01*
X8585356Y-18410356D01*
X8475000Y-18425000D02*
X8625000Y-18425000D01*
X8625000Y-18325000D02*
G75*
G02*
X8625000Y-18425000I0J-50000D01*
G01*
X8625000Y-18325000D02*
X8475000Y-18325000D01*
X8475000Y-18325000D02*
G75*
G03*
X8475000Y-18425000I0J-50000D01*
G01*
X8585356Y-20260356D02*
X8585356Y-20189644D01*
X8514644Y-20189644D01*
X8514644Y-20260356D01*
X8585356Y-20260356D01*
X8475000Y-20275000D02*
X8625000Y-20275000D01*
X8625000Y-20175000D02*
G75*
G02*
X8625000Y-20275000I0J-50000D01*
G01*
X8625000Y-20175000D02*
X8475000Y-20175000D01*
X8475000Y-20175000D02*
G75*
G03*
X8475000Y-20275000I0J-50000D01*
G01*
X8985356Y-19010356D02*
X8985356Y-18939644D01*
X8914644Y-18939644D01*
X8914644Y-19010356D01*
X8985356Y-19010356D01*
X8900000Y-18900000D02*
X8900000Y-19050000D01*
X9000000Y-19050000D02*
G75*
G02*
X8900000Y-19050000I-50000J0D01*
G01*
X9000000Y-19050000D02*
X9000000Y-18900000D01*
X9000000Y-18900000D02*
G75*
G03*
X8900000Y-18900000I-50000J0D01*
G01*
X8985356Y-20860356D02*
X8985356Y-20789644D01*
X8914644Y-20789644D01*
X8914644Y-20860356D01*
X8985356Y-20860356D01*
X8900000Y-20750000D02*
X8900000Y-20900000D01*
X9000000Y-20900000D02*
G75*
G02*
X8900000Y-20900000I-50000J0D01*
G01*
X9000000Y-20900000D02*
X9000000Y-20750000D01*
X9000000Y-20750000D02*
G75*
G03*
X8900000Y-20750000I-50000J0D01*
G01*
X9146356Y-4656606D02*
X9146356Y-4585894D01*
X9075644Y-4585894D01*
X9075644Y-4656606D01*
X9146356Y-4656606D01*
X9146356Y-4910606D02*
X9146356Y-4839894D01*
X9075644Y-4839894D01*
X9075644Y-4910606D01*
X9146356Y-4910606D01*
X9146356Y-17585106D02*
X9146356Y-17514394D01*
X9075644Y-17514394D01*
X9075644Y-17585106D01*
X9146356Y-17585106D01*
X9146356Y-17839106D02*
X9146356Y-17768394D01*
X9075644Y-17768394D01*
X9075644Y-17839106D01*
X9146356Y-17839106D01*
X9400356Y-4656606D02*
X9400356Y-4585894D01*
X9329644Y-4585894D01*
X9329644Y-4656606D01*
X9400356Y-4656606D01*
X9400356Y-4910606D02*
X9400356Y-4839894D01*
X9329644Y-4839894D01*
X9329644Y-4910606D01*
X9400356Y-4910606D01*
X9400356Y-15635356D02*
X9400356Y-15564644D01*
X9329644Y-15564644D01*
X9329644Y-15635356D01*
X9400356Y-15635356D01*
X9400356Y-17585106D02*
X9400356Y-17514394D01*
X9329644Y-17514394D01*
X9329644Y-17585106D01*
X9400356Y-17585106D01*
X9400356Y-17839106D02*
X9400356Y-17768394D01*
X9329644Y-17768394D01*
X9329644Y-17839106D01*
X9400356Y-17839106D01*
X9575737Y-18600737D02*
X9575737Y-18530025D01*
X9505025Y-18530025D01*
X9505025Y-18600737D01*
X9575737Y-18600737D01*
X9558059Y-18476993D02*
X9451993Y-18583059D01*
X9522703Y-18653769D02*
G75*
G02*
X9451993Y-18583059I-35355J35355D01*
G01*
X9522703Y-18653769D02*
X9628769Y-18547703D01*
X9628769Y-18547703D02*
G75*
G03*
X9558059Y-18476993I-35355J35355D01*
G01*
X9575737Y-20450737D02*
X9575737Y-20380025D01*
X9505025Y-20380025D01*
X9505025Y-20450737D01*
X9575737Y-20450737D01*
X9558059Y-20326993D02*
X9451993Y-20433059D01*
X9522703Y-20503769D02*
G75*
G02*
X9451993Y-20433059I-35355J35355D01*
G01*
X9522703Y-20503769D02*
X9628769Y-20397703D01*
X9628769Y-20397703D02*
G75*
G03*
X9558059Y-20326993I-35355J35355D01*
G01*
X9654356Y-4656606D02*
X9654356Y-4585894D01*
X9583644Y-4585894D01*
X9583644Y-4656606D01*
X9654356Y-4656606D01*
X9654356Y-4910606D02*
X9654356Y-4839894D01*
X9583644Y-4839894D01*
X9583644Y-4910606D01*
X9654356Y-4910606D01*
X9654356Y-15635356D02*
X9654356Y-15564644D01*
X9583644Y-15564644D01*
X9583644Y-15635356D01*
X9654356Y-15635356D01*
X9654356Y-17585106D02*
X9654356Y-17514394D01*
X9583644Y-17514394D01*
X9583644Y-17585106D01*
X9654356Y-17585106D01*
X9654356Y-17839106D02*
X9654356Y-17768394D01*
X9583644Y-17768394D01*
X9583644Y-17839106D01*
X9654356Y-17839106D01*
X9908356Y-4656606D02*
X9908356Y-4585894D01*
X9837644Y-4585894D01*
X9837644Y-4656606D01*
X9908356Y-4656606D01*
X9908356Y-4910606D02*
X9908356Y-4839894D01*
X9837644Y-4839894D01*
X9837644Y-4910606D01*
X9908356Y-4910606D01*
X9908356Y-15635356D02*
X9908356Y-15564644D01*
X9837644Y-15564644D01*
X9837644Y-15635356D01*
X9908356Y-15635356D01*
X9908356Y-17585106D02*
X9908356Y-17514394D01*
X9837644Y-17514394D01*
X9837644Y-17585106D01*
X9908356Y-17585106D01*
X9908356Y-17839106D02*
X9908356Y-17768394D01*
X9837644Y-17768394D01*
X9837644Y-17839106D01*
X9908356Y-17839106D01*
X10162356Y-4656606D02*
X10162356Y-4585894D01*
X10091644Y-4585894D01*
X10091644Y-4656606D01*
X10162356Y-4656606D01*
X10162356Y-4910606D02*
X10162356Y-4839894D01*
X10091644Y-4839894D01*
X10091644Y-4910606D01*
X10162356Y-4910606D01*
X10162356Y-15635356D02*
X10162356Y-15564644D01*
X10091644Y-15564644D01*
X10091644Y-15635356D01*
X10162356Y-15635356D01*
X10162356Y-17585106D02*
X10162356Y-17514394D01*
X10091644Y-17514394D01*
X10091644Y-17585106D01*
X10162356Y-17585106D01*
X10162356Y-17839106D02*
X10162356Y-17768394D01*
X10091644Y-17768394D01*
X10091644Y-17839106D01*
X10162356Y-17839106D01*
X10285356Y-18410356D02*
X10285356Y-18339644D01*
X10214644Y-18339644D01*
X10214644Y-18410356D01*
X10285356Y-18410356D01*
X10175000Y-18425000D02*
X10325000Y-18425000D01*
X10325000Y-18325000D02*
G75*
G02*
X10325000Y-18425000I0J-50000D01*
G01*
X10325000Y-18325000D02*
X10175000Y-18325000D01*
X10175000Y-18325000D02*
G75*
G03*
X10175000Y-18425000I0J-50000D01*
G01*
X10285356Y-20260356D02*
X10285356Y-20189644D01*
X10214644Y-20189644D01*
X10214644Y-20260356D01*
X10285356Y-20260356D01*
X10175000Y-20275000D02*
X10325000Y-20275000D01*
X10325000Y-20175000D02*
G75*
G02*
X10325000Y-20275000I0J-50000D01*
G01*
X10325000Y-20175000D02*
X10175000Y-20175000D01*
X10175000Y-20175000D02*
G75*
G03*
X10175000Y-20275000I0J-50000D01*
G01*
X10416356Y-4656606D02*
X10416356Y-4585894D01*
X10345644Y-4585894D01*
X10345644Y-4656606D01*
X10416356Y-4656606D01*
X10416356Y-4910606D02*
X10416356Y-4839894D01*
X10345644Y-4839894D01*
X10345644Y-4910606D01*
X10416356Y-4910606D01*
X10416356Y-15635356D02*
X10416356Y-15564644D01*
X10345644Y-15564644D01*
X10345644Y-15635356D01*
X10416356Y-15635356D01*
X10416356Y-17585106D02*
X10416356Y-17514394D01*
X10345644Y-17514394D01*
X10345644Y-17585106D01*
X10416356Y-17585106D01*
X10416356Y-17839106D02*
X10416356Y-17768394D01*
X10345644Y-17768394D01*
X10345644Y-17839106D01*
X10416356Y-17839106D01*
X10670356Y-4656606D02*
X10670356Y-4585894D01*
X10599644Y-4585894D01*
X10599644Y-4656606D01*
X10670356Y-4656606D01*
X10670356Y-4910606D02*
X10670356Y-4839894D01*
X10599644Y-4839894D01*
X10599644Y-4910606D01*
X10670356Y-4910606D01*
X10670356Y-15635356D02*
X10670356Y-15564644D01*
X10599644Y-15564644D01*
X10599644Y-15635356D01*
X10670356Y-15635356D01*
X10670356Y-17585106D02*
X10670356Y-17514394D01*
X10599644Y-17514394D01*
X10599644Y-17585106D01*
X10670356Y-17585106D01*
X10670356Y-17839106D02*
X10670356Y-17768394D01*
X10599644Y-17768394D01*
X10599644Y-17839106D01*
X10670356Y-17839106D01*
X10685356Y-19010356D02*
X10685356Y-18939644D01*
X10614644Y-18939644D01*
X10614644Y-19010356D01*
X10685356Y-19010356D01*
X10600000Y-18900000D02*
X10600000Y-19050000D01*
X10700000Y-19050000D02*
G75*
G02*
X10600000Y-19050000I-50000J0D01*
G01*
X10700000Y-19050000D02*
X10700000Y-18900000D01*
X10700000Y-18900000D02*
G75*
G03*
X10600000Y-18900000I-50000J0D01*
G01*
X10685356Y-20860356D02*
X10685356Y-20789644D01*
X10614644Y-20789644D01*
X10614644Y-20860356D01*
X10685356Y-20860356D01*
X10600000Y-20750000D02*
X10600000Y-20900000D01*
X10700000Y-20900000D02*
G75*
G02*
X10600000Y-20900000I-50000J0D01*
G01*
X10700000Y-20900000D02*
X10700000Y-20750000D01*
X10700000Y-20750000D02*
G75*
G03*
X10600000Y-20750000I-50000J0D01*
G01*
X10924356Y-4656606D02*
X10924356Y-4585894D01*
X10853644Y-4585894D01*
X10853644Y-4656606D01*
X10924356Y-4656606D01*
X10924356Y-4910606D02*
X10924356Y-4839894D01*
X10853644Y-4839894D01*
X10853644Y-4910606D01*
X10924356Y-4910606D01*
X10924356Y-17585106D02*
X10924356Y-17514394D01*
X10853644Y-17514394D01*
X10853644Y-17585106D01*
X10924356Y-17585106D01*
X10924356Y-17839106D02*
X10924356Y-17768394D01*
X10853644Y-17768394D01*
X10853644Y-17839106D01*
X10924356Y-17839106D01*
X11275737Y-18600737D02*
X11275737Y-18530025D01*
X11205025Y-18530025D01*
X11205025Y-18600737D01*
X11275737Y-18600737D01*
X11258059Y-18476993D02*
X11151993Y-18583059D01*
X11222703Y-18653769D02*
G75*
G02*
X11151993Y-18583059I-35355J35355D01*
G01*
X11222703Y-18653769D02*
X11328769Y-18547703D01*
X11328769Y-18547703D02*
G75*
G03*
X11258059Y-18476993I-35355J35355D01*
G01*
X11275737Y-20450737D02*
X11275737Y-20380025D01*
X11205025Y-20380025D01*
X11205025Y-20450737D01*
X11275737Y-20450737D01*
X11258059Y-20326993D02*
X11151993Y-20433059D01*
X11222703Y-20503769D02*
G75*
G02*
X11151993Y-20433059I-35355J35355D01*
G01*
X11222703Y-20503769D02*
X11328769Y-20397703D01*
X11328769Y-20397703D02*
G75*
G03*
X11258059Y-20326993I-35355J35355D01*
G01*
X11985356Y-18410356D02*
X11985356Y-18339644D01*
X11914644Y-18339644D01*
X11914644Y-18410356D01*
X11985356Y-18410356D01*
X11875000Y-18425000D02*
X12025000Y-18425000D01*
X12025000Y-18325000D02*
G75*
G02*
X12025000Y-18425000I0J-50000D01*
G01*
X12025000Y-18325000D02*
X11875000Y-18325000D01*
X11875000Y-18325000D02*
G75*
G03*
X11875000Y-18425000I0J-50000D01*
G01*
X11985356Y-20260356D02*
X11985356Y-20189644D01*
X11914644Y-20189644D01*
X11914644Y-20260356D01*
X11985356Y-20260356D01*
X11875000Y-20275000D02*
X12025000Y-20275000D01*
X12025000Y-20175000D02*
G75*
G02*
X12025000Y-20275000I0J-50000D01*
G01*
X12025000Y-20175000D02*
X11875000Y-20175000D01*
X11875000Y-20175000D02*
G75*
G03*
X11875000Y-20275000I0J-50000D01*
G01*
X12385356Y-19010356D02*
X12385356Y-18939644D01*
X12314644Y-18939644D01*
X12314644Y-19010356D01*
X12385356Y-19010356D01*
X12300000Y-18900000D02*
X12300000Y-19050000D01*
X12400000Y-19050000D02*
G75*
G02*
X12300000Y-19050000I-50000J0D01*
G01*
X12400000Y-19050000D02*
X12400000Y-18900000D01*
X12400000Y-18900000D02*
G75*
G03*
X12300000Y-18900000I-50000J0D01*
G01*
X12385356Y-20860356D02*
X12385356Y-20789644D01*
X12314644Y-20789644D01*
X12314644Y-20860356D01*
X12385356Y-20860356D01*
X12300000Y-20750000D02*
X12300000Y-20900000D01*
X12400000Y-20900000D02*
G75*
G02*
X12300000Y-20900000I-50000J0D01*
G01*
X12400000Y-20900000D02*
X12400000Y-20750000D01*
X12400000Y-20750000D02*
G75*
G03*
X12300000Y-20750000I-50000J0D01*
G01*
X12925737Y-18600737D02*
X12925737Y-18530025D01*
X12855025Y-18530025D01*
X12855025Y-18600737D01*
X12925737Y-18600737D01*
X12908059Y-18476993D02*
X12801993Y-18583059D01*
X12872703Y-18653769D02*
G75*
G02*
X12801993Y-18583059I-35355J35355D01*
G01*
X12872703Y-18653769D02*
X12978769Y-18547703D01*
X12978769Y-18547703D02*
G75*
G03*
X12908059Y-18476993I-35355J35355D01*
G01*
X12925737Y-20450737D02*
X12925737Y-20380025D01*
X12855025Y-20380025D01*
X12855025Y-20450737D01*
X12925737Y-20450737D01*
X12908059Y-20326993D02*
X12801993Y-20433059D01*
X12872703Y-20503769D02*
G75*
G02*
X12801993Y-20433059I-35355J35355D01*
G01*
X12872703Y-20503769D02*
X12978769Y-20397703D01*
X12978769Y-20397703D02*
G75*
G03*
X12908059Y-20326993I-35355J35355D01*
G01*
X13635356Y-18410356D02*
X13635356Y-18339644D01*
X13564644Y-18339644D01*
X13564644Y-18410356D01*
X13635356Y-18410356D01*
X13525000Y-18425000D02*
X13675000Y-18425000D01*
X13675000Y-18325000D02*
G75*
G02*
X13675000Y-18425000I0J-50000D01*
G01*
X13675000Y-18325000D02*
X13525000Y-18325000D01*
X13525000Y-18325000D02*
G75*
G03*
X13525000Y-18425000I0J-50000D01*
G01*
X13635356Y-20260356D02*
X13635356Y-20189644D01*
X13564644Y-20189644D01*
X13564644Y-20260356D01*
X13635356Y-20260356D01*
X13525000Y-20275000D02*
X13675000Y-20275000D01*
X13675000Y-20175000D02*
G75*
G02*
X13675000Y-20275000I0J-50000D01*
G01*
X13675000Y-20175000D02*
X13525000Y-20175000D01*
X13525000Y-20175000D02*
G75*
G03*
X13525000Y-20275000I0J-50000D01*
G01*
X14035356Y-19010356D02*
X14035356Y-18939644D01*
X13964644Y-18939644D01*
X13964644Y-19010356D01*
X14035356Y-19010356D01*
X13950000Y-18900000D02*
X13950000Y-19050000D01*
X14050000Y-19050000D02*
G75*
G02*
X13950000Y-19050000I-50000J0D01*
G01*
X14050000Y-19050000D02*
X14050000Y-18900000D01*
X14050000Y-18900000D02*
G75*
G03*
X13950000Y-18900000I-50000J0D01*
G01*
X14035356Y-20860356D02*
X14035356Y-20789644D01*
X13964644Y-20789644D01*
X13964644Y-20860356D01*
X14035356Y-20860356D01*
X13950000Y-20750000D02*
X13950000Y-20900000D01*
X14050000Y-20900000D02*
G75*
G02*
X13950000Y-20900000I-50000J0D01*
G01*
X14050000Y-20900000D02*
X14050000Y-20750000D01*
X14050000Y-20750000D02*
G75*
G03*
X13950000Y-20750000I-50000J0D01*
G01*
X14575737Y-18600737D02*
X14575737Y-18530025D01*
X14505025Y-18530025D01*
X14505025Y-18600737D01*
X14575737Y-18600737D01*
X14558059Y-18476993D02*
X14451993Y-18583059D01*
X14522703Y-18653769D02*
G75*
G02*
X14451993Y-18583059I-35355J35355D01*
G01*
X14522703Y-18653769D02*
X14628769Y-18547703D01*
X14628769Y-18547703D02*
G75*
G03*
X14558059Y-18476993I-35355J35355D01*
G01*
X14575737Y-20450737D02*
X14575737Y-20380025D01*
X14505025Y-20380025D01*
X14505025Y-20450737D01*
X14575737Y-20450737D01*
X14558059Y-20326993D02*
X14451993Y-20433059D01*
X14522703Y-20503769D02*
G75*
G02*
X14451993Y-20433059I-35355J35355D01*
G01*
X14522703Y-20503769D02*
X14628769Y-20397703D01*
X14628769Y-20397703D02*
G75*
G03*
X14558059Y-20326993I-35355J35355D01*
G01*
X15285356Y-18410356D02*
X15285356Y-18339644D01*
X15214644Y-18339644D01*
X15214644Y-18410356D01*
X15285356Y-18410356D01*
X15175000Y-18425000D02*
X15325000Y-18425000D01*
X15325000Y-18325000D02*
G75*
G02*
X15325000Y-18425000I0J-50000D01*
G01*
X15325000Y-18325000D02*
X15175000Y-18325000D01*
X15175000Y-18325000D02*
G75*
G03*
X15175000Y-18425000I0J-50000D01*
G01*
X15285356Y-20260356D02*
X15285356Y-20189644D01*
X15214644Y-20189644D01*
X15214644Y-20260356D01*
X15285356Y-20260356D01*
X15175000Y-20275000D02*
X15325000Y-20275000D01*
X15325000Y-20175000D02*
G75*
G02*
X15325000Y-20275000I0J-50000D01*
G01*
X15325000Y-20175000D02*
X15175000Y-20175000D01*
X15175000Y-20175000D02*
G75*
G03*
X15175000Y-20275000I0J-50000D01*
G01*
X15685356Y-19010356D02*
X15685356Y-18939644D01*
X15614644Y-18939644D01*
X15614644Y-19010356D01*
X15685356Y-19010356D01*
X15600000Y-18900000D02*
X15600000Y-19050000D01*
X15700000Y-19050000D02*
G75*
G02*
X15600000Y-19050000I-50000J0D01*
G01*
X15700000Y-19050000D02*
X15700000Y-18900000D01*
X15700000Y-18900000D02*
G75*
G03*
X15600000Y-18900000I-50000J0D01*
G01*
X15685356Y-20860356D02*
X15685356Y-20789644D01*
X15614644Y-20789644D01*
X15614644Y-20860356D01*
X15685356Y-20860356D01*
X15600000Y-20750000D02*
X15600000Y-20900000D01*
X15700000Y-20900000D02*
G75*
G02*
X15600000Y-20900000I-50000J0D01*
G01*
X15700000Y-20900000D02*
X15700000Y-20750000D01*
X15700000Y-20750000D02*
G75*
G03*
X15600000Y-20750000I-50000J0D01*
G01*
X16035356Y-16960356D02*
X16035356Y-16889644D01*
X15964644Y-16889644D01*
X15964644Y-16960356D01*
X16035356Y-16960356D01*
X16050000Y-17000000D02*
X16050000Y-16850000D01*
X15950000Y-16850000D02*
G75*
G02*
X16050000Y-16850000I50000J0D01*
G01*
X15950000Y-16850000D02*
X15950000Y-17000000D01*
X15950000Y-17000000D02*
G75*
G03*
X16050000Y-17000000I50000J0D01*
G01*
X16035356Y-18810356D02*
X16035356Y-18739644D01*
X15964644Y-18739644D01*
X15964644Y-18810356D01*
X16035356Y-18810356D01*
X16050000Y-18850000D02*
X16050000Y-18700000D01*
X15950000Y-18700000D02*
G75*
G02*
X16050000Y-18700000I50000J0D01*
G01*
X15950000Y-18700000D02*
X15950000Y-18850000D01*
X15950000Y-18850000D02*
G75*
G03*
X16050000Y-18850000I50000J0D01*
G01*
X16035356Y-20660356D02*
X16035356Y-20589644D01*
X15964644Y-20589644D01*
X15964644Y-20660356D01*
X16035356Y-20660356D01*
X16050000Y-20700000D02*
X16050000Y-20550000D01*
X15950000Y-20550000D02*
G75*
G02*
X16050000Y-20550000I50000J0D01*
G01*
X15950000Y-20550000D02*
X15950000Y-20700000D01*
X15950000Y-20700000D02*
G75*
G03*
X16050000Y-20700000I50000J0D01*
G01*
X16225737Y-17669975D02*
X16225737Y-17599263D01*
X16155025Y-17599263D01*
X16155025Y-17669975D01*
X16225737Y-17669975D01*
X16101993Y-17616941D02*
X16208059Y-17723007D01*
X16278769Y-17652297D02*
G75*
G02*
X16208059Y-17723007I-35355J-35355D01*
G01*
X16278769Y-17652297D02*
X16172703Y-17546231D01*
X16172703Y-17546231D02*
G75*
G03*
X16101993Y-17616941I-35355J-35355D01*
G01*
X16225737Y-19519975D02*
X16225737Y-19449263D01*
X16155025Y-19449263D01*
X16155025Y-19519975D01*
X16225737Y-19519975D01*
X16101993Y-19466941D02*
X16208059Y-19573007D01*
X16278769Y-19502297D02*
G75*
G02*
X16208059Y-19573007I-35355J-35355D01*
G01*
X16278769Y-19502297D02*
X16172703Y-19396231D01*
X16172703Y-19396231D02*
G75*
G03*
X16101993Y-19466941I-35355J-35355D01*
G01*
X16225737Y-21369975D02*
X16225737Y-21299263D01*
X16155025Y-21299263D01*
X16155025Y-21369975D01*
X16225737Y-21369975D01*
X16101993Y-21316941D02*
X16208059Y-21423007D01*
X16278769Y-21352297D02*
G75*
G02*
X16208059Y-21423007I-35355J-35355D01*
G01*
X16278769Y-21352297D02*
X16172703Y-21246231D01*
X16172703Y-21246231D02*
G75*
G03*
X16101993Y-21316941I-35355J-35355D01*
G01*
X16635356Y-16560356D02*
X16635356Y-16489644D01*
X16564644Y-16489644D01*
X16564644Y-16560356D01*
X16635356Y-16560356D01*
X16525000Y-16575000D02*
X16675000Y-16575000D01*
X16675000Y-16475000D02*
G75*
G02*
X16675000Y-16575000I0J-50000D01*
G01*
X16675000Y-16475000D02*
X16525000Y-16475000D01*
X16525000Y-16475000D02*
G75*
G03*
X16525000Y-16575000I0J-50000D01*
G01*
X16635356Y-18410356D02*
X16635356Y-18339644D01*
X16564644Y-18339644D01*
X16564644Y-18410356D01*
X16635356Y-18410356D01*
X16525000Y-18425000D02*
X16675000Y-18425000D01*
X16675000Y-18325000D02*
G75*
G02*
X16675000Y-18425000I0J-50000D01*
G01*
X16675000Y-18325000D02*
X16525000Y-18325000D01*
X16525000Y-18325000D02*
G75*
G03*
X16525000Y-18425000I0J-50000D01*
G01*
X16635356Y-20260356D02*
X16635356Y-20189644D01*
X16564644Y-20189644D01*
X16564644Y-20260356D01*
X16635356Y-20260356D01*
X16525000Y-20275000D02*
X16675000Y-20275000D01*
X16675000Y-20175000D02*
G75*
G02*
X16675000Y-20275000I0J-50000D01*
G01*
X16675000Y-20175000D02*
X16525000Y-20175000D01*
X16525000Y-20175000D02*
G75*
G03*
X16525000Y-20275000I0J-50000D01*
G01*
X17210356Y-4610356D02*
X17210356Y-4539644D01*
X17139644Y-4539644D01*
X17139644Y-4610356D01*
X17210356Y-4610356D01*
X17210356Y-4864356D02*
X17210356Y-4793644D01*
X17139644Y-4793644D01*
X17139644Y-4864356D01*
X17210356Y-4864356D01*
X17210356Y-5118356D02*
X17210356Y-5047644D01*
X17139644Y-5047644D01*
X17139644Y-5118356D01*
X17210356Y-5118356D01*
X17210356Y-5372356D02*
X17210356Y-5301644D01*
X17139644Y-5301644D01*
X17139644Y-5372356D01*
X17210356Y-5372356D01*
X17210356Y-5626356D02*
X17210356Y-5555644D01*
X17139644Y-5555644D01*
X17139644Y-5626356D01*
X17210356Y-5626356D01*
X17210356Y-5880356D02*
X17210356Y-5809644D01*
X17139644Y-5809644D01*
X17139644Y-5880356D01*
X17210356Y-5880356D01*
X17210356Y-6134356D02*
X17210356Y-6063644D01*
X17139644Y-6063644D01*
X17139644Y-6134356D01*
X17210356Y-6134356D01*
X17210356Y-6388356D02*
X17210356Y-6317644D01*
X17139644Y-6317644D01*
X17139644Y-6388356D01*
X17210356Y-6388356D01*
X17210356Y-6642356D02*
X17210356Y-6571644D01*
X17139644Y-6571644D01*
X17139644Y-6642356D01*
X17210356Y-6642356D01*
X17210356Y-6896356D02*
X17210356Y-6825644D01*
X17139644Y-6825644D01*
X17139644Y-6896356D01*
X17210356Y-6896356D01*
X17210356Y-9210356D02*
X17210356Y-9139644D01*
X17139644Y-9139644D01*
X17139644Y-9210356D01*
X17210356Y-9210356D01*
X17210356Y-9464356D02*
X17210356Y-9393644D01*
X17139644Y-9393644D01*
X17139644Y-9464356D01*
X17210356Y-9464356D01*
X17210356Y-9718356D02*
X17210356Y-9647644D01*
X17139644Y-9647644D01*
X17139644Y-9718356D01*
X17210356Y-9718356D01*
X17210356Y-9972356D02*
X17210356Y-9901644D01*
X17139644Y-9901644D01*
X17139644Y-9972356D01*
X17210356Y-9972356D01*
X17210356Y-10226356D02*
X17210356Y-10155644D01*
X17139644Y-10155644D01*
X17139644Y-10226356D01*
X17210356Y-10226356D01*
X17210356Y-10480356D02*
X17210356Y-10409644D01*
X17139644Y-10409644D01*
X17139644Y-10480356D01*
X17210356Y-10480356D01*
X17210356Y-10734356D02*
X17210356Y-10663644D01*
X17139644Y-10663644D01*
X17139644Y-10734356D01*
X17210356Y-10734356D01*
X17210356Y-10988356D02*
X17210356Y-10917644D01*
X17139644Y-10917644D01*
X17139644Y-10988356D01*
X17210356Y-10988356D01*
X17210356Y-11242356D02*
X17210356Y-11171644D01*
X17139644Y-11171644D01*
X17139644Y-11242356D01*
X17210356Y-11242356D01*
X17210356Y-11496356D02*
X17210356Y-11425644D01*
X17139644Y-11425644D01*
X17139644Y-11496356D01*
X17210356Y-11496356D01*
X17210356Y-13810356D02*
X17210356Y-13739644D01*
X17139644Y-13739644D01*
X17139644Y-13810356D01*
X17210356Y-13810356D01*
X17210356Y-14064356D02*
X17210356Y-13993644D01*
X17139644Y-13993644D01*
X17139644Y-14064356D01*
X17210356Y-14064356D01*
X17210356Y-14318356D02*
X17210356Y-14247644D01*
X17139644Y-14247644D01*
X17139644Y-14318356D01*
X17210356Y-14318356D01*
X17210356Y-14572356D02*
X17210356Y-14501644D01*
X17139644Y-14501644D01*
X17139644Y-14572356D01*
X17210356Y-14572356D01*
X17210356Y-14826356D02*
X17210356Y-14755644D01*
X17139644Y-14755644D01*
X17139644Y-14826356D01*
X17210356Y-14826356D01*
X17210356Y-15080356D02*
X17210356Y-15009644D01*
X17139644Y-15009644D01*
X17139644Y-15080356D01*
X17210356Y-15080356D01*
X17210356Y-15334356D02*
X17210356Y-15263644D01*
X17139644Y-15263644D01*
X17139644Y-15334356D01*
X17210356Y-15334356D01*
X17210356Y-15588356D02*
X17210356Y-15517644D01*
X17139644Y-15517644D01*
X17139644Y-15588356D01*
X17210356Y-15588356D01*
X17210356Y-15842356D02*
X17210356Y-15771644D01*
X17139644Y-15771644D01*
X17139644Y-15842356D01*
X17210356Y-15842356D01*
X17210356Y-16096356D02*
X17210356Y-16025644D01*
X17139644Y-16025644D01*
X17139644Y-16096356D01*
X17210356Y-16096356D01*
D13*
X8225000Y-4472000D02*
X8280000Y-4417000D01*
X8225000Y-4362000D01*
X8170000Y-4417000D01*
X8225000Y-4472000D01*
X8225000Y-5488000D02*
X8280000Y-5433000D01*
X8225000Y-5378000D01*
X8170000Y-5433000D01*
X8225000Y-5488000D01*
X11775000Y-4472000D02*
X11830000Y-4417000D01*
X11775000Y-4362000D01*
X11720000Y-4417000D01*
X11775000Y-4472000D01*
X11775000Y-5488000D02*
X11830000Y-5433000D01*
X11775000Y-5378000D01*
X11720000Y-5433000D01*
X11775000Y-5488000D01*
D11*
X2858277Y-22063984D02*
X2858277Y-21863984D01*
X2858277Y-21863984D02*
X2905896Y-21863984D01*
X2905896Y-21863984D02*
X2934467Y-21873508D01*
X2934467Y-21873508D02*
X2953515Y-21892555D01*
X2953515Y-21892555D02*
X2963039Y-21911603D01*
X2963039Y-21911603D02*
X2972562Y-21949698D01*
X2972562Y-21949698D02*
X2972562Y-21978270D01*
X2972562Y-21978270D02*
X2963039Y-22016365D01*
X2963039Y-22016365D02*
X2953515Y-22035412D01*
X2953515Y-22035412D02*
X2934467Y-22054460D01*
X2934467Y-22054460D02*
X2905896Y-22063984D01*
X2905896Y-22063984D02*
X2858277Y-22063984D01*
X3058277Y-22063984D02*
X3058277Y-21930650D01*
X3058277Y-21968746D02*
X3067801Y-21949698D01*
X3067801Y-21949698D02*
X3077324Y-21940174D01*
X3077324Y-21940174D02*
X3096372Y-21930650D01*
X3096372Y-21930650D02*
X3115420Y-21930650D01*
X3182086Y-22063984D02*
X3182086Y-21930650D01*
X3182086Y-21863984D02*
X3172562Y-21873508D01*
X3172562Y-21873508D02*
X3182086Y-21883031D01*
X3182086Y-21883031D02*
X3191610Y-21873508D01*
X3191610Y-21873508D02*
X3182086Y-21863984D01*
X3182086Y-21863984D02*
X3182086Y-21883031D01*
X3305896Y-22063984D02*
X3286848Y-22054460D01*
X3286848Y-22054460D02*
X3277324Y-22035412D01*
X3277324Y-22035412D02*
X3277324Y-21863984D01*
X3410658Y-22063984D02*
X3391610Y-22054460D01*
X3391610Y-22054460D02*
X3382086Y-22035412D01*
X3382086Y-22035412D02*
X3382086Y-21863984D01*
X3639229Y-22063984D02*
X3639229Y-21863984D01*
X3639229Y-21863984D02*
X3705896Y-22006841D01*
X3705896Y-22006841D02*
X3772562Y-21863984D01*
X3772562Y-21863984D02*
X3772562Y-22063984D01*
X3953515Y-22063984D02*
X3953515Y-21959222D01*
X3953515Y-21959222D02*
X3943991Y-21940174D01*
X3943991Y-21940174D02*
X3924943Y-21930650D01*
X3924943Y-21930650D02*
X3886848Y-21930650D01*
X3886848Y-21930650D02*
X3867801Y-21940174D01*
X3953515Y-22054460D02*
X3934467Y-22063984D01*
X3934467Y-22063984D02*
X3886848Y-22063984D01*
X3886848Y-22063984D02*
X3867801Y-22054460D01*
X3867801Y-22054460D02*
X3858277Y-22035412D01*
X3858277Y-22035412D02*
X3858277Y-22016365D01*
X3858277Y-22016365D02*
X3867801Y-21997317D01*
X3867801Y-21997317D02*
X3886848Y-21987793D01*
X3886848Y-21987793D02*
X3934467Y-21987793D01*
X3934467Y-21987793D02*
X3953515Y-21978270D01*
X4048753Y-21930650D02*
X4048753Y-22130650D01*
X4048753Y-21940174D02*
X4067801Y-21930650D01*
X4067801Y-21930650D02*
X4105896Y-21930650D01*
X4105896Y-21930650D02*
X4124943Y-21940174D01*
X4124943Y-21940174D02*
X4134467Y-21949698D01*
X4134467Y-21949698D02*
X4143991Y-21968746D01*
X4143991Y-21968746D02*
X4143991Y-22025889D01*
X4143991Y-22025889D02*
X4134467Y-22044936D01*
X4134467Y-22044936D02*
X4124943Y-22054460D01*
X4124943Y-22054460D02*
X4105896Y-22063984D01*
X4105896Y-22063984D02*
X4067801Y-22063984D01*
X4067801Y-22063984D02*
X4048753Y-22054460D01*
X4229705Y-22044936D02*
X4239229Y-22054460D01*
X4239229Y-22054460D02*
X4229705Y-22063984D01*
X4229705Y-22063984D02*
X4220182Y-22054460D01*
X4220182Y-22054460D02*
X4229705Y-22044936D01*
X4229705Y-22044936D02*
X4229705Y-22063984D01*
X4229705Y-21940174D02*
X4239229Y-21949698D01*
X4239229Y-21949698D02*
X4229705Y-21959222D01*
X4229705Y-21959222D02*
X4220182Y-21949698D01*
X4220182Y-21949698D02*
X4229705Y-21940174D01*
X4229705Y-21940174D02*
X4229705Y-21959222D01*
D12*
X2567500Y-22377500D02*
X2597500Y-22407500D01*
X2597500Y-22377500D02*
X2567500Y-22407500D01*
D11*
X2896372Y-22283984D02*
X2915420Y-22283984D01*
X2915420Y-22283984D02*
X2934467Y-22293508D01*
X2934467Y-22293508D02*
X2943991Y-22303031D01*
X2943991Y-22303031D02*
X2953515Y-22322079D01*
X2953515Y-22322079D02*
X2963039Y-22360174D01*
X2963039Y-22360174D02*
X2963039Y-22407793D01*
X2963039Y-22407793D02*
X2953515Y-22445888D01*
X2953515Y-22445888D02*
X2943991Y-22464936D01*
X2943991Y-22464936D02*
X2934467Y-22474460D01*
X2934467Y-22474460D02*
X2915420Y-22483984D01*
X2915420Y-22483984D02*
X2896372Y-22483984D01*
X2896372Y-22483984D02*
X2877324Y-22474460D01*
X2877324Y-22474460D02*
X2867801Y-22464936D01*
X2867801Y-22464936D02*
X2858277Y-22445888D01*
X2858277Y-22445888D02*
X2848753Y-22407793D01*
X2848753Y-22407793D02*
X2848753Y-22360174D01*
X2848753Y-22360174D02*
X2858277Y-22322079D01*
X2858277Y-22322079D02*
X2867801Y-22303031D01*
X2867801Y-22303031D02*
X2877324Y-22293508D01*
X2877324Y-22293508D02*
X2896372Y-22283984D01*
X3048753Y-22464936D02*
X3058277Y-22474460D01*
X3058277Y-22474460D02*
X3048753Y-22483984D01*
X3048753Y-22483984D02*
X3039229Y-22474460D01*
X3039229Y-22474460D02*
X3048753Y-22464936D01*
X3048753Y-22464936D02*
X3048753Y-22483984D01*
X3124943Y-22283984D02*
X3248753Y-22283984D01*
X3248753Y-22283984D02*
X3182086Y-22360174D01*
X3182086Y-22360174D02*
X3210658Y-22360174D01*
X3210658Y-22360174D02*
X3229705Y-22369698D01*
X3229705Y-22369698D02*
X3239229Y-22379222D01*
X3239229Y-22379222D02*
X3248753Y-22398269D01*
X3248753Y-22398269D02*
X3248753Y-22445888D01*
X3248753Y-22445888D02*
X3239229Y-22464936D01*
X3239229Y-22464936D02*
X3229705Y-22474460D01*
X3229705Y-22474460D02*
X3210658Y-22483984D01*
X3210658Y-22483984D02*
X3153515Y-22483984D01*
X3153515Y-22483984D02*
X3134467Y-22474460D01*
X3134467Y-22474460D02*
X3124943Y-22464936D01*
X3372562Y-22283984D02*
X3391610Y-22283984D01*
X3391610Y-22283984D02*
X3410658Y-22293508D01*
X3410658Y-22293508D02*
X3420182Y-22303031D01*
X3420182Y-22303031D02*
X3429705Y-22322079D01*
X3429705Y-22322079D02*
X3439229Y-22360174D01*
X3439229Y-22360174D02*
X3439229Y-22407793D01*
X3439229Y-22407793D02*
X3429705Y-22445888D01*
X3429705Y-22445888D02*
X3420182Y-22464936D01*
X3420182Y-22464936D02*
X3410658Y-22474460D01*
X3410658Y-22474460D02*
X3391610Y-22483984D01*
X3391610Y-22483984D02*
X3372562Y-22483984D01*
X3372562Y-22483984D02*
X3353515Y-22474460D01*
X3353515Y-22474460D02*
X3343991Y-22464936D01*
X3343991Y-22464936D02*
X3334467Y-22445888D01*
X3334467Y-22445888D02*
X3324943Y-22407793D01*
X3324943Y-22407793D02*
X3324943Y-22360174D01*
X3324943Y-22360174D02*
X3334467Y-22322079D01*
X3334467Y-22322079D02*
X3343991Y-22303031D01*
X3343991Y-22303031D02*
X3353515Y-22293508D01*
X3353515Y-22293508D02*
X3372562Y-22283984D01*
X3563039Y-22283984D02*
X3582086Y-22283984D01*
X3582086Y-22283984D02*
X3601134Y-22293508D01*
X3601134Y-22293508D02*
X3610658Y-22303031D01*
X3610658Y-22303031D02*
X3620182Y-22322079D01*
X3620182Y-22322079D02*
X3629705Y-22360174D01*
X3629705Y-22360174D02*
X3629705Y-22407793D01*
X3629705Y-22407793D02*
X3620182Y-22445888D01*
X3620182Y-22445888D02*
X3610658Y-22464936D01*
X3610658Y-22464936D02*
X3601134Y-22474460D01*
X3601134Y-22474460D02*
X3582086Y-22483984D01*
X3582086Y-22483984D02*
X3563039Y-22483984D01*
X3563039Y-22483984D02*
X3543991Y-22474460D01*
X3543991Y-22474460D02*
X3534467Y-22464936D01*
X3534467Y-22464936D02*
X3524943Y-22445888D01*
X3524943Y-22445888D02*
X3515420Y-22407793D01*
X3515420Y-22407793D02*
X3515420Y-22360174D01*
X3515420Y-22360174D02*
X3524943Y-22322079D01*
X3524943Y-22322079D02*
X3534467Y-22303031D01*
X3534467Y-22303031D02*
X3543991Y-22293508D01*
X3543991Y-22293508D02*
X3563039Y-22283984D01*
X3715420Y-22483984D02*
X3715420Y-22350650D01*
X3715420Y-22369698D02*
X3724943Y-22360174D01*
X3724943Y-22360174D02*
X3743991Y-22350650D01*
X3743991Y-22350650D02*
X3772563Y-22350650D01*
X3772563Y-22350650D02*
X3791610Y-22360174D01*
X3791610Y-22360174D02*
X3801134Y-22379222D01*
X3801134Y-22379222D02*
X3801134Y-22483984D01*
X3801134Y-22379222D02*
X3810658Y-22360174D01*
X3810658Y-22360174D02*
X3829705Y-22350650D01*
X3829705Y-22350650D02*
X3858277Y-22350650D01*
X3858277Y-22350650D02*
X3877324Y-22360174D01*
X3877324Y-22360174D02*
X3886848Y-22379222D01*
X3886848Y-22379222D02*
X3886848Y-22483984D01*
X3982086Y-22483984D02*
X3982086Y-22350650D01*
X3982086Y-22369698D02*
X3991610Y-22360174D01*
X3991610Y-22360174D02*
X4010658Y-22350650D01*
X4010658Y-22350650D02*
X4039229Y-22350650D01*
X4039229Y-22350650D02*
X4058277Y-22360174D01*
X4058277Y-22360174D02*
X4067801Y-22379222D01*
X4067801Y-22379222D02*
X4067801Y-22483984D01*
X4067801Y-22379222D02*
X4077324Y-22360174D01*
X4077324Y-22360174D02*
X4096372Y-22350650D01*
X4096372Y-22350650D02*
X4124943Y-22350650D01*
X4124943Y-22350650D02*
X4143991Y-22360174D01*
X4143991Y-22360174D02*
X4153515Y-22379222D01*
X4153515Y-22379222D02*
X4153515Y-22483984D01*
X4543991Y-22274460D02*
X4372563Y-22531603D01*
X4801134Y-22283984D02*
X4820182Y-22283984D01*
X4820182Y-22283984D02*
X4839229Y-22293508D01*
X4839229Y-22293508D02*
X4848753Y-22303031D01*
X4848753Y-22303031D02*
X4858277Y-22322079D01*
X4858277Y-22322079D02*
X4867801Y-22360174D01*
X4867801Y-22360174D02*
X4867801Y-22407793D01*
X4867801Y-22407793D02*
X4858277Y-22445888D01*
X4858277Y-22445888D02*
X4848753Y-22464936D01*
X4848753Y-22464936D02*
X4839229Y-22474460D01*
X4839229Y-22474460D02*
X4820182Y-22483984D01*
X4820182Y-22483984D02*
X4801134Y-22483984D01*
X4801134Y-22483984D02*
X4782087Y-22474460D01*
X4782087Y-22474460D02*
X4772563Y-22464936D01*
X4772563Y-22464936D02*
X4763039Y-22445888D01*
X4763039Y-22445888D02*
X4753515Y-22407793D01*
X4753515Y-22407793D02*
X4753515Y-22360174D01*
X4753515Y-22360174D02*
X4763039Y-22322079D01*
X4763039Y-22322079D02*
X4772563Y-22303031D01*
X4772563Y-22303031D02*
X4782087Y-22293508D01*
X4782087Y-22293508D02*
X4801134Y-22283984D01*
X4953515Y-22464936D02*
X4963039Y-22474460D01*
X4963039Y-22474460D02*
X4953515Y-22483984D01*
X4953515Y-22483984D02*
X4943991Y-22474460D01*
X4943991Y-22474460D02*
X4953515Y-22464936D01*
X4953515Y-22464936D02*
X4953515Y-22483984D01*
X5086848Y-22283984D02*
X5105896Y-22283984D01*
X5105896Y-22283984D02*
X5124944Y-22293508D01*
X5124944Y-22293508D02*
X5134468Y-22303031D01*
X5134468Y-22303031D02*
X5143991Y-22322079D01*
X5143991Y-22322079D02*
X5153515Y-22360174D01*
X5153515Y-22360174D02*
X5153515Y-22407793D01*
X5153515Y-22407793D02*
X5143991Y-22445888D01*
X5143991Y-22445888D02*
X5134468Y-22464936D01*
X5134468Y-22464936D02*
X5124944Y-22474460D01*
X5124944Y-22474460D02*
X5105896Y-22483984D01*
X5105896Y-22483984D02*
X5086848Y-22483984D01*
X5086848Y-22483984D02*
X5067801Y-22474460D01*
X5067801Y-22474460D02*
X5058277Y-22464936D01*
X5058277Y-22464936D02*
X5048753Y-22445888D01*
X5048753Y-22445888D02*
X5039229Y-22407793D01*
X5039229Y-22407793D02*
X5039229Y-22360174D01*
X5039229Y-22360174D02*
X5048753Y-22322079D01*
X5048753Y-22322079D02*
X5058277Y-22303031D01*
X5058277Y-22303031D02*
X5067801Y-22293508D01*
X5067801Y-22293508D02*
X5086848Y-22283984D01*
X5343991Y-22483984D02*
X5229706Y-22483984D01*
X5286848Y-22483984D02*
X5286848Y-22283984D01*
X5286848Y-22283984D02*
X5267801Y-22312555D01*
X5267801Y-22312555D02*
X5248753Y-22331603D01*
X5248753Y-22331603D02*
X5229706Y-22341127D01*
X5534468Y-22483984D02*
X5420182Y-22483984D01*
X5477325Y-22483984D02*
X5477325Y-22283984D01*
X5477325Y-22283984D02*
X5458277Y-22312555D01*
X5458277Y-22312555D02*
X5439229Y-22331603D01*
X5439229Y-22331603D02*
X5420182Y-22341127D01*
X5648753Y-22369698D02*
X5629706Y-22360174D01*
X5629706Y-22360174D02*
X5620182Y-22350650D01*
X5620182Y-22350650D02*
X5610658Y-22331603D01*
X5610658Y-22331603D02*
X5610658Y-22322079D01*
X5610658Y-22322079D02*
X5620182Y-22303031D01*
X5620182Y-22303031D02*
X5629706Y-22293508D01*
X5629706Y-22293508D02*
X5648753Y-22283984D01*
X5648753Y-22283984D02*
X5686848Y-22283984D01*
X5686848Y-22283984D02*
X5705896Y-22293508D01*
X5705896Y-22293508D02*
X5715420Y-22303031D01*
X5715420Y-22303031D02*
X5724944Y-22322079D01*
X5724944Y-22322079D02*
X5724944Y-22331603D01*
X5724944Y-22331603D02*
X5715420Y-22350650D01*
X5715420Y-22350650D02*
X5705896Y-22360174D01*
X5705896Y-22360174D02*
X5686848Y-22369698D01*
X5686848Y-22369698D02*
X5648753Y-22369698D01*
X5648753Y-22369698D02*
X5629706Y-22379222D01*
X5629706Y-22379222D02*
X5620182Y-22388746D01*
X5620182Y-22388746D02*
X5610658Y-22407793D01*
X5610658Y-22407793D02*
X5610658Y-22445888D01*
X5610658Y-22445888D02*
X5620182Y-22464936D01*
X5620182Y-22464936D02*
X5629706Y-22474460D01*
X5629706Y-22474460D02*
X5648753Y-22483984D01*
X5648753Y-22483984D02*
X5686848Y-22483984D01*
X5686848Y-22483984D02*
X5705896Y-22474460D01*
X5705896Y-22474460D02*
X5715420Y-22464936D01*
X5715420Y-22464936D02*
X5724944Y-22445888D01*
X5724944Y-22445888D02*
X5724944Y-22407793D01*
X5724944Y-22407793D02*
X5715420Y-22388746D01*
X5715420Y-22388746D02*
X5705896Y-22379222D01*
X5705896Y-22379222D02*
X5686848Y-22369698D01*
X5801134Y-22283984D02*
X5801134Y-22322079D01*
X5877325Y-22283984D02*
X5877325Y-22322079D01*
X6172563Y-22560174D02*
X6163039Y-22550650D01*
X6163039Y-22550650D02*
X6143991Y-22522079D01*
X6143991Y-22522079D02*
X6134468Y-22503031D01*
X6134468Y-22503031D02*
X6124944Y-22474460D01*
X6124944Y-22474460D02*
X6115420Y-22426841D01*
X6115420Y-22426841D02*
X6115420Y-22388746D01*
X6115420Y-22388746D02*
X6124944Y-22341127D01*
X6124944Y-22341127D02*
X6134468Y-22312555D01*
X6134468Y-22312555D02*
X6143991Y-22293508D01*
X6143991Y-22293508D02*
X6163039Y-22264936D01*
X6163039Y-22264936D02*
X6172563Y-22255412D01*
X6229706Y-22283984D02*
X6353515Y-22283984D01*
X6353515Y-22283984D02*
X6286848Y-22360174D01*
X6286848Y-22360174D02*
X6315420Y-22360174D01*
X6315420Y-22360174D02*
X6334468Y-22369698D01*
X6334468Y-22369698D02*
X6343991Y-22379222D01*
X6343991Y-22379222D02*
X6353515Y-22398269D01*
X6353515Y-22398269D02*
X6353515Y-22445888D01*
X6353515Y-22445888D02*
X6343991Y-22464936D01*
X6343991Y-22464936D02*
X6334468Y-22474460D01*
X6334468Y-22474460D02*
X6315420Y-22483984D01*
X6315420Y-22483984D02*
X6258277Y-22483984D01*
X6258277Y-22483984D02*
X6239229Y-22474460D01*
X6239229Y-22474460D02*
X6229706Y-22464936D01*
X6429706Y-22303031D02*
X6439229Y-22293508D01*
X6439229Y-22293508D02*
X6458277Y-22283984D01*
X6458277Y-22283984D02*
X6505896Y-22283984D01*
X6505896Y-22283984D02*
X6524944Y-22293508D01*
X6524944Y-22293508D02*
X6534468Y-22303031D01*
X6534468Y-22303031D02*
X6543991Y-22322079D01*
X6543991Y-22322079D02*
X6543991Y-22341127D01*
X6543991Y-22341127D02*
X6534468Y-22369698D01*
X6534468Y-22369698D02*
X6420182Y-22483984D01*
X6420182Y-22483984D02*
X6543991Y-22483984D01*
X6782087Y-22483984D02*
X6782087Y-22283984D01*
X6867801Y-22483984D02*
X6867801Y-22379222D01*
X6867801Y-22379222D02*
X6858277Y-22360174D01*
X6858277Y-22360174D02*
X6839230Y-22350650D01*
X6839230Y-22350650D02*
X6810658Y-22350650D01*
X6810658Y-22350650D02*
X6791610Y-22360174D01*
X6791610Y-22360174D02*
X6782087Y-22369698D01*
X6991610Y-22483984D02*
X6972563Y-22474460D01*
X6972563Y-22474460D02*
X6963039Y-22464936D01*
X6963039Y-22464936D02*
X6953515Y-22445888D01*
X6953515Y-22445888D02*
X6953515Y-22388746D01*
X6953515Y-22388746D02*
X6963039Y-22369698D01*
X6963039Y-22369698D02*
X6972563Y-22360174D01*
X6972563Y-22360174D02*
X6991610Y-22350650D01*
X6991610Y-22350650D02*
X7020182Y-22350650D01*
X7020182Y-22350650D02*
X7039230Y-22360174D01*
X7039230Y-22360174D02*
X7048753Y-22369698D01*
X7048753Y-22369698D02*
X7058277Y-22388746D01*
X7058277Y-22388746D02*
X7058277Y-22445888D01*
X7058277Y-22445888D02*
X7048753Y-22464936D01*
X7048753Y-22464936D02*
X7039230Y-22474460D01*
X7039230Y-22474460D02*
X7020182Y-22483984D01*
X7020182Y-22483984D02*
X6991610Y-22483984D01*
X7172563Y-22483984D02*
X7153515Y-22474460D01*
X7153515Y-22474460D02*
X7143991Y-22455412D01*
X7143991Y-22455412D02*
X7143991Y-22283984D01*
X7324944Y-22474460D02*
X7305896Y-22483984D01*
X7305896Y-22483984D02*
X7267801Y-22483984D01*
X7267801Y-22483984D02*
X7248753Y-22474460D01*
X7248753Y-22474460D02*
X7239230Y-22455412D01*
X7239230Y-22455412D02*
X7239230Y-22379222D01*
X7239230Y-22379222D02*
X7248753Y-22360174D01*
X7248753Y-22360174D02*
X7267801Y-22350650D01*
X7267801Y-22350650D02*
X7305896Y-22350650D01*
X7305896Y-22350650D02*
X7324944Y-22360174D01*
X7324944Y-22360174D02*
X7334468Y-22379222D01*
X7334468Y-22379222D02*
X7334468Y-22398269D01*
X7334468Y-22398269D02*
X7239230Y-22417317D01*
X7410658Y-22474460D02*
X7429706Y-22483984D01*
X7429706Y-22483984D02*
X7467801Y-22483984D01*
X7467801Y-22483984D02*
X7486849Y-22474460D01*
X7486849Y-22474460D02*
X7496372Y-22455412D01*
X7496372Y-22455412D02*
X7496372Y-22445888D01*
X7496372Y-22445888D02*
X7486849Y-22426841D01*
X7486849Y-22426841D02*
X7467801Y-22417317D01*
X7467801Y-22417317D02*
X7439230Y-22417317D01*
X7439230Y-22417317D02*
X7420182Y-22407793D01*
X7420182Y-22407793D02*
X7410658Y-22388746D01*
X7410658Y-22388746D02*
X7410658Y-22379222D01*
X7410658Y-22379222D02*
X7420182Y-22360174D01*
X7420182Y-22360174D02*
X7439230Y-22350650D01*
X7439230Y-22350650D02*
X7467801Y-22350650D01*
X7467801Y-22350650D02*
X7486849Y-22360174D01*
X7563039Y-22560174D02*
X7572563Y-22550650D01*
X7572563Y-22550650D02*
X7591611Y-22522079D01*
X7591611Y-22522079D02*
X7601134Y-22503031D01*
X7601134Y-22503031D02*
X7610658Y-22474460D01*
X7610658Y-22474460D02*
X7620182Y-22426841D01*
X7620182Y-22426841D02*
X7620182Y-22388746D01*
X7620182Y-22388746D02*
X7610658Y-22341127D01*
X7610658Y-22341127D02*
X7601134Y-22312555D01*
X7601134Y-22312555D02*
X7591611Y-22293508D01*
X7591611Y-22293508D02*
X7572563Y-22264936D01*
X7572563Y-22264936D02*
X7563039Y-22255412D01*
D12*
X2597500Y-22656500D02*
G75*
G02*
X2522500Y-22656500I-37500J0D01*
G01*
X2522500Y-22656500D02*
G75*
G02*
X2597500Y-22656500I37500J0D01*
G01*
D11*
X2896372Y-22547984D02*
X2915420Y-22547984D01*
X2915420Y-22547984D02*
X2934467Y-22557508D01*
X2934467Y-22557508D02*
X2943991Y-22567031D01*
X2943991Y-22567031D02*
X2953515Y-22586079D01*
X2953515Y-22586079D02*
X2963039Y-22624174D01*
X2963039Y-22624174D02*
X2963039Y-22671793D01*
X2963039Y-22671793D02*
X2953515Y-22709888D01*
X2953515Y-22709888D02*
X2943991Y-22728936D01*
X2943991Y-22728936D02*
X2934467Y-22738460D01*
X2934467Y-22738460D02*
X2915420Y-22747984D01*
X2915420Y-22747984D02*
X2896372Y-22747984D01*
X2896372Y-22747984D02*
X2877324Y-22738460D01*
X2877324Y-22738460D02*
X2867801Y-22728936D01*
X2867801Y-22728936D02*
X2858277Y-22709888D01*
X2858277Y-22709888D02*
X2848753Y-22671793D01*
X2848753Y-22671793D02*
X2848753Y-22624174D01*
X2848753Y-22624174D02*
X2858277Y-22586079D01*
X2858277Y-22586079D02*
X2867801Y-22567031D01*
X2867801Y-22567031D02*
X2877324Y-22557508D01*
X2877324Y-22557508D02*
X2896372Y-22547984D01*
X3048753Y-22728936D02*
X3058277Y-22738460D01*
X3058277Y-22738460D02*
X3048753Y-22747984D01*
X3048753Y-22747984D02*
X3039229Y-22738460D01*
X3039229Y-22738460D02*
X3048753Y-22728936D01*
X3048753Y-22728936D02*
X3048753Y-22747984D01*
X3124943Y-22547984D02*
X3258277Y-22547984D01*
X3258277Y-22547984D02*
X3172562Y-22747984D01*
X3429705Y-22547984D02*
X3334467Y-22547984D01*
X3334467Y-22547984D02*
X3324943Y-22643222D01*
X3324943Y-22643222D02*
X3334467Y-22633698D01*
X3334467Y-22633698D02*
X3353515Y-22624174D01*
X3353515Y-22624174D02*
X3401134Y-22624174D01*
X3401134Y-22624174D02*
X3420182Y-22633698D01*
X3420182Y-22633698D02*
X3429705Y-22643222D01*
X3429705Y-22643222D02*
X3439229Y-22662269D01*
X3439229Y-22662269D02*
X3439229Y-22709888D01*
X3439229Y-22709888D02*
X3429705Y-22728936D01*
X3429705Y-22728936D02*
X3420182Y-22738460D01*
X3420182Y-22738460D02*
X3401134Y-22747984D01*
X3401134Y-22747984D02*
X3353515Y-22747984D01*
X3353515Y-22747984D02*
X3334467Y-22738460D01*
X3334467Y-22738460D02*
X3324943Y-22728936D01*
X3563039Y-22547984D02*
X3582086Y-22547984D01*
X3582086Y-22547984D02*
X3601134Y-22557508D01*
X3601134Y-22557508D02*
X3610658Y-22567031D01*
X3610658Y-22567031D02*
X3620182Y-22586079D01*
X3620182Y-22586079D02*
X3629705Y-22624174D01*
X3629705Y-22624174D02*
X3629705Y-22671793D01*
X3629705Y-22671793D02*
X3620182Y-22709888D01*
X3620182Y-22709888D02*
X3610658Y-22728936D01*
X3610658Y-22728936D02*
X3601134Y-22738460D01*
X3601134Y-22738460D02*
X3582086Y-22747984D01*
X3582086Y-22747984D02*
X3563039Y-22747984D01*
X3563039Y-22747984D02*
X3543991Y-22738460D01*
X3543991Y-22738460D02*
X3534467Y-22728936D01*
X3534467Y-22728936D02*
X3524943Y-22709888D01*
X3524943Y-22709888D02*
X3515420Y-22671793D01*
X3515420Y-22671793D02*
X3515420Y-22624174D01*
X3515420Y-22624174D02*
X3524943Y-22586079D01*
X3524943Y-22586079D02*
X3534467Y-22567031D01*
X3534467Y-22567031D02*
X3543991Y-22557508D01*
X3543991Y-22557508D02*
X3563039Y-22547984D01*
X3715420Y-22747984D02*
X3715420Y-22614650D01*
X3715420Y-22633698D02*
X3724943Y-22624174D01*
X3724943Y-22624174D02*
X3743991Y-22614650D01*
X3743991Y-22614650D02*
X3772563Y-22614650D01*
X3772563Y-22614650D02*
X3791610Y-22624174D01*
X3791610Y-22624174D02*
X3801134Y-22643222D01*
X3801134Y-22643222D02*
X3801134Y-22747984D01*
X3801134Y-22643222D02*
X3810658Y-22624174D01*
X3810658Y-22624174D02*
X3829705Y-22614650D01*
X3829705Y-22614650D02*
X3858277Y-22614650D01*
X3858277Y-22614650D02*
X3877324Y-22624174D01*
X3877324Y-22624174D02*
X3886848Y-22643222D01*
X3886848Y-22643222D02*
X3886848Y-22747984D01*
X3982086Y-22747984D02*
X3982086Y-22614650D01*
X3982086Y-22633698D02*
X3991610Y-22624174D01*
X3991610Y-22624174D02*
X4010658Y-22614650D01*
X4010658Y-22614650D02*
X4039229Y-22614650D01*
X4039229Y-22614650D02*
X4058277Y-22624174D01*
X4058277Y-22624174D02*
X4067801Y-22643222D01*
X4067801Y-22643222D02*
X4067801Y-22747984D01*
X4067801Y-22643222D02*
X4077324Y-22624174D01*
X4077324Y-22624174D02*
X4096372Y-22614650D01*
X4096372Y-22614650D02*
X4124943Y-22614650D01*
X4124943Y-22614650D02*
X4143991Y-22624174D01*
X4143991Y-22624174D02*
X4153515Y-22643222D01*
X4153515Y-22643222D02*
X4153515Y-22747984D01*
X4543991Y-22538460D02*
X4372563Y-22795603D01*
X4801134Y-22547984D02*
X4820182Y-22547984D01*
X4820182Y-22547984D02*
X4839229Y-22557508D01*
X4839229Y-22557508D02*
X4848753Y-22567031D01*
X4848753Y-22567031D02*
X4858277Y-22586079D01*
X4858277Y-22586079D02*
X4867801Y-22624174D01*
X4867801Y-22624174D02*
X4867801Y-22671793D01*
X4867801Y-22671793D02*
X4858277Y-22709888D01*
X4858277Y-22709888D02*
X4848753Y-22728936D01*
X4848753Y-22728936D02*
X4839229Y-22738460D01*
X4839229Y-22738460D02*
X4820182Y-22747984D01*
X4820182Y-22747984D02*
X4801134Y-22747984D01*
X4801134Y-22747984D02*
X4782087Y-22738460D01*
X4782087Y-22738460D02*
X4772563Y-22728936D01*
X4772563Y-22728936D02*
X4763039Y-22709888D01*
X4763039Y-22709888D02*
X4753515Y-22671793D01*
X4753515Y-22671793D02*
X4753515Y-22624174D01*
X4753515Y-22624174D02*
X4763039Y-22586079D01*
X4763039Y-22586079D02*
X4772563Y-22567031D01*
X4772563Y-22567031D02*
X4782087Y-22557508D01*
X4782087Y-22557508D02*
X4801134Y-22547984D01*
X4953515Y-22728936D02*
X4963039Y-22738460D01*
X4963039Y-22738460D02*
X4953515Y-22747984D01*
X4953515Y-22747984D02*
X4943991Y-22738460D01*
X4943991Y-22738460D02*
X4953515Y-22728936D01*
X4953515Y-22728936D02*
X4953515Y-22747984D01*
X5086848Y-22547984D02*
X5105896Y-22547984D01*
X5105896Y-22547984D02*
X5124944Y-22557508D01*
X5124944Y-22557508D02*
X5134468Y-22567031D01*
X5134468Y-22567031D02*
X5143991Y-22586079D01*
X5143991Y-22586079D02*
X5153515Y-22624174D01*
X5153515Y-22624174D02*
X5153515Y-22671793D01*
X5153515Y-22671793D02*
X5143991Y-22709888D01*
X5143991Y-22709888D02*
X5134468Y-22728936D01*
X5134468Y-22728936D02*
X5124944Y-22738460D01*
X5124944Y-22738460D02*
X5105896Y-22747984D01*
X5105896Y-22747984D02*
X5086848Y-22747984D01*
X5086848Y-22747984D02*
X5067801Y-22738460D01*
X5067801Y-22738460D02*
X5058277Y-22728936D01*
X5058277Y-22728936D02*
X5048753Y-22709888D01*
X5048753Y-22709888D02*
X5039229Y-22671793D01*
X5039229Y-22671793D02*
X5039229Y-22624174D01*
X5039229Y-22624174D02*
X5048753Y-22586079D01*
X5048753Y-22586079D02*
X5058277Y-22567031D01*
X5058277Y-22567031D02*
X5067801Y-22557508D01*
X5067801Y-22557508D02*
X5086848Y-22547984D01*
X5229706Y-22567031D02*
X5239229Y-22557508D01*
X5239229Y-22557508D02*
X5258277Y-22547984D01*
X5258277Y-22547984D02*
X5305896Y-22547984D01*
X5305896Y-22547984D02*
X5324944Y-22557508D01*
X5324944Y-22557508D02*
X5334468Y-22567031D01*
X5334468Y-22567031D02*
X5343991Y-22586079D01*
X5343991Y-22586079D02*
X5343991Y-22605127D01*
X5343991Y-22605127D02*
X5334468Y-22633698D01*
X5334468Y-22633698D02*
X5220182Y-22747984D01*
X5220182Y-22747984D02*
X5343991Y-22747984D01*
X5439229Y-22747984D02*
X5477325Y-22747984D01*
X5477325Y-22747984D02*
X5496372Y-22738460D01*
X5496372Y-22738460D02*
X5505896Y-22728936D01*
X5505896Y-22728936D02*
X5524944Y-22700365D01*
X5524944Y-22700365D02*
X5534468Y-22662269D01*
X5534468Y-22662269D02*
X5534468Y-22586079D01*
X5534468Y-22586079D02*
X5524944Y-22567031D01*
X5524944Y-22567031D02*
X5515420Y-22557508D01*
X5515420Y-22557508D02*
X5496372Y-22547984D01*
X5496372Y-22547984D02*
X5458277Y-22547984D01*
X5458277Y-22547984D02*
X5439229Y-22557508D01*
X5439229Y-22557508D02*
X5429706Y-22567031D01*
X5429706Y-22567031D02*
X5420182Y-22586079D01*
X5420182Y-22586079D02*
X5420182Y-22633698D01*
X5420182Y-22633698D02*
X5429706Y-22652746D01*
X5429706Y-22652746D02*
X5439229Y-22662269D01*
X5439229Y-22662269D02*
X5458277Y-22671793D01*
X5458277Y-22671793D02*
X5496372Y-22671793D01*
X5496372Y-22671793D02*
X5515420Y-22662269D01*
X5515420Y-22662269D02*
X5524944Y-22652746D01*
X5524944Y-22652746D02*
X5534468Y-22633698D01*
X5715420Y-22547984D02*
X5620182Y-22547984D01*
X5620182Y-22547984D02*
X5610658Y-22643222D01*
X5610658Y-22643222D02*
X5620182Y-22633698D01*
X5620182Y-22633698D02*
X5639229Y-22624174D01*
X5639229Y-22624174D02*
X5686848Y-22624174D01*
X5686848Y-22624174D02*
X5705896Y-22633698D01*
X5705896Y-22633698D02*
X5715420Y-22643222D01*
X5715420Y-22643222D02*
X5724944Y-22662269D01*
X5724944Y-22662269D02*
X5724944Y-22709888D01*
X5724944Y-22709888D02*
X5715420Y-22728936D01*
X5715420Y-22728936D02*
X5705896Y-22738460D01*
X5705896Y-22738460D02*
X5686848Y-22747984D01*
X5686848Y-22747984D02*
X5639229Y-22747984D01*
X5639229Y-22747984D02*
X5620182Y-22738460D01*
X5620182Y-22738460D02*
X5610658Y-22728936D01*
X5801134Y-22547984D02*
X5801134Y-22586079D01*
X5877325Y-22547984D02*
X5877325Y-22586079D01*
X6172563Y-22824174D02*
X6163039Y-22814650D01*
X6163039Y-22814650D02*
X6143991Y-22786079D01*
X6143991Y-22786079D02*
X6134468Y-22767031D01*
X6134468Y-22767031D02*
X6124944Y-22738460D01*
X6124944Y-22738460D02*
X6115420Y-22690841D01*
X6115420Y-22690841D02*
X6115420Y-22652746D01*
X6115420Y-22652746D02*
X6124944Y-22605127D01*
X6124944Y-22605127D02*
X6134468Y-22576555D01*
X6134468Y-22576555D02*
X6143991Y-22557508D01*
X6143991Y-22557508D02*
X6163039Y-22528936D01*
X6163039Y-22528936D02*
X6172563Y-22519412D01*
X6353515Y-22747984D02*
X6239229Y-22747984D01*
X6296372Y-22747984D02*
X6296372Y-22547984D01*
X6296372Y-22547984D02*
X6277325Y-22576555D01*
X6277325Y-22576555D02*
X6258277Y-22595603D01*
X6258277Y-22595603D02*
X6239229Y-22605127D01*
X6429706Y-22567031D02*
X6439229Y-22557508D01*
X6439229Y-22557508D02*
X6458277Y-22547984D01*
X6458277Y-22547984D02*
X6505896Y-22547984D01*
X6505896Y-22547984D02*
X6524944Y-22557508D01*
X6524944Y-22557508D02*
X6534468Y-22567031D01*
X6534468Y-22567031D02*
X6543991Y-22586079D01*
X6543991Y-22586079D02*
X6543991Y-22605127D01*
X6543991Y-22605127D02*
X6534468Y-22633698D01*
X6534468Y-22633698D02*
X6420182Y-22747984D01*
X6420182Y-22747984D02*
X6543991Y-22747984D01*
X6782087Y-22747984D02*
X6782087Y-22547984D01*
X6867801Y-22747984D02*
X6867801Y-22643222D01*
X6867801Y-22643222D02*
X6858277Y-22624174D01*
X6858277Y-22624174D02*
X6839230Y-22614650D01*
X6839230Y-22614650D02*
X6810658Y-22614650D01*
X6810658Y-22614650D02*
X6791610Y-22624174D01*
X6791610Y-22624174D02*
X6782087Y-22633698D01*
X6991610Y-22747984D02*
X6972563Y-22738460D01*
X6972563Y-22738460D02*
X6963039Y-22728936D01*
X6963039Y-22728936D02*
X6953515Y-22709888D01*
X6953515Y-22709888D02*
X6953515Y-22652746D01*
X6953515Y-22652746D02*
X6963039Y-22633698D01*
X6963039Y-22633698D02*
X6972563Y-22624174D01*
X6972563Y-22624174D02*
X6991610Y-22614650D01*
X6991610Y-22614650D02*
X7020182Y-22614650D01*
X7020182Y-22614650D02*
X7039230Y-22624174D01*
X7039230Y-22624174D02*
X7048753Y-22633698D01*
X7048753Y-22633698D02*
X7058277Y-22652746D01*
X7058277Y-22652746D02*
X7058277Y-22709888D01*
X7058277Y-22709888D02*
X7048753Y-22728936D01*
X7048753Y-22728936D02*
X7039230Y-22738460D01*
X7039230Y-22738460D02*
X7020182Y-22747984D01*
X7020182Y-22747984D02*
X6991610Y-22747984D01*
X7172563Y-22747984D02*
X7153515Y-22738460D01*
X7153515Y-22738460D02*
X7143991Y-22719412D01*
X7143991Y-22719412D02*
X7143991Y-22547984D01*
X7324944Y-22738460D02*
X7305896Y-22747984D01*
X7305896Y-22747984D02*
X7267801Y-22747984D01*
X7267801Y-22747984D02*
X7248753Y-22738460D01*
X7248753Y-22738460D02*
X7239230Y-22719412D01*
X7239230Y-22719412D02*
X7239230Y-22643222D01*
X7239230Y-22643222D02*
X7248753Y-22624174D01*
X7248753Y-22624174D02*
X7267801Y-22614650D01*
X7267801Y-22614650D02*
X7305896Y-22614650D01*
X7305896Y-22614650D02*
X7324944Y-22624174D01*
X7324944Y-22624174D02*
X7334468Y-22643222D01*
X7334468Y-22643222D02*
X7334468Y-22662269D01*
X7334468Y-22662269D02*
X7239230Y-22681317D01*
X7410658Y-22738460D02*
X7429706Y-22747984D01*
X7429706Y-22747984D02*
X7467801Y-22747984D01*
X7467801Y-22747984D02*
X7486849Y-22738460D01*
X7486849Y-22738460D02*
X7496372Y-22719412D01*
X7496372Y-22719412D02*
X7496372Y-22709888D01*
X7496372Y-22709888D02*
X7486849Y-22690841D01*
X7486849Y-22690841D02*
X7467801Y-22681317D01*
X7467801Y-22681317D02*
X7439230Y-22681317D01*
X7439230Y-22681317D02*
X7420182Y-22671793D01*
X7420182Y-22671793D02*
X7410658Y-22652746D01*
X7410658Y-22652746D02*
X7410658Y-22643222D01*
X7410658Y-22643222D02*
X7420182Y-22624174D01*
X7420182Y-22624174D02*
X7439230Y-22614650D01*
X7439230Y-22614650D02*
X7467801Y-22614650D01*
X7467801Y-22614650D02*
X7486849Y-22624174D01*
X7563039Y-22824174D02*
X7572563Y-22814650D01*
X7572563Y-22814650D02*
X7591611Y-22786079D01*
X7591611Y-22786079D02*
X7601134Y-22767031D01*
X7601134Y-22767031D02*
X7610658Y-22738460D01*
X7610658Y-22738460D02*
X7620182Y-22690841D01*
X7620182Y-22690841D02*
X7620182Y-22652746D01*
X7620182Y-22652746D02*
X7610658Y-22605127D01*
X7610658Y-22605127D02*
X7601134Y-22576555D01*
X7601134Y-22576555D02*
X7591611Y-22557508D01*
X7591611Y-22557508D02*
X7572563Y-22528936D01*
X7572563Y-22528936D02*
X7563039Y-22519412D01*
D12*
X2557500Y-22880500D02*
X2557500Y-22960500D01*
X2517500Y-22920500D02*
X2597500Y-22920500D01*
D11*
X2896372Y-22811984D02*
X2915420Y-22811984D01*
X2915420Y-22811984D02*
X2934467Y-22821508D01*
X2934467Y-22821508D02*
X2943991Y-22831031D01*
X2943991Y-22831031D02*
X2953515Y-22850079D01*
X2953515Y-22850079D02*
X2963039Y-22888174D01*
X2963039Y-22888174D02*
X2963039Y-22935793D01*
X2963039Y-22935793D02*
X2953515Y-22973888D01*
X2953515Y-22973888D02*
X2943991Y-22992936D01*
X2943991Y-22992936D02*
X2934467Y-23002460D01*
X2934467Y-23002460D02*
X2915420Y-23011984D01*
X2915420Y-23011984D02*
X2896372Y-23011984D01*
X2896372Y-23011984D02*
X2877324Y-23002460D01*
X2877324Y-23002460D02*
X2867801Y-22992936D01*
X2867801Y-22992936D02*
X2858277Y-22973888D01*
X2858277Y-22973888D02*
X2848753Y-22935793D01*
X2848753Y-22935793D02*
X2848753Y-22888174D01*
X2848753Y-22888174D02*
X2858277Y-22850079D01*
X2858277Y-22850079D02*
X2867801Y-22831031D01*
X2867801Y-22831031D02*
X2877324Y-22821508D01*
X2877324Y-22821508D02*
X2896372Y-22811984D01*
X3048753Y-22992936D02*
X3058277Y-23002460D01*
X3058277Y-23002460D02*
X3048753Y-23011984D01*
X3048753Y-23011984D02*
X3039229Y-23002460D01*
X3039229Y-23002460D02*
X3048753Y-22992936D01*
X3048753Y-22992936D02*
X3048753Y-23011984D01*
X3172562Y-22897698D02*
X3153515Y-22888174D01*
X3153515Y-22888174D02*
X3143991Y-22878650D01*
X3143991Y-22878650D02*
X3134467Y-22859603D01*
X3134467Y-22859603D02*
X3134467Y-22850079D01*
X3134467Y-22850079D02*
X3143991Y-22831031D01*
X3143991Y-22831031D02*
X3153515Y-22821508D01*
X3153515Y-22821508D02*
X3172562Y-22811984D01*
X3172562Y-22811984D02*
X3210658Y-22811984D01*
X3210658Y-22811984D02*
X3229705Y-22821508D01*
X3229705Y-22821508D02*
X3239229Y-22831031D01*
X3239229Y-22831031D02*
X3248753Y-22850079D01*
X3248753Y-22850079D02*
X3248753Y-22859603D01*
X3248753Y-22859603D02*
X3239229Y-22878650D01*
X3239229Y-22878650D02*
X3229705Y-22888174D01*
X3229705Y-22888174D02*
X3210658Y-22897698D01*
X3210658Y-22897698D02*
X3172562Y-22897698D01*
X3172562Y-22897698D02*
X3153515Y-22907222D01*
X3153515Y-22907222D02*
X3143991Y-22916746D01*
X3143991Y-22916746D02*
X3134467Y-22935793D01*
X3134467Y-22935793D02*
X3134467Y-22973888D01*
X3134467Y-22973888D02*
X3143991Y-22992936D01*
X3143991Y-22992936D02*
X3153515Y-23002460D01*
X3153515Y-23002460D02*
X3172562Y-23011984D01*
X3172562Y-23011984D02*
X3210658Y-23011984D01*
X3210658Y-23011984D02*
X3229705Y-23002460D01*
X3229705Y-23002460D02*
X3239229Y-22992936D01*
X3239229Y-22992936D02*
X3248753Y-22973888D01*
X3248753Y-22973888D02*
X3248753Y-22935793D01*
X3248753Y-22935793D02*
X3239229Y-22916746D01*
X3239229Y-22916746D02*
X3229705Y-22907222D01*
X3229705Y-22907222D02*
X3210658Y-22897698D01*
X3372562Y-22811984D02*
X3391610Y-22811984D01*
X3391610Y-22811984D02*
X3410658Y-22821508D01*
X3410658Y-22821508D02*
X3420182Y-22831031D01*
X3420182Y-22831031D02*
X3429705Y-22850079D01*
X3429705Y-22850079D02*
X3439229Y-22888174D01*
X3439229Y-22888174D02*
X3439229Y-22935793D01*
X3439229Y-22935793D02*
X3429705Y-22973888D01*
X3429705Y-22973888D02*
X3420182Y-22992936D01*
X3420182Y-22992936D02*
X3410658Y-23002460D01*
X3410658Y-23002460D02*
X3391610Y-23011984D01*
X3391610Y-23011984D02*
X3372562Y-23011984D01*
X3372562Y-23011984D02*
X3353515Y-23002460D01*
X3353515Y-23002460D02*
X3343991Y-22992936D01*
X3343991Y-22992936D02*
X3334467Y-22973888D01*
X3334467Y-22973888D02*
X3324943Y-22935793D01*
X3324943Y-22935793D02*
X3324943Y-22888174D01*
X3324943Y-22888174D02*
X3334467Y-22850079D01*
X3334467Y-22850079D02*
X3343991Y-22831031D01*
X3343991Y-22831031D02*
X3353515Y-22821508D01*
X3353515Y-22821508D02*
X3372562Y-22811984D01*
X3563039Y-22811984D02*
X3582086Y-22811984D01*
X3582086Y-22811984D02*
X3601134Y-22821508D01*
X3601134Y-22821508D02*
X3610658Y-22831031D01*
X3610658Y-22831031D02*
X3620182Y-22850079D01*
X3620182Y-22850079D02*
X3629705Y-22888174D01*
X3629705Y-22888174D02*
X3629705Y-22935793D01*
X3629705Y-22935793D02*
X3620182Y-22973888D01*
X3620182Y-22973888D02*
X3610658Y-22992936D01*
X3610658Y-22992936D02*
X3601134Y-23002460D01*
X3601134Y-23002460D02*
X3582086Y-23011984D01*
X3582086Y-23011984D02*
X3563039Y-23011984D01*
X3563039Y-23011984D02*
X3543991Y-23002460D01*
X3543991Y-23002460D02*
X3534467Y-22992936D01*
X3534467Y-22992936D02*
X3524943Y-22973888D01*
X3524943Y-22973888D02*
X3515420Y-22935793D01*
X3515420Y-22935793D02*
X3515420Y-22888174D01*
X3515420Y-22888174D02*
X3524943Y-22850079D01*
X3524943Y-22850079D02*
X3534467Y-22831031D01*
X3534467Y-22831031D02*
X3543991Y-22821508D01*
X3543991Y-22821508D02*
X3563039Y-22811984D01*
X3715420Y-23011984D02*
X3715420Y-22878650D01*
X3715420Y-22897698D02*
X3724943Y-22888174D01*
X3724943Y-22888174D02*
X3743991Y-22878650D01*
X3743991Y-22878650D02*
X3772563Y-22878650D01*
X3772563Y-22878650D02*
X3791610Y-22888174D01*
X3791610Y-22888174D02*
X3801134Y-22907222D01*
X3801134Y-22907222D02*
X3801134Y-23011984D01*
X3801134Y-22907222D02*
X3810658Y-22888174D01*
X3810658Y-22888174D02*
X3829705Y-22878650D01*
X3829705Y-22878650D02*
X3858277Y-22878650D01*
X3858277Y-22878650D02*
X3877324Y-22888174D01*
X3877324Y-22888174D02*
X3886848Y-22907222D01*
X3886848Y-22907222D02*
X3886848Y-23011984D01*
X3982086Y-23011984D02*
X3982086Y-22878650D01*
X3982086Y-22897698D02*
X3991610Y-22888174D01*
X3991610Y-22888174D02*
X4010658Y-22878650D01*
X4010658Y-22878650D02*
X4039229Y-22878650D01*
X4039229Y-22878650D02*
X4058277Y-22888174D01*
X4058277Y-22888174D02*
X4067801Y-22907222D01*
X4067801Y-22907222D02*
X4067801Y-23011984D01*
X4067801Y-22907222D02*
X4077324Y-22888174D01*
X4077324Y-22888174D02*
X4096372Y-22878650D01*
X4096372Y-22878650D02*
X4124943Y-22878650D01*
X4124943Y-22878650D02*
X4143991Y-22888174D01*
X4143991Y-22888174D02*
X4153515Y-22907222D01*
X4153515Y-22907222D02*
X4153515Y-23011984D01*
X4543991Y-22802460D02*
X4372563Y-23059603D01*
X4801134Y-22811984D02*
X4820182Y-22811984D01*
X4820182Y-22811984D02*
X4839229Y-22821508D01*
X4839229Y-22821508D02*
X4848753Y-22831031D01*
X4848753Y-22831031D02*
X4858277Y-22850079D01*
X4858277Y-22850079D02*
X4867801Y-22888174D01*
X4867801Y-22888174D02*
X4867801Y-22935793D01*
X4867801Y-22935793D02*
X4858277Y-22973888D01*
X4858277Y-22973888D02*
X4848753Y-22992936D01*
X4848753Y-22992936D02*
X4839229Y-23002460D01*
X4839229Y-23002460D02*
X4820182Y-23011984D01*
X4820182Y-23011984D02*
X4801134Y-23011984D01*
X4801134Y-23011984D02*
X4782087Y-23002460D01*
X4782087Y-23002460D02*
X4772563Y-22992936D01*
X4772563Y-22992936D02*
X4763039Y-22973888D01*
X4763039Y-22973888D02*
X4753515Y-22935793D01*
X4753515Y-22935793D02*
X4753515Y-22888174D01*
X4753515Y-22888174D02*
X4763039Y-22850079D01*
X4763039Y-22850079D02*
X4772563Y-22831031D01*
X4772563Y-22831031D02*
X4782087Y-22821508D01*
X4782087Y-22821508D02*
X4801134Y-22811984D01*
X4953515Y-22992936D02*
X4963039Y-23002460D01*
X4963039Y-23002460D02*
X4953515Y-23011984D01*
X4953515Y-23011984D02*
X4943991Y-23002460D01*
X4943991Y-23002460D02*
X4953515Y-22992936D01*
X4953515Y-22992936D02*
X4953515Y-23011984D01*
X5086848Y-22811984D02*
X5105896Y-22811984D01*
X5105896Y-22811984D02*
X5124944Y-22821508D01*
X5124944Y-22821508D02*
X5134468Y-22831031D01*
X5134468Y-22831031D02*
X5143991Y-22850079D01*
X5143991Y-22850079D02*
X5153515Y-22888174D01*
X5153515Y-22888174D02*
X5153515Y-22935793D01*
X5153515Y-22935793D02*
X5143991Y-22973888D01*
X5143991Y-22973888D02*
X5134468Y-22992936D01*
X5134468Y-22992936D02*
X5124944Y-23002460D01*
X5124944Y-23002460D02*
X5105896Y-23011984D01*
X5105896Y-23011984D02*
X5086848Y-23011984D01*
X5086848Y-23011984D02*
X5067801Y-23002460D01*
X5067801Y-23002460D02*
X5058277Y-22992936D01*
X5058277Y-22992936D02*
X5048753Y-22973888D01*
X5048753Y-22973888D02*
X5039229Y-22935793D01*
X5039229Y-22935793D02*
X5039229Y-22888174D01*
X5039229Y-22888174D02*
X5048753Y-22850079D01*
X5048753Y-22850079D02*
X5058277Y-22831031D01*
X5058277Y-22831031D02*
X5067801Y-22821508D01*
X5067801Y-22821508D02*
X5086848Y-22811984D01*
X5220182Y-22811984D02*
X5343991Y-22811984D01*
X5343991Y-22811984D02*
X5277325Y-22888174D01*
X5277325Y-22888174D02*
X5305896Y-22888174D01*
X5305896Y-22888174D02*
X5324944Y-22897698D01*
X5324944Y-22897698D02*
X5334468Y-22907222D01*
X5334468Y-22907222D02*
X5343991Y-22926269D01*
X5343991Y-22926269D02*
X5343991Y-22973888D01*
X5343991Y-22973888D02*
X5334468Y-22992936D01*
X5334468Y-22992936D02*
X5324944Y-23002460D01*
X5324944Y-23002460D02*
X5305896Y-23011984D01*
X5305896Y-23011984D02*
X5248753Y-23011984D01*
X5248753Y-23011984D02*
X5229706Y-23002460D01*
X5229706Y-23002460D02*
X5220182Y-22992936D01*
X5534468Y-23011984D02*
X5420182Y-23011984D01*
X5477325Y-23011984D02*
X5477325Y-22811984D01*
X5477325Y-22811984D02*
X5458277Y-22840555D01*
X5458277Y-22840555D02*
X5439229Y-22859603D01*
X5439229Y-22859603D02*
X5420182Y-22869127D01*
X5715420Y-22811984D02*
X5620182Y-22811984D01*
X5620182Y-22811984D02*
X5610658Y-22907222D01*
X5610658Y-22907222D02*
X5620182Y-22897698D01*
X5620182Y-22897698D02*
X5639229Y-22888174D01*
X5639229Y-22888174D02*
X5686848Y-22888174D01*
X5686848Y-22888174D02*
X5705896Y-22897698D01*
X5705896Y-22897698D02*
X5715420Y-22907222D01*
X5715420Y-22907222D02*
X5724944Y-22926269D01*
X5724944Y-22926269D02*
X5724944Y-22973888D01*
X5724944Y-22973888D02*
X5715420Y-22992936D01*
X5715420Y-22992936D02*
X5705896Y-23002460D01*
X5705896Y-23002460D02*
X5686848Y-23011984D01*
X5686848Y-23011984D02*
X5639229Y-23011984D01*
X5639229Y-23011984D02*
X5620182Y-23002460D01*
X5620182Y-23002460D02*
X5610658Y-22992936D01*
X5801134Y-22811984D02*
X5801134Y-22850079D01*
X5877325Y-22811984D02*
X5877325Y-22850079D01*
X6172563Y-23088174D02*
X6163039Y-23078650D01*
X6163039Y-23078650D02*
X6143991Y-23050079D01*
X6143991Y-23050079D02*
X6134468Y-23031031D01*
X6134468Y-23031031D02*
X6124944Y-23002460D01*
X6124944Y-23002460D02*
X6115420Y-22954841D01*
X6115420Y-22954841D02*
X6115420Y-22916746D01*
X6115420Y-22916746D02*
X6124944Y-22869127D01*
X6124944Y-22869127D02*
X6134468Y-22840555D01*
X6134468Y-22840555D02*
X6143991Y-22821508D01*
X6143991Y-22821508D02*
X6163039Y-22792936D01*
X6163039Y-22792936D02*
X6172563Y-22783412D01*
X6343991Y-22811984D02*
X6248753Y-22811984D01*
X6248753Y-22811984D02*
X6239229Y-22907222D01*
X6239229Y-22907222D02*
X6248753Y-22897698D01*
X6248753Y-22897698D02*
X6267801Y-22888174D01*
X6267801Y-22888174D02*
X6315420Y-22888174D01*
X6315420Y-22888174D02*
X6334468Y-22897698D01*
X6334468Y-22897698D02*
X6343991Y-22907222D01*
X6343991Y-22907222D02*
X6353515Y-22926269D01*
X6353515Y-22926269D02*
X6353515Y-22973888D01*
X6353515Y-22973888D02*
X6343991Y-22992936D01*
X6343991Y-22992936D02*
X6334468Y-23002460D01*
X6334468Y-23002460D02*
X6315420Y-23011984D01*
X6315420Y-23011984D02*
X6267801Y-23011984D01*
X6267801Y-23011984D02*
X6248753Y-23002460D01*
X6248753Y-23002460D02*
X6239229Y-22992936D01*
X6467801Y-22897698D02*
X6448753Y-22888174D01*
X6448753Y-22888174D02*
X6439229Y-22878650D01*
X6439229Y-22878650D02*
X6429706Y-22859603D01*
X6429706Y-22859603D02*
X6429706Y-22850079D01*
X6429706Y-22850079D02*
X6439229Y-22831031D01*
X6439229Y-22831031D02*
X6448753Y-22821508D01*
X6448753Y-22821508D02*
X6467801Y-22811984D01*
X6467801Y-22811984D02*
X6505896Y-22811984D01*
X6505896Y-22811984D02*
X6524944Y-22821508D01*
X6524944Y-22821508D02*
X6534468Y-22831031D01*
X6534468Y-22831031D02*
X6543991Y-22850079D01*
X6543991Y-22850079D02*
X6543991Y-22859603D01*
X6543991Y-22859603D02*
X6534468Y-22878650D01*
X6534468Y-22878650D02*
X6524944Y-22888174D01*
X6524944Y-22888174D02*
X6505896Y-22897698D01*
X6505896Y-22897698D02*
X6467801Y-22897698D01*
X6467801Y-22897698D02*
X6448753Y-22907222D01*
X6448753Y-22907222D02*
X6439229Y-22916746D01*
X6439229Y-22916746D02*
X6429706Y-22935793D01*
X6429706Y-22935793D02*
X6429706Y-22973888D01*
X6429706Y-22973888D02*
X6439229Y-22992936D01*
X6439229Y-22992936D02*
X6448753Y-23002460D01*
X6448753Y-23002460D02*
X6467801Y-23011984D01*
X6467801Y-23011984D02*
X6505896Y-23011984D01*
X6505896Y-23011984D02*
X6524944Y-23002460D01*
X6524944Y-23002460D02*
X6534468Y-22992936D01*
X6534468Y-22992936D02*
X6543991Y-22973888D01*
X6543991Y-22973888D02*
X6543991Y-22935793D01*
X6543991Y-22935793D02*
X6534468Y-22916746D01*
X6534468Y-22916746D02*
X6524944Y-22907222D01*
X6524944Y-22907222D02*
X6505896Y-22897698D01*
X6715420Y-22878650D02*
X6715420Y-23011984D01*
X6667801Y-22802460D02*
X6620182Y-22945317D01*
X6620182Y-22945317D02*
X6743991Y-22945317D01*
X6972563Y-23011984D02*
X6972563Y-22811984D01*
X7058277Y-23011984D02*
X7058277Y-22907222D01*
X7058277Y-22907222D02*
X7048753Y-22888174D01*
X7048753Y-22888174D02*
X7029706Y-22878650D01*
X7029706Y-22878650D02*
X7001134Y-22878650D01*
X7001134Y-22878650D02*
X6982087Y-22888174D01*
X6982087Y-22888174D02*
X6972563Y-22897698D01*
X7182087Y-23011984D02*
X7163039Y-23002460D01*
X7163039Y-23002460D02*
X7153515Y-22992936D01*
X7153515Y-22992936D02*
X7143991Y-22973888D01*
X7143991Y-22973888D02*
X7143991Y-22916746D01*
X7143991Y-22916746D02*
X7153515Y-22897698D01*
X7153515Y-22897698D02*
X7163039Y-22888174D01*
X7163039Y-22888174D02*
X7182087Y-22878650D01*
X7182087Y-22878650D02*
X7210658Y-22878650D01*
X7210658Y-22878650D02*
X7229706Y-22888174D01*
X7229706Y-22888174D02*
X7239230Y-22897698D01*
X7239230Y-22897698D02*
X7248753Y-22916746D01*
X7248753Y-22916746D02*
X7248753Y-22973888D01*
X7248753Y-22973888D02*
X7239230Y-22992936D01*
X7239230Y-22992936D02*
X7229706Y-23002460D01*
X7229706Y-23002460D02*
X7210658Y-23011984D01*
X7210658Y-23011984D02*
X7182087Y-23011984D01*
X7363039Y-23011984D02*
X7343991Y-23002460D01*
X7343991Y-23002460D02*
X7334468Y-22983412D01*
X7334468Y-22983412D02*
X7334468Y-22811984D01*
X7515420Y-23002460D02*
X7496372Y-23011984D01*
X7496372Y-23011984D02*
X7458277Y-23011984D01*
X7458277Y-23011984D02*
X7439230Y-23002460D01*
X7439230Y-23002460D02*
X7429706Y-22983412D01*
X7429706Y-22983412D02*
X7429706Y-22907222D01*
X7429706Y-22907222D02*
X7439230Y-22888174D01*
X7439230Y-22888174D02*
X7458277Y-22878650D01*
X7458277Y-22878650D02*
X7496372Y-22878650D01*
X7496372Y-22878650D02*
X7515420Y-22888174D01*
X7515420Y-22888174D02*
X7524944Y-22907222D01*
X7524944Y-22907222D02*
X7524944Y-22926269D01*
X7524944Y-22926269D02*
X7429706Y-22945317D01*
X7601134Y-23002460D02*
X7620182Y-23011984D01*
X7620182Y-23011984D02*
X7658277Y-23011984D01*
X7658277Y-23011984D02*
X7677325Y-23002460D01*
X7677325Y-23002460D02*
X7686849Y-22983412D01*
X7686849Y-22983412D02*
X7686849Y-22973888D01*
X7686849Y-22973888D02*
X7677325Y-22954841D01*
X7677325Y-22954841D02*
X7658277Y-22945317D01*
X7658277Y-22945317D02*
X7629706Y-22945317D01*
X7629706Y-22945317D02*
X7610658Y-22935793D01*
X7610658Y-22935793D02*
X7601134Y-22916746D01*
X7601134Y-22916746D02*
X7601134Y-22907222D01*
X7601134Y-22907222D02*
X7610658Y-22888174D01*
X7610658Y-22888174D02*
X7629706Y-22878650D01*
X7629706Y-22878650D02*
X7658277Y-22878650D01*
X7658277Y-22878650D02*
X7677325Y-22888174D01*
X7753515Y-23088174D02*
X7763039Y-23078650D01*
X7763039Y-23078650D02*
X7782087Y-23050079D01*
X7782087Y-23050079D02*
X7791611Y-23031031D01*
X7791611Y-23031031D02*
X7801134Y-23002460D01*
X7801134Y-23002460D02*
X7810658Y-22954841D01*
X7810658Y-22954841D02*
X7810658Y-22916746D01*
X7810658Y-22916746D02*
X7801134Y-22869127D01*
X7801134Y-22869127D02*
X7791611Y-22840555D01*
X7791611Y-22840555D02*
X7782087Y-22821508D01*
X7782087Y-22821508D02*
X7763039Y-22792936D01*
X7763039Y-22792936D02*
X7753515Y-22783412D01*
D12*
X2582856Y-23219856D02*
X2582856Y-23149144D01*
X2512144Y-23149144D01*
X2512144Y-23219856D01*
X2582856Y-23219856D01*
D11*
X2963039Y-23275984D02*
X2848753Y-23275984D01*
X2905896Y-23275984D02*
X2905896Y-23075984D01*
X2905896Y-23075984D02*
X2886848Y-23104555D01*
X2886848Y-23104555D02*
X2867801Y-23123603D01*
X2867801Y-23123603D02*
X2848753Y-23133127D01*
X3048753Y-23256936D02*
X3058277Y-23266460D01*
X3058277Y-23266460D02*
X3048753Y-23275984D01*
X3048753Y-23275984D02*
X3039229Y-23266460D01*
X3039229Y-23266460D02*
X3048753Y-23256936D01*
X3048753Y-23256936D02*
X3048753Y-23275984D01*
X3182086Y-23075984D02*
X3201134Y-23075984D01*
X3201134Y-23075984D02*
X3220182Y-23085508D01*
X3220182Y-23085508D02*
X3229705Y-23095031D01*
X3229705Y-23095031D02*
X3239229Y-23114079D01*
X3239229Y-23114079D02*
X3248753Y-23152174D01*
X3248753Y-23152174D02*
X3248753Y-23199793D01*
X3248753Y-23199793D02*
X3239229Y-23237888D01*
X3239229Y-23237888D02*
X3229705Y-23256936D01*
X3229705Y-23256936D02*
X3220182Y-23266460D01*
X3220182Y-23266460D02*
X3201134Y-23275984D01*
X3201134Y-23275984D02*
X3182086Y-23275984D01*
X3182086Y-23275984D02*
X3163039Y-23266460D01*
X3163039Y-23266460D02*
X3153515Y-23256936D01*
X3153515Y-23256936D02*
X3143991Y-23237888D01*
X3143991Y-23237888D02*
X3134467Y-23199793D01*
X3134467Y-23199793D02*
X3134467Y-23152174D01*
X3134467Y-23152174D02*
X3143991Y-23114079D01*
X3143991Y-23114079D02*
X3153515Y-23095031D01*
X3153515Y-23095031D02*
X3163039Y-23085508D01*
X3163039Y-23085508D02*
X3182086Y-23075984D01*
X3372562Y-23075984D02*
X3391610Y-23075984D01*
X3391610Y-23075984D02*
X3410658Y-23085508D01*
X3410658Y-23085508D02*
X3420182Y-23095031D01*
X3420182Y-23095031D02*
X3429705Y-23114079D01*
X3429705Y-23114079D02*
X3439229Y-23152174D01*
X3439229Y-23152174D02*
X3439229Y-23199793D01*
X3439229Y-23199793D02*
X3429705Y-23237888D01*
X3429705Y-23237888D02*
X3420182Y-23256936D01*
X3420182Y-23256936D02*
X3410658Y-23266460D01*
X3410658Y-23266460D02*
X3391610Y-23275984D01*
X3391610Y-23275984D02*
X3372562Y-23275984D01*
X3372562Y-23275984D02*
X3353515Y-23266460D01*
X3353515Y-23266460D02*
X3343991Y-23256936D01*
X3343991Y-23256936D02*
X3334467Y-23237888D01*
X3334467Y-23237888D02*
X3324943Y-23199793D01*
X3324943Y-23199793D02*
X3324943Y-23152174D01*
X3324943Y-23152174D02*
X3334467Y-23114079D01*
X3334467Y-23114079D02*
X3343991Y-23095031D01*
X3343991Y-23095031D02*
X3353515Y-23085508D01*
X3353515Y-23085508D02*
X3372562Y-23075984D01*
X3563039Y-23075984D02*
X3582086Y-23075984D01*
X3582086Y-23075984D02*
X3601134Y-23085508D01*
X3601134Y-23085508D02*
X3610658Y-23095031D01*
X3610658Y-23095031D02*
X3620182Y-23114079D01*
X3620182Y-23114079D02*
X3629705Y-23152174D01*
X3629705Y-23152174D02*
X3629705Y-23199793D01*
X3629705Y-23199793D02*
X3620182Y-23237888D01*
X3620182Y-23237888D02*
X3610658Y-23256936D01*
X3610658Y-23256936D02*
X3601134Y-23266460D01*
X3601134Y-23266460D02*
X3582086Y-23275984D01*
X3582086Y-23275984D02*
X3563039Y-23275984D01*
X3563039Y-23275984D02*
X3543991Y-23266460D01*
X3543991Y-23266460D02*
X3534467Y-23256936D01*
X3534467Y-23256936D02*
X3524943Y-23237888D01*
X3524943Y-23237888D02*
X3515420Y-23199793D01*
X3515420Y-23199793D02*
X3515420Y-23152174D01*
X3515420Y-23152174D02*
X3524943Y-23114079D01*
X3524943Y-23114079D02*
X3534467Y-23095031D01*
X3534467Y-23095031D02*
X3543991Y-23085508D01*
X3543991Y-23085508D02*
X3563039Y-23075984D01*
X3715420Y-23275984D02*
X3715420Y-23142650D01*
X3715420Y-23161698D02*
X3724943Y-23152174D01*
X3724943Y-23152174D02*
X3743991Y-23142650D01*
X3743991Y-23142650D02*
X3772563Y-23142650D01*
X3772563Y-23142650D02*
X3791610Y-23152174D01*
X3791610Y-23152174D02*
X3801134Y-23171222D01*
X3801134Y-23171222D02*
X3801134Y-23275984D01*
X3801134Y-23171222D02*
X3810658Y-23152174D01*
X3810658Y-23152174D02*
X3829705Y-23142650D01*
X3829705Y-23142650D02*
X3858277Y-23142650D01*
X3858277Y-23142650D02*
X3877324Y-23152174D01*
X3877324Y-23152174D02*
X3886848Y-23171222D01*
X3886848Y-23171222D02*
X3886848Y-23275984D01*
X3982086Y-23275984D02*
X3982086Y-23142650D01*
X3982086Y-23161698D02*
X3991610Y-23152174D01*
X3991610Y-23152174D02*
X4010658Y-23142650D01*
X4010658Y-23142650D02*
X4039229Y-23142650D01*
X4039229Y-23142650D02*
X4058277Y-23152174D01*
X4058277Y-23152174D02*
X4067801Y-23171222D01*
X4067801Y-23171222D02*
X4067801Y-23275984D01*
X4067801Y-23171222D02*
X4077324Y-23152174D01*
X4077324Y-23152174D02*
X4096372Y-23142650D01*
X4096372Y-23142650D02*
X4124943Y-23142650D01*
X4124943Y-23142650D02*
X4143991Y-23152174D01*
X4143991Y-23152174D02*
X4153515Y-23171222D01*
X4153515Y-23171222D02*
X4153515Y-23275984D01*
X4543991Y-23066460D02*
X4372563Y-23323603D01*
X4801134Y-23075984D02*
X4820182Y-23075984D01*
X4820182Y-23075984D02*
X4839229Y-23085508D01*
X4839229Y-23085508D02*
X4848753Y-23095031D01*
X4848753Y-23095031D02*
X4858277Y-23114079D01*
X4858277Y-23114079D02*
X4867801Y-23152174D01*
X4867801Y-23152174D02*
X4867801Y-23199793D01*
X4867801Y-23199793D02*
X4858277Y-23237888D01*
X4858277Y-23237888D02*
X4848753Y-23256936D01*
X4848753Y-23256936D02*
X4839229Y-23266460D01*
X4839229Y-23266460D02*
X4820182Y-23275984D01*
X4820182Y-23275984D02*
X4801134Y-23275984D01*
X4801134Y-23275984D02*
X4782087Y-23266460D01*
X4782087Y-23266460D02*
X4772563Y-23256936D01*
X4772563Y-23256936D02*
X4763039Y-23237888D01*
X4763039Y-23237888D02*
X4753515Y-23199793D01*
X4753515Y-23199793D02*
X4753515Y-23152174D01*
X4753515Y-23152174D02*
X4763039Y-23114079D01*
X4763039Y-23114079D02*
X4772563Y-23095031D01*
X4772563Y-23095031D02*
X4782087Y-23085508D01*
X4782087Y-23085508D02*
X4801134Y-23075984D01*
X4953515Y-23256936D02*
X4963039Y-23266460D01*
X4963039Y-23266460D02*
X4953515Y-23275984D01*
X4953515Y-23275984D02*
X4943991Y-23266460D01*
X4943991Y-23266460D02*
X4953515Y-23256936D01*
X4953515Y-23256936D02*
X4953515Y-23275984D01*
X5086848Y-23075984D02*
X5105896Y-23075984D01*
X5105896Y-23075984D02*
X5124944Y-23085508D01*
X5124944Y-23085508D02*
X5134468Y-23095031D01*
X5134468Y-23095031D02*
X5143991Y-23114079D01*
X5143991Y-23114079D02*
X5153515Y-23152174D01*
X5153515Y-23152174D02*
X5153515Y-23199793D01*
X5153515Y-23199793D02*
X5143991Y-23237888D01*
X5143991Y-23237888D02*
X5134468Y-23256936D01*
X5134468Y-23256936D02*
X5124944Y-23266460D01*
X5124944Y-23266460D02*
X5105896Y-23275984D01*
X5105896Y-23275984D02*
X5086848Y-23275984D01*
X5086848Y-23275984D02*
X5067801Y-23266460D01*
X5067801Y-23266460D02*
X5058277Y-23256936D01*
X5058277Y-23256936D02*
X5048753Y-23237888D01*
X5048753Y-23237888D02*
X5039229Y-23199793D01*
X5039229Y-23199793D02*
X5039229Y-23152174D01*
X5039229Y-23152174D02*
X5048753Y-23114079D01*
X5048753Y-23114079D02*
X5058277Y-23095031D01*
X5058277Y-23095031D02*
X5067801Y-23085508D01*
X5067801Y-23085508D02*
X5086848Y-23075984D01*
X5220182Y-23075984D02*
X5343991Y-23075984D01*
X5343991Y-23075984D02*
X5277325Y-23152174D01*
X5277325Y-23152174D02*
X5305896Y-23152174D01*
X5305896Y-23152174D02*
X5324944Y-23161698D01*
X5324944Y-23161698D02*
X5334468Y-23171222D01*
X5334468Y-23171222D02*
X5343991Y-23190269D01*
X5343991Y-23190269D02*
X5343991Y-23237888D01*
X5343991Y-23237888D02*
X5334468Y-23256936D01*
X5334468Y-23256936D02*
X5324944Y-23266460D01*
X5324944Y-23266460D02*
X5305896Y-23275984D01*
X5305896Y-23275984D02*
X5248753Y-23275984D01*
X5248753Y-23275984D02*
X5229706Y-23266460D01*
X5229706Y-23266460D02*
X5220182Y-23256936D01*
X5439229Y-23275984D02*
X5477325Y-23275984D01*
X5477325Y-23275984D02*
X5496372Y-23266460D01*
X5496372Y-23266460D02*
X5505896Y-23256936D01*
X5505896Y-23256936D02*
X5524944Y-23228365D01*
X5524944Y-23228365D02*
X5534468Y-23190269D01*
X5534468Y-23190269D02*
X5534468Y-23114079D01*
X5534468Y-23114079D02*
X5524944Y-23095031D01*
X5524944Y-23095031D02*
X5515420Y-23085508D01*
X5515420Y-23085508D02*
X5496372Y-23075984D01*
X5496372Y-23075984D02*
X5458277Y-23075984D01*
X5458277Y-23075984D02*
X5439229Y-23085508D01*
X5439229Y-23085508D02*
X5429706Y-23095031D01*
X5429706Y-23095031D02*
X5420182Y-23114079D01*
X5420182Y-23114079D02*
X5420182Y-23161698D01*
X5420182Y-23161698D02*
X5429706Y-23180746D01*
X5429706Y-23180746D02*
X5439229Y-23190269D01*
X5439229Y-23190269D02*
X5458277Y-23199793D01*
X5458277Y-23199793D02*
X5496372Y-23199793D01*
X5496372Y-23199793D02*
X5515420Y-23190269D01*
X5515420Y-23190269D02*
X5524944Y-23180746D01*
X5524944Y-23180746D02*
X5534468Y-23161698D01*
X5705896Y-23142650D02*
X5705896Y-23275984D01*
X5658277Y-23066460D02*
X5610658Y-23209317D01*
X5610658Y-23209317D02*
X5734467Y-23209317D01*
X5801134Y-23075984D02*
X5801134Y-23114079D01*
X5877325Y-23075984D02*
X5877325Y-23114079D01*
X6172563Y-23352174D02*
X6163039Y-23342650D01*
X6163039Y-23342650D02*
X6143991Y-23314079D01*
X6143991Y-23314079D02*
X6134468Y-23295031D01*
X6134468Y-23295031D02*
X6124944Y-23266460D01*
X6124944Y-23266460D02*
X6115420Y-23218841D01*
X6115420Y-23218841D02*
X6115420Y-23180746D01*
X6115420Y-23180746D02*
X6124944Y-23133127D01*
X6124944Y-23133127D02*
X6134468Y-23104555D01*
X6134468Y-23104555D02*
X6143991Y-23085508D01*
X6143991Y-23085508D02*
X6163039Y-23056936D01*
X6163039Y-23056936D02*
X6172563Y-23047412D01*
X6258277Y-23275984D02*
X6296372Y-23275984D01*
X6296372Y-23275984D02*
X6315420Y-23266460D01*
X6315420Y-23266460D02*
X6324944Y-23256936D01*
X6324944Y-23256936D02*
X6343991Y-23228365D01*
X6343991Y-23228365D02*
X6353515Y-23190269D01*
X6353515Y-23190269D02*
X6353515Y-23114079D01*
X6353515Y-23114079D02*
X6343991Y-23095031D01*
X6343991Y-23095031D02*
X6334468Y-23085508D01*
X6334468Y-23085508D02*
X6315420Y-23075984D01*
X6315420Y-23075984D02*
X6277325Y-23075984D01*
X6277325Y-23075984D02*
X6258277Y-23085508D01*
X6258277Y-23085508D02*
X6248753Y-23095031D01*
X6248753Y-23095031D02*
X6239229Y-23114079D01*
X6239229Y-23114079D02*
X6239229Y-23161698D01*
X6239229Y-23161698D02*
X6248753Y-23180746D01*
X6248753Y-23180746D02*
X6258277Y-23190269D01*
X6258277Y-23190269D02*
X6277325Y-23199793D01*
X6277325Y-23199793D02*
X6315420Y-23199793D01*
X6315420Y-23199793D02*
X6334468Y-23190269D01*
X6334468Y-23190269D02*
X6343991Y-23180746D01*
X6343991Y-23180746D02*
X6353515Y-23161698D01*
X6467801Y-23161698D02*
X6448753Y-23152174D01*
X6448753Y-23152174D02*
X6439229Y-23142650D01*
X6439229Y-23142650D02*
X6429706Y-23123603D01*
X6429706Y-23123603D02*
X6429706Y-23114079D01*
X6429706Y-23114079D02*
X6439229Y-23095031D01*
X6439229Y-23095031D02*
X6448753Y-23085508D01*
X6448753Y-23085508D02*
X6467801Y-23075984D01*
X6467801Y-23075984D02*
X6505896Y-23075984D01*
X6505896Y-23075984D02*
X6524944Y-23085508D01*
X6524944Y-23085508D02*
X6534468Y-23095031D01*
X6534468Y-23095031D02*
X6543991Y-23114079D01*
X6543991Y-23114079D02*
X6543991Y-23123603D01*
X6543991Y-23123603D02*
X6534468Y-23142650D01*
X6534468Y-23142650D02*
X6524944Y-23152174D01*
X6524944Y-23152174D02*
X6505896Y-23161698D01*
X6505896Y-23161698D02*
X6467801Y-23161698D01*
X6467801Y-23161698D02*
X6448753Y-23171222D01*
X6448753Y-23171222D02*
X6439229Y-23180746D01*
X6439229Y-23180746D02*
X6429706Y-23199793D01*
X6429706Y-23199793D02*
X6429706Y-23237888D01*
X6429706Y-23237888D02*
X6439229Y-23256936D01*
X6439229Y-23256936D02*
X6448753Y-23266460D01*
X6448753Y-23266460D02*
X6467801Y-23275984D01*
X6467801Y-23275984D02*
X6505896Y-23275984D01*
X6505896Y-23275984D02*
X6524944Y-23266460D01*
X6524944Y-23266460D02*
X6534468Y-23256936D01*
X6534468Y-23256936D02*
X6543991Y-23237888D01*
X6543991Y-23237888D02*
X6543991Y-23199793D01*
X6543991Y-23199793D02*
X6534468Y-23180746D01*
X6534468Y-23180746D02*
X6524944Y-23171222D01*
X6524944Y-23171222D02*
X6505896Y-23161698D01*
X6782087Y-23275984D02*
X6782087Y-23075984D01*
X6867801Y-23275984D02*
X6867801Y-23171222D01*
X6867801Y-23171222D02*
X6858277Y-23152174D01*
X6858277Y-23152174D02*
X6839230Y-23142650D01*
X6839230Y-23142650D02*
X6810658Y-23142650D01*
X6810658Y-23142650D02*
X6791610Y-23152174D01*
X6791610Y-23152174D02*
X6782087Y-23161698D01*
X6991610Y-23275984D02*
X6972563Y-23266460D01*
X6972563Y-23266460D02*
X6963039Y-23256936D01*
X6963039Y-23256936D02*
X6953515Y-23237888D01*
X6953515Y-23237888D02*
X6953515Y-23180746D01*
X6953515Y-23180746D02*
X6963039Y-23161698D01*
X6963039Y-23161698D02*
X6972563Y-23152174D01*
X6972563Y-23152174D02*
X6991610Y-23142650D01*
X6991610Y-23142650D02*
X7020182Y-23142650D01*
X7020182Y-23142650D02*
X7039230Y-23152174D01*
X7039230Y-23152174D02*
X7048753Y-23161698D01*
X7048753Y-23161698D02*
X7058277Y-23180746D01*
X7058277Y-23180746D02*
X7058277Y-23237888D01*
X7058277Y-23237888D02*
X7048753Y-23256936D01*
X7048753Y-23256936D02*
X7039230Y-23266460D01*
X7039230Y-23266460D02*
X7020182Y-23275984D01*
X7020182Y-23275984D02*
X6991610Y-23275984D01*
X7172563Y-23275984D02*
X7153515Y-23266460D01*
X7153515Y-23266460D02*
X7143991Y-23247412D01*
X7143991Y-23247412D02*
X7143991Y-23075984D01*
X7324944Y-23266460D02*
X7305896Y-23275984D01*
X7305896Y-23275984D02*
X7267801Y-23275984D01*
X7267801Y-23275984D02*
X7248753Y-23266460D01*
X7248753Y-23266460D02*
X7239230Y-23247412D01*
X7239230Y-23247412D02*
X7239230Y-23171222D01*
X7239230Y-23171222D02*
X7248753Y-23152174D01*
X7248753Y-23152174D02*
X7267801Y-23142650D01*
X7267801Y-23142650D02*
X7305896Y-23142650D01*
X7305896Y-23142650D02*
X7324944Y-23152174D01*
X7324944Y-23152174D02*
X7334468Y-23171222D01*
X7334468Y-23171222D02*
X7334468Y-23190269D01*
X7334468Y-23190269D02*
X7239230Y-23209317D01*
X7410658Y-23266460D02*
X7429706Y-23275984D01*
X7429706Y-23275984D02*
X7467801Y-23275984D01*
X7467801Y-23275984D02*
X7486849Y-23266460D01*
X7486849Y-23266460D02*
X7496372Y-23247412D01*
X7496372Y-23247412D02*
X7496372Y-23237888D01*
X7496372Y-23237888D02*
X7486849Y-23218841D01*
X7486849Y-23218841D02*
X7467801Y-23209317D01*
X7467801Y-23209317D02*
X7439230Y-23209317D01*
X7439230Y-23209317D02*
X7420182Y-23199793D01*
X7420182Y-23199793D02*
X7410658Y-23180746D01*
X7410658Y-23180746D02*
X7410658Y-23171222D01*
X7410658Y-23171222D02*
X7420182Y-23152174D01*
X7420182Y-23152174D02*
X7439230Y-23142650D01*
X7439230Y-23142650D02*
X7467801Y-23142650D01*
X7467801Y-23142650D02*
X7486849Y-23152174D01*
X7734468Y-23199793D02*
X7886849Y-23199793D01*
X7810658Y-23275984D02*
X7810658Y-23123603D01*
X8220182Y-23075984D02*
X8182087Y-23075984D01*
X8182087Y-23075984D02*
X8163039Y-23085508D01*
X8163039Y-23085508D02*
X8153515Y-23095031D01*
X8153515Y-23095031D02*
X8134468Y-23123603D01*
X8134468Y-23123603D02*
X8124944Y-23161698D01*
X8124944Y-23161698D02*
X8124944Y-23237888D01*
X8124944Y-23237888D02*
X8134468Y-23256936D01*
X8134468Y-23256936D02*
X8143992Y-23266460D01*
X8143992Y-23266460D02*
X8163039Y-23275984D01*
X8163039Y-23275984D02*
X8201134Y-23275984D01*
X8201134Y-23275984D02*
X8220182Y-23266460D01*
X8220182Y-23266460D02*
X8229706Y-23256936D01*
X8229706Y-23256936D02*
X8239230Y-23237888D01*
X8239230Y-23237888D02*
X8239230Y-23190269D01*
X8239230Y-23190269D02*
X8229706Y-23171222D01*
X8229706Y-23171222D02*
X8220182Y-23161698D01*
X8220182Y-23161698D02*
X8201134Y-23152174D01*
X8201134Y-23152174D02*
X8163039Y-23152174D01*
X8163039Y-23152174D02*
X8143992Y-23161698D01*
X8143992Y-23161698D02*
X8134468Y-23171222D01*
X8134468Y-23171222D02*
X8124944Y-23190269D01*
X8363039Y-23075984D02*
X8382087Y-23075984D01*
X8382087Y-23075984D02*
X8401135Y-23085508D01*
X8401135Y-23085508D02*
X8410658Y-23095031D01*
X8410658Y-23095031D02*
X8420182Y-23114079D01*
X8420182Y-23114079D02*
X8429706Y-23152174D01*
X8429706Y-23152174D02*
X8429706Y-23199793D01*
X8429706Y-23199793D02*
X8420182Y-23237888D01*
X8420182Y-23237888D02*
X8410658Y-23256936D01*
X8410658Y-23256936D02*
X8401135Y-23266460D01*
X8401135Y-23266460D02*
X8382087Y-23275984D01*
X8382087Y-23275984D02*
X8363039Y-23275984D01*
X8363039Y-23275984D02*
X8343992Y-23266460D01*
X8343992Y-23266460D02*
X8334468Y-23256936D01*
X8334468Y-23256936D02*
X8324944Y-23237888D01*
X8324944Y-23237888D02*
X8315420Y-23199793D01*
X8315420Y-23199793D02*
X8315420Y-23152174D01*
X8315420Y-23152174D02*
X8324944Y-23114079D01*
X8324944Y-23114079D02*
X8334468Y-23095031D01*
X8334468Y-23095031D02*
X8343992Y-23085508D01*
X8343992Y-23085508D02*
X8363039Y-23075984D01*
X8658277Y-23266460D02*
X8677325Y-23275984D01*
X8677325Y-23275984D02*
X8715420Y-23275984D01*
X8715420Y-23275984D02*
X8734468Y-23266460D01*
X8734468Y-23266460D02*
X8743992Y-23247412D01*
X8743992Y-23247412D02*
X8743992Y-23237888D01*
X8743992Y-23237888D02*
X8734468Y-23218841D01*
X8734468Y-23218841D02*
X8715420Y-23209317D01*
X8715420Y-23209317D02*
X8686849Y-23209317D01*
X8686849Y-23209317D02*
X8667801Y-23199793D01*
X8667801Y-23199793D02*
X8658277Y-23180746D01*
X8658277Y-23180746D02*
X8658277Y-23171222D01*
X8658277Y-23171222D02*
X8667801Y-23152174D01*
X8667801Y-23152174D02*
X8686849Y-23142650D01*
X8686849Y-23142650D02*
X8715420Y-23142650D01*
X8715420Y-23142650D02*
X8734468Y-23152174D01*
X8858277Y-23275984D02*
X8839230Y-23266460D01*
X8839230Y-23266460D02*
X8829706Y-23247412D01*
X8829706Y-23247412D02*
X8829706Y-23075984D01*
X8963039Y-23275984D02*
X8943992Y-23266460D01*
X8943992Y-23266460D02*
X8934468Y-23256936D01*
X8934468Y-23256936D02*
X8924944Y-23237888D01*
X8924944Y-23237888D02*
X8924944Y-23180746D01*
X8924944Y-23180746D02*
X8934468Y-23161698D01*
X8934468Y-23161698D02*
X8943992Y-23152174D01*
X8943992Y-23152174D02*
X8963039Y-23142650D01*
X8963039Y-23142650D02*
X8991611Y-23142650D01*
X8991611Y-23142650D02*
X9010658Y-23152174D01*
X9010658Y-23152174D02*
X9020182Y-23161698D01*
X9020182Y-23161698D02*
X9029706Y-23180746D01*
X9029706Y-23180746D02*
X9029706Y-23237888D01*
X9029706Y-23237888D02*
X9020182Y-23256936D01*
X9020182Y-23256936D02*
X9010658Y-23266460D01*
X9010658Y-23266460D02*
X8991611Y-23275984D01*
X8991611Y-23275984D02*
X8963039Y-23275984D01*
X9086849Y-23142650D02*
X9163039Y-23142650D01*
X9115420Y-23075984D02*
X9115420Y-23247412D01*
X9115420Y-23247412D02*
X9124944Y-23266460D01*
X9124944Y-23266460D02*
X9143992Y-23275984D01*
X9143992Y-23275984D02*
X9163039Y-23275984D01*
X9220182Y-23266460D02*
X9239230Y-23275984D01*
X9239230Y-23275984D02*
X9277325Y-23275984D01*
X9277325Y-23275984D02*
X9296373Y-23266460D01*
X9296373Y-23266460D02*
X9305897Y-23247412D01*
X9305897Y-23247412D02*
X9305897Y-23237888D01*
X9305897Y-23237888D02*
X9296373Y-23218841D01*
X9296373Y-23218841D02*
X9277325Y-23209317D01*
X9277325Y-23209317D02*
X9248754Y-23209317D01*
X9248754Y-23209317D02*
X9229706Y-23199793D01*
X9229706Y-23199793D02*
X9220182Y-23180746D01*
X9220182Y-23180746D02*
X9220182Y-23171222D01*
X9220182Y-23171222D02*
X9229706Y-23152174D01*
X9229706Y-23152174D02*
X9248754Y-23142650D01*
X9248754Y-23142650D02*
X9277325Y-23142650D01*
X9277325Y-23142650D02*
X9296373Y-23152174D01*
X9372563Y-23352174D02*
X9382087Y-23342650D01*
X9382087Y-23342650D02*
X9401135Y-23314079D01*
X9401135Y-23314079D02*
X9410658Y-23295031D01*
X9410658Y-23295031D02*
X9420182Y-23266460D01*
X9420182Y-23266460D02*
X9429706Y-23218841D01*
X9429706Y-23218841D02*
X9429706Y-23180746D01*
X9429706Y-23180746D02*
X9420182Y-23133127D01*
X9420182Y-23133127D02*
X9410658Y-23104555D01*
X9410658Y-23104555D02*
X9401135Y-23085508D01*
X9401135Y-23085508D02*
X9382087Y-23056936D01*
X9382087Y-23056936D02*
X9372563Y-23047412D01*
D13*
X2542500Y-23503500D02*
X2597500Y-23448500D01*
X2542500Y-23393500D01*
X2487500Y-23448500D01*
X2542500Y-23503500D01*
D11*
X2963039Y-23539984D02*
X2848753Y-23539984D01*
X2905896Y-23539984D02*
X2905896Y-23339984D01*
X2905896Y-23339984D02*
X2886848Y-23368555D01*
X2886848Y-23368555D02*
X2867801Y-23387603D01*
X2867801Y-23387603D02*
X2848753Y-23397127D01*
X3048753Y-23520936D02*
X3058277Y-23530460D01*
X3058277Y-23530460D02*
X3048753Y-23539984D01*
X3048753Y-23539984D02*
X3039229Y-23530460D01*
X3039229Y-23530460D02*
X3048753Y-23520936D01*
X3048753Y-23520936D02*
X3048753Y-23539984D01*
X3248753Y-23539984D02*
X3134467Y-23539984D01*
X3191610Y-23539984D02*
X3191610Y-23339984D01*
X3191610Y-23339984D02*
X3172562Y-23368555D01*
X3172562Y-23368555D02*
X3153515Y-23387603D01*
X3153515Y-23387603D02*
X3134467Y-23397127D01*
X3372562Y-23339984D02*
X3391610Y-23339984D01*
X3391610Y-23339984D02*
X3410658Y-23349508D01*
X3410658Y-23349508D02*
X3420182Y-23359031D01*
X3420182Y-23359031D02*
X3429705Y-23378079D01*
X3429705Y-23378079D02*
X3439229Y-23416174D01*
X3439229Y-23416174D02*
X3439229Y-23463793D01*
X3439229Y-23463793D02*
X3429705Y-23501888D01*
X3429705Y-23501888D02*
X3420182Y-23520936D01*
X3420182Y-23520936D02*
X3410658Y-23530460D01*
X3410658Y-23530460D02*
X3391610Y-23539984D01*
X3391610Y-23539984D02*
X3372562Y-23539984D01*
X3372562Y-23539984D02*
X3353515Y-23530460D01*
X3353515Y-23530460D02*
X3343991Y-23520936D01*
X3343991Y-23520936D02*
X3334467Y-23501888D01*
X3334467Y-23501888D02*
X3324943Y-23463793D01*
X3324943Y-23463793D02*
X3324943Y-23416174D01*
X3324943Y-23416174D02*
X3334467Y-23378079D01*
X3334467Y-23378079D02*
X3343991Y-23359031D01*
X3343991Y-23359031D02*
X3353515Y-23349508D01*
X3353515Y-23349508D02*
X3372562Y-23339984D01*
X3563039Y-23339984D02*
X3582086Y-23339984D01*
X3582086Y-23339984D02*
X3601134Y-23349508D01*
X3601134Y-23349508D02*
X3610658Y-23359031D01*
X3610658Y-23359031D02*
X3620182Y-23378079D01*
X3620182Y-23378079D02*
X3629705Y-23416174D01*
X3629705Y-23416174D02*
X3629705Y-23463793D01*
X3629705Y-23463793D02*
X3620182Y-23501888D01*
X3620182Y-23501888D02*
X3610658Y-23520936D01*
X3610658Y-23520936D02*
X3601134Y-23530460D01*
X3601134Y-23530460D02*
X3582086Y-23539984D01*
X3582086Y-23539984D02*
X3563039Y-23539984D01*
X3563039Y-23539984D02*
X3543991Y-23530460D01*
X3543991Y-23530460D02*
X3534467Y-23520936D01*
X3534467Y-23520936D02*
X3524943Y-23501888D01*
X3524943Y-23501888D02*
X3515420Y-23463793D01*
X3515420Y-23463793D02*
X3515420Y-23416174D01*
X3515420Y-23416174D02*
X3524943Y-23378079D01*
X3524943Y-23378079D02*
X3534467Y-23359031D01*
X3534467Y-23359031D02*
X3543991Y-23349508D01*
X3543991Y-23349508D02*
X3563039Y-23339984D01*
X3715420Y-23539984D02*
X3715420Y-23406650D01*
X3715420Y-23425698D02*
X3724943Y-23416174D01*
X3724943Y-23416174D02*
X3743991Y-23406650D01*
X3743991Y-23406650D02*
X3772563Y-23406650D01*
X3772563Y-23406650D02*
X3791610Y-23416174D01*
X3791610Y-23416174D02*
X3801134Y-23435222D01*
X3801134Y-23435222D02*
X3801134Y-23539984D01*
X3801134Y-23435222D02*
X3810658Y-23416174D01*
X3810658Y-23416174D02*
X3829705Y-23406650D01*
X3829705Y-23406650D02*
X3858277Y-23406650D01*
X3858277Y-23406650D02*
X3877324Y-23416174D01*
X3877324Y-23416174D02*
X3886848Y-23435222D01*
X3886848Y-23435222D02*
X3886848Y-23539984D01*
X3982086Y-23539984D02*
X3982086Y-23406650D01*
X3982086Y-23425698D02*
X3991610Y-23416174D01*
X3991610Y-23416174D02*
X4010658Y-23406650D01*
X4010658Y-23406650D02*
X4039229Y-23406650D01*
X4039229Y-23406650D02*
X4058277Y-23416174D01*
X4058277Y-23416174D02*
X4067801Y-23435222D01*
X4067801Y-23435222D02*
X4067801Y-23539984D01*
X4067801Y-23435222D02*
X4077324Y-23416174D01*
X4077324Y-23416174D02*
X4096372Y-23406650D01*
X4096372Y-23406650D02*
X4124943Y-23406650D01*
X4124943Y-23406650D02*
X4143991Y-23416174D01*
X4143991Y-23416174D02*
X4153515Y-23435222D01*
X4153515Y-23435222D02*
X4153515Y-23539984D01*
X4543991Y-23330460D02*
X4372563Y-23587603D01*
X4801134Y-23339984D02*
X4820182Y-23339984D01*
X4820182Y-23339984D02*
X4839229Y-23349508D01*
X4839229Y-23349508D02*
X4848753Y-23359031D01*
X4848753Y-23359031D02*
X4858277Y-23378079D01*
X4858277Y-23378079D02*
X4867801Y-23416174D01*
X4867801Y-23416174D02*
X4867801Y-23463793D01*
X4867801Y-23463793D02*
X4858277Y-23501888D01*
X4858277Y-23501888D02*
X4848753Y-23520936D01*
X4848753Y-23520936D02*
X4839229Y-23530460D01*
X4839229Y-23530460D02*
X4820182Y-23539984D01*
X4820182Y-23539984D02*
X4801134Y-23539984D01*
X4801134Y-23539984D02*
X4782087Y-23530460D01*
X4782087Y-23530460D02*
X4772563Y-23520936D01*
X4772563Y-23520936D02*
X4763039Y-23501888D01*
X4763039Y-23501888D02*
X4753515Y-23463793D01*
X4753515Y-23463793D02*
X4753515Y-23416174D01*
X4753515Y-23416174D02*
X4763039Y-23378079D01*
X4763039Y-23378079D02*
X4772563Y-23359031D01*
X4772563Y-23359031D02*
X4782087Y-23349508D01*
X4782087Y-23349508D02*
X4801134Y-23339984D01*
X4953515Y-23520936D02*
X4963039Y-23530460D01*
X4963039Y-23530460D02*
X4953515Y-23539984D01*
X4953515Y-23539984D02*
X4943991Y-23530460D01*
X4943991Y-23530460D02*
X4953515Y-23520936D01*
X4953515Y-23520936D02*
X4953515Y-23539984D01*
X5086848Y-23339984D02*
X5105896Y-23339984D01*
X5105896Y-23339984D02*
X5124944Y-23349508D01*
X5124944Y-23349508D02*
X5134468Y-23359031D01*
X5134468Y-23359031D02*
X5143991Y-23378079D01*
X5143991Y-23378079D02*
X5153515Y-23416174D01*
X5153515Y-23416174D02*
X5153515Y-23463793D01*
X5153515Y-23463793D02*
X5143991Y-23501888D01*
X5143991Y-23501888D02*
X5134468Y-23520936D01*
X5134468Y-23520936D02*
X5124944Y-23530460D01*
X5124944Y-23530460D02*
X5105896Y-23539984D01*
X5105896Y-23539984D02*
X5086848Y-23539984D01*
X5086848Y-23539984D02*
X5067801Y-23530460D01*
X5067801Y-23530460D02*
X5058277Y-23520936D01*
X5058277Y-23520936D02*
X5048753Y-23501888D01*
X5048753Y-23501888D02*
X5039229Y-23463793D01*
X5039229Y-23463793D02*
X5039229Y-23416174D01*
X5039229Y-23416174D02*
X5048753Y-23378079D01*
X5048753Y-23378079D02*
X5058277Y-23359031D01*
X5058277Y-23359031D02*
X5067801Y-23349508D01*
X5067801Y-23349508D02*
X5086848Y-23339984D01*
X5324944Y-23406650D02*
X5324944Y-23539984D01*
X5277325Y-23330460D02*
X5229706Y-23473317D01*
X5229706Y-23473317D02*
X5353515Y-23473317D01*
X5410658Y-23339984D02*
X5534468Y-23339984D01*
X5534468Y-23339984D02*
X5467801Y-23416174D01*
X5467801Y-23416174D02*
X5496372Y-23416174D01*
X5496372Y-23416174D02*
X5515420Y-23425698D01*
X5515420Y-23425698D02*
X5524944Y-23435222D01*
X5524944Y-23435222D02*
X5534468Y-23454269D01*
X5534468Y-23454269D02*
X5534468Y-23501888D01*
X5534468Y-23501888D02*
X5524944Y-23520936D01*
X5524944Y-23520936D02*
X5515420Y-23530460D01*
X5515420Y-23530460D02*
X5496372Y-23539984D01*
X5496372Y-23539984D02*
X5439229Y-23539984D01*
X5439229Y-23539984D02*
X5420182Y-23530460D01*
X5420182Y-23530460D02*
X5410658Y-23520936D01*
X5601134Y-23339984D02*
X5724944Y-23339984D01*
X5724944Y-23339984D02*
X5658277Y-23416174D01*
X5658277Y-23416174D02*
X5686848Y-23416174D01*
X5686848Y-23416174D02*
X5705896Y-23425698D01*
X5705896Y-23425698D02*
X5715420Y-23435222D01*
X5715420Y-23435222D02*
X5724944Y-23454269D01*
X5724944Y-23454269D02*
X5724944Y-23501888D01*
X5724944Y-23501888D02*
X5715420Y-23520936D01*
X5715420Y-23520936D02*
X5705896Y-23530460D01*
X5705896Y-23530460D02*
X5686848Y-23539984D01*
X5686848Y-23539984D02*
X5629706Y-23539984D01*
X5629706Y-23539984D02*
X5610658Y-23530460D01*
X5610658Y-23530460D02*
X5601134Y-23520936D01*
X5801134Y-23339984D02*
X5801134Y-23378079D01*
X5877325Y-23339984D02*
X5877325Y-23378079D01*
X6172563Y-23616174D02*
X6163039Y-23606650D01*
X6163039Y-23606650D02*
X6143991Y-23578079D01*
X6143991Y-23578079D02*
X6134468Y-23559031D01*
X6134468Y-23559031D02*
X6124944Y-23530460D01*
X6124944Y-23530460D02*
X6115420Y-23482841D01*
X6115420Y-23482841D02*
X6115420Y-23444746D01*
X6115420Y-23444746D02*
X6124944Y-23397127D01*
X6124944Y-23397127D02*
X6134468Y-23368555D01*
X6134468Y-23368555D02*
X6143991Y-23349508D01*
X6143991Y-23349508D02*
X6163039Y-23320936D01*
X6163039Y-23320936D02*
X6172563Y-23311412D01*
X6334468Y-23406650D02*
X6334468Y-23539984D01*
X6286848Y-23330460D02*
X6239229Y-23473317D01*
X6239229Y-23473317D02*
X6363039Y-23473317D01*
X6591610Y-23539984D02*
X6591610Y-23339984D01*
X6677325Y-23539984D02*
X6677325Y-23435222D01*
X6677325Y-23435222D02*
X6667801Y-23416174D01*
X6667801Y-23416174D02*
X6648753Y-23406650D01*
X6648753Y-23406650D02*
X6620182Y-23406650D01*
X6620182Y-23406650D02*
X6601134Y-23416174D01*
X6601134Y-23416174D02*
X6591610Y-23425698D01*
X6801134Y-23539984D02*
X6782087Y-23530460D01*
X6782087Y-23530460D02*
X6772563Y-23520936D01*
X6772563Y-23520936D02*
X6763039Y-23501888D01*
X6763039Y-23501888D02*
X6763039Y-23444746D01*
X6763039Y-23444746D02*
X6772563Y-23425698D01*
X6772563Y-23425698D02*
X6782087Y-23416174D01*
X6782087Y-23416174D02*
X6801134Y-23406650D01*
X6801134Y-23406650D02*
X6829706Y-23406650D01*
X6829706Y-23406650D02*
X6848753Y-23416174D01*
X6848753Y-23416174D02*
X6858277Y-23425698D01*
X6858277Y-23425698D02*
X6867801Y-23444746D01*
X6867801Y-23444746D02*
X6867801Y-23501888D01*
X6867801Y-23501888D02*
X6858277Y-23520936D01*
X6858277Y-23520936D02*
X6848753Y-23530460D01*
X6848753Y-23530460D02*
X6829706Y-23539984D01*
X6829706Y-23539984D02*
X6801134Y-23539984D01*
X6982087Y-23539984D02*
X6963039Y-23530460D01*
X6963039Y-23530460D02*
X6953515Y-23511412D01*
X6953515Y-23511412D02*
X6953515Y-23339984D01*
X7134468Y-23530460D02*
X7115420Y-23539984D01*
X7115420Y-23539984D02*
X7077325Y-23539984D01*
X7077325Y-23539984D02*
X7058277Y-23530460D01*
X7058277Y-23530460D02*
X7048753Y-23511412D01*
X7048753Y-23511412D02*
X7048753Y-23435222D01*
X7048753Y-23435222D02*
X7058277Y-23416174D01*
X7058277Y-23416174D02*
X7077325Y-23406650D01*
X7077325Y-23406650D02*
X7115420Y-23406650D01*
X7115420Y-23406650D02*
X7134468Y-23416174D01*
X7134468Y-23416174D02*
X7143991Y-23435222D01*
X7143991Y-23435222D02*
X7143991Y-23454269D01*
X7143991Y-23454269D02*
X7048753Y-23473317D01*
X7220182Y-23530460D02*
X7239230Y-23539984D01*
X7239230Y-23539984D02*
X7277325Y-23539984D01*
X7277325Y-23539984D02*
X7296372Y-23530460D01*
X7296372Y-23530460D02*
X7305896Y-23511412D01*
X7305896Y-23511412D02*
X7305896Y-23501888D01*
X7305896Y-23501888D02*
X7296372Y-23482841D01*
X7296372Y-23482841D02*
X7277325Y-23473317D01*
X7277325Y-23473317D02*
X7248753Y-23473317D01*
X7248753Y-23473317D02*
X7229706Y-23463793D01*
X7229706Y-23463793D02*
X7220182Y-23444746D01*
X7220182Y-23444746D02*
X7220182Y-23435222D01*
X7220182Y-23435222D02*
X7229706Y-23416174D01*
X7229706Y-23416174D02*
X7248753Y-23406650D01*
X7248753Y-23406650D02*
X7277325Y-23406650D01*
X7277325Y-23406650D02*
X7296372Y-23416174D01*
X7372563Y-23616174D02*
X7382087Y-23606650D01*
X7382087Y-23606650D02*
X7401134Y-23578079D01*
X7401134Y-23578079D02*
X7410658Y-23559031D01*
X7410658Y-23559031D02*
X7420182Y-23530460D01*
X7420182Y-23530460D02*
X7429706Y-23482841D01*
X7429706Y-23482841D02*
X7429706Y-23444746D01*
X7429706Y-23444746D02*
X7420182Y-23397127D01*
X7420182Y-23397127D02*
X7410658Y-23368555D01*
X7410658Y-23368555D02*
X7401134Y-23349508D01*
X7401134Y-23349508D02*
X7382087Y-23320936D01*
X7382087Y-23320936D02*
X7372563Y-23311412D01*
M02*
