M48
; DRILL file {KiCad 9.0.6} date 2025-12-25T18:11:59+0100
; FORMAT={-:-/ absolute / metric / decimal}
; #@! TF.CreationDate,2025-12-25T18:11:59+01:00
; #@! TF.GenerationSoftware,Kicad,Pcbnew,9.0.6
; #@! TF.FileFunction,Plated,1,2,PTH
FMAT,2
METRIC
; #@! TA.AperFunction,Plated,PTH,ViaDrill
T1C0.300
; #@! TA.AperFunction,Plated,PTH,ComponentDrill
T2C0.800
; #@! TA.AperFunction,Plated,PTH,ComponentDrill
T3C1.000
; #@! TA.AperFunction,Plated,PTH,ComponentDrill
T4C1.100
%
G90
G05
T1
X28.75Y-81.75
X30.5Y-66.67
X33.2Y-81.1
X35.3Y-140.29
X40.2Y-175.6
X44.6Y-158.67
X49.9Y-53.8
X57.4Y-130.6
X58.409Y-104.591
X64.3Y-119.1
X73.4Y-88.739
X74.651Y-112.526
X77.5Y-160.3
X90.6Y-90.2
X90.6Y-108.0
X93.05Y-87.15
X101.6Y-120.5
X103.05Y-121.1
X106.7Y-88.7
X108.6Y-90.0
X127.2Y-99.4
X133.0Y-124.599
X137.5Y-141.1
X142.7Y-119.6
X143.3Y-146.4
X143.3Y-147.3
X151.1Y-111.1
X162.6Y-158.67
X168.0Y-67.1
X168.5Y-98.9
X169.0Y-186.3
X169.0Y-187.3
X172.4Y-183.9
T2
X29.09Y-117.9
X34.9Y-91.8
X34.9Y-96.8
X36.71Y-117.9
X37.6Y-90.49
X37.6Y-98.11
X40.1Y-53.69
X40.1Y-61.31
X40.1Y-65.2
X40.1Y-70.2
X40.1Y-77.79
X40.1Y-85.41
X40.49Y-117.9
X40.6Y-90.49
X40.6Y-98.11
X41.76Y-123.805
X43.1Y-53.69
X43.1Y-61.31
X43.1Y-63.89
X43.1Y-71.51
X43.4Y-90.49
X43.4Y-98.11
X43.66Y-85.5
X44.3Y-123.805
X46.19Y-58.785
X46.19Y-61.325
X46.19Y-63.865
X46.19Y-66.405
X46.19Y-68.945
X46.19Y-71.485
X46.19Y-74.025
X46.19Y-79.5
X46.19Y-95.585
X46.19Y-98.125
X46.19Y-100.665
X46.19Y-103.205
X46.19Y-105.745
X46.19Y-108.285
X46.19Y-110.825
X46.19Y-132.385
X46.19Y-134.925
X46.19Y-137.465
X46.19Y-140.005
X46.19Y-142.545
X46.19Y-145.085
X46.19Y-147.625
X46.2Y-85.5
X46.84Y-123.805
X47.46Y-50.095
X47.46Y-155.2
X47.46Y-162.305
X47.5Y-56.0
X47.5Y-76.8
X47.5Y-92.8
X47.5Y-129.6
X47.5Y-150.4
X48.11Y-117.9
X48.74Y-85.5
X50.0Y-50.095
X50.0Y-155.2
X50.0Y-162.305
X51.89Y-117.9
X52.5Y-56.0
X52.5Y-76.8
X52.5Y-92.8
X52.5Y-129.6
X52.5Y-150.4
X52.54Y-50.095
X52.54Y-155.2
X52.54Y-162.305
X53.16Y-123.805
X53.6Y-171.29
X53.6Y-178.91
X53.81Y-58.785
X53.81Y-61.325
X53.81Y-63.865
X53.81Y-66.405
X53.81Y-68.945
X53.81Y-71.485
X53.81Y-74.025
X53.81Y-79.5
X53.81Y-95.585
X53.81Y-98.125
X53.81Y-100.665
X53.81Y-103.205
X53.81Y-105.745
X53.81Y-108.285
X53.81Y-110.825
X53.81Y-132.385
X53.81Y-134.925
X53.81Y-137.465
X53.81Y-140.005
X53.81Y-142.545
X53.81Y-145.085
X53.81Y-147.625
X55.7Y-123.805
X56.6Y-171.29
X56.6Y-178.91
X56.8Y-90.44
X56.8Y-98.06
X56.9Y-56.19
X56.9Y-63.81
X56.9Y-71.49
X56.9Y-79.11
X56.9Y-142.49
X56.9Y-150.11
X58.0Y-132.29
X58.0Y-139.91
X58.24Y-123.805
X58.69Y-81.75
X58.69Y-84.75
X59.51Y-117.9
X59.6Y-90.44
X59.6Y-98.06
X59.6Y-171.29
X59.6Y-178.91
X59.9Y-142.49
X59.9Y-150.11
X60.0Y-69.2
X60.0Y-71.49
X60.0Y-79.11
X60.0Y-88.1
X60.0Y-152.4
X61.0Y-132.29
X61.0Y-139.91
X62.29Y-126.3
X62.29Y-129.3
X62.5Y-91.8
X62.5Y-96.8
X64.0Y-132.29
X64.0Y-139.91
X64.6Y-115.09
X64.6Y-122.71
X65.0Y-69.2
X65.0Y-71.49
X65.0Y-79.11
X65.0Y-88.1
X65.0Y-152.4
X65.1Y-142.49
X65.1Y-150.11
X65.5Y-90.44
X65.5Y-98.06
X66.31Y-81.75
X66.31Y-84.75
X67.0Y-132.29
X67.0Y-139.91
X67.6Y-115.09
X67.6Y-122.71
X68.1Y-71.49
X68.1Y-79.11
X68.1Y-142.49
X68.1Y-150.11
X68.25Y-90.44
X68.25Y-98.06
X68.4Y-104.29
X68.4Y-111.91
X69.91Y-126.3
X69.91Y-129.3
X71.1Y-157.3
X71.1Y-162.3
X71.19Y-58.785
X71.19Y-61.325
X71.19Y-63.865
X71.19Y-66.405
X71.19Y-68.945
X71.19Y-71.485
X71.19Y-74.025
X71.19Y-95.585
X71.19Y-98.125
X71.19Y-100.665
X71.19Y-103.205
X71.19Y-105.745
X71.19Y-108.285
X71.19Y-110.825
X71.19Y-132.385
X71.19Y-134.925
X71.19Y-137.465
X71.19Y-140.005
X71.19Y-142.545
X71.19Y-145.085
X71.19Y-147.625
X72.5Y-56.0
X72.5Y-92.8
X72.5Y-129.6
X72.5Y-150.4
X73.0Y-78.46
X73.0Y-81.0
X73.0Y-83.54
X73.0Y-115.2
X73.0Y-117.74
X73.0Y-120.28
X73.38Y-174.8
X73.39Y-156.95
X73.39Y-159.75
X73.39Y-162.75
X73.39Y-165.8
X73.39Y-168.8
X73.39Y-171.8
X75.5Y-44.705
X75.5Y-46.705
X77.0Y-78.48
X77.0Y-81.02
X77.0Y-83.56
X77.0Y-115.21
X77.0Y-117.75
X77.0Y-120.29
X77.5Y-56.0
X77.5Y-92.8
X77.5Y-129.6
X77.5Y-150.4
X78.81Y-58.785
X78.81Y-61.325
X78.81Y-63.865
X78.81Y-66.405
X78.81Y-68.945
X78.81Y-71.485
X78.81Y-74.025
X78.81Y-95.585
X78.81Y-98.125
X78.81Y-100.665
X78.81Y-103.205
X78.81Y-105.745
X78.81Y-108.285
X78.81Y-110.825
X78.81Y-132.385
X78.81Y-134.925
X78.81Y-137.465
X78.81Y-140.005
X78.81Y-142.545
X78.81Y-145.085
X78.81Y-147.625
X81.0Y-174.8
X81.01Y-156.95
X81.01Y-159.75
X81.01Y-162.75
X81.01Y-165.8
X81.01Y-168.8
X81.01Y-171.8
X81.6Y-94.49
X81.6Y-102.11
X81.6Y-104.29
X81.6Y-111.91
X81.9Y-116.99
X81.9Y-124.61
X81.9Y-129.89
X81.9Y-137.51
X81.9Y-142.59
X81.9Y-150.21
X82.0Y-92.2
X82.0Y-114.2
X83.2Y-59.09
X83.2Y-66.71
X84.4Y-94.49
X84.4Y-102.11
X84.4Y-104.29
X84.4Y-111.91
X84.7Y-116.99
X84.7Y-124.61
X85.9Y-132.45
X85.9Y-134.95
X85.9Y-138.65
X85.9Y-141.15
X85.9Y-145.15
X85.9Y-147.65
X86.0Y-59.09
X86.0Y-66.71
X87.0Y-92.2
X87.0Y-114.2
X87.2Y-118.3
X87.2Y-123.3
X87.4Y-94.49
X87.4Y-102.11
X87.4Y-104.29
X87.4Y-111.91
X90.1Y-130.19
X90.1Y-137.81
X90.1Y-139.99
X90.1Y-147.61
X93.1Y-130.19
X93.1Y-137.81
X93.1Y-139.99
X93.1Y-147.61
X96.19Y-95.585
X96.19Y-98.125
X96.19Y-100.665
X96.19Y-103.205
X96.19Y-105.745
X96.19Y-108.285
X96.19Y-110.825
X96.19Y-132.385
X96.19Y-134.925
X96.19Y-137.465
X96.19Y-140.005
X96.19Y-142.545
X96.19Y-145.085
X96.19Y-147.625
X97.5Y-92.8
X97.5Y-129.6
X102.5Y-92.8
X102.5Y-129.6
X103.81Y-95.585
X103.81Y-98.125
X103.81Y-100.665
X103.81Y-103.205
X103.81Y-105.745
X103.81Y-108.285
X103.81Y-110.825
X103.81Y-132.385
X103.81Y-134.925
X103.81Y-137.465
X103.81Y-140.005
X103.81Y-142.545
X103.81Y-145.085
X103.81Y-147.625
X106.9Y-130.19
X106.9Y-137.81
X106.9Y-139.99
X106.9Y-147.61
X109.9Y-130.19
X109.9Y-137.81
X109.9Y-139.99
X109.9Y-147.61
X112.6Y-94.49
X112.6Y-102.11
X112.6Y-104.29
X112.6Y-111.91
X112.8Y-92.2
X112.8Y-118.3
X112.8Y-123.3
X112.9Y-114.2
X113.99Y-59.09
X113.99Y-66.71
X114.1Y-132.45
X114.1Y-134.95
X114.1Y-138.65
X114.1Y-141.15
X114.1Y-145.14
X114.1Y-147.64
X115.3Y-116.99
X115.3Y-124.61
X115.6Y-94.49
X115.6Y-102.11
X115.6Y-104.29
X115.6Y-111.91
X116.8Y-59.09
X116.8Y-66.71
X117.8Y-92.2
X117.9Y-114.2
X118.1Y-116.99
X118.1Y-124.61
X118.1Y-129.89
X118.1Y-137.51
X118.1Y-142.59
X118.1Y-150.21
X118.4Y-94.49
X118.4Y-102.11
X118.4Y-104.29
X118.4Y-111.91
X118.99Y-165.8
X118.99Y-168.8
X118.99Y-171.8
X118.99Y-174.8
X119.0Y-156.95
X119.0Y-159.75
X119.0Y-162.75
X121.19Y-58.785
X121.19Y-61.325
X121.19Y-63.865
X121.19Y-66.405
X121.19Y-68.945
X121.19Y-71.485
X121.19Y-74.025
X121.19Y-95.585
X121.19Y-98.125
X121.19Y-100.665
X121.19Y-103.205
X121.19Y-105.745
X121.19Y-108.285
X121.19Y-110.825
X121.19Y-132.385
X121.19Y-134.925
X121.19Y-137.465
X121.19Y-140.005
X121.19Y-142.545
X121.19Y-145.085
X121.19Y-147.625
X122.5Y-56.0
X122.5Y-92.8
X122.5Y-129.6
X122.5Y-150.4
X123.0Y-78.46
X123.0Y-81.0
X123.0Y-83.54
X123.0Y-115.2
X123.0Y-117.74
X123.0Y-120.28
X124.5Y-44.795
X124.5Y-46.795
X126.61Y-165.8
X126.61Y-168.8
X126.61Y-171.8
X126.61Y-174.8
X126.62Y-156.95
X126.62Y-159.75
X126.62Y-162.75
X127.0Y-78.48
X127.0Y-81.02
X127.0Y-83.56
X127.0Y-115.21
X127.0Y-117.75
X127.0Y-120.29
X127.5Y-56.0
X127.5Y-92.8
X127.5Y-129.6
X127.5Y-150.4
X128.81Y-58.785
X128.81Y-61.325
X128.81Y-63.865
X128.81Y-66.405
X128.81Y-68.945
X128.81Y-71.485
X128.81Y-74.025
X128.81Y-95.585
X128.81Y-98.125
X128.81Y-100.665
X128.81Y-103.205
X128.81Y-105.745
X128.81Y-108.285
X128.81Y-110.825
X128.81Y-132.385
X128.81Y-134.925
X128.81Y-137.465
X128.81Y-140.005
X128.81Y-142.545
X128.81Y-145.085
X128.81Y-147.625
X128.9Y-157.3
X128.9Y-162.3
X130.09Y-126.3
X130.09Y-129.3
X131.6Y-104.29
X131.6Y-111.91
X131.7Y-90.44
X131.7Y-98.06
X131.9Y-71.49
X131.9Y-79.11
X131.9Y-142.49
X131.9Y-150.11
X132.4Y-115.09
X132.4Y-122.71
X133.0Y-132.29
X133.0Y-139.91
X133.69Y-81.7
X133.69Y-84.7
X134.5Y-90.44
X134.5Y-98.06
X134.9Y-142.49
X134.9Y-150.11
X135.0Y-69.21
X135.0Y-71.49
X135.0Y-79.11
X135.0Y-88.1
X135.0Y-152.4
X135.4Y-115.09
X135.4Y-122.71
X136.0Y-132.29
X136.0Y-139.91
X137.4Y-91.8
X137.4Y-96.8
X137.71Y-126.3
X137.71Y-129.3
X139.0Y-132.29
X139.0Y-139.91
X140.0Y-69.21
X140.0Y-71.49
X140.0Y-79.11
X140.0Y-88.1
X140.0Y-152.4
X140.1Y-142.49
X140.1Y-150.11
X140.4Y-171.29
X140.4Y-178.91
X140.5Y-90.44
X140.5Y-98.06
X140.59Y-117.9
X141.31Y-81.7
X141.31Y-84.7
X141.86Y-123.805
X142.0Y-132.29
X142.0Y-139.91
X143.1Y-56.19
X143.1Y-63.81
X143.1Y-71.5
X143.1Y-79.12
X143.1Y-142.49
X143.1Y-150.11
X143.3Y-90.44
X143.3Y-98.06
X143.4Y-171.29
X143.4Y-178.91
X144.4Y-123.805
X146.19Y-58.785
X146.19Y-61.325
X146.19Y-63.865
X146.19Y-66.405
X146.19Y-68.945
X146.19Y-71.485
X146.19Y-74.025
X146.19Y-79.5
X146.19Y-95.585
X146.19Y-98.125
X146.19Y-100.665
X146.19Y-103.205
X146.19Y-105.745
X146.19Y-108.285
X146.19Y-110.825
X146.19Y-132.385
X146.19Y-134.925
X146.19Y-137.465
X146.19Y-140.005
X146.19Y-142.545
X146.19Y-145.085
X146.19Y-147.625
X146.4Y-171.29
X146.4Y-178.91
X146.94Y-123.805
X147.46Y-50.095
X147.46Y-155.2
X147.46Y-162.305
X147.5Y-56.0
X147.5Y-76.8
X147.5Y-92.8
X147.5Y-129.6
X147.5Y-150.4
X148.21Y-117.9
X150.0Y-50.095
X150.0Y-155.2
X150.0Y-162.305
X151.26Y-85.5
X151.79Y-117.9
X152.5Y-56.0
X152.5Y-76.8
X152.5Y-92.8
X152.5Y-129.6
X152.5Y-150.4
X152.54Y-50.095
X152.54Y-155.2
X152.54Y-162.305
X153.06Y-123.805
X153.8Y-85.5
X153.81Y-58.785
X153.81Y-61.325
X153.81Y-63.865
X153.81Y-66.405
X153.81Y-68.945
X153.81Y-71.485
X153.81Y-74.025
X153.81Y-79.5
X153.81Y-95.585
X153.81Y-98.125
X153.81Y-100.665
X153.81Y-103.205
X153.81Y-105.745
X153.81Y-108.285
X153.81Y-110.825
X153.81Y-132.385
X153.81Y-134.925
X153.81Y-137.465
X153.81Y-140.005
X153.81Y-142.545
X153.81Y-145.085
X153.81Y-147.625
X155.6Y-123.805
X156.34Y-85.5
X156.6Y-90.49
X156.6Y-98.11
X156.9Y-53.69
X156.9Y-61.31
X156.9Y-63.89
X156.9Y-71.51
X158.14Y-123.805
X159.4Y-90.49
X159.4Y-98.11
X159.41Y-117.9
X159.9Y-53.69
X159.9Y-61.31
X159.9Y-65.2
X159.9Y-70.2
X159.9Y-77.89
X159.9Y-85.51
X162.4Y-90.49
X162.4Y-98.11
X162.99Y-117.9
X165.1Y-91.8
X165.1Y-96.8
X170.61Y-117.9
T3
X28.25Y-45.75
X28.25Y-48.29
X28.25Y-50.83
X28.25Y-53.37
X28.25Y-55.91
X28.25Y-58.45
X28.25Y-60.99
X28.25Y-63.53
X28.25Y-66.07
X28.25Y-68.61
X28.25Y-91.75
X28.25Y-94.29
X28.25Y-96.83
X28.25Y-99.37
X28.25Y-101.91
X28.25Y-104.45
X28.25Y-106.99
X28.25Y-109.53
X28.25Y-112.07
X28.25Y-114.61
X28.25Y-137.75
X28.25Y-140.29
X28.25Y-142.83
X28.25Y-145.37
X28.25Y-147.91
X28.25Y-150.45
X28.25Y-152.99
X28.25Y-155.53
X28.25Y-158.07
X28.25Y-160.61
X91.11Y-46.212
X91.11Y-48.752
X91.11Y-175.498
X91.11Y-178.037
X93.65Y-46.212
X93.65Y-48.752
X93.65Y-156.0
X93.65Y-175.498
X93.65Y-178.037
X96.19Y-46.212
X96.19Y-48.752
X96.19Y-156.0
X96.19Y-175.498
X96.19Y-178.037
X98.73Y-46.212
X98.73Y-48.752
X98.73Y-156.0
X98.73Y-175.498
X98.73Y-178.037
X101.27Y-46.212
X101.27Y-48.752
X101.27Y-156.0
X101.27Y-175.498
X101.27Y-178.037
X103.81Y-46.212
X103.81Y-48.752
X103.81Y-156.0
X103.81Y-175.498
X103.81Y-178.037
X106.35Y-46.212
X106.35Y-48.752
X106.35Y-156.0
X106.35Y-175.498
X106.35Y-178.037
X108.89Y-46.212
X108.89Y-48.752
X108.89Y-175.498
X108.89Y-178.037
X171.75Y-45.75
X171.75Y-48.29
X171.75Y-50.83
X171.75Y-53.37
X171.75Y-55.91
X171.75Y-58.45
X171.75Y-60.99
X171.75Y-63.53
X171.75Y-66.07
X171.75Y-68.61
X171.75Y-91.75
X171.75Y-94.29
X171.75Y-96.83
X171.75Y-99.37
X171.75Y-101.91
X171.75Y-104.45
X171.75Y-106.99
X171.75Y-109.53
X171.75Y-112.07
X171.75Y-114.61
X171.75Y-137.75
X171.75Y-140.29
X171.75Y-142.83
X171.75Y-145.37
X171.75Y-147.91
X171.75Y-150.45
X171.75Y-152.99
X171.75Y-155.53
X171.75Y-158.07
X171.75Y-160.61
T4
X82.25Y-44.17
X82.25Y-54.33
X117.75Y-44.17
X117.75Y-54.33
T3
X29.434Y-166.623G85X28.373Y-167.684
G05
X29.434Y-185.123G85X28.373Y-186.184
G05
X29.434Y-203.623G85X28.373Y-204.684
G05
X35.25Y-165.25G85X36.75Y-165.25
G05
X35.25Y-183.75G85X36.75Y-183.75
G05
X35.25Y-202.25G85X36.75Y-202.25
G05
X40.0Y-170.5G85X40.0Y-172.0
G05
X40.0Y-189.0G85X40.0Y-190.5
G05
X40.0Y-207.5G85X40.0Y-209.0
G05
X45.934Y-185.123G85X44.873Y-186.184
G05
X45.934Y-203.623G85X44.873Y-204.684
G05
X51.75Y-183.75G85X53.25Y-183.75
G05
X51.75Y-202.25G85X53.25Y-202.25
G05
X56.5Y-189.0G85X56.5Y-190.5
G05
X56.5Y-207.5G85X56.5Y-209.0
G05
X62.434Y-185.123G85X61.373Y-186.184
G05
X62.434Y-203.623G85X61.373Y-204.684
G05
X68.25Y-183.75G85X69.75Y-183.75
G05
X68.25Y-202.25G85X69.75Y-202.25
G05
X73.0Y-189.0G85X73.0Y-190.5
G05
X73.0Y-207.5G85X73.0Y-209.0
G05
X78.934Y-185.123G85X77.873Y-186.184
G05
X78.934Y-203.623G85X77.873Y-204.684
G05
X84.75Y-183.75G85X86.25Y-183.75
G05
X84.75Y-202.25G85X86.25Y-202.25
G05
X89.5Y-189.0G85X89.5Y-190.5
G05
X89.5Y-207.5G85X89.5Y-209.0
G05
X95.934Y-185.123G85X94.873Y-186.184
G05
X95.934Y-203.623G85X94.873Y-204.684
G05
X101.75Y-183.75G85X103.25Y-183.75
G05
X101.75Y-202.25G85X103.25Y-202.25
G05
X106.5Y-189.0G85X106.5Y-190.5
G05
X106.5Y-207.5G85X106.5Y-209.0
G05
X112.934Y-185.123G85X111.873Y-186.184
G05
X112.934Y-203.623G85X111.873Y-204.684
G05
X118.75Y-183.75G85X120.25Y-183.75
G05
X118.75Y-202.25G85X120.25Y-202.25
G05
X123.5Y-189.0G85X123.5Y-190.5
G05
X123.5Y-207.5G85X123.5Y-209.0
G05
X129.434Y-185.123G85X128.373Y-186.184
G05
X129.434Y-203.623G85X128.373Y-204.684
G05
X135.25Y-183.75G85X136.75Y-183.75
G05
X135.25Y-202.25G85X136.75Y-202.25
G05
X140.0Y-189.0G85X140.0Y-190.5
G05
X140.0Y-207.5G85X140.0Y-209.0
G05
X145.934Y-185.123G85X144.873Y-186.184
G05
X145.934Y-203.623G85X144.873Y-204.684
G05
X151.75Y-183.75G85X153.25Y-183.75
G05
X151.75Y-202.25G85X153.25Y-202.25
G05
X156.5Y-189.0G85X156.5Y-190.5
G05
X156.5Y-207.5G85X156.5Y-209.0
G05
X160.0Y-170.0G85X160.0Y-168.5
G05
X160.0Y-188.5G85X160.0Y-187.0
G05
X160.0Y-207.0G85X160.0Y-205.5
G05
X161.373Y-175.816G85X162.434Y-176.877
G05
X161.373Y-194.316G85X162.434Y-195.377
G05
X161.373Y-212.816G85X162.434Y-213.877
G05
X165.25Y-165.25G85X166.75Y-165.25
G05
X165.25Y-183.75G85X166.75Y-183.75
G05
X165.25Y-202.25G85X166.75Y-202.25
G05
M30
