%TF.GenerationSoftware,KiCad,Pcbnew,9.0.6*%
%TF.CreationDate,2025-12-25T18:10:41+01:00*%
%TF.ProjectId,DMH_VCEG_PCB_1_Mk1_1,444d485f-5643-4454-975f-5043425f315f,1*%
%TF.SameCoordinates,Original*%
%TF.FileFunction,Soldermask,Top*%
%TF.FilePolarity,Negative*%
%FSLAX46Y46*%
G04 Gerber Fmt 4.6, Leading zero omitted, Abs format (unit mm)*
G04 Created by KiCad (PCBNEW 9.0.6) date 2025-12-25 18:10:41*
%MOMM*%
%LPD*%
G01*
G04 APERTURE LIST*
G04 Aperture macros list*
%AMRoundRect*
0 Rectangle with rounded corners*
0 $1 Rounding radius*
0 $2 $3 $4 $5 $6 $7 $8 $9 X,Y pos of 4 corners*
0 Add a 4 corners polygon primitive as box body*
4,1,4,$2,$3,$4,$5,$6,$7,$8,$9,$2,$3,0*
0 Add four circle primitives for the rounded corners*
1,1,$1+$1,$2,$3*
1,1,$1+$1,$4,$5*
1,1,$1+$1,$6,$7*
1,1,$1+$1,$8,$9*
0 Add four rect primitives between the rounded corners*
20,1,$1+$1,$2,$3,$4,$5,0*
20,1,$1+$1,$4,$5,$6,$7,0*
20,1,$1+$1,$6,$7,$8,$9,0*
20,1,$1+$1,$8,$9,$2,$3,0*%
%AMHorizOval*
0 Thick line with rounded ends*
0 $1 width*
0 $2 $3 position (X,Y) of the first rounded end (center of the circle)*
0 $4 $5 position (X,Y) of the second rounded end (center of the circle)*
0 Add line between two ends*
20,1,$1,$2,$3,$4,$5,0*
0 Add two circle primitives to create the rounded ends*
1,1,$1,$2,$3*
1,1,$1,$4,$5*%
G04 Aperture macros list end*
%ADD10C,1.600000*%
%ADD11RoundRect,0.250000X0.550000X0.550000X-0.550000X0.550000X-0.550000X-0.550000X0.550000X-0.550000X0*%
%ADD12R,1.500000X1.500000*%
%ADD13C,1.500000*%
%ADD14HorizOval,1.712000X-0.533159X-0.533159X0.533159X0.533159X0*%
%ADD15O,1.712000X3.220000*%
%ADD16O,3.220000X1.712000*%
%ADD17R,1.700000X1.700000*%
%ADD18C,1.700000*%
%ADD19HorizOval,1.712000X-0.533159X0.533159X0.533159X-0.533159X0*%
%ADD20C,1.440000*%
%ADD21RoundRect,0.250000X0.550000X-0.550000X0.550000X0.550000X-0.550000X0.550000X-0.550000X-0.550000X0*%
%ADD22RoundRect,0.250000X-0.550000X0.550000X-0.550000X-0.550000X0.550000X-0.550000X0.550000X0.550000X0*%
%ADD23RoundRect,0.249999X-0.850001X0.850001X-0.850001X-0.850001X0.850001X-0.850001X0.850001X0.850001X0*%
%ADD24C,2.200000*%
%ADD25RoundRect,0.250000X-0.600000X0.600000X-0.600000X-0.600000X0.600000X-0.600000X0.600000X0.600000X0*%
%ADD26RoundRect,0.250000X0.600000X-0.600000X0.600000X0.600000X-0.600000X0.600000X-0.600000X-0.600000X0*%
%ADD27RoundRect,0.249999X0.850001X-0.850001X0.850001X0.850001X-0.850001X0.850001X-0.850001X-0.850001X0*%
%ADD28RoundRect,0.250000X-0.550000X-0.550000X0.550000X-0.550000X0.550000X0.550000X-0.550000X0.550000X0*%
G04 APERTURE END LIST*
D10*
%TO.C,U13*%
X121190000Y-95585000D03*
X121190000Y-98125000D03*
X121190000Y-100665000D03*
X121190000Y-103205000D03*
X121190000Y-105745000D03*
X121190000Y-108285000D03*
X121190000Y-110825000D03*
X128810000Y-110825000D03*
X128810000Y-108285000D03*
X128810000Y-105745000D03*
X128810000Y-103205000D03*
X128810000Y-100665000D03*
X128810000Y-98125000D03*
D11*
X128810000Y-95585000D03*
%TD*%
D10*
%TO.C,R3*%
X159900000Y-85510000D03*
X159900000Y-77890000D03*
%TD*%
D11*
%TO.C,U26*%
X103810000Y-95585000D03*
D10*
X103810000Y-98125000D03*
X103810000Y-100665000D03*
X103810000Y-103205000D03*
X103810000Y-105745000D03*
X103810000Y-108285000D03*
X103810000Y-110825000D03*
X96190000Y-110825000D03*
X96190000Y-108285000D03*
X96190000Y-105745000D03*
X96190000Y-103205000D03*
X96190000Y-100665000D03*
X96190000Y-98125000D03*
X96190000Y-95585000D03*
%TD*%
%TO.C,R202*%
X40100000Y-77790000D03*
X40100000Y-85410000D03*
%TD*%
D12*
%TO.C,Q6*%
X151260000Y-85500000D03*
D13*
X153800000Y-85500000D03*
X156340000Y-85500000D03*
%TD*%
D12*
%TO.C,Q5*%
X48740000Y-85500000D03*
D13*
X46200000Y-85500000D03*
X43660000Y-85500000D03*
%TD*%
D10*
%TO.C,C79*%
X97500000Y-92800000D03*
X102500000Y-92800000D03*
%TD*%
D14*
%TO.C,J19*%
X145403810Y-204153810D03*
D15*
X156500000Y-208250000D03*
D16*
X152500000Y-202250000D03*
%TD*%
D14*
%TO.C,J14*%
X112403810Y-185653810D03*
D15*
X123500000Y-189750000D03*
D16*
X119500000Y-183750000D03*
%TD*%
D17*
%TO.C,J24*%
X93650000Y-156000000D03*
D18*
X96190000Y-156000000D03*
X98730000Y-156000000D03*
X101270000Y-156000000D03*
X103810000Y-156000000D03*
X106350000Y-156000000D03*
%TD*%
D14*
%TO.C,J3*%
X61903810Y-185653810D03*
D15*
X73000000Y-189750000D03*
D16*
X69000000Y-183750000D03*
%TD*%
D14*
%TO.C,J1*%
X28903810Y-185653810D03*
D15*
X40000000Y-189750000D03*
D16*
X36000000Y-183750000D03*
%TD*%
D14*
%TO.C,J5*%
X78403810Y-204153810D03*
D15*
X89500000Y-208250000D03*
D16*
X85500000Y-202250000D03*
%TD*%
D19*
%TO.C,J20*%
X161903810Y-213346190D03*
D16*
X166000000Y-202250000D03*
D15*
X160000000Y-206250000D03*
%TD*%
D14*
%TO.C,J4*%
X78403810Y-185653810D03*
D15*
X89500000Y-189750000D03*
D16*
X85500000Y-183750000D03*
%TD*%
D14*
%TO.C,J18*%
X128903810Y-204153810D03*
D15*
X140000000Y-208250000D03*
D16*
X136000000Y-202250000D03*
%TD*%
D17*
%TO.C,J21*%
X28250000Y-45750000D03*
D18*
X28250000Y-48290000D03*
X28250000Y-50830000D03*
X28250000Y-53370000D03*
X28250000Y-55910000D03*
X28250000Y-58450000D03*
X28250000Y-60990000D03*
X28250000Y-63530000D03*
X28250000Y-66070000D03*
X28250000Y-68610000D03*
%TD*%
D14*
%TO.C,J7*%
X95403810Y-185653810D03*
D15*
X106500000Y-189750000D03*
D16*
X102500000Y-183750000D03*
%TD*%
D14*
%TO.C,J8*%
X61903810Y-204153810D03*
D15*
X73000000Y-208250000D03*
D16*
X69000000Y-202250000D03*
%TD*%
D17*
%TO.C,J27*%
X171750000Y-137750000D03*
D18*
X171750000Y-140290000D03*
X171750000Y-142830000D03*
X171750000Y-145370000D03*
X171750000Y-147910000D03*
X171750000Y-150450000D03*
X171750000Y-152990000D03*
X171750000Y-155530000D03*
X171750000Y-158070000D03*
X171750000Y-160610000D03*
%TD*%
D17*
%TO.C,J23*%
X28250000Y-137750000D03*
D18*
X28250000Y-140290000D03*
X28250000Y-142830000D03*
X28250000Y-145370000D03*
X28250000Y-147910000D03*
X28250000Y-150450000D03*
X28250000Y-152990000D03*
X28250000Y-155530000D03*
X28250000Y-158070000D03*
X28250000Y-160610000D03*
%TD*%
D14*
%TO.C,J10*%
X28903810Y-204153810D03*
D15*
X40000000Y-208250000D03*
D16*
X36000000Y-202250000D03*
%TD*%
D14*
%TO.C,J13*%
X128903810Y-185653810D03*
D15*
X140000000Y-189750000D03*
D16*
X136000000Y-183750000D03*
%TD*%
D17*
%TO.C,J26*%
X171750000Y-91750000D03*
D18*
X171750000Y-94290000D03*
X171750000Y-96830000D03*
X171750000Y-99370000D03*
X171750000Y-101910000D03*
X171750000Y-104450000D03*
X171750000Y-106990000D03*
X171750000Y-109530000D03*
X171750000Y-112070000D03*
X171750000Y-114610000D03*
%TD*%
D14*
%TO.C,J6*%
X28903810Y-167153810D03*
D15*
X40000000Y-171250000D03*
D16*
X36000000Y-165250000D03*
%TD*%
D17*
%TO.C,J22*%
X28250000Y-91750000D03*
D18*
X28250000Y-94290000D03*
X28250000Y-96830000D03*
X28250000Y-99370000D03*
X28250000Y-101910000D03*
X28250000Y-104450000D03*
X28250000Y-106990000D03*
X28250000Y-109530000D03*
X28250000Y-112070000D03*
X28250000Y-114610000D03*
%TD*%
D14*
%TO.C,J12*%
X145403810Y-185653810D03*
D15*
X156500000Y-189750000D03*
D16*
X152500000Y-183750000D03*
%TD*%
D14*
%TO.C,J2*%
X45403810Y-185653810D03*
D15*
X56500000Y-189750000D03*
D16*
X52500000Y-183750000D03*
%TD*%
D19*
%TO.C,J16*%
X161903810Y-176346190D03*
D16*
X166000000Y-165250000D03*
D15*
X160000000Y-169250000D03*
%TD*%
D17*
%TO.C,J25*%
X171750000Y-45750000D03*
D18*
X171750000Y-48290000D03*
X171750000Y-50830000D03*
X171750000Y-53370000D03*
X171750000Y-55910000D03*
X171750000Y-58450000D03*
X171750000Y-60990000D03*
X171750000Y-63530000D03*
X171750000Y-66070000D03*
X171750000Y-68610000D03*
%TD*%
D14*
%TO.C,J17*%
X95403810Y-204153810D03*
D15*
X106500000Y-208250000D03*
D16*
X102500000Y-202250000D03*
%TD*%
D19*
%TO.C,J11*%
X161903810Y-194846190D03*
D16*
X166000000Y-183750000D03*
D15*
X160000000Y-187750000D03*
%TD*%
D14*
%TO.C,J15*%
X112403810Y-204153810D03*
D15*
X123500000Y-208250000D03*
D16*
X119500000Y-202250000D03*
%TD*%
D14*
%TO.C,J9*%
X45403810Y-204153810D03*
D15*
X56500000Y-208250000D03*
D16*
X52500000Y-202250000D03*
%TD*%
D10*
%TO.C,R110*%
X119000000Y-159750000D03*
X126620000Y-159750000D03*
%TD*%
D20*
%TO.C,RV20*%
X52540000Y-155200000D03*
X50000000Y-155200000D03*
X47460000Y-155200000D03*
%TD*%
D10*
%TO.C,R143*%
X112600000Y-111910000D03*
X112600000Y-104290000D03*
%TD*%
%TO.C,R106*%
X118990000Y-171800000D03*
X126610000Y-171800000D03*
%TD*%
%TO.C,R35*%
X43100000Y-71510000D03*
X43100000Y-63890000D03*
%TD*%
%TO.C,R5*%
X81900000Y-150210000D03*
X81900000Y-142590000D03*
%TD*%
%TO.C,R131*%
X130090000Y-129300000D03*
X137710000Y-129300000D03*
%TD*%
D11*
%TO.C,U16*%
X153810000Y-95585000D03*
D10*
X153810000Y-98125000D03*
X153810000Y-100665000D03*
X153810000Y-103205000D03*
X153810000Y-105745000D03*
X153810000Y-108285000D03*
X153810000Y-110825000D03*
X146190000Y-110825000D03*
X146190000Y-108285000D03*
X146190000Y-105745000D03*
X146190000Y-103205000D03*
X146190000Y-100665000D03*
X146190000Y-98125000D03*
X146190000Y-95585000D03*
%TD*%
%TO.C,C27*%
X152500000Y-56000000D03*
X147500000Y-56000000D03*
%TD*%
%TO.C,C5*%
X72500000Y-56000000D03*
X77500000Y-56000000D03*
%TD*%
%TO.C,R39*%
X87400000Y-94490000D03*
X87400000Y-102110000D03*
%TD*%
D20*
%TO.C,RV41*%
X152540000Y-155200000D03*
X150000000Y-155200000D03*
X147460000Y-155200000D03*
%TD*%
D10*
%TO.C,R132*%
X156900000Y-71510000D03*
X156900000Y-63890000D03*
%TD*%
%TO.C,C22*%
X127500000Y-129600000D03*
X122500000Y-129600000D03*
%TD*%
%TO.C,R91*%
X59600000Y-171290000D03*
X59600000Y-178910000D03*
%TD*%
D11*
%TO.C,U11*%
X128810000Y-132385000D03*
D10*
X128810000Y-134925000D03*
X128810000Y-137465000D03*
X128810000Y-140005000D03*
X128810000Y-142545000D03*
X128810000Y-145085000D03*
X128810000Y-147625000D03*
X121190000Y-147625000D03*
X121190000Y-145085000D03*
X121190000Y-142545000D03*
X121190000Y-140005000D03*
X121190000Y-137465000D03*
X121190000Y-134925000D03*
X121190000Y-132385000D03*
%TD*%
%TO.C,R114*%
X106900000Y-130190000D03*
X106900000Y-137810000D03*
%TD*%
%TO.C,R25*%
X56900000Y-79110000D03*
X56900000Y-71490000D03*
%TD*%
%TO.C,R34*%
X69910000Y-129300000D03*
X62290000Y-129300000D03*
%TD*%
%TO.C,R193*%
X139000000Y-132290000D03*
X139000000Y-139910000D03*
%TD*%
%TO.C,C10*%
X47500000Y-92800000D03*
X52500000Y-92800000D03*
%TD*%
%TO.C,C68*%
X135000000Y-88100000D03*
X140000000Y-88100000D03*
%TD*%
%TO.C,C6*%
X72500000Y-92800000D03*
X77500000Y-92800000D03*
%TD*%
D11*
%TO.C,U1*%
X78810000Y-132385000D03*
D10*
X78810000Y-134925000D03*
X78810000Y-137465000D03*
X78810000Y-140005000D03*
X78810000Y-142545000D03*
X78810000Y-145085000D03*
X78810000Y-147625000D03*
X71190000Y-147625000D03*
X71190000Y-145085000D03*
X71190000Y-142545000D03*
X71190000Y-140005000D03*
X71190000Y-137465000D03*
X71190000Y-134925000D03*
X71190000Y-132385000D03*
%TD*%
%TO.C,C25*%
X122500000Y-92800000D03*
X127500000Y-92800000D03*
%TD*%
%TO.C,R19*%
X159900000Y-53690000D03*
X159900000Y-61310000D03*
%TD*%
%TO.C,C11*%
X52500000Y-129600000D03*
X47500000Y-129600000D03*
%TD*%
%TO.C,R14*%
X81010000Y-162750000D03*
X73390000Y-162750000D03*
%TD*%
%TO.C,R40*%
X29090000Y-117900000D03*
X36710000Y-117900000D03*
%TD*%
D21*
%TO.C,C2*%
X75500000Y-46705113D03*
D10*
X75500000Y-44705113D03*
%TD*%
%TO.C,C8*%
X52500000Y-56000000D03*
X47500000Y-56000000D03*
%TD*%
%TO.C,R41*%
X46190000Y-79500000D03*
X53810000Y-79500000D03*
%TD*%
%TO.C,R118*%
X118990000Y-165800000D03*
X126610000Y-165800000D03*
%TD*%
%TO.C,R108*%
X59600000Y-98060000D03*
X59600000Y-90440000D03*
%TD*%
%TO.C,C59*%
X128900000Y-157300000D03*
X128900000Y-162300000D03*
%TD*%
D22*
%TO.C,D33*%
X118400000Y-94490000D03*
D10*
X118400000Y-102110000D03*
%TD*%
%TO.C,C48*%
X85900000Y-134950000D03*
X85900000Y-132450000D03*
%TD*%
%TO.C,R1*%
X67600000Y-115090000D03*
X67600000Y-122710000D03*
%TD*%
D23*
%TO.C,D1*%
X117750000Y-44170000D03*
D24*
X117750000Y-54330000D03*
%TD*%
D10*
%TO.C,R45*%
X84400000Y-111910000D03*
X84400000Y-104290000D03*
%TD*%
D22*
%TO.C,D6*%
X65000000Y-71490000D03*
D10*
X65000000Y-79110000D03*
%TD*%
%TO.C,R190*%
X140590000Y-117900000D03*
X148210000Y-117900000D03*
%TD*%
%TO.C,R22*%
X53600000Y-178910000D03*
X53600000Y-171290000D03*
%TD*%
D21*
%TO.C,D3*%
X68400000Y-111910000D03*
D10*
X68400000Y-104290000D03*
%TD*%
%TO.C,C47*%
X65000000Y-69200000D03*
X60000000Y-69200000D03*
%TD*%
D22*
%TO.C,D43*%
X43400000Y-90490000D03*
D10*
X43400000Y-98110000D03*
%TD*%
D22*
%TO.C,C1*%
X124500000Y-44794888D03*
D10*
X124500000Y-46794888D03*
%TD*%
%TO.C,R42*%
X40490000Y-117900000D03*
X48110000Y-117900000D03*
%TD*%
%TO.C,R13*%
X81010000Y-159750000D03*
X73390000Y-159750000D03*
%TD*%
%TO.C,R101*%
X134900000Y-142490000D03*
X134900000Y-150110000D03*
%TD*%
%TO.C,R8*%
X64600000Y-122710000D03*
X64600000Y-115090000D03*
%TD*%
D22*
%TO.C,D14*%
X81600000Y-94490000D03*
D10*
X81600000Y-102110000D03*
%TD*%
%TO.C,R4*%
X65100000Y-142490000D03*
X65100000Y-150110000D03*
%TD*%
%TO.C,R133*%
X133000000Y-139910000D03*
X133000000Y-132290000D03*
%TD*%
%TO.C,R136*%
X112600000Y-94490000D03*
X112600000Y-102110000D03*
%TD*%
%TO.C,R116*%
X37600000Y-98110000D03*
X37600000Y-90490000D03*
%TD*%
%TO.C,C28*%
X152500000Y-76800000D03*
X147500000Y-76800000D03*
%TD*%
%TO.C,C77*%
X62500000Y-96800000D03*
X62500000Y-91800000D03*
%TD*%
%TO.C,C53*%
X40100000Y-70200000D03*
X40100000Y-65200000D03*
%TD*%
D20*
%TO.C,RV21*%
X52540000Y-162305000D03*
X50000000Y-162305000D03*
X47460000Y-162305000D03*
%TD*%
D22*
%TO.C,D26*%
X140000000Y-71490000D03*
D10*
X140000000Y-79110000D03*
%TD*%
%TO.C,R92*%
X56900000Y-142490000D03*
X56900000Y-150110000D03*
%TD*%
%TO.C,R139*%
X159410000Y-117900000D03*
X151790000Y-117900000D03*
%TD*%
%TO.C,R194*%
X136000000Y-132290000D03*
X136000000Y-139910000D03*
%TD*%
%TO.C,R97*%
X64000000Y-132290000D03*
X64000000Y-139910000D03*
%TD*%
D11*
%TO.C,U17*%
X153810000Y-132385000D03*
D10*
X153810000Y-134925000D03*
X153810000Y-137465000D03*
X153810000Y-140005000D03*
X153810000Y-142545000D03*
X153810000Y-145085000D03*
X153810000Y-147625000D03*
X146190000Y-147625000D03*
X146190000Y-145085000D03*
X146190000Y-142545000D03*
X146190000Y-140005000D03*
X146190000Y-137465000D03*
X146190000Y-134925000D03*
X146190000Y-132385000D03*
%TD*%
D21*
%TO.C,D34*%
X116800000Y-66710000D03*
D10*
X116800000Y-59090000D03*
%TD*%
%TO.C,C12*%
X52500000Y-150400000D03*
X47500000Y-150400000D03*
%TD*%
%TO.C,R36*%
X67000000Y-139910000D03*
X67000000Y-132290000D03*
%TD*%
%TO.C,R199*%
X156900000Y-61310000D03*
X156900000Y-53690000D03*
%TD*%
D20*
%TO.C,RV19*%
X58240000Y-123805000D03*
X55700000Y-123805000D03*
X53160000Y-123805000D03*
%TD*%
D10*
%TO.C,C31*%
X152500000Y-150400000D03*
X147500000Y-150400000D03*
%TD*%
D22*
%TO.C,D12*%
X68250000Y-90440000D03*
D10*
X68250000Y-98060000D03*
%TD*%
%TO.C,R16*%
X90100000Y-137810000D03*
X90100000Y-130190000D03*
%TD*%
D20*
%TO.C,RV24*%
X147460000Y-50095000D03*
X150000000Y-50095000D03*
X152540000Y-50095000D03*
%TD*%
D21*
%TO.C,D32*%
X109900000Y-147610000D03*
D10*
X109900000Y-139990000D03*
%TD*%
D22*
%TO.C,D41*%
X56800000Y-90440000D03*
D10*
X56800000Y-98060000D03*
%TD*%
%TO.C,R98*%
X132400000Y-115090000D03*
X132400000Y-122710000D03*
%TD*%
%TO.C,C58*%
X135000000Y-152400000D03*
X140000000Y-152400000D03*
%TD*%
%TO.C,R20*%
X81010000Y-168800000D03*
X73390000Y-168800000D03*
%TD*%
%TO.C,C55*%
X82000000Y-114200000D03*
X87000000Y-114200000D03*
%TD*%
%TO.C,R7*%
X59900000Y-150110000D03*
X59900000Y-142490000D03*
%TD*%
%TO.C,C42*%
X65000000Y-152400000D03*
X60000000Y-152400000D03*
%TD*%
%TO.C,R9*%
X81010000Y-171800000D03*
X73390000Y-171800000D03*
%TD*%
%TO.C,R141*%
X143100000Y-63810000D03*
X143100000Y-56190000D03*
%TD*%
D22*
%TO.C,D5*%
X84700000Y-116990000D03*
D10*
X84700000Y-124610000D03*
%TD*%
%TO.C,C72*%
X97500000Y-129600000D03*
X102500000Y-129600000D03*
%TD*%
D11*
%TO.C,U7*%
X53810000Y-132385000D03*
D10*
X53810000Y-134925000D03*
X53810000Y-137465000D03*
X53810000Y-140005000D03*
X53810000Y-142545000D03*
X53810000Y-145085000D03*
X53810000Y-147625000D03*
X46190000Y-147625000D03*
X46190000Y-145085000D03*
X46190000Y-142545000D03*
X46190000Y-140005000D03*
X46190000Y-137465000D03*
X46190000Y-134925000D03*
X46190000Y-132385000D03*
%TD*%
%TO.C,R21*%
X81010000Y-165800000D03*
X73390000Y-165800000D03*
%TD*%
%TO.C,R47*%
X86000000Y-66710000D03*
X86000000Y-59090000D03*
%TD*%
D22*
%TO.C,D44*%
X156600000Y-90490000D03*
D10*
X156600000Y-98110000D03*
%TD*%
%TO.C,C78*%
X137400000Y-96800000D03*
X137400000Y-91800000D03*
%TD*%
%TO.C,R32*%
X93100000Y-139990000D03*
X93100000Y-147610000D03*
%TD*%
%TO.C,C63*%
X135000000Y-69210000D03*
X140000000Y-69210000D03*
%TD*%
%TO.C,C46*%
X87200000Y-118300000D03*
X87200000Y-123300000D03*
%TD*%
%TO.C,R31*%
X65500000Y-90440000D03*
X65500000Y-98060000D03*
%TD*%
%TO.C,R2*%
X58690000Y-81750000D03*
X66310000Y-81750000D03*
%TD*%
%TO.C,R120*%
X118100000Y-129890000D03*
X118100000Y-137510000D03*
%TD*%
D12*
%TO.C,Q20*%
X127000000Y-83560000D03*
D13*
X127000000Y-81020000D03*
X127000000Y-78480000D03*
%TD*%
D10*
%TO.C,C30*%
X152500000Y-129600000D03*
X147500000Y-129600000D03*
%TD*%
%TO.C,R43*%
X106900000Y-139990000D03*
X106900000Y-147610000D03*
%TD*%
%TO.C,R122*%
X143100000Y-79120000D03*
X143100000Y-71500000D03*
%TD*%
D12*
%TO.C,Q17*%
X123000000Y-115200000D03*
D13*
X123000000Y-117740000D03*
X123000000Y-120280000D03*
%TD*%
D10*
%TO.C,R188*%
X140400000Y-171290000D03*
X140400000Y-178910000D03*
%TD*%
D12*
%TO.C,Q4*%
X77000000Y-83560000D03*
D13*
X77000000Y-81020000D03*
X77000000Y-78480000D03*
%TD*%
D10*
%TO.C,R129*%
X159400000Y-90490000D03*
X159400000Y-98110000D03*
%TD*%
D11*
%TO.C,U12*%
X128810000Y-58785000D03*
D10*
X128810000Y-61325000D03*
X128810000Y-63865000D03*
X128810000Y-66405000D03*
X128810000Y-68945000D03*
X128810000Y-71485000D03*
X128810000Y-74025000D03*
X121190000Y-74025000D03*
X121190000Y-71485000D03*
X121190000Y-68945000D03*
X121190000Y-66405000D03*
X121190000Y-63865000D03*
X121190000Y-61325000D03*
X121190000Y-58785000D03*
%TD*%
%TO.C,C44*%
X85900000Y-141150000D03*
X85900000Y-138650000D03*
%TD*%
%TO.C,R95*%
X56600000Y-171290000D03*
X56600000Y-178910000D03*
%TD*%
D25*
%TO.C,J200*%
X91110000Y-175497500D03*
D18*
X93650000Y-175497500D03*
X96190000Y-175497500D03*
X98730000Y-175497500D03*
X101270000Y-175497500D03*
X103810000Y-175497500D03*
X106350000Y-175497500D03*
X108890000Y-175497500D03*
X91110000Y-178037500D03*
X93650000Y-178037500D03*
X96190000Y-178037500D03*
X98730000Y-178037500D03*
X101270000Y-178037500D03*
X103810000Y-178037500D03*
X106350000Y-178037500D03*
X108890000Y-178037500D03*
%TD*%
D10*
%TO.C,R117*%
X118990000Y-168800000D03*
X126610000Y-168800000D03*
%TD*%
D26*
%TO.C,J100*%
X108890000Y-48752500D03*
D18*
X108890000Y-46212500D03*
X106350000Y-48752500D03*
X106350000Y-46212500D03*
X103810000Y-48752500D03*
X103810000Y-46212500D03*
X101270000Y-48752500D03*
X101270000Y-46212500D03*
X98730000Y-48752500D03*
X98730000Y-46212500D03*
X96190000Y-48752500D03*
X96190000Y-46212500D03*
X93650000Y-48752500D03*
X93650000Y-46212500D03*
X91110000Y-48752500D03*
X91110000Y-46212500D03*
%TD*%
D10*
%TO.C,C80*%
X34900000Y-96800000D03*
X34900000Y-91800000D03*
%TD*%
D12*
%TO.C,Q18*%
X127000000Y-120290000D03*
D13*
X127000000Y-117750000D03*
X127000000Y-115210000D03*
%TD*%
D20*
%TO.C,RV40*%
X146940000Y-123805000D03*
X144400000Y-123805000D03*
X141860000Y-123805000D03*
%TD*%
D10*
%TO.C,R140*%
X162400000Y-98110000D03*
X162400000Y-90490000D03*
%TD*%
%TO.C,C69*%
X159900000Y-70200000D03*
X159900000Y-65200000D03*
%TD*%
%TO.C,R128*%
X134500000Y-90440000D03*
X134500000Y-98060000D03*
%TD*%
%TO.C,R142*%
X115600000Y-111910000D03*
X115600000Y-104290000D03*
%TD*%
%TO.C,C56*%
X165100000Y-96800000D03*
X165100000Y-91800000D03*
%TD*%
%TO.C,R137*%
X170610000Y-117900000D03*
X162990000Y-117900000D03*
%TD*%
%TO.C,C60*%
X114100000Y-141150000D03*
X114100000Y-138650000D03*
%TD*%
D12*
%TO.C,Q1*%
X73000000Y-115200000D03*
D13*
X73000000Y-117740000D03*
X73000000Y-120280000D03*
%TD*%
D21*
%TO.C,D22*%
X131600000Y-111910000D03*
D10*
X131600000Y-104290000D03*
%TD*%
%TO.C,R138*%
X146190000Y-79500000D03*
X153810000Y-79500000D03*
%TD*%
%TO.C,R123*%
X131900000Y-79110000D03*
X131900000Y-71490000D03*
%TD*%
%TO.C,C64*%
X114100000Y-134950000D03*
X114100000Y-132450000D03*
%TD*%
%TO.C,R135*%
X115600000Y-94490000D03*
X115600000Y-102110000D03*
%TD*%
%TO.C,R102*%
X118100000Y-150210000D03*
X118100000Y-142590000D03*
%TD*%
D22*
%TO.C,D42*%
X143300000Y-90440000D03*
D10*
X143300000Y-98060000D03*
%TD*%
%TO.C,R23*%
X81900000Y-129890000D03*
X81900000Y-137510000D03*
%TD*%
%TO.C,C54*%
X82000000Y-92200000D03*
X87000000Y-92200000D03*
%TD*%
D11*
%TO.C,U25*%
X103810000Y-132385000D03*
D10*
X103810000Y-134925000D03*
X103810000Y-137465000D03*
X103810000Y-140005000D03*
X103810000Y-142545000D03*
X103810000Y-145085000D03*
X103810000Y-147625000D03*
X96190000Y-147625000D03*
X96190000Y-145085000D03*
X96190000Y-142545000D03*
X96190000Y-140005000D03*
X96190000Y-137465000D03*
X96190000Y-134925000D03*
X96190000Y-132385000D03*
%TD*%
%TO.C,C29*%
X147500000Y-92800000D03*
X152500000Y-92800000D03*
%TD*%
%TO.C,R96*%
X61000000Y-132290000D03*
X61000000Y-139910000D03*
%TD*%
%TO.C,R189*%
X143100000Y-142490000D03*
X143100000Y-150110000D03*
%TD*%
%TO.C,R191*%
X142000000Y-132290000D03*
X142000000Y-139910000D03*
%TD*%
D12*
%TO.C,Q19*%
X123000000Y-78460000D03*
D13*
X123000000Y-81000000D03*
X123000000Y-83540000D03*
%TD*%
D10*
%TO.C,R93*%
X59510000Y-117900000D03*
X51890000Y-117900000D03*
%TD*%
D20*
%TO.C,RV3*%
X47460000Y-50095000D03*
X50000000Y-50095000D03*
X52540000Y-50095000D03*
%TD*%
D10*
%TO.C,C70*%
X117800000Y-92200000D03*
X112800000Y-92200000D03*
%TD*%
%TO.C,R12*%
X81000000Y-174800000D03*
X73380000Y-174800000D03*
%TD*%
%TO.C,R99*%
X141310000Y-81700000D03*
X133690000Y-81700000D03*
%TD*%
%TO.C,R201*%
X40600000Y-90490000D03*
X40600000Y-98110000D03*
%TD*%
D21*
%TO.C,D15*%
X83200000Y-66710000D03*
D10*
X83200000Y-59090000D03*
%TD*%
D27*
%TO.C,D2*%
X82250000Y-54330000D03*
D24*
X82250000Y-44170000D03*
%TD*%
D11*
%TO.C,U3*%
X78810000Y-95585000D03*
D10*
X78810000Y-98125000D03*
X78810000Y-100665000D03*
X78810000Y-103205000D03*
X78810000Y-105745000D03*
X78810000Y-108285000D03*
X78810000Y-110825000D03*
X71190000Y-110825000D03*
X71190000Y-108285000D03*
X71190000Y-105745000D03*
X71190000Y-103205000D03*
X71190000Y-100665000D03*
X71190000Y-98125000D03*
X71190000Y-95585000D03*
%TD*%
%TO.C,R10*%
X58690000Y-84750000D03*
X66310000Y-84750000D03*
%TD*%
%TO.C,C3*%
X77500000Y-129600000D03*
X72500000Y-129600000D03*
%TD*%
%TO.C,C52*%
X65000000Y-88100000D03*
X60000000Y-88100000D03*
%TD*%
%TO.C,R121*%
X118100000Y-116990000D03*
X118100000Y-124610000D03*
%TD*%
%TO.C,R24*%
X81900000Y-116990000D03*
X81900000Y-124610000D03*
%TD*%
%TO.C,R109*%
X118990000Y-174800000D03*
X126610000Y-174800000D03*
%TD*%
D22*
%TO.C,D25*%
X135000000Y-71490000D03*
D10*
X135000000Y-79110000D03*
%TD*%
D21*
%TO.C,D35*%
X118400000Y-111910000D03*
D10*
X118400000Y-104290000D03*
%TD*%
%TO.C,C57*%
X114100000Y-145140000D03*
X114100000Y-147640000D03*
%TD*%
D21*
%TO.C,D13*%
X90100000Y-147610000D03*
D10*
X90100000Y-139990000D03*
%TD*%
%TO.C,C4*%
X77500000Y-150400000D03*
X72500000Y-150400000D03*
%TD*%
D21*
%TO.C,D16*%
X81600000Y-111910000D03*
D10*
X81600000Y-104290000D03*
%TD*%
%TO.C,R17*%
X93100000Y-137810000D03*
X93100000Y-130190000D03*
%TD*%
%TO.C,R38*%
X84400000Y-94490000D03*
X84400000Y-102110000D03*
%TD*%
D11*
%TO.C,U6*%
X53810000Y-95585000D03*
D10*
X53810000Y-98125000D03*
X53810000Y-100665000D03*
X53810000Y-103205000D03*
X53810000Y-105745000D03*
X53810000Y-108285000D03*
X53810000Y-110825000D03*
X46190000Y-110825000D03*
X46190000Y-108285000D03*
X46190000Y-105745000D03*
X46190000Y-103205000D03*
X46190000Y-100665000D03*
X46190000Y-98125000D03*
X46190000Y-95585000D03*
%TD*%
D28*
%TO.C,D4*%
X73390000Y-156950000D03*
D10*
X81010000Y-156950000D03*
%TD*%
%TO.C,R134*%
X131900000Y-150110000D03*
X131900000Y-142490000D03*
%TD*%
%TO.C,R196*%
X40100000Y-53690000D03*
X40100000Y-61310000D03*
%TD*%
%TO.C,R44*%
X56900000Y-56190000D03*
X56900000Y-63810000D03*
%TD*%
D22*
%TO.C,D7*%
X60000000Y-71490000D03*
D10*
X60000000Y-79110000D03*
%TD*%
%TO.C,R33*%
X62290000Y-126300000D03*
X69910000Y-126300000D03*
%TD*%
D12*
%TO.C,Q3*%
X73000000Y-78460000D03*
D13*
X73000000Y-81000000D03*
X73000000Y-83540000D03*
%TD*%
D10*
%TO.C,R119*%
X146400000Y-178910000D03*
X146400000Y-171290000D03*
%TD*%
%TO.C,C71*%
X117900000Y-114200000D03*
X112900000Y-114200000D03*
%TD*%
D12*
%TO.C,Q2*%
X77000000Y-120290000D03*
D13*
X77000000Y-117750000D03*
X77000000Y-115210000D03*
%TD*%
D22*
%TO.C,D31*%
X131700000Y-90440000D03*
D10*
X131700000Y-98060000D03*
%TD*%
D11*
%TO.C,U2*%
X78810000Y-58785000D03*
D10*
X78810000Y-61325000D03*
X78810000Y-63865000D03*
X78810000Y-66405000D03*
X78810000Y-68945000D03*
X78810000Y-71485000D03*
X78810000Y-74025000D03*
X71190000Y-74025000D03*
X71190000Y-71485000D03*
X71190000Y-68945000D03*
X71190000Y-66405000D03*
X71190000Y-63865000D03*
X71190000Y-61325000D03*
X71190000Y-58785000D03*
%TD*%
D20*
%TO.C,RV42*%
X152540000Y-162305000D03*
X150000000Y-162305000D03*
X147460000Y-162305000D03*
%TD*%
D10*
%TO.C,C9*%
X52500000Y-76800000D03*
X47500000Y-76800000D03*
%TD*%
D20*
%TO.C,RV1*%
X46840000Y-123805000D03*
X44300000Y-123805000D03*
X41760000Y-123805000D03*
%TD*%
D10*
%TO.C,R104*%
X140100000Y-150110000D03*
X140100000Y-142490000D03*
%TD*%
%TO.C,R37*%
X68100000Y-150110000D03*
X68100000Y-142490000D03*
%TD*%
%TO.C,R115*%
X140500000Y-98060000D03*
X140500000Y-90440000D03*
%TD*%
%TO.C,R144*%
X113990000Y-66710000D03*
X113990000Y-59090000D03*
%TD*%
D11*
%TO.C,U15*%
X153810000Y-58785000D03*
D10*
X153810000Y-61325000D03*
X153810000Y-63865000D03*
X153810000Y-66405000D03*
X153810000Y-68945000D03*
X153810000Y-71485000D03*
X153810000Y-74025000D03*
X146190000Y-74025000D03*
X146190000Y-71485000D03*
X146190000Y-68945000D03*
X146190000Y-66405000D03*
X146190000Y-63865000D03*
X146190000Y-61325000D03*
X146190000Y-58785000D03*
%TD*%
D22*
%TO.C,D24*%
X115300000Y-116990000D03*
D10*
X115300000Y-124610000D03*
%TD*%
%TO.C,C41*%
X85900000Y-145150000D03*
X85900000Y-147650000D03*
%TD*%
%TO.C,C24*%
X122500000Y-56000000D03*
X127500000Y-56000000D03*
%TD*%
D11*
%TO.C,D23*%
X126620000Y-156950000D03*
D10*
X119000000Y-156950000D03*
%TD*%
%TO.C,C62*%
X112800000Y-118300000D03*
X112800000Y-123300000D03*
%TD*%
D20*
%TO.C,RV22*%
X158140000Y-123805000D03*
X155600000Y-123805000D03*
X153060000Y-123805000D03*
%TD*%
D10*
%TO.C,R113*%
X109900000Y-137810000D03*
X109900000Y-130190000D03*
%TD*%
%TO.C,R107*%
X141310000Y-84700000D03*
X133690000Y-84700000D03*
%TD*%
%TO.C,R130*%
X137710000Y-126300000D03*
X130090000Y-126300000D03*
%TD*%
%TO.C,R105*%
X135400000Y-122710000D03*
X135400000Y-115090000D03*
%TD*%
%TO.C,R192*%
X143400000Y-171290000D03*
X143400000Y-178910000D03*
%TD*%
%TO.C,R94*%
X58000000Y-132290000D03*
X58000000Y-139910000D03*
%TD*%
%TO.C,C43*%
X71100000Y-157300000D03*
X71100000Y-162300000D03*
%TD*%
%TO.C,R111*%
X119000000Y-162750000D03*
X126620000Y-162750000D03*
%TD*%
%TO.C,R195*%
X43100000Y-61310000D03*
X43100000Y-53690000D03*
%TD*%
D11*
%TO.C,U5*%
X53810000Y-58785000D03*
D10*
X53810000Y-61325000D03*
X53810000Y-63865000D03*
X53810000Y-66405000D03*
X53810000Y-68945000D03*
X53810000Y-71485000D03*
X53810000Y-74025000D03*
X46190000Y-74025000D03*
X46190000Y-71485000D03*
X46190000Y-68945000D03*
X46190000Y-66405000D03*
X46190000Y-63865000D03*
X46190000Y-61325000D03*
X46190000Y-58785000D03*
%TD*%
%TO.C,R46*%
X87400000Y-111910000D03*
X87400000Y-104290000D03*
%TD*%
%TO.C,R26*%
X68100000Y-79110000D03*
X68100000Y-71490000D03*
%TD*%
%TO.C,C23*%
X127500000Y-150400000D03*
X122500000Y-150400000D03*
%TD*%
M02*
