M48
; DRILL file {KiCad 9.0.4} date 2025-10-03T19:57:34+0200
; FORMAT={-:-/ absolute / metric / decimal}
; #@! TF.CreationDate,2025-10-03T19:57:34+02:00
; #@! TF.GenerationSoftware,Kicad,Pcbnew,9.0.4
; #@! TF.FileFunction,Plated,1,2,PTH
FMAT,2
METRIC
; #@! TA.AperFunction,Plated,PTH,ComponentDrill
T1C0.300
; #@! TA.AperFunction,Plated,PTH,ComponentDrill
T2C1.000
; #@! TA.AperFunction,Plated,PTH,ComponentDrill
T3C2.400
; #@! TA.AperFunction,Plated,PTH,ComponentDrill
T4C3.200
; #@! TA.AperFunction,Plated,PTH,ComponentDrill
T5C6.400
%
G90
G05
T1
X27.8Y-171.75
X27.8Y-190.25
X27.8Y-208.75
X29.46Y-167.72
X29.46Y-186.22
X29.46Y-204.72
X29.47Y-175.79
X29.47Y-194.29
X29.47Y-212.79
X33.5Y-166.05
X33.5Y-177.45
X33.5Y-184.55
X33.5Y-195.95
X33.5Y-203.05
X33.5Y-214.45
X37.53Y-175.79
X37.53Y-194.29
X37.53Y-212.79
X37.54Y-167.72
X37.54Y-186.22
X37.54Y-204.72
X39.2Y-171.75
X39.2Y-190.25
X39.2Y-208.75
X44.3Y-190.25
X44.3Y-208.75
X45.96Y-186.22
X45.96Y-204.72
X45.97Y-194.29
X45.97Y-212.79
X50.0Y-184.55
X50.0Y-195.95
X50.0Y-203.05
X50.0Y-214.45
X54.03Y-194.29
X54.03Y-212.79
X54.04Y-186.22
X54.04Y-204.72
X55.7Y-190.25
X55.7Y-208.75
X60.8Y-190.25
X60.8Y-208.75
X62.46Y-186.22
X62.46Y-204.72
X62.47Y-194.29
X62.47Y-212.79
X66.5Y-184.55
X66.5Y-195.95
X66.5Y-203.05
X66.5Y-214.45
X70.53Y-194.29
X70.53Y-212.79
X70.54Y-186.22
X70.54Y-204.72
X72.2Y-190.25
X72.2Y-208.75
X77.3Y-190.25
X77.3Y-208.75
X78.96Y-186.22
X78.96Y-204.72
X78.97Y-194.29
X78.97Y-212.79
X83.0Y-184.55
X83.0Y-195.95
X83.0Y-203.05
X83.0Y-214.45
X87.03Y-194.29
X87.03Y-212.79
X87.04Y-186.22
X87.04Y-204.72
X88.7Y-190.25
X88.7Y-208.75
X94.3Y-190.25
X94.3Y-208.75
X95.96Y-186.22
X95.96Y-204.72
X95.97Y-194.29
X95.97Y-212.79
X100.0Y-184.55
X100.0Y-195.95
X100.0Y-203.05
X100.0Y-214.45
X104.03Y-194.29
X104.03Y-212.79
X104.04Y-186.22
X104.04Y-204.72
X105.7Y-190.25
X105.7Y-208.75
X111.3Y-190.25
X111.3Y-208.75
X112.96Y-186.22
X112.96Y-204.72
X112.97Y-194.29
X112.97Y-212.79
X117.0Y-184.55
X117.0Y-195.95
X117.0Y-203.05
X117.0Y-214.45
X121.03Y-194.29
X121.03Y-212.79
X121.04Y-186.22
X121.04Y-204.72
X122.7Y-190.25
X122.7Y-208.75
X127.8Y-190.25
X127.8Y-208.75
X129.46Y-186.22
X129.46Y-204.72
X129.47Y-194.29
X129.47Y-212.79
X133.5Y-184.55
X133.5Y-195.95
X133.5Y-203.05
X133.5Y-214.45
X137.53Y-194.29
X137.53Y-212.79
X137.54Y-186.22
X137.54Y-204.72
X139.2Y-190.25
X139.2Y-208.75
X144.3Y-190.25
X144.3Y-208.75
X145.96Y-186.22
X145.96Y-204.72
X145.97Y-194.29
X145.97Y-212.79
X150.0Y-184.55
X150.0Y-195.95
X150.0Y-203.05
X150.0Y-214.45
X154.03Y-194.29
X154.03Y-212.79
X154.04Y-186.22
X154.04Y-204.72
X155.7Y-190.25
X155.7Y-208.75
X160.8Y-171.75
X160.8Y-190.25
X160.8Y-208.75
X162.46Y-167.72
X162.46Y-186.22
X162.46Y-204.72
X162.47Y-175.79
X162.47Y-194.29
X162.47Y-212.79
X166.5Y-166.05
X166.5Y-177.45
X166.5Y-184.55
X166.5Y-195.95
X166.5Y-203.05
X166.5Y-214.45
X170.53Y-175.79
X170.53Y-194.29
X170.53Y-212.79
X170.54Y-167.72
X170.54Y-186.22
X170.54Y-204.72
X172.2Y-171.75
X172.2Y-190.25
X172.2Y-208.75
T3
X70.0Y-162.4
X85.0Y-162.4
X100.0Y-162.4
X115.0Y-162.4
X130.0Y-162.4
T4
X28.5Y-33.5
X28.5Y-226.5
X71.5Y-33.5
X71.5Y-226.5
X128.5Y-33.5
X128.5Y-226.5
X171.5Y-33.5
X171.5Y-226.5
T5
X70.0Y-168.5
X85.0Y-168.5
X100.0Y-168.5
X115.0Y-168.5
X130.0Y-168.5
T2
X49.5Y-60.75G85X50.5Y-60.75
G05
X49.5Y-94.25G85X50.5Y-94.25
G05
X49.5Y-127.75G85X50.5Y-127.75
G05
X49.5Y-161.25G85X50.5Y-161.25
G05
X149.5Y-60.75G85X150.5Y-60.75
G05
X149.5Y-94.25G85X150.5Y-94.25
G05
X149.5Y-127.75G85X150.5Y-127.75
G05
X149.5Y-161.25G85X150.5Y-161.25
G05
M30
