%TF.GenerationSoftware,KiCad,Pcbnew,9.0.4*%
%TF.CreationDate,2025-10-03T19:57:29+02:00*%
%TF.ProjectId,DMH_VCEG_PANEL,444d485f-5643-4454-975f-50414e454c2e,rev?*%
%TF.SameCoordinates,Original*%
%TF.FileFunction,Soldermask,Bot*%
%TF.FilePolarity,Negative*%
%FSLAX46Y46*%
G04 Gerber Fmt 4.6, Leading zero omitted, Abs format (unit mm)*
G04 Created by KiCad (PCBNEW 9.0.4) date 2025-10-03 19:57:29*
%MOMM*%
%LPD*%
G01*
G04 APERTURE LIST*
%ADD10C,12.000000*%
%ADD11O,2.500000X1.500000*%
%ADD12C,4.000000*%
%ADD13C,0.500000*%
%ADD14C,3.100000*%
%ADD15C,2.900000*%
%ADD16C,13.000000*%
%ADD17R,5.000000X10.000000*%
G04 APERTURE END LIST*
D10*
%TO.C,H47*%
X150000000Y-88250000D03*
D11*
X150000000Y-94250000D03*
%TD*%
D10*
%TO.C,H9*%
X87500000Y-54750000D03*
%TD*%
D12*
%TO.C,H54*%
X128500000Y-226500000D03*
%TD*%
D13*
%TO.C,H35*%
X111300000Y-208750000D03*
X112960000Y-204720000D03*
X112970000Y-212790000D03*
X117000000Y-203050000D03*
D10*
X117000000Y-208750000D03*
D13*
X117000000Y-214450000D03*
X121030000Y-212790000D03*
X121040000Y-204720000D03*
X122700000Y-208750000D03*
%TD*%
D12*
%TO.C,H3*%
X28500000Y-226500000D03*
%TD*%
D10*
%TO.C,H12*%
X87500000Y-140250000D03*
%TD*%
%TO.C,H10*%
X87500000Y-83250000D03*
%TD*%
D12*
%TO.C,H52*%
X128500000Y-33500000D03*
%TD*%
%TO.C,H51*%
X71500000Y-33500000D03*
%TD*%
D10*
%TO.C,H8*%
X50000000Y-155250000D03*
D11*
X50000000Y-161250000D03*
%TD*%
D10*
%TO.C,H41*%
X112500000Y-111750000D03*
%TD*%
D13*
%TO.C,H15*%
X27800000Y-190250000D03*
X29460000Y-186220000D03*
X29470000Y-194290000D03*
X33500000Y-184550000D03*
D10*
X33500000Y-190250000D03*
D13*
X33500000Y-195950000D03*
X37530000Y-194290000D03*
X37540000Y-186220000D03*
X39200000Y-190250000D03*
%TD*%
D14*
%TO.C,H33*%
X130000000Y-85750000D03*
%TD*%
D15*
%TO.C,H32*%
X130000000Y-162400000D03*
D16*
X130000000Y-168500000D03*
%TD*%
D10*
%TO.C,H40*%
X112500000Y-83250000D03*
%TD*%
D15*
%TO.C,H14*%
X70000000Y-162400000D03*
D16*
X70000000Y-168500000D03*
%TD*%
D10*
%TO.C,H7*%
X50000000Y-121750000D03*
D11*
X50000000Y-127750000D03*
%TD*%
D13*
%TO.C,H60*%
X60800000Y-208750000D03*
X62460000Y-204720000D03*
X62470000Y-212790000D03*
X66500000Y-203050000D03*
D10*
X66500000Y-208750000D03*
D13*
X66500000Y-214450000D03*
X70530000Y-212790000D03*
X70540000Y-204720000D03*
X72200000Y-208750000D03*
%TD*%
%TO.C,H34*%
X144300000Y-190250000D03*
X145960000Y-186220000D03*
X145970000Y-194290000D03*
X150000000Y-184550000D03*
D10*
X150000000Y-190250000D03*
D13*
X150000000Y-195950000D03*
X154030000Y-194290000D03*
X154040000Y-186220000D03*
X155700000Y-190250000D03*
%TD*%
%TO.C,H37*%
X127800000Y-190250000D03*
X129460000Y-186220000D03*
X129470000Y-194290000D03*
X133500000Y-184550000D03*
D10*
X133500000Y-190250000D03*
D13*
X133500000Y-195950000D03*
X137530000Y-194290000D03*
X137540000Y-186220000D03*
X139200000Y-190250000D03*
%TD*%
D10*
%TO.C,H48*%
X150000000Y-121750000D03*
D11*
X150000000Y-127750000D03*
%TD*%
D13*
%TO.C,H62*%
X144300000Y-208750000D03*
X145960000Y-204720000D03*
X145970000Y-212790000D03*
X150000000Y-203050000D03*
D10*
X150000000Y-208750000D03*
D13*
X150000000Y-214450000D03*
X154030000Y-212790000D03*
X154040000Y-204720000D03*
X155700000Y-208750000D03*
%TD*%
D14*
%TO.C,H26*%
X70000000Y-116750000D03*
%TD*%
%TO.C,H24*%
X70000000Y-54750000D03*
%TD*%
%TO.C,H36*%
X130000000Y-116750000D03*
%TD*%
D13*
%TO.C,H44*%
X111300000Y-190250000D03*
X112960000Y-186220000D03*
X112970000Y-194290000D03*
X117000000Y-184550000D03*
D10*
X117000000Y-190250000D03*
D13*
X117000000Y-195950000D03*
X121030000Y-194290000D03*
X121040000Y-186220000D03*
X122700000Y-190250000D03*
%TD*%
D15*
%TO.C,H31*%
X115000000Y-162400000D03*
D16*
X115000000Y-168500000D03*
%TD*%
D13*
%TO.C,H23*%
X94300000Y-190250000D03*
X95960000Y-186220000D03*
X95970000Y-194290000D03*
X100000000Y-184550000D03*
D10*
X100000000Y-190250000D03*
D13*
X100000000Y-195950000D03*
X104030000Y-194290000D03*
X104040000Y-186220000D03*
X105700000Y-190250000D03*
%TD*%
D10*
%TO.C,H49*%
X150000000Y-155250000D03*
D11*
X150000000Y-161250000D03*
%TD*%
D10*
%TO.C,H11*%
X87500000Y-111750000D03*
%TD*%
D13*
%TO.C,H38*%
X160800000Y-208750000D03*
X162460000Y-204720000D03*
X162470000Y-212790000D03*
X166500000Y-203050000D03*
D10*
X166500000Y-208750000D03*
D13*
X166500000Y-214450000D03*
X170530000Y-212790000D03*
X170540000Y-204720000D03*
X172200000Y-208750000D03*
%TD*%
D10*
%TO.C,H46*%
X150000000Y-54750000D03*
D11*
X150000000Y-60750000D03*
%TD*%
D12*
%TO.C,H53*%
X71500000Y-226500000D03*
%TD*%
D13*
%TO.C,H29*%
X160800000Y-190250000D03*
X162460000Y-186220000D03*
X162470000Y-194290000D03*
X166500000Y-184550000D03*
D10*
X166500000Y-190250000D03*
D13*
X166500000Y-195950000D03*
X170530000Y-194290000D03*
X170540000Y-186220000D03*
X172200000Y-190250000D03*
%TD*%
D14*
%TO.C,H27*%
X70000000Y-147750000D03*
%TD*%
D10*
%TO.C,H6*%
X50000000Y-88250000D03*
D11*
X50000000Y-94250000D03*
%TD*%
D13*
%TO.C,H17*%
X60800000Y-190250000D03*
X62460000Y-186220000D03*
X62470000Y-194290000D03*
X66500000Y-184550000D03*
D10*
X66500000Y-190250000D03*
D13*
X66500000Y-195950000D03*
X70530000Y-194290000D03*
X70540000Y-186220000D03*
X72200000Y-190250000D03*
%TD*%
D14*
%TO.C,H43*%
X130000000Y-147750000D03*
%TD*%
D13*
%TO.C,H18*%
X77300000Y-190250000D03*
X78960000Y-186220000D03*
X78970000Y-194290000D03*
X83000000Y-184550000D03*
D10*
X83000000Y-190250000D03*
D13*
X83000000Y-195950000D03*
X87030000Y-194290000D03*
X87040000Y-186220000D03*
X88700000Y-190250000D03*
%TD*%
%TO.C,H30*%
X160800000Y-171750000D03*
X162460000Y-167720000D03*
X162470000Y-175790000D03*
X166500000Y-166050000D03*
D10*
X166500000Y-171750000D03*
D13*
X166500000Y-177450000D03*
X170530000Y-175790000D03*
X170540000Y-167720000D03*
X172200000Y-171750000D03*
%TD*%
D12*
%TO.C,H2*%
X171500000Y-33500000D03*
%TD*%
%TO.C,H4*%
X171500000Y-226500000D03*
%TD*%
D13*
%TO.C,H16*%
X44300000Y-190250000D03*
X45960000Y-186220000D03*
X45970000Y-194290000D03*
X50000000Y-184550000D03*
D10*
X50000000Y-190250000D03*
D13*
X50000000Y-195950000D03*
X54030000Y-194290000D03*
X54040000Y-186220000D03*
X55700000Y-190250000D03*
%TD*%
%TO.C,H19*%
X27800000Y-171750000D03*
X29460000Y-167720000D03*
X29470000Y-175790000D03*
X33500000Y-166050000D03*
D10*
X33500000Y-171750000D03*
D13*
X33500000Y-177450000D03*
X37530000Y-175790000D03*
X37540000Y-167720000D03*
X39200000Y-171750000D03*
%TD*%
D10*
%TO.C,H42*%
X112500000Y-140250000D03*
%TD*%
D13*
%TO.C,H61*%
X127800000Y-208750000D03*
X129460000Y-204720000D03*
X129470000Y-212790000D03*
X133500000Y-203050000D03*
D10*
X133500000Y-208750000D03*
D13*
X133500000Y-214450000D03*
X137530000Y-212790000D03*
X137540000Y-204720000D03*
X139200000Y-208750000D03*
%TD*%
D12*
%TO.C,H1*%
X28500000Y-33500000D03*
%TD*%
D14*
%TO.C,H28*%
X130000000Y-54750000D03*
%TD*%
D15*
%TO.C,H13*%
X85000000Y-162400000D03*
D16*
X85000000Y-168500000D03*
%TD*%
D13*
%TO.C,H50*%
X94300000Y-208750000D03*
X95960000Y-204720000D03*
X95970000Y-212790000D03*
X100000000Y-203050000D03*
D10*
X100000000Y-208750000D03*
D13*
X100000000Y-214450000D03*
X104030000Y-212790000D03*
X104040000Y-204720000D03*
X105700000Y-208750000D03*
%TD*%
D15*
%TO.C,H45*%
X100000000Y-162400000D03*
D16*
X100000000Y-168500000D03*
%TD*%
D14*
%TO.C,H25*%
X70000000Y-85750000D03*
%TD*%
D13*
%TO.C,H20*%
X77300000Y-208750000D03*
X78960000Y-204720000D03*
X78970000Y-212790000D03*
X83000000Y-203050000D03*
D10*
X83000000Y-208750000D03*
D13*
X83000000Y-214450000D03*
X87030000Y-212790000D03*
X87040000Y-204720000D03*
X88700000Y-208750000D03*
%TD*%
D10*
%TO.C,H39*%
X112500000Y-54750000D03*
%TD*%
D13*
%TO.C,H59*%
X44300000Y-208750000D03*
X45960000Y-204720000D03*
X45970000Y-212790000D03*
X50000000Y-203050000D03*
D10*
X50000000Y-208750000D03*
D13*
X50000000Y-214450000D03*
X54030000Y-212790000D03*
X54040000Y-204720000D03*
X55700000Y-208750000D03*
%TD*%
D10*
%TO.C,H5*%
X50000000Y-54750000D03*
D11*
X50000000Y-60750000D03*
%TD*%
D13*
%TO.C,H21*%
X27800000Y-208750000D03*
X29460000Y-204720000D03*
X29470000Y-212790000D03*
X33500000Y-203050000D03*
D10*
X33500000Y-208750000D03*
D13*
X33500000Y-214450000D03*
X37530000Y-212790000D03*
X37540000Y-204720000D03*
X39200000Y-208750000D03*
%TD*%
D17*
%TO.C,J0*%
X30000000Y-120000000D03*
%TD*%
M02*
