%TF.GenerationSoftware,KiCad,Pcbnew,9.0.4*%
%TF.CreationDate,2025-10-03T19:57:29+02:00*%
%TF.ProjectId,DMH_VCEG_PANEL,444d485f-5643-4454-975f-50414e454c2e,rev?*%
%TF.SameCoordinates,Original*%
%TF.FileFunction,Profile,NP*%
%FSLAX46Y46*%
G04 Gerber Fmt 4.6, Leading zero omitted, Abs format (unit mm)*
G04 Created by KiCad (PCBNEW 9.0.4) date 2025-10-03 19:57:29*
%MOMM*%
%LPD*%
G01*
G04 APERTURE LIST*
%TA.AperFunction,Profile*%
%ADD10C,0.050000*%
%TD*%
G04 APERTURE END LIST*
D10*
X25000000Y-30000000D02*
X175000000Y-30000000D01*
X175000000Y-230000000D01*
X25000000Y-230000000D01*
X25000000Y-30000000D01*
%TO.C,H47*%
X153500000Y-88250000D02*
G75*
G02*
X146500000Y-88250000I-3500000J0D01*
G01*
X146500000Y-88250000D02*
G75*
G02*
X153500000Y-88250000I3500000J0D01*
G01*
%TO.C,H9*%
X92000000Y-54750000D02*
G75*
G02*
X83000000Y-54750000I-4500000J0D01*
G01*
X83000000Y-54750000D02*
G75*
G02*
X92000000Y-54750000I4500000J0D01*
G01*
%TO.C,H35*%
X121900000Y-208750000D02*
G75*
G02*
X112100000Y-208750000I-4900000J0D01*
G01*
X112100000Y-208750000D02*
G75*
G02*
X121900000Y-208750000I4900000J0D01*
G01*
%TO.C,H12*%
X92000000Y-140250000D02*
G75*
G02*
X83000000Y-140250000I-4500000J0D01*
G01*
X83000000Y-140250000D02*
G75*
G02*
X92000000Y-140250000I4500000J0D01*
G01*
%TO.C,H10*%
X92000000Y-83250000D02*
G75*
G02*
X83000000Y-83250000I-4500000J0D01*
G01*
X83000000Y-83250000D02*
G75*
G02*
X92000000Y-83250000I4500000J0D01*
G01*
%TO.C,H8*%
X53500000Y-155250000D02*
G75*
G02*
X46500000Y-155250000I-3500000J0D01*
G01*
X46500000Y-155250000D02*
G75*
G02*
X53500000Y-155250000I3500000J0D01*
G01*
%TO.C,H41*%
X117000000Y-111750000D02*
G75*
G02*
X108000000Y-111750000I-4500000J0D01*
G01*
X108000000Y-111750000D02*
G75*
G02*
X117000000Y-111750000I4500000J0D01*
G01*
%TO.C,H15*%
X38400000Y-190250000D02*
G75*
G02*
X28600000Y-190250000I-4900000J0D01*
G01*
X28600000Y-190250000D02*
G75*
G02*
X38400000Y-190250000I4900000J0D01*
G01*
%TO.C,H40*%
X117000000Y-83250000D02*
G75*
G02*
X108000000Y-83250000I-4500000J0D01*
G01*
X108000000Y-83250000D02*
G75*
G02*
X117000000Y-83250000I4500000J0D01*
G01*
%TO.C,H7*%
X53500000Y-121750000D02*
G75*
G02*
X46500000Y-121750000I-3500000J0D01*
G01*
X46500000Y-121750000D02*
G75*
G02*
X53500000Y-121750000I3500000J0D01*
G01*
%TO.C,H60*%
X71400000Y-208750000D02*
G75*
G02*
X61600000Y-208750000I-4900000J0D01*
G01*
X61600000Y-208750000D02*
G75*
G02*
X71400000Y-208750000I4900000J0D01*
G01*
%TO.C,H34*%
X154900000Y-190250000D02*
G75*
G02*
X145100000Y-190250000I-4900000J0D01*
G01*
X145100000Y-190250000D02*
G75*
G02*
X154900000Y-190250000I4900000J0D01*
G01*
%TO.C,H37*%
X138400000Y-190250000D02*
G75*
G02*
X128600000Y-190250000I-4900000J0D01*
G01*
X128600000Y-190250000D02*
G75*
G02*
X138400000Y-190250000I4900000J0D01*
G01*
%TO.C,H48*%
X153500000Y-121750000D02*
G75*
G02*
X146500000Y-121750000I-3500000J0D01*
G01*
X146500000Y-121750000D02*
G75*
G02*
X153500000Y-121750000I3500000J0D01*
G01*
%TO.C,H62*%
X154900000Y-208750000D02*
G75*
G02*
X145100000Y-208750000I-4900000J0D01*
G01*
X145100000Y-208750000D02*
G75*
G02*
X154900000Y-208750000I4900000J0D01*
G01*
%TO.C,H44*%
X121900000Y-190250000D02*
G75*
G02*
X112100000Y-190250000I-4900000J0D01*
G01*
X112100000Y-190250000D02*
G75*
G02*
X121900000Y-190250000I4900000J0D01*
G01*
%TO.C,H23*%
X104900000Y-190250000D02*
G75*
G02*
X95100000Y-190250000I-4900000J0D01*
G01*
X95100000Y-190250000D02*
G75*
G02*
X104900000Y-190250000I4900000J0D01*
G01*
%TO.C,H49*%
X153500000Y-155250000D02*
G75*
G02*
X146500000Y-155250000I-3500000J0D01*
G01*
X146500000Y-155250000D02*
G75*
G02*
X153500000Y-155250000I3500000J0D01*
G01*
%TO.C,H11*%
X92000000Y-111750000D02*
G75*
G02*
X83000000Y-111750000I-4500000J0D01*
G01*
X83000000Y-111750000D02*
G75*
G02*
X92000000Y-111750000I4500000J0D01*
G01*
%TO.C,H38*%
X171400000Y-208750000D02*
G75*
G02*
X161600000Y-208750000I-4900000J0D01*
G01*
X161600000Y-208750000D02*
G75*
G02*
X171400000Y-208750000I4900000J0D01*
G01*
%TO.C,H46*%
X153500000Y-54750000D02*
G75*
G02*
X146500000Y-54750000I-3500000J0D01*
G01*
X146500000Y-54750000D02*
G75*
G02*
X153500000Y-54750000I3500000J0D01*
G01*
%TO.C,H29*%
X171400000Y-190250000D02*
G75*
G02*
X161600000Y-190250000I-4900000J0D01*
G01*
X161600000Y-190250000D02*
G75*
G02*
X171400000Y-190250000I4900000J0D01*
G01*
%TO.C,H6*%
X53500000Y-88250000D02*
G75*
G02*
X46500000Y-88250000I-3500000J0D01*
G01*
X46500000Y-88250000D02*
G75*
G02*
X53500000Y-88250000I3500000J0D01*
G01*
%TO.C,H17*%
X71400000Y-190250000D02*
G75*
G02*
X61600000Y-190250000I-4900000J0D01*
G01*
X61600000Y-190250000D02*
G75*
G02*
X71400000Y-190250000I4900000J0D01*
G01*
%TO.C,H18*%
X87900000Y-190250000D02*
G75*
G02*
X78100000Y-190250000I-4900000J0D01*
G01*
X78100000Y-190250000D02*
G75*
G02*
X87900000Y-190250000I4900000J0D01*
G01*
%TO.C,H30*%
X171400000Y-171750000D02*
G75*
G02*
X161600000Y-171750000I-4900000J0D01*
G01*
X161600000Y-171750000D02*
G75*
G02*
X171400000Y-171750000I4900000J0D01*
G01*
%TO.C,H16*%
X54900000Y-190250000D02*
G75*
G02*
X45100000Y-190250000I-4900000J0D01*
G01*
X45100000Y-190250000D02*
G75*
G02*
X54900000Y-190250000I4900000J0D01*
G01*
%TO.C,H19*%
X38400000Y-171750000D02*
G75*
G02*
X28600000Y-171750000I-4900000J0D01*
G01*
X28600000Y-171750000D02*
G75*
G02*
X38400000Y-171750000I4900000J0D01*
G01*
%TO.C,H42*%
X117000000Y-140250000D02*
G75*
G02*
X108000000Y-140250000I-4500000J0D01*
G01*
X108000000Y-140250000D02*
G75*
G02*
X117000000Y-140250000I4500000J0D01*
G01*
%TO.C,H61*%
X138400000Y-208750000D02*
G75*
G02*
X128600000Y-208750000I-4900000J0D01*
G01*
X128600000Y-208750000D02*
G75*
G02*
X138400000Y-208750000I4900000J0D01*
G01*
%TO.C,H50*%
X104900000Y-208750000D02*
G75*
G02*
X95100000Y-208750000I-4900000J0D01*
G01*
X95100000Y-208750000D02*
G75*
G02*
X104900000Y-208750000I4900000J0D01*
G01*
%TO.C,H20*%
X87900000Y-208750000D02*
G75*
G02*
X78100000Y-208750000I-4900000J0D01*
G01*
X78100000Y-208750000D02*
G75*
G02*
X87900000Y-208750000I4900000J0D01*
G01*
%TO.C,H39*%
X117000000Y-54750000D02*
G75*
G02*
X108000000Y-54750000I-4500000J0D01*
G01*
X108000000Y-54750000D02*
G75*
G02*
X117000000Y-54750000I4500000J0D01*
G01*
%TO.C,H59*%
X54900000Y-208750000D02*
G75*
G02*
X45100000Y-208750000I-4900000J0D01*
G01*
X45100000Y-208750000D02*
G75*
G02*
X54900000Y-208750000I4900000J0D01*
G01*
%TO.C,H5*%
X53500000Y-54750000D02*
G75*
G02*
X46500000Y-54750000I-3500000J0D01*
G01*
X46500000Y-54750000D02*
G75*
G02*
X53500000Y-54750000I3500000J0D01*
G01*
%TO.C,H21*%
X38400000Y-208750000D02*
G75*
G02*
X28600000Y-208750000I-4900000J0D01*
G01*
X28600000Y-208750000D02*
G75*
G02*
X38400000Y-208750000I4900000J0D01*
G01*
%TD*%
M02*
