%TF.GenerationSoftware,KiCad,Pcbnew,9.0.4*%
%TF.CreationDate,2025-10-03T19:57:29+02:00*%
%TF.ProjectId,DMH_VCEG_PANEL,444d485f-5643-4454-975f-50414e454c2e,rev?*%
%TF.SameCoordinates,Original*%
%TF.FileFunction,Legend,Bot*%
%TF.FilePolarity,Positive*%
%FSLAX46Y46*%
G04 Gerber Fmt 4.6, Leading zero omitted, Abs format (unit mm)*
G04 Created by KiCad (PCBNEW 9.0.4) date 2025-10-03 19:57:29*
%MOMM*%
%LPD*%
G01*
G04 APERTURE LIST*
%ADD10C,0.100000*%
%ADD11C,0.300000*%
%ADD12C,12.000000*%
%ADD13O,2.500000X1.500000*%
%ADD14C,4.000000*%
%ADD15C,0.500000*%
%ADD16C,3.100000*%
%ADD17C,2.900000*%
%ADD18C,13.000000*%
%ADD19R,5.000000X10.000000*%
G04 APERTURE END LIST*
D10*
X95000000Y-225500000D02*
X105000000Y-225500000D01*
X105000000Y-227500000D01*
X95000000Y-227500000D01*
X95000000Y-225500000D01*
G36*
X95000000Y-225500000D02*
G01*
X105000000Y-225500000D01*
X105000000Y-227500000D01*
X95000000Y-227500000D01*
X95000000Y-225500000D01*
G37*
D11*
X112714284Y-223678328D02*
X112714284Y-222178328D01*
X112714284Y-222178328D02*
X112214284Y-223249757D01*
X112214284Y-223249757D02*
X111714284Y-222178328D01*
X111714284Y-222178328D02*
X111714284Y-223678328D01*
X110999998Y-223678328D02*
X110999998Y-222178328D01*
X110857141Y-223106900D02*
X110428569Y-223678328D01*
X110428569Y-222678328D02*
X110999998Y-223249757D01*
X108999997Y-223678328D02*
X109857140Y-223678328D01*
X109428569Y-223678328D02*
X109428569Y-222178328D01*
X109428569Y-222178328D02*
X109571426Y-222392614D01*
X109571426Y-222392614D02*
X109714283Y-222535471D01*
X109714283Y-222535471D02*
X109857140Y-222606900D01*
X108357141Y-223535471D02*
X108285712Y-223606900D01*
X108285712Y-223606900D02*
X108357141Y-223678328D01*
X108357141Y-223678328D02*
X108428569Y-223606900D01*
X108428569Y-223606900D02*
X108357141Y-223535471D01*
X108357141Y-223535471D02*
X108357141Y-223678328D01*
X107357140Y-222178328D02*
X107214283Y-222178328D01*
X107214283Y-222178328D02*
X107071426Y-222249757D01*
X107071426Y-222249757D02*
X106999998Y-222321185D01*
X106999998Y-222321185D02*
X106928569Y-222464042D01*
X106928569Y-222464042D02*
X106857140Y-222749757D01*
X106857140Y-222749757D02*
X106857140Y-223106900D01*
X106857140Y-223106900D02*
X106928569Y-223392614D01*
X106928569Y-223392614D02*
X106999998Y-223535471D01*
X106999998Y-223535471D02*
X107071426Y-223606900D01*
X107071426Y-223606900D02*
X107214283Y-223678328D01*
X107214283Y-223678328D02*
X107357140Y-223678328D01*
X107357140Y-223678328D02*
X107499998Y-223606900D01*
X107499998Y-223606900D02*
X107571426Y-223535471D01*
X107571426Y-223535471D02*
X107642855Y-223392614D01*
X107642855Y-223392614D02*
X107714283Y-223106900D01*
X107714283Y-223106900D02*
X107714283Y-222749757D01*
X107714283Y-222749757D02*
X107642855Y-222464042D01*
X107642855Y-222464042D02*
X107571426Y-222321185D01*
X107571426Y-222321185D02*
X107499998Y-222249757D01*
X107499998Y-222249757D02*
X107357140Y-222178328D01*
X105071427Y-223106900D02*
X103928570Y-223106900D01*
X101785712Y-222178328D02*
X101499998Y-222178328D01*
X101499998Y-222178328D02*
X101357141Y-222249757D01*
X101357141Y-222249757D02*
X101214284Y-222392614D01*
X101214284Y-222392614D02*
X101142855Y-222678328D01*
X101142855Y-222678328D02*
X101142855Y-223178328D01*
X101142855Y-223178328D02*
X101214284Y-223464042D01*
X101214284Y-223464042D02*
X101357141Y-223606900D01*
X101357141Y-223606900D02*
X101499998Y-223678328D01*
X101499998Y-223678328D02*
X101785712Y-223678328D01*
X101785712Y-223678328D02*
X101928570Y-223606900D01*
X101928570Y-223606900D02*
X102071427Y-223464042D01*
X102071427Y-223464042D02*
X102142855Y-223178328D01*
X102142855Y-223178328D02*
X102142855Y-222678328D01*
X102142855Y-222678328D02*
X102071427Y-222392614D01*
X102071427Y-222392614D02*
X101928570Y-222249757D01*
X101928570Y-222249757D02*
X101785712Y-222178328D01*
X99857141Y-223606900D02*
X99999998Y-223678328D01*
X99999998Y-223678328D02*
X100285712Y-223678328D01*
X100285712Y-223678328D02*
X100428569Y-223606900D01*
X100428569Y-223606900D02*
X100499998Y-223535471D01*
X100499998Y-223535471D02*
X100571426Y-223392614D01*
X100571426Y-223392614D02*
X100571426Y-222964042D01*
X100571426Y-222964042D02*
X100499998Y-222821185D01*
X100499998Y-222821185D02*
X100428569Y-222749757D01*
X100428569Y-222749757D02*
X100285712Y-222678328D01*
X100285712Y-222678328D02*
X99999998Y-222678328D01*
X99999998Y-222678328D02*
X99857141Y-222749757D01*
X99428569Y-222678328D02*
X98857141Y-222678328D01*
X99214284Y-222178328D02*
X99214284Y-223464042D01*
X99214284Y-223464042D02*
X99142855Y-223606900D01*
X99142855Y-223606900D02*
X98999998Y-223678328D01*
X98999998Y-223678328D02*
X98857141Y-223678328D01*
X98142855Y-223678328D02*
X98285712Y-223606900D01*
X98285712Y-223606900D02*
X98357141Y-223535471D01*
X98357141Y-223535471D02*
X98428569Y-223392614D01*
X98428569Y-223392614D02*
X98428569Y-222964042D01*
X98428569Y-222964042D02*
X98357141Y-222821185D01*
X98357141Y-222821185D02*
X98285712Y-222749757D01*
X98285712Y-222749757D02*
X98142855Y-222678328D01*
X98142855Y-222678328D02*
X97928569Y-222678328D01*
X97928569Y-222678328D02*
X97785712Y-222749757D01*
X97785712Y-222749757D02*
X97714284Y-222821185D01*
X97714284Y-222821185D02*
X97642855Y-222964042D01*
X97642855Y-222964042D02*
X97642855Y-223392614D01*
X97642855Y-223392614D02*
X97714284Y-223535471D01*
X97714284Y-223535471D02*
X97785712Y-223606900D01*
X97785712Y-223606900D02*
X97928569Y-223678328D01*
X97928569Y-223678328D02*
X98142855Y-223678328D01*
X96999998Y-223678328D02*
X96999998Y-222178328D01*
X96999998Y-222749757D02*
X96857141Y-222678328D01*
X96857141Y-222678328D02*
X96571426Y-222678328D01*
X96571426Y-222678328D02*
X96428569Y-222749757D01*
X96428569Y-222749757D02*
X96357141Y-222821185D01*
X96357141Y-222821185D02*
X96285712Y-222964042D01*
X96285712Y-222964042D02*
X96285712Y-223392614D01*
X96285712Y-223392614D02*
X96357141Y-223535471D01*
X96357141Y-223535471D02*
X96428569Y-223606900D01*
X96428569Y-223606900D02*
X96571426Y-223678328D01*
X96571426Y-223678328D02*
X96857141Y-223678328D01*
X96857141Y-223678328D02*
X96999998Y-223606900D01*
X95071426Y-223606900D02*
X95214283Y-223678328D01*
X95214283Y-223678328D02*
X95499998Y-223678328D01*
X95499998Y-223678328D02*
X95642855Y-223606900D01*
X95642855Y-223606900D02*
X95714283Y-223464042D01*
X95714283Y-223464042D02*
X95714283Y-222892614D01*
X95714283Y-222892614D02*
X95642855Y-222749757D01*
X95642855Y-222749757D02*
X95499998Y-222678328D01*
X95499998Y-222678328D02*
X95214283Y-222678328D01*
X95214283Y-222678328D02*
X95071426Y-222749757D01*
X95071426Y-222749757D02*
X94999998Y-222892614D01*
X94999998Y-222892614D02*
X94999998Y-223035471D01*
X94999998Y-223035471D02*
X95714283Y-223178328D01*
X94357141Y-223678328D02*
X94357141Y-222678328D01*
X94357141Y-222964042D02*
X94285712Y-222821185D01*
X94285712Y-222821185D02*
X94214284Y-222749757D01*
X94214284Y-222749757D02*
X94071426Y-222678328D01*
X94071426Y-222678328D02*
X93928569Y-222678328D01*
X92357141Y-222321185D02*
X92285713Y-222249757D01*
X92285713Y-222249757D02*
X92142856Y-222178328D01*
X92142856Y-222178328D02*
X91785713Y-222178328D01*
X91785713Y-222178328D02*
X91642856Y-222249757D01*
X91642856Y-222249757D02*
X91571427Y-222321185D01*
X91571427Y-222321185D02*
X91499998Y-222464042D01*
X91499998Y-222464042D02*
X91499998Y-222606900D01*
X91499998Y-222606900D02*
X91571427Y-222821185D01*
X91571427Y-222821185D02*
X92428570Y-223678328D01*
X92428570Y-223678328D02*
X91499998Y-223678328D01*
X90571427Y-222178328D02*
X90428570Y-222178328D01*
X90428570Y-222178328D02*
X90285713Y-222249757D01*
X90285713Y-222249757D02*
X90214285Y-222321185D01*
X90214285Y-222321185D02*
X90142856Y-222464042D01*
X90142856Y-222464042D02*
X90071427Y-222749757D01*
X90071427Y-222749757D02*
X90071427Y-223106900D01*
X90071427Y-223106900D02*
X90142856Y-223392614D01*
X90142856Y-223392614D02*
X90214285Y-223535471D01*
X90214285Y-223535471D02*
X90285713Y-223606900D01*
X90285713Y-223606900D02*
X90428570Y-223678328D01*
X90428570Y-223678328D02*
X90571427Y-223678328D01*
X90571427Y-223678328D02*
X90714285Y-223606900D01*
X90714285Y-223606900D02*
X90785713Y-223535471D01*
X90785713Y-223535471D02*
X90857142Y-223392614D01*
X90857142Y-223392614D02*
X90928570Y-223106900D01*
X90928570Y-223106900D02*
X90928570Y-222749757D01*
X90928570Y-222749757D02*
X90857142Y-222464042D01*
X90857142Y-222464042D02*
X90785713Y-222321185D01*
X90785713Y-222321185D02*
X90714285Y-222249757D01*
X90714285Y-222249757D02*
X90571427Y-222178328D01*
X89499999Y-222321185D02*
X89428571Y-222249757D01*
X89428571Y-222249757D02*
X89285714Y-222178328D01*
X89285714Y-222178328D02*
X88928571Y-222178328D01*
X88928571Y-222178328D02*
X88785714Y-222249757D01*
X88785714Y-222249757D02*
X88714285Y-222321185D01*
X88714285Y-222321185D02*
X88642856Y-222464042D01*
X88642856Y-222464042D02*
X88642856Y-222606900D01*
X88642856Y-222606900D02*
X88714285Y-222821185D01*
X88714285Y-222821185D02*
X89571428Y-223678328D01*
X89571428Y-223678328D02*
X88642856Y-223678328D01*
X87285714Y-222178328D02*
X88000000Y-222178328D01*
X88000000Y-222178328D02*
X88071428Y-222892614D01*
X88071428Y-222892614D02*
X88000000Y-222821185D01*
X88000000Y-222821185D02*
X87857143Y-222749757D01*
X87857143Y-222749757D02*
X87500000Y-222749757D01*
X87500000Y-222749757D02*
X87357143Y-222821185D01*
X87357143Y-222821185D02*
X87285714Y-222892614D01*
X87285714Y-222892614D02*
X87214285Y-223035471D01*
X87214285Y-223035471D02*
X87214285Y-223392614D01*
X87214285Y-223392614D02*
X87285714Y-223535471D01*
X87285714Y-223535471D02*
X87357143Y-223606900D01*
X87357143Y-223606900D02*
X87500000Y-223678328D01*
X87500000Y-223678328D02*
X87857143Y-223678328D01*
X87857143Y-223678328D02*
X88000000Y-223606900D01*
X88000000Y-223606900D02*
X88071428Y-223535471D01*
X31142856Y-125999757D02*
X31285714Y-125928328D01*
X31285714Y-125928328D02*
X31499999Y-125928328D01*
X31499999Y-125928328D02*
X31714285Y-125999757D01*
X31714285Y-125999757D02*
X31857142Y-126142614D01*
X31857142Y-126142614D02*
X31928571Y-126285471D01*
X31928571Y-126285471D02*
X31999999Y-126571185D01*
X31999999Y-126571185D02*
X31999999Y-126785471D01*
X31999999Y-126785471D02*
X31928571Y-127071185D01*
X31928571Y-127071185D02*
X31857142Y-127214042D01*
X31857142Y-127214042D02*
X31714285Y-127356900D01*
X31714285Y-127356900D02*
X31499999Y-127428328D01*
X31499999Y-127428328D02*
X31357142Y-127428328D01*
X31357142Y-127428328D02*
X31142856Y-127356900D01*
X31142856Y-127356900D02*
X31071428Y-127285471D01*
X31071428Y-127285471D02*
X31071428Y-126785471D01*
X31071428Y-126785471D02*
X31357142Y-126785471D01*
X30428571Y-127428328D02*
X30428571Y-125928328D01*
X30428571Y-125928328D02*
X29571428Y-127428328D01*
X29571428Y-127428328D02*
X29571428Y-125928328D01*
X28857142Y-127428328D02*
X28857142Y-125928328D01*
X28857142Y-125928328D02*
X28499999Y-125928328D01*
X28499999Y-125928328D02*
X28285713Y-125999757D01*
X28285713Y-125999757D02*
X28142856Y-126142614D01*
X28142856Y-126142614D02*
X28071427Y-126285471D01*
X28071427Y-126285471D02*
X27999999Y-126571185D01*
X27999999Y-126571185D02*
X27999999Y-126785471D01*
X27999999Y-126785471D02*
X28071427Y-127071185D01*
X28071427Y-127071185D02*
X28142856Y-127214042D01*
X28142856Y-127214042D02*
X28285713Y-127356900D01*
X28285713Y-127356900D02*
X28499999Y-127428328D01*
X28499999Y-127428328D02*
X28857142Y-127428328D01*
%LPC*%
D12*
%TO.C,H47*%
X150000000Y-88250000D03*
D13*
X150000000Y-94250000D03*
%TD*%
D12*
%TO.C,H9*%
X87500000Y-54750000D03*
%TD*%
D14*
%TO.C,H54*%
X128500000Y-226500000D03*
%TD*%
D15*
%TO.C,H35*%
X111300000Y-208750000D03*
X112960000Y-204720000D03*
X112970000Y-212790000D03*
X117000000Y-203050000D03*
D12*
X117000000Y-208750000D03*
D15*
X117000000Y-214450000D03*
X121030000Y-212790000D03*
X121040000Y-204720000D03*
X122700000Y-208750000D03*
%TD*%
D14*
%TO.C,H3*%
X28500000Y-226500000D03*
%TD*%
D12*
%TO.C,H12*%
X87500000Y-140250000D03*
%TD*%
%TO.C,H10*%
X87500000Y-83250000D03*
%TD*%
D14*
%TO.C,H52*%
X128500000Y-33500000D03*
%TD*%
%TO.C,H51*%
X71500000Y-33500000D03*
%TD*%
D12*
%TO.C,H8*%
X50000000Y-155250000D03*
D13*
X50000000Y-161250000D03*
%TD*%
D12*
%TO.C,H41*%
X112500000Y-111750000D03*
%TD*%
D15*
%TO.C,H15*%
X27800000Y-190250000D03*
X29460000Y-186220000D03*
X29470000Y-194290000D03*
X33500000Y-184550000D03*
D12*
X33500000Y-190250000D03*
D15*
X33500000Y-195950000D03*
X37530000Y-194290000D03*
X37540000Y-186220000D03*
X39200000Y-190250000D03*
%TD*%
D16*
%TO.C,H33*%
X130000000Y-85750000D03*
%TD*%
D17*
%TO.C,H32*%
X130000000Y-162400000D03*
D18*
X130000000Y-168500000D03*
%TD*%
D12*
%TO.C,H40*%
X112500000Y-83250000D03*
%TD*%
D17*
%TO.C,H14*%
X70000000Y-162400000D03*
D18*
X70000000Y-168500000D03*
%TD*%
D12*
%TO.C,H7*%
X50000000Y-121750000D03*
D13*
X50000000Y-127750000D03*
%TD*%
D15*
%TO.C,H60*%
X60800000Y-208750000D03*
X62460000Y-204720000D03*
X62470000Y-212790000D03*
X66500000Y-203050000D03*
D12*
X66500000Y-208750000D03*
D15*
X66500000Y-214450000D03*
X70530000Y-212790000D03*
X70540000Y-204720000D03*
X72200000Y-208750000D03*
%TD*%
%TO.C,H34*%
X144300000Y-190250000D03*
X145960000Y-186220000D03*
X145970000Y-194290000D03*
X150000000Y-184550000D03*
D12*
X150000000Y-190250000D03*
D15*
X150000000Y-195950000D03*
X154030000Y-194290000D03*
X154040000Y-186220000D03*
X155700000Y-190250000D03*
%TD*%
%TO.C,H37*%
X127800000Y-190250000D03*
X129460000Y-186220000D03*
X129470000Y-194290000D03*
X133500000Y-184550000D03*
D12*
X133500000Y-190250000D03*
D15*
X133500000Y-195950000D03*
X137530000Y-194290000D03*
X137540000Y-186220000D03*
X139200000Y-190250000D03*
%TD*%
D12*
%TO.C,H48*%
X150000000Y-121750000D03*
D13*
X150000000Y-127750000D03*
%TD*%
D15*
%TO.C,H62*%
X144300000Y-208750000D03*
X145960000Y-204720000D03*
X145970000Y-212790000D03*
X150000000Y-203050000D03*
D12*
X150000000Y-208750000D03*
D15*
X150000000Y-214450000D03*
X154030000Y-212790000D03*
X154040000Y-204720000D03*
X155700000Y-208750000D03*
%TD*%
D16*
%TO.C,H26*%
X70000000Y-116750000D03*
%TD*%
%TO.C,H24*%
X70000000Y-54750000D03*
%TD*%
%TO.C,H36*%
X130000000Y-116750000D03*
%TD*%
D15*
%TO.C,H44*%
X111300000Y-190250000D03*
X112960000Y-186220000D03*
X112970000Y-194290000D03*
X117000000Y-184550000D03*
D12*
X117000000Y-190250000D03*
D15*
X117000000Y-195950000D03*
X121030000Y-194290000D03*
X121040000Y-186220000D03*
X122700000Y-190250000D03*
%TD*%
D17*
%TO.C,H31*%
X115000000Y-162400000D03*
D18*
X115000000Y-168500000D03*
%TD*%
D15*
%TO.C,H23*%
X94300000Y-190250000D03*
X95960000Y-186220000D03*
X95970000Y-194290000D03*
X100000000Y-184550000D03*
D12*
X100000000Y-190250000D03*
D15*
X100000000Y-195950000D03*
X104030000Y-194290000D03*
X104040000Y-186220000D03*
X105700000Y-190250000D03*
%TD*%
D12*
%TO.C,H49*%
X150000000Y-155250000D03*
D13*
X150000000Y-161250000D03*
%TD*%
D12*
%TO.C,H11*%
X87500000Y-111750000D03*
%TD*%
D15*
%TO.C,H38*%
X160800000Y-208750000D03*
X162460000Y-204720000D03*
X162470000Y-212790000D03*
X166500000Y-203050000D03*
D12*
X166500000Y-208750000D03*
D15*
X166500000Y-214450000D03*
X170530000Y-212790000D03*
X170540000Y-204720000D03*
X172200000Y-208750000D03*
%TD*%
D12*
%TO.C,H46*%
X150000000Y-54750000D03*
D13*
X150000000Y-60750000D03*
%TD*%
D14*
%TO.C,H53*%
X71500000Y-226500000D03*
%TD*%
D15*
%TO.C,H29*%
X160800000Y-190250000D03*
X162460000Y-186220000D03*
X162470000Y-194290000D03*
X166500000Y-184550000D03*
D12*
X166500000Y-190250000D03*
D15*
X166500000Y-195950000D03*
X170530000Y-194290000D03*
X170540000Y-186220000D03*
X172200000Y-190250000D03*
%TD*%
D16*
%TO.C,H27*%
X70000000Y-147750000D03*
%TD*%
D12*
%TO.C,H6*%
X50000000Y-88250000D03*
D13*
X50000000Y-94250000D03*
%TD*%
D15*
%TO.C,H17*%
X60800000Y-190250000D03*
X62460000Y-186220000D03*
X62470000Y-194290000D03*
X66500000Y-184550000D03*
D12*
X66500000Y-190250000D03*
D15*
X66500000Y-195950000D03*
X70530000Y-194290000D03*
X70540000Y-186220000D03*
X72200000Y-190250000D03*
%TD*%
D16*
%TO.C,H43*%
X130000000Y-147750000D03*
%TD*%
D15*
%TO.C,H18*%
X77300000Y-190250000D03*
X78960000Y-186220000D03*
X78970000Y-194290000D03*
X83000000Y-184550000D03*
D12*
X83000000Y-190250000D03*
D15*
X83000000Y-195950000D03*
X87030000Y-194290000D03*
X87040000Y-186220000D03*
X88700000Y-190250000D03*
%TD*%
%TO.C,H30*%
X160800000Y-171750000D03*
X162460000Y-167720000D03*
X162470000Y-175790000D03*
X166500000Y-166050000D03*
D12*
X166500000Y-171750000D03*
D15*
X166500000Y-177450000D03*
X170530000Y-175790000D03*
X170540000Y-167720000D03*
X172200000Y-171750000D03*
%TD*%
D14*
%TO.C,H2*%
X171500000Y-33500000D03*
%TD*%
%TO.C,H4*%
X171500000Y-226500000D03*
%TD*%
D15*
%TO.C,H16*%
X44300000Y-190250000D03*
X45960000Y-186220000D03*
X45970000Y-194290000D03*
X50000000Y-184550000D03*
D12*
X50000000Y-190250000D03*
D15*
X50000000Y-195950000D03*
X54030000Y-194290000D03*
X54040000Y-186220000D03*
X55700000Y-190250000D03*
%TD*%
%TO.C,H19*%
X27800000Y-171750000D03*
X29460000Y-167720000D03*
X29470000Y-175790000D03*
X33500000Y-166050000D03*
D12*
X33500000Y-171750000D03*
D15*
X33500000Y-177450000D03*
X37530000Y-175790000D03*
X37540000Y-167720000D03*
X39200000Y-171750000D03*
%TD*%
D12*
%TO.C,H42*%
X112500000Y-140250000D03*
%TD*%
D15*
%TO.C,H61*%
X127800000Y-208750000D03*
X129460000Y-204720000D03*
X129470000Y-212790000D03*
X133500000Y-203050000D03*
D12*
X133500000Y-208750000D03*
D15*
X133500000Y-214450000D03*
X137530000Y-212790000D03*
X137540000Y-204720000D03*
X139200000Y-208750000D03*
%TD*%
D14*
%TO.C,H1*%
X28500000Y-33500000D03*
%TD*%
D16*
%TO.C,H28*%
X130000000Y-54750000D03*
%TD*%
D17*
%TO.C,H13*%
X85000000Y-162400000D03*
D18*
X85000000Y-168500000D03*
%TD*%
D15*
%TO.C,H50*%
X94300000Y-208750000D03*
X95960000Y-204720000D03*
X95970000Y-212790000D03*
X100000000Y-203050000D03*
D12*
X100000000Y-208750000D03*
D15*
X100000000Y-214450000D03*
X104030000Y-212790000D03*
X104040000Y-204720000D03*
X105700000Y-208750000D03*
%TD*%
D17*
%TO.C,H45*%
X100000000Y-162400000D03*
D18*
X100000000Y-168500000D03*
%TD*%
D16*
%TO.C,H25*%
X70000000Y-85750000D03*
%TD*%
D15*
%TO.C,H20*%
X77300000Y-208750000D03*
X78960000Y-204720000D03*
X78970000Y-212790000D03*
X83000000Y-203050000D03*
D12*
X83000000Y-208750000D03*
D15*
X83000000Y-214450000D03*
X87030000Y-212790000D03*
X87040000Y-204720000D03*
X88700000Y-208750000D03*
%TD*%
D12*
%TO.C,H39*%
X112500000Y-54750000D03*
%TD*%
D15*
%TO.C,H59*%
X44300000Y-208750000D03*
X45960000Y-204720000D03*
X45970000Y-212790000D03*
X50000000Y-203050000D03*
D12*
X50000000Y-208750000D03*
D15*
X50000000Y-214450000D03*
X54030000Y-212790000D03*
X54040000Y-204720000D03*
X55700000Y-208750000D03*
%TD*%
D12*
%TO.C,H5*%
X50000000Y-54750000D03*
D13*
X50000000Y-60750000D03*
%TD*%
D15*
%TO.C,H21*%
X27800000Y-208750000D03*
X29460000Y-204720000D03*
X29470000Y-212790000D03*
X33500000Y-203050000D03*
D12*
X33500000Y-208750000D03*
D15*
X33500000Y-214450000D03*
X37530000Y-212790000D03*
X37540000Y-204720000D03*
X39200000Y-208750000D03*
%TD*%
D19*
%TO.C,J0*%
X30000000Y-120000000D03*
%TD*%
%LPD*%
M02*
