%TF.GenerationSoftware,KiCad,Pcbnew,9.0.4*%
%TF.CreationDate,2025-10-03T19:57:34+02:00*%
%TF.ProjectId,DMH_VCEG_PANEL,444d485f-5643-4454-975f-50414e454c2e,rev?*%
%TF.SameCoordinates,Original*%
%TF.FileFunction,Drillmap*%
%TF.FilePolarity,Positive*%
%FSLAX45Y45*%
G04 Gerber Fmt 4.5, Leading zero omitted, Abs format (unit mm)*
G04 Created by KiCad (PCBNEW 9.0.4) date 2025-10-03 19:57:34*
%MOMM*%
%LPD*%
G01*
G04 APERTURE LIST*
%ADD10C,0.050000*%
%ADD11C,0.200000*%
%ADD12C,0.310000*%
G04 APERTURE END LIST*
D10*
X2500000Y-3000000D02*
X17500000Y-3000000D01*
X17500000Y-23000000D01*
X2500000Y-23000000D01*
X2500000Y-3000000D01*
X15350000Y-8825000D02*
G75*
G02*
X14650000Y-8825000I-350000J0D01*
G01*
X14650000Y-8825000D02*
G75*
G02*
X15350000Y-8825000I350000J0D01*
G01*
X9200000Y-5475000D02*
G75*
G02*
X8300000Y-5475000I-450000J0D01*
G01*
X8300000Y-5475000D02*
G75*
G02*
X9200000Y-5475000I450000J0D01*
G01*
X12190000Y-20875000D02*
G75*
G02*
X11210000Y-20875000I-490000J0D01*
G01*
X11210000Y-20875000D02*
G75*
G02*
X12190000Y-20875000I490000J0D01*
G01*
X9200000Y-14025000D02*
G75*
G02*
X8300000Y-14025000I-450000J0D01*
G01*
X8300000Y-14025000D02*
G75*
G02*
X9200000Y-14025000I450000J0D01*
G01*
X9200000Y-8325000D02*
G75*
G02*
X8300000Y-8325000I-450000J0D01*
G01*
X8300000Y-8325000D02*
G75*
G02*
X9200000Y-8325000I450000J0D01*
G01*
X5350000Y-15525000D02*
G75*
G02*
X4650000Y-15525000I-350000J0D01*
G01*
X4650000Y-15525000D02*
G75*
G02*
X5350000Y-15525000I350000J0D01*
G01*
X11700000Y-11175000D02*
G75*
G02*
X10800000Y-11175000I-450000J0D01*
G01*
X10800000Y-11175000D02*
G75*
G02*
X11700000Y-11175000I450000J0D01*
G01*
X3840000Y-19025000D02*
G75*
G02*
X2860000Y-19025000I-490000J0D01*
G01*
X2860000Y-19025000D02*
G75*
G02*
X3840000Y-19025000I490000J0D01*
G01*
X11700000Y-8325000D02*
G75*
G02*
X10800000Y-8325000I-450000J0D01*
G01*
X10800000Y-8325000D02*
G75*
G02*
X11700000Y-8325000I450000J0D01*
G01*
X5350000Y-12175000D02*
G75*
G02*
X4650000Y-12175000I-350000J0D01*
G01*
X4650000Y-12175000D02*
G75*
G02*
X5350000Y-12175000I350000J0D01*
G01*
X7140000Y-20875000D02*
G75*
G02*
X6160000Y-20875000I-490000J0D01*
G01*
X6160000Y-20875000D02*
G75*
G02*
X7140000Y-20875000I490000J0D01*
G01*
X15490000Y-19025000D02*
G75*
G02*
X14510000Y-19025000I-490000J0D01*
G01*
X14510000Y-19025000D02*
G75*
G02*
X15490000Y-19025000I490000J0D01*
G01*
X13840000Y-19025000D02*
G75*
G02*
X12860000Y-19025000I-490000J0D01*
G01*
X12860000Y-19025000D02*
G75*
G02*
X13840000Y-19025000I490000J0D01*
G01*
X15350000Y-12175000D02*
G75*
G02*
X14650000Y-12175000I-350000J0D01*
G01*
X14650000Y-12175000D02*
G75*
G02*
X15350000Y-12175000I350000J0D01*
G01*
X15490000Y-20875000D02*
G75*
G02*
X14510000Y-20875000I-490000J0D01*
G01*
X14510000Y-20875000D02*
G75*
G02*
X15490000Y-20875000I490000J0D01*
G01*
X12190000Y-19025000D02*
G75*
G02*
X11210000Y-19025000I-490000J0D01*
G01*
X11210000Y-19025000D02*
G75*
G02*
X12190000Y-19025000I490000J0D01*
G01*
X10490000Y-19025000D02*
G75*
G02*
X9510000Y-19025000I-490000J0D01*
G01*
X9510000Y-19025000D02*
G75*
G02*
X10490000Y-19025000I490000J0D01*
G01*
X15350000Y-15525000D02*
G75*
G02*
X14650000Y-15525000I-350000J0D01*
G01*
X14650000Y-15525000D02*
G75*
G02*
X15350000Y-15525000I350000J0D01*
G01*
X9200000Y-11175000D02*
G75*
G02*
X8300000Y-11175000I-450000J0D01*
G01*
X8300000Y-11175000D02*
G75*
G02*
X9200000Y-11175000I450000J0D01*
G01*
X17140000Y-20875000D02*
G75*
G02*
X16160000Y-20875000I-490000J0D01*
G01*
X16160000Y-20875000D02*
G75*
G02*
X17140000Y-20875000I490000J0D01*
G01*
X15350000Y-5475000D02*
G75*
G02*
X14650000Y-5475000I-350000J0D01*
G01*
X14650000Y-5475000D02*
G75*
G02*
X15350000Y-5475000I350000J0D01*
G01*
X17140000Y-19025000D02*
G75*
G02*
X16160000Y-19025000I-490000J0D01*
G01*
X16160000Y-19025000D02*
G75*
G02*
X17140000Y-19025000I490000J0D01*
G01*
X5350000Y-8825000D02*
G75*
G02*
X4650000Y-8825000I-350000J0D01*
G01*
X4650000Y-8825000D02*
G75*
G02*
X5350000Y-8825000I350000J0D01*
G01*
X7140000Y-19025000D02*
G75*
G02*
X6160000Y-19025000I-490000J0D01*
G01*
X6160000Y-19025000D02*
G75*
G02*
X7140000Y-19025000I490000J0D01*
G01*
X8790000Y-19025000D02*
G75*
G02*
X7810000Y-19025000I-490000J0D01*
G01*
X7810000Y-19025000D02*
G75*
G02*
X8790000Y-19025000I490000J0D01*
G01*
X17140000Y-17175000D02*
G75*
G02*
X16160000Y-17175000I-490000J0D01*
G01*
X16160000Y-17175000D02*
G75*
G02*
X17140000Y-17175000I490000J0D01*
G01*
X5490000Y-19025000D02*
G75*
G02*
X4510000Y-19025000I-490000J0D01*
G01*
X4510000Y-19025000D02*
G75*
G02*
X5490000Y-19025000I490000J0D01*
G01*
X3840000Y-17175000D02*
G75*
G02*
X2860000Y-17175000I-490000J0D01*
G01*
X2860000Y-17175000D02*
G75*
G02*
X3840000Y-17175000I490000J0D01*
G01*
X11700000Y-14025000D02*
G75*
G02*
X10800000Y-14025000I-450000J0D01*
G01*
X10800000Y-14025000D02*
G75*
G02*
X11700000Y-14025000I450000J0D01*
G01*
X13840000Y-20875000D02*
G75*
G02*
X12860000Y-20875000I-490000J0D01*
G01*
X12860000Y-20875000D02*
G75*
G02*
X13840000Y-20875000I490000J0D01*
G01*
X10490000Y-20875000D02*
G75*
G02*
X9510000Y-20875000I-490000J0D01*
G01*
X9510000Y-20875000D02*
G75*
G02*
X10490000Y-20875000I490000J0D01*
G01*
X8790000Y-20875000D02*
G75*
G02*
X7810000Y-20875000I-490000J0D01*
G01*
X7810000Y-20875000D02*
G75*
G02*
X8790000Y-20875000I490000J0D01*
G01*
X11700000Y-5475000D02*
G75*
G02*
X10800000Y-5475000I-450000J0D01*
G01*
X10800000Y-5475000D02*
G75*
G02*
X11700000Y-5475000I450000J0D01*
G01*
X5490000Y-20875000D02*
G75*
G02*
X4510000Y-20875000I-490000J0D01*
G01*
X4510000Y-20875000D02*
G75*
G02*
X5490000Y-20875000I490000J0D01*
G01*
X5350000Y-5475000D02*
G75*
G02*
X4650000Y-5475000I-350000J0D01*
G01*
X4650000Y-5475000D02*
G75*
G02*
X5350000Y-5475000I350000J0D01*
G01*
X3840000Y-20875000D02*
G75*
G02*
X2860000Y-20875000I-490000J0D01*
G01*
X2860000Y-20875000D02*
G75*
G02*
X3840000Y-20875000I490000J0D01*
G01*
D11*
D12*
X6845000Y-5320000D02*
X7155000Y-5630000D01*
X7155000Y-5320000D02*
X6845000Y-5630000D01*
X6845000Y-8420000D02*
X7155000Y-8730000D01*
X7155000Y-8420000D02*
X6845000Y-8730000D01*
X6845000Y-11520000D02*
X7155000Y-11830000D01*
X7155000Y-11520000D02*
X6845000Y-11830000D01*
X6845000Y-14620000D02*
X7155000Y-14930000D01*
X7155000Y-14620000D02*
X6845000Y-14930000D01*
X12845000Y-5320000D02*
X13155000Y-5630000D01*
X13155000Y-5320000D02*
X12845000Y-5630000D01*
X12845000Y-8420000D02*
X13155000Y-8730000D01*
X13155000Y-8420000D02*
X12845000Y-8730000D01*
X12845000Y-11520000D02*
X13155000Y-11830000D01*
X13155000Y-11520000D02*
X12845000Y-11830000D01*
X12845000Y-14620000D02*
X13155000Y-14930000D01*
X13155000Y-14620000D02*
X12845000Y-14930000D01*
D11*
X2758277Y-23313984D02*
X2758277Y-23113984D01*
X2758277Y-23113984D02*
X2805896Y-23113984D01*
X2805896Y-23113984D02*
X2834467Y-23123508D01*
X2834467Y-23123508D02*
X2853515Y-23142555D01*
X2853515Y-23142555D02*
X2863039Y-23161603D01*
X2863039Y-23161603D02*
X2872562Y-23199698D01*
X2872562Y-23199698D02*
X2872562Y-23228269D01*
X2872562Y-23228269D02*
X2863039Y-23266365D01*
X2863039Y-23266365D02*
X2853515Y-23285412D01*
X2853515Y-23285412D02*
X2834467Y-23304460D01*
X2834467Y-23304460D02*
X2805896Y-23313984D01*
X2805896Y-23313984D02*
X2758277Y-23313984D01*
X2958277Y-23313984D02*
X2958277Y-23180650D01*
X2958277Y-23218746D02*
X2967801Y-23199698D01*
X2967801Y-23199698D02*
X2977324Y-23190174D01*
X2977324Y-23190174D02*
X2996372Y-23180650D01*
X2996372Y-23180650D02*
X3015420Y-23180650D01*
X3082086Y-23313984D02*
X3082086Y-23180650D01*
X3082086Y-23113984D02*
X3072562Y-23123508D01*
X3072562Y-23123508D02*
X3082086Y-23133031D01*
X3082086Y-23133031D02*
X3091610Y-23123508D01*
X3091610Y-23123508D02*
X3082086Y-23113984D01*
X3082086Y-23113984D02*
X3082086Y-23133031D01*
X3205896Y-23313984D02*
X3186848Y-23304460D01*
X3186848Y-23304460D02*
X3177324Y-23285412D01*
X3177324Y-23285412D02*
X3177324Y-23113984D01*
X3310658Y-23313984D02*
X3291610Y-23304460D01*
X3291610Y-23304460D02*
X3282086Y-23285412D01*
X3282086Y-23285412D02*
X3282086Y-23113984D01*
X3539229Y-23313984D02*
X3539229Y-23113984D01*
X3539229Y-23113984D02*
X3605896Y-23256841D01*
X3605896Y-23256841D02*
X3672562Y-23113984D01*
X3672562Y-23113984D02*
X3672562Y-23313984D01*
X3853515Y-23313984D02*
X3853515Y-23209222D01*
X3853515Y-23209222D02*
X3843991Y-23190174D01*
X3843991Y-23190174D02*
X3824943Y-23180650D01*
X3824943Y-23180650D02*
X3786848Y-23180650D01*
X3786848Y-23180650D02*
X3767801Y-23190174D01*
X3853515Y-23304460D02*
X3834467Y-23313984D01*
X3834467Y-23313984D02*
X3786848Y-23313984D01*
X3786848Y-23313984D02*
X3767801Y-23304460D01*
X3767801Y-23304460D02*
X3758277Y-23285412D01*
X3758277Y-23285412D02*
X3758277Y-23266365D01*
X3758277Y-23266365D02*
X3767801Y-23247317D01*
X3767801Y-23247317D02*
X3786848Y-23237793D01*
X3786848Y-23237793D02*
X3834467Y-23237793D01*
X3834467Y-23237793D02*
X3853515Y-23228269D01*
X3948753Y-23180650D02*
X3948753Y-23380650D01*
X3948753Y-23190174D02*
X3967801Y-23180650D01*
X3967801Y-23180650D02*
X4005896Y-23180650D01*
X4005896Y-23180650D02*
X4024943Y-23190174D01*
X4024943Y-23190174D02*
X4034467Y-23199698D01*
X4034467Y-23199698D02*
X4043991Y-23218746D01*
X4043991Y-23218746D02*
X4043991Y-23275888D01*
X4043991Y-23275888D02*
X4034467Y-23294936D01*
X4034467Y-23294936D02*
X4024943Y-23304460D01*
X4024943Y-23304460D02*
X4005896Y-23313984D01*
X4005896Y-23313984D02*
X3967801Y-23313984D01*
X3967801Y-23313984D02*
X3948753Y-23304460D01*
X4129705Y-23294936D02*
X4139229Y-23304460D01*
X4139229Y-23304460D02*
X4129705Y-23313984D01*
X4129705Y-23313984D02*
X4120182Y-23304460D01*
X4120182Y-23304460D02*
X4129705Y-23294936D01*
X4129705Y-23294936D02*
X4129705Y-23313984D01*
X4129705Y-23190174D02*
X4139229Y-23199698D01*
X4139229Y-23199698D02*
X4129705Y-23209222D01*
X4129705Y-23209222D02*
X4120182Y-23199698D01*
X4120182Y-23199698D02*
X4129705Y-23190174D01*
X4129705Y-23190174D02*
X4129705Y-23209222D01*
X2297500Y-23542500D02*
X2497500Y-23742500D01*
X2497500Y-23542500D02*
X2297500Y-23742500D01*
X2739229Y-23533984D02*
X2863039Y-23533984D01*
X2863039Y-23533984D02*
X2796372Y-23610174D01*
X2796372Y-23610174D02*
X2824943Y-23610174D01*
X2824943Y-23610174D02*
X2843991Y-23619698D01*
X2843991Y-23619698D02*
X2853515Y-23629222D01*
X2853515Y-23629222D02*
X2863039Y-23648269D01*
X2863039Y-23648269D02*
X2863039Y-23695888D01*
X2863039Y-23695888D02*
X2853515Y-23714936D01*
X2853515Y-23714936D02*
X2843991Y-23724460D01*
X2843991Y-23724460D02*
X2824943Y-23733984D01*
X2824943Y-23733984D02*
X2767801Y-23733984D01*
X2767801Y-23733984D02*
X2748753Y-23724460D01*
X2748753Y-23724460D02*
X2739229Y-23714936D01*
X2948753Y-23714936D02*
X2958277Y-23724460D01*
X2958277Y-23724460D02*
X2948753Y-23733984D01*
X2948753Y-23733984D02*
X2939229Y-23724460D01*
X2939229Y-23724460D02*
X2948753Y-23714936D01*
X2948753Y-23714936D02*
X2948753Y-23733984D01*
X3148753Y-23733984D02*
X3034467Y-23733984D01*
X3091610Y-23733984D02*
X3091610Y-23533984D01*
X3091610Y-23533984D02*
X3072562Y-23562555D01*
X3072562Y-23562555D02*
X3053515Y-23581603D01*
X3053515Y-23581603D02*
X3034467Y-23591127D01*
X3272562Y-23533984D02*
X3291610Y-23533984D01*
X3291610Y-23533984D02*
X3310658Y-23543508D01*
X3310658Y-23543508D02*
X3320182Y-23553031D01*
X3320182Y-23553031D02*
X3329705Y-23572079D01*
X3329705Y-23572079D02*
X3339229Y-23610174D01*
X3339229Y-23610174D02*
X3339229Y-23657793D01*
X3339229Y-23657793D02*
X3329705Y-23695888D01*
X3329705Y-23695888D02*
X3320182Y-23714936D01*
X3320182Y-23714936D02*
X3310658Y-23724460D01*
X3310658Y-23724460D02*
X3291610Y-23733984D01*
X3291610Y-23733984D02*
X3272562Y-23733984D01*
X3272562Y-23733984D02*
X3253515Y-23724460D01*
X3253515Y-23724460D02*
X3243991Y-23714936D01*
X3243991Y-23714936D02*
X3234467Y-23695888D01*
X3234467Y-23695888D02*
X3224943Y-23657793D01*
X3224943Y-23657793D02*
X3224943Y-23610174D01*
X3224943Y-23610174D02*
X3234467Y-23572079D01*
X3234467Y-23572079D02*
X3243991Y-23553031D01*
X3243991Y-23553031D02*
X3253515Y-23543508D01*
X3253515Y-23543508D02*
X3272562Y-23533984D01*
X3463039Y-23533984D02*
X3482086Y-23533984D01*
X3482086Y-23533984D02*
X3501134Y-23543508D01*
X3501134Y-23543508D02*
X3510658Y-23553031D01*
X3510658Y-23553031D02*
X3520182Y-23572079D01*
X3520182Y-23572079D02*
X3529705Y-23610174D01*
X3529705Y-23610174D02*
X3529705Y-23657793D01*
X3529705Y-23657793D02*
X3520182Y-23695888D01*
X3520182Y-23695888D02*
X3510658Y-23714936D01*
X3510658Y-23714936D02*
X3501134Y-23724460D01*
X3501134Y-23724460D02*
X3482086Y-23733984D01*
X3482086Y-23733984D02*
X3463039Y-23733984D01*
X3463039Y-23733984D02*
X3443991Y-23724460D01*
X3443991Y-23724460D02*
X3434467Y-23714936D01*
X3434467Y-23714936D02*
X3424943Y-23695888D01*
X3424943Y-23695888D02*
X3415420Y-23657793D01*
X3415420Y-23657793D02*
X3415420Y-23610174D01*
X3415420Y-23610174D02*
X3424943Y-23572079D01*
X3424943Y-23572079D02*
X3434467Y-23553031D01*
X3434467Y-23553031D02*
X3443991Y-23543508D01*
X3443991Y-23543508D02*
X3463039Y-23533984D01*
X3615420Y-23733984D02*
X3615420Y-23600650D01*
X3615420Y-23619698D02*
X3624943Y-23610174D01*
X3624943Y-23610174D02*
X3643991Y-23600650D01*
X3643991Y-23600650D02*
X3672563Y-23600650D01*
X3672563Y-23600650D02*
X3691610Y-23610174D01*
X3691610Y-23610174D02*
X3701134Y-23629222D01*
X3701134Y-23629222D02*
X3701134Y-23733984D01*
X3701134Y-23629222D02*
X3710658Y-23610174D01*
X3710658Y-23610174D02*
X3729705Y-23600650D01*
X3729705Y-23600650D02*
X3758277Y-23600650D01*
X3758277Y-23600650D02*
X3777324Y-23610174D01*
X3777324Y-23610174D02*
X3786848Y-23629222D01*
X3786848Y-23629222D02*
X3786848Y-23733984D01*
X3882086Y-23733984D02*
X3882086Y-23600650D01*
X3882086Y-23619698D02*
X3891610Y-23610174D01*
X3891610Y-23610174D02*
X3910658Y-23600650D01*
X3910658Y-23600650D02*
X3939229Y-23600650D01*
X3939229Y-23600650D02*
X3958277Y-23610174D01*
X3958277Y-23610174D02*
X3967801Y-23629222D01*
X3967801Y-23629222D02*
X3967801Y-23733984D01*
X3967801Y-23629222D02*
X3977324Y-23610174D01*
X3977324Y-23610174D02*
X3996372Y-23600650D01*
X3996372Y-23600650D02*
X4024943Y-23600650D01*
X4024943Y-23600650D02*
X4043991Y-23610174D01*
X4043991Y-23610174D02*
X4053515Y-23629222D01*
X4053515Y-23629222D02*
X4053515Y-23733984D01*
X4443991Y-23524460D02*
X4272563Y-23781603D01*
X4701134Y-23533984D02*
X4720182Y-23533984D01*
X4720182Y-23533984D02*
X4739229Y-23543508D01*
X4739229Y-23543508D02*
X4748753Y-23553031D01*
X4748753Y-23553031D02*
X4758277Y-23572079D01*
X4758277Y-23572079D02*
X4767801Y-23610174D01*
X4767801Y-23610174D02*
X4767801Y-23657793D01*
X4767801Y-23657793D02*
X4758277Y-23695888D01*
X4758277Y-23695888D02*
X4748753Y-23714936D01*
X4748753Y-23714936D02*
X4739229Y-23724460D01*
X4739229Y-23724460D02*
X4720182Y-23733984D01*
X4720182Y-23733984D02*
X4701134Y-23733984D01*
X4701134Y-23733984D02*
X4682087Y-23724460D01*
X4682087Y-23724460D02*
X4672563Y-23714936D01*
X4672563Y-23714936D02*
X4663039Y-23695888D01*
X4663039Y-23695888D02*
X4653515Y-23657793D01*
X4653515Y-23657793D02*
X4653515Y-23610174D01*
X4653515Y-23610174D02*
X4663039Y-23572079D01*
X4663039Y-23572079D02*
X4672563Y-23553031D01*
X4672563Y-23553031D02*
X4682087Y-23543508D01*
X4682087Y-23543508D02*
X4701134Y-23533984D01*
X4853515Y-23714936D02*
X4863039Y-23724460D01*
X4863039Y-23724460D02*
X4853515Y-23733984D01*
X4853515Y-23733984D02*
X4843991Y-23724460D01*
X4843991Y-23724460D02*
X4853515Y-23714936D01*
X4853515Y-23714936D02*
X4853515Y-23733984D01*
X5053515Y-23733984D02*
X4939229Y-23733984D01*
X4996372Y-23733984D02*
X4996372Y-23533984D01*
X4996372Y-23533984D02*
X4977325Y-23562555D01*
X4977325Y-23562555D02*
X4958277Y-23581603D01*
X4958277Y-23581603D02*
X4939229Y-23591127D01*
X5129706Y-23553031D02*
X5139229Y-23543508D01*
X5139229Y-23543508D02*
X5158277Y-23533984D01*
X5158277Y-23533984D02*
X5205896Y-23533984D01*
X5205896Y-23533984D02*
X5224944Y-23543508D01*
X5224944Y-23543508D02*
X5234468Y-23553031D01*
X5234468Y-23553031D02*
X5243991Y-23572079D01*
X5243991Y-23572079D02*
X5243991Y-23591127D01*
X5243991Y-23591127D02*
X5234468Y-23619698D01*
X5234468Y-23619698D02*
X5120182Y-23733984D01*
X5120182Y-23733984D02*
X5243991Y-23733984D01*
X5320182Y-23553031D02*
X5329706Y-23543508D01*
X5329706Y-23543508D02*
X5348753Y-23533984D01*
X5348753Y-23533984D02*
X5396372Y-23533984D01*
X5396372Y-23533984D02*
X5415420Y-23543508D01*
X5415420Y-23543508D02*
X5424944Y-23553031D01*
X5424944Y-23553031D02*
X5434468Y-23572079D01*
X5434468Y-23572079D02*
X5434468Y-23591127D01*
X5434468Y-23591127D02*
X5424944Y-23619698D01*
X5424944Y-23619698D02*
X5310658Y-23733984D01*
X5310658Y-23733984D02*
X5434468Y-23733984D01*
X5558277Y-23533984D02*
X5577325Y-23533984D01*
X5577325Y-23533984D02*
X5596372Y-23543508D01*
X5596372Y-23543508D02*
X5605896Y-23553031D01*
X5605896Y-23553031D02*
X5615420Y-23572079D01*
X5615420Y-23572079D02*
X5624944Y-23610174D01*
X5624944Y-23610174D02*
X5624944Y-23657793D01*
X5624944Y-23657793D02*
X5615420Y-23695888D01*
X5615420Y-23695888D02*
X5605896Y-23714936D01*
X5605896Y-23714936D02*
X5596372Y-23724460D01*
X5596372Y-23724460D02*
X5577325Y-23733984D01*
X5577325Y-23733984D02*
X5558277Y-23733984D01*
X5558277Y-23733984D02*
X5539229Y-23724460D01*
X5539229Y-23724460D02*
X5529706Y-23714936D01*
X5529706Y-23714936D02*
X5520182Y-23695888D01*
X5520182Y-23695888D02*
X5510658Y-23657793D01*
X5510658Y-23657793D02*
X5510658Y-23610174D01*
X5510658Y-23610174D02*
X5520182Y-23572079D01*
X5520182Y-23572079D02*
X5529706Y-23553031D01*
X5529706Y-23553031D02*
X5539229Y-23543508D01*
X5539229Y-23543508D02*
X5558277Y-23533984D01*
X5701134Y-23533984D02*
X5701134Y-23572079D01*
X5777325Y-23533984D02*
X5777325Y-23572079D01*
X6072563Y-23810174D02*
X6063039Y-23800650D01*
X6063039Y-23800650D02*
X6043991Y-23772079D01*
X6043991Y-23772079D02*
X6034468Y-23753031D01*
X6034468Y-23753031D02*
X6024944Y-23724460D01*
X6024944Y-23724460D02*
X6015420Y-23676841D01*
X6015420Y-23676841D02*
X6015420Y-23638746D01*
X6015420Y-23638746D02*
X6024944Y-23591127D01*
X6024944Y-23591127D02*
X6034468Y-23562555D01*
X6034468Y-23562555D02*
X6043991Y-23543508D01*
X6043991Y-23543508D02*
X6063039Y-23514936D01*
X6063039Y-23514936D02*
X6072563Y-23505412D01*
X6177325Y-23619698D02*
X6158277Y-23610174D01*
X6158277Y-23610174D02*
X6148753Y-23600650D01*
X6148753Y-23600650D02*
X6139229Y-23581603D01*
X6139229Y-23581603D02*
X6139229Y-23572079D01*
X6139229Y-23572079D02*
X6148753Y-23553031D01*
X6148753Y-23553031D02*
X6158277Y-23543508D01*
X6158277Y-23543508D02*
X6177325Y-23533984D01*
X6177325Y-23533984D02*
X6215420Y-23533984D01*
X6215420Y-23533984D02*
X6234468Y-23543508D01*
X6234468Y-23543508D02*
X6243991Y-23553031D01*
X6243991Y-23553031D02*
X6253515Y-23572079D01*
X6253515Y-23572079D02*
X6253515Y-23581603D01*
X6253515Y-23581603D02*
X6243991Y-23600650D01*
X6243991Y-23600650D02*
X6234468Y-23610174D01*
X6234468Y-23610174D02*
X6215420Y-23619698D01*
X6215420Y-23619698D02*
X6177325Y-23619698D01*
X6177325Y-23619698D02*
X6158277Y-23629222D01*
X6158277Y-23629222D02*
X6148753Y-23638746D01*
X6148753Y-23638746D02*
X6139229Y-23657793D01*
X6139229Y-23657793D02*
X6139229Y-23695888D01*
X6139229Y-23695888D02*
X6148753Y-23714936D01*
X6148753Y-23714936D02*
X6158277Y-23724460D01*
X6158277Y-23724460D02*
X6177325Y-23733984D01*
X6177325Y-23733984D02*
X6215420Y-23733984D01*
X6215420Y-23733984D02*
X6234468Y-23724460D01*
X6234468Y-23724460D02*
X6243991Y-23714936D01*
X6243991Y-23714936D02*
X6253515Y-23695888D01*
X6253515Y-23695888D02*
X6253515Y-23657793D01*
X6253515Y-23657793D02*
X6243991Y-23638746D01*
X6243991Y-23638746D02*
X6234468Y-23629222D01*
X6234468Y-23629222D02*
X6215420Y-23619698D01*
X6491610Y-23733984D02*
X6491610Y-23533984D01*
X6577325Y-23733984D02*
X6577325Y-23629222D01*
X6577325Y-23629222D02*
X6567801Y-23610174D01*
X6567801Y-23610174D02*
X6548753Y-23600650D01*
X6548753Y-23600650D02*
X6520182Y-23600650D01*
X6520182Y-23600650D02*
X6501134Y-23610174D01*
X6501134Y-23610174D02*
X6491610Y-23619698D01*
X6701134Y-23733984D02*
X6682087Y-23724460D01*
X6682087Y-23724460D02*
X6672563Y-23714936D01*
X6672563Y-23714936D02*
X6663039Y-23695888D01*
X6663039Y-23695888D02*
X6663039Y-23638746D01*
X6663039Y-23638746D02*
X6672563Y-23619698D01*
X6672563Y-23619698D02*
X6682087Y-23610174D01*
X6682087Y-23610174D02*
X6701134Y-23600650D01*
X6701134Y-23600650D02*
X6729706Y-23600650D01*
X6729706Y-23600650D02*
X6748753Y-23610174D01*
X6748753Y-23610174D02*
X6758277Y-23619698D01*
X6758277Y-23619698D02*
X6767801Y-23638746D01*
X6767801Y-23638746D02*
X6767801Y-23695888D01*
X6767801Y-23695888D02*
X6758277Y-23714936D01*
X6758277Y-23714936D02*
X6748753Y-23724460D01*
X6748753Y-23724460D02*
X6729706Y-23733984D01*
X6729706Y-23733984D02*
X6701134Y-23733984D01*
X6882087Y-23733984D02*
X6863039Y-23724460D01*
X6863039Y-23724460D02*
X6853515Y-23705412D01*
X6853515Y-23705412D02*
X6853515Y-23533984D01*
X7034468Y-23724460D02*
X7015420Y-23733984D01*
X7015420Y-23733984D02*
X6977325Y-23733984D01*
X6977325Y-23733984D02*
X6958277Y-23724460D01*
X6958277Y-23724460D02*
X6948753Y-23705412D01*
X6948753Y-23705412D02*
X6948753Y-23629222D01*
X6948753Y-23629222D02*
X6958277Y-23610174D01*
X6958277Y-23610174D02*
X6977325Y-23600650D01*
X6977325Y-23600650D02*
X7015420Y-23600650D01*
X7015420Y-23600650D02*
X7034468Y-23610174D01*
X7034468Y-23610174D02*
X7043991Y-23629222D01*
X7043991Y-23629222D02*
X7043991Y-23648269D01*
X7043991Y-23648269D02*
X6948753Y-23667317D01*
X7120182Y-23724460D02*
X7139230Y-23733984D01*
X7139230Y-23733984D02*
X7177325Y-23733984D01*
X7177325Y-23733984D02*
X7196372Y-23724460D01*
X7196372Y-23724460D02*
X7205896Y-23705412D01*
X7205896Y-23705412D02*
X7205896Y-23695888D01*
X7205896Y-23695888D02*
X7196372Y-23676841D01*
X7196372Y-23676841D02*
X7177325Y-23667317D01*
X7177325Y-23667317D02*
X7148753Y-23667317D01*
X7148753Y-23667317D02*
X7129706Y-23657793D01*
X7129706Y-23657793D02*
X7120182Y-23638746D01*
X7120182Y-23638746D02*
X7120182Y-23629222D01*
X7120182Y-23629222D02*
X7129706Y-23610174D01*
X7129706Y-23610174D02*
X7148753Y-23600650D01*
X7148753Y-23600650D02*
X7177325Y-23600650D01*
X7177325Y-23600650D02*
X7196372Y-23610174D01*
X7272563Y-23810174D02*
X7282087Y-23800650D01*
X7282087Y-23800650D02*
X7301134Y-23772079D01*
X7301134Y-23772079D02*
X7310658Y-23753031D01*
X7310658Y-23753031D02*
X7320182Y-23724460D01*
X7320182Y-23724460D02*
X7329706Y-23676841D01*
X7329706Y-23676841D02*
X7329706Y-23638746D01*
X7329706Y-23638746D02*
X7320182Y-23591127D01*
X7320182Y-23591127D02*
X7310658Y-23562555D01*
X7310658Y-23562555D02*
X7301134Y-23543508D01*
X7301134Y-23543508D02*
X7282087Y-23514936D01*
X7282087Y-23514936D02*
X7272563Y-23505412D01*
X7634468Y-23810174D02*
X7624944Y-23800650D01*
X7624944Y-23800650D02*
X7605896Y-23772079D01*
X7605896Y-23772079D02*
X7596372Y-23753031D01*
X7596372Y-23753031D02*
X7586849Y-23724460D01*
X7586849Y-23724460D02*
X7577325Y-23676841D01*
X7577325Y-23676841D02*
X7577325Y-23638746D01*
X7577325Y-23638746D02*
X7586849Y-23591127D01*
X7586849Y-23591127D02*
X7596372Y-23562555D01*
X7596372Y-23562555D02*
X7605896Y-23543508D01*
X7605896Y-23543508D02*
X7624944Y-23514936D01*
X7624944Y-23514936D02*
X7634468Y-23505412D01*
X7710658Y-23600650D02*
X7710658Y-23733984D01*
X7710658Y-23619698D02*
X7720182Y-23610174D01*
X7720182Y-23610174D02*
X7739230Y-23600650D01*
X7739230Y-23600650D02*
X7767801Y-23600650D01*
X7767801Y-23600650D02*
X7786849Y-23610174D01*
X7786849Y-23610174D02*
X7796372Y-23629222D01*
X7796372Y-23629222D02*
X7796372Y-23733984D01*
X7920182Y-23733984D02*
X7901134Y-23724460D01*
X7901134Y-23724460D02*
X7891611Y-23714936D01*
X7891611Y-23714936D02*
X7882087Y-23695888D01*
X7882087Y-23695888D02*
X7882087Y-23638746D01*
X7882087Y-23638746D02*
X7891611Y-23619698D01*
X7891611Y-23619698D02*
X7901134Y-23610174D01*
X7901134Y-23610174D02*
X7920182Y-23600650D01*
X7920182Y-23600650D02*
X7948753Y-23600650D01*
X7948753Y-23600650D02*
X7967801Y-23610174D01*
X7967801Y-23610174D02*
X7977325Y-23619698D01*
X7977325Y-23619698D02*
X7986849Y-23638746D01*
X7986849Y-23638746D02*
X7986849Y-23695888D01*
X7986849Y-23695888D02*
X7977325Y-23714936D01*
X7977325Y-23714936D02*
X7967801Y-23724460D01*
X7967801Y-23724460D02*
X7948753Y-23733984D01*
X7948753Y-23733984D02*
X7920182Y-23733984D01*
X8043992Y-23600650D02*
X8120182Y-23600650D01*
X8072563Y-23533984D02*
X8072563Y-23705412D01*
X8072563Y-23705412D02*
X8082087Y-23724460D01*
X8082087Y-23724460D02*
X8101134Y-23733984D01*
X8101134Y-23733984D02*
X8120182Y-23733984D01*
X8339230Y-23600650D02*
X8339230Y-23800650D01*
X8339230Y-23610174D02*
X8358277Y-23600650D01*
X8358277Y-23600650D02*
X8396373Y-23600650D01*
X8396373Y-23600650D02*
X8415420Y-23610174D01*
X8415420Y-23610174D02*
X8424944Y-23619698D01*
X8424944Y-23619698D02*
X8434468Y-23638746D01*
X8434468Y-23638746D02*
X8434468Y-23695888D01*
X8434468Y-23695888D02*
X8424944Y-23714936D01*
X8424944Y-23714936D02*
X8415420Y-23724460D01*
X8415420Y-23724460D02*
X8396373Y-23733984D01*
X8396373Y-23733984D02*
X8358277Y-23733984D01*
X8358277Y-23733984D02*
X8339230Y-23724460D01*
X8548754Y-23733984D02*
X8529706Y-23724460D01*
X8529706Y-23724460D02*
X8520182Y-23705412D01*
X8520182Y-23705412D02*
X8520182Y-23533984D01*
X8710658Y-23733984D02*
X8710658Y-23629222D01*
X8710658Y-23629222D02*
X8701135Y-23610174D01*
X8701135Y-23610174D02*
X8682087Y-23600650D01*
X8682087Y-23600650D02*
X8643992Y-23600650D01*
X8643992Y-23600650D02*
X8624944Y-23610174D01*
X8710658Y-23724460D02*
X8691611Y-23733984D01*
X8691611Y-23733984D02*
X8643992Y-23733984D01*
X8643992Y-23733984D02*
X8624944Y-23724460D01*
X8624944Y-23724460D02*
X8615420Y-23705412D01*
X8615420Y-23705412D02*
X8615420Y-23686365D01*
X8615420Y-23686365D02*
X8624944Y-23667317D01*
X8624944Y-23667317D02*
X8643992Y-23657793D01*
X8643992Y-23657793D02*
X8691611Y-23657793D01*
X8691611Y-23657793D02*
X8710658Y-23648269D01*
X8777325Y-23600650D02*
X8853515Y-23600650D01*
X8805896Y-23533984D02*
X8805896Y-23705412D01*
X8805896Y-23705412D02*
X8815420Y-23724460D01*
X8815420Y-23724460D02*
X8834468Y-23733984D01*
X8834468Y-23733984D02*
X8853515Y-23733984D01*
X8996373Y-23724460D02*
X8977325Y-23733984D01*
X8977325Y-23733984D02*
X8939230Y-23733984D01*
X8939230Y-23733984D02*
X8920182Y-23724460D01*
X8920182Y-23724460D02*
X8910658Y-23705412D01*
X8910658Y-23705412D02*
X8910658Y-23629222D01*
X8910658Y-23629222D02*
X8920182Y-23610174D01*
X8920182Y-23610174D02*
X8939230Y-23600650D01*
X8939230Y-23600650D02*
X8977325Y-23600650D01*
X8977325Y-23600650D02*
X8996373Y-23610174D01*
X8996373Y-23610174D02*
X9005896Y-23629222D01*
X9005896Y-23629222D02*
X9005896Y-23648269D01*
X9005896Y-23648269D02*
X8910658Y-23667317D01*
X9177325Y-23733984D02*
X9177325Y-23533984D01*
X9177325Y-23724460D02*
X9158277Y-23733984D01*
X9158277Y-23733984D02*
X9120182Y-23733984D01*
X9120182Y-23733984D02*
X9101135Y-23724460D01*
X9101135Y-23724460D02*
X9091611Y-23714936D01*
X9091611Y-23714936D02*
X9082087Y-23695888D01*
X9082087Y-23695888D02*
X9082087Y-23638746D01*
X9082087Y-23638746D02*
X9091611Y-23619698D01*
X9091611Y-23619698D02*
X9101135Y-23610174D01*
X9101135Y-23610174D02*
X9120182Y-23600650D01*
X9120182Y-23600650D02*
X9158277Y-23600650D01*
X9158277Y-23600650D02*
X9177325Y-23610174D01*
X9253516Y-23810174D02*
X9263039Y-23800650D01*
X9263039Y-23800650D02*
X9282087Y-23772079D01*
X9282087Y-23772079D02*
X9291611Y-23753031D01*
X9291611Y-23753031D02*
X9301135Y-23724460D01*
X9301135Y-23724460D02*
X9310658Y-23676841D01*
X9310658Y-23676841D02*
X9310658Y-23638746D01*
X9310658Y-23638746D02*
X9301135Y-23591127D01*
X9301135Y-23591127D02*
X9291611Y-23562555D01*
X9291611Y-23562555D02*
X9282087Y-23543508D01*
X9282087Y-23543508D02*
X9263039Y-23514936D01*
X9263039Y-23514936D02*
X9253516Y-23505412D01*
M02*
