%TF.GenerationSoftware,KiCad,Pcbnew,9.0.4*%
%TF.CreationDate,2025-10-03T19:57:29+02:00*%
%TF.ProjectId,DMH_VCEG_PANEL,444d485f-5643-4454-975f-50414e454c2e,rev?*%
%TF.SameCoordinates,Original*%
%TF.FileFunction,Copper,L1,Top*%
%TF.FilePolarity,Positive*%
%FSLAX46Y46*%
G04 Gerber Fmt 4.6, Leading zero omitted, Abs format (unit mm)*
G04 Created by KiCad (PCBNEW 9.0.4) date 2025-10-03 19:57:29*
%MOMM*%
%LPD*%
G01*
G04 APERTURE LIST*
%TA.AperFunction,ConnectorPad*%
%ADD10C,12.000000*%
%TD*%
%TA.AperFunction,ComponentPad*%
%ADD11O,2.500000X1.500000*%
%TD*%
%TA.AperFunction,ComponentPad*%
%ADD12C,4.000000*%
%TD*%
%TA.AperFunction,ComponentPad*%
%ADD13C,0.500000*%
%TD*%
%TA.AperFunction,ComponentPad*%
%ADD14C,2.900000*%
%TD*%
%TA.AperFunction,ComponentPad*%
%ADD15C,13.000000*%
%TD*%
G04 APERTURE END LIST*
D10*
%TO.P,H47,1,1*%
%TO.N,GND*%
X150000000Y-88250000D03*
D11*
X150000000Y-94250000D03*
%TD*%
D10*
%TO.P,H9,1,1*%
%TO.N,GND*%
X87500000Y-54750000D03*
%TD*%
D12*
%TO.P,H54,1,1*%
%TO.N,GND*%
X128500000Y-226500000D03*
%TD*%
D13*
%TO.P,H35,1,1*%
%TO.N,GND*%
X111300000Y-208750000D03*
X112960000Y-204720000D03*
X112970000Y-212790000D03*
X117000000Y-203050000D03*
D10*
X117000000Y-208750000D03*
D13*
X117000000Y-214450000D03*
X121030000Y-212790000D03*
X121040000Y-204720000D03*
X122700000Y-208750000D03*
%TD*%
D12*
%TO.P,H3,1,1*%
%TO.N,GND*%
X28500000Y-226500000D03*
%TD*%
D10*
%TO.P,H12,1,1*%
%TO.N,GND*%
X87500000Y-140250000D03*
%TD*%
%TO.P,H10,1,1*%
%TO.N,GND*%
X87500000Y-83250000D03*
%TD*%
D12*
%TO.P,H52,1,1*%
%TO.N,GND*%
X128500000Y-33500000D03*
%TD*%
%TO.P,H51,1,1*%
%TO.N,GND*%
X71500000Y-33500000D03*
%TD*%
D10*
%TO.P,H8,1,1*%
%TO.N,GND*%
X50000000Y-155250000D03*
D11*
X50000000Y-161250000D03*
%TD*%
D10*
%TO.P,H41,1,1*%
%TO.N,GND*%
X112500000Y-111750000D03*
%TD*%
D13*
%TO.P,H15,1,1*%
%TO.N,GND*%
X27800000Y-190250000D03*
X29460000Y-186220000D03*
X29470000Y-194290000D03*
X33500000Y-184550000D03*
D10*
X33500000Y-190250000D03*
D13*
X33500000Y-195950000D03*
X37530000Y-194290000D03*
X37540000Y-186220000D03*
X39200000Y-190250000D03*
%TD*%
D14*
%TO.P,H32,1,1*%
%TO.N,GND*%
X130000000Y-162400000D03*
D15*
X130000000Y-168500000D03*
%TD*%
D10*
%TO.P,H40,1,1*%
%TO.N,GND*%
X112500000Y-83250000D03*
%TD*%
D14*
%TO.P,H14,1,1*%
%TO.N,GND*%
X70000000Y-162400000D03*
D15*
X70000000Y-168500000D03*
%TD*%
D10*
%TO.P,H7,1,1*%
%TO.N,GND*%
X50000000Y-121750000D03*
D11*
X50000000Y-127750000D03*
%TD*%
D13*
%TO.P,H60,1,1*%
%TO.N,GND*%
X60800000Y-208750000D03*
X62460000Y-204720000D03*
X62470000Y-212790000D03*
X66500000Y-203050000D03*
D10*
X66500000Y-208750000D03*
D13*
X66500000Y-214450000D03*
X70530000Y-212790000D03*
X70540000Y-204720000D03*
X72200000Y-208750000D03*
%TD*%
%TO.P,H34,1,1*%
%TO.N,GND*%
X144300000Y-190250000D03*
X145960000Y-186220000D03*
X145970000Y-194290000D03*
X150000000Y-184550000D03*
D10*
X150000000Y-190250000D03*
D13*
X150000000Y-195950000D03*
X154030000Y-194290000D03*
X154040000Y-186220000D03*
X155700000Y-190250000D03*
%TD*%
%TO.P,H37,1,1*%
%TO.N,GND*%
X127800000Y-190250000D03*
X129460000Y-186220000D03*
X129470000Y-194290000D03*
X133500000Y-184550000D03*
D10*
X133500000Y-190250000D03*
D13*
X133500000Y-195950000D03*
X137530000Y-194290000D03*
X137540000Y-186220000D03*
X139200000Y-190250000D03*
%TD*%
D10*
%TO.P,H48,1,1*%
%TO.N,GND*%
X150000000Y-121750000D03*
D11*
X150000000Y-127750000D03*
%TD*%
D13*
%TO.P,H62,1,1*%
%TO.N,GND*%
X144300000Y-208750000D03*
X145960000Y-204720000D03*
X145970000Y-212790000D03*
X150000000Y-203050000D03*
D10*
X150000000Y-208750000D03*
D13*
X150000000Y-214450000D03*
X154030000Y-212790000D03*
X154040000Y-204720000D03*
X155700000Y-208750000D03*
%TD*%
%TO.P,H44,1,1*%
%TO.N,GND*%
X111300000Y-190250000D03*
X112960000Y-186220000D03*
X112970000Y-194290000D03*
X117000000Y-184550000D03*
D10*
X117000000Y-190250000D03*
D13*
X117000000Y-195950000D03*
X121030000Y-194290000D03*
X121040000Y-186220000D03*
X122700000Y-190250000D03*
%TD*%
D14*
%TO.P,H31,1,1*%
%TO.N,GND*%
X115000000Y-162400000D03*
D15*
X115000000Y-168500000D03*
%TD*%
D13*
%TO.P,H23,1,1*%
%TO.N,GND*%
X94300000Y-190250000D03*
X95960000Y-186220000D03*
X95970000Y-194290000D03*
X100000000Y-184550000D03*
D10*
X100000000Y-190250000D03*
D13*
X100000000Y-195950000D03*
X104030000Y-194290000D03*
X104040000Y-186220000D03*
X105700000Y-190250000D03*
%TD*%
D10*
%TO.P,H49,1,1*%
%TO.N,GND*%
X150000000Y-155250000D03*
D11*
X150000000Y-161250000D03*
%TD*%
D10*
%TO.P,H11,1,1*%
%TO.N,GND*%
X87500000Y-111750000D03*
%TD*%
D13*
%TO.P,H38,1,1*%
%TO.N,GND*%
X160800000Y-208750000D03*
X162460000Y-204720000D03*
X162470000Y-212790000D03*
X166500000Y-203050000D03*
D10*
X166500000Y-208750000D03*
D13*
X166500000Y-214450000D03*
X170530000Y-212790000D03*
X170540000Y-204720000D03*
X172200000Y-208750000D03*
%TD*%
D10*
%TO.P,H46,1,1*%
%TO.N,GND*%
X150000000Y-54750000D03*
D11*
X150000000Y-60750000D03*
%TD*%
D12*
%TO.P,H53,1,1*%
%TO.N,GND*%
X71500000Y-226500000D03*
%TD*%
D13*
%TO.P,H29,1,1*%
%TO.N,GND*%
X160800000Y-190250000D03*
X162460000Y-186220000D03*
X162470000Y-194290000D03*
X166500000Y-184550000D03*
D10*
X166500000Y-190250000D03*
D13*
X166500000Y-195950000D03*
X170530000Y-194290000D03*
X170540000Y-186220000D03*
X172200000Y-190250000D03*
%TD*%
D10*
%TO.P,H6,1,1*%
%TO.N,GND*%
X50000000Y-88250000D03*
D11*
X50000000Y-94250000D03*
%TD*%
D13*
%TO.P,H17,1,1*%
%TO.N,GND*%
X60800000Y-190250000D03*
X62460000Y-186220000D03*
X62470000Y-194290000D03*
X66500000Y-184550000D03*
D10*
X66500000Y-190250000D03*
D13*
X66500000Y-195950000D03*
X70530000Y-194290000D03*
X70540000Y-186220000D03*
X72200000Y-190250000D03*
%TD*%
%TO.P,H18,1,1*%
%TO.N,GND*%
X77300000Y-190250000D03*
X78960000Y-186220000D03*
X78970000Y-194290000D03*
X83000000Y-184550000D03*
D10*
X83000000Y-190250000D03*
D13*
X83000000Y-195950000D03*
X87030000Y-194290000D03*
X87040000Y-186220000D03*
X88700000Y-190250000D03*
%TD*%
%TO.P,H30,1,1*%
%TO.N,GND*%
X160800000Y-171750000D03*
X162460000Y-167720000D03*
X162470000Y-175790000D03*
X166500000Y-166050000D03*
D10*
X166500000Y-171750000D03*
D13*
X166500000Y-177450000D03*
X170530000Y-175790000D03*
X170540000Y-167720000D03*
X172200000Y-171750000D03*
%TD*%
D12*
%TO.P,H2,1,1*%
%TO.N,GND*%
X171500000Y-33500000D03*
%TD*%
%TO.P,H4,1,1*%
%TO.N,GND*%
X171500000Y-226500000D03*
%TD*%
D13*
%TO.P,H16,1,1*%
%TO.N,GND*%
X44300000Y-190250000D03*
X45960000Y-186220000D03*
X45970000Y-194290000D03*
X50000000Y-184550000D03*
D10*
X50000000Y-190250000D03*
D13*
X50000000Y-195950000D03*
X54030000Y-194290000D03*
X54040000Y-186220000D03*
X55700000Y-190250000D03*
%TD*%
%TO.P,H19,1,1*%
%TO.N,GND*%
X27800000Y-171750000D03*
X29460000Y-167720000D03*
X29470000Y-175790000D03*
X33500000Y-166050000D03*
D10*
X33500000Y-171750000D03*
D13*
X33500000Y-177450000D03*
X37530000Y-175790000D03*
X37540000Y-167720000D03*
X39200000Y-171750000D03*
%TD*%
D10*
%TO.P,H42,1,1*%
%TO.N,GND*%
X112500000Y-140250000D03*
%TD*%
D13*
%TO.P,H61,1,1*%
%TO.N,GND*%
X127800000Y-208750000D03*
X129460000Y-204720000D03*
X129470000Y-212790000D03*
X133500000Y-203050000D03*
D10*
X133500000Y-208750000D03*
D13*
X133500000Y-214450000D03*
X137530000Y-212790000D03*
X137540000Y-204720000D03*
X139200000Y-208750000D03*
%TD*%
D12*
%TO.P,H1,1,1*%
%TO.N,GND*%
X28500000Y-33500000D03*
%TD*%
D14*
%TO.P,H13,1,1*%
%TO.N,GND*%
X85000000Y-162400000D03*
D15*
X85000000Y-168500000D03*
%TD*%
D13*
%TO.P,H50,1,1*%
%TO.N,GND*%
X94300000Y-208750000D03*
X95960000Y-204720000D03*
X95970000Y-212790000D03*
X100000000Y-203050000D03*
D10*
X100000000Y-208750000D03*
D13*
X100000000Y-214450000D03*
X104030000Y-212790000D03*
X104040000Y-204720000D03*
X105700000Y-208750000D03*
%TD*%
D14*
%TO.P,H45,1,1*%
%TO.N,GND*%
X100000000Y-162400000D03*
D15*
X100000000Y-168500000D03*
%TD*%
D13*
%TO.P,H20,1,1*%
%TO.N,GND*%
X77300000Y-208750000D03*
X78960000Y-204720000D03*
X78970000Y-212790000D03*
X83000000Y-203050000D03*
D10*
X83000000Y-208750000D03*
D13*
X83000000Y-214450000D03*
X87030000Y-212790000D03*
X87040000Y-204720000D03*
X88700000Y-208750000D03*
%TD*%
D10*
%TO.P,H39,1,1*%
%TO.N,GND*%
X112500000Y-54750000D03*
%TD*%
D13*
%TO.P,H59,1,1*%
%TO.N,GND*%
X44300000Y-208750000D03*
X45960000Y-204720000D03*
X45970000Y-212790000D03*
X50000000Y-203050000D03*
D10*
X50000000Y-208750000D03*
D13*
X50000000Y-214450000D03*
X54030000Y-212790000D03*
X54040000Y-204720000D03*
X55700000Y-208750000D03*
%TD*%
D10*
%TO.P,H5,1,1*%
%TO.N,GND*%
X50000000Y-54750000D03*
D11*
X50000000Y-60750000D03*
%TD*%
D13*
%TO.P,H21,1,1*%
%TO.N,GND*%
X27800000Y-208750000D03*
X29460000Y-204720000D03*
X29470000Y-212790000D03*
X33500000Y-203050000D03*
D10*
X33500000Y-208750000D03*
D13*
X33500000Y-214450000D03*
X37530000Y-212790000D03*
X37540000Y-204720000D03*
X39200000Y-208750000D03*
%TD*%
%TA.AperFunction,Conductor*%
%TO.N,GND*%
G36*
X174442539Y-30520185D02*
G01*
X174488294Y-30572989D01*
X174499500Y-30624500D01*
X174499500Y-229375500D01*
X174479815Y-229442539D01*
X174427011Y-229488294D01*
X174375500Y-229499500D01*
X25624500Y-229499500D01*
X25557461Y-229479815D01*
X25511706Y-229427011D01*
X25500500Y-229375500D01*
X25500500Y-208537814D01*
X28099500Y-208537814D01*
X28099500Y-208558097D01*
X28099500Y-208962186D01*
X28132796Y-209385250D01*
X28199182Y-209804398D01*
X28298250Y-210217045D01*
X28298254Y-210217056D01*
X28429385Y-210620641D01*
X28496000Y-210781463D01*
X28591789Y-211012716D01*
X28784450Y-211390835D01*
X28784457Y-211390848D01*
X28784460Y-211390853D01*
X28807375Y-211428246D01*
X29006184Y-211752672D01*
X29006192Y-211752683D01*
X29006198Y-211752692D01*
X29255617Y-212095989D01*
X29255627Y-212096003D01*
X29378919Y-212240358D01*
X29531231Y-212418692D01*
X29831308Y-212718769D01*
X29831314Y-212718774D01*
X30153996Y-212994372D01*
X30154010Y-212994382D01*
X30361749Y-213145313D01*
X30497328Y-213243816D01*
X30625685Y-213322473D01*
X30859146Y-213465539D01*
X30859151Y-213465542D01*
X30859156Y-213465544D01*
X30859165Y-213465550D01*
X31237284Y-213658211D01*
X31629353Y-213820612D01*
X31629358Y-213820614D01*
X31731979Y-213853957D01*
X32032955Y-213951750D01*
X32445602Y-214050818D01*
X32864750Y-214117204D01*
X33287814Y-214150500D01*
X33287822Y-214150500D01*
X33712178Y-214150500D01*
X33712186Y-214150500D01*
X34135250Y-214117204D01*
X34554398Y-214050818D01*
X34967045Y-213951750D01*
X35370647Y-213820612D01*
X35762716Y-213658211D01*
X36140835Y-213465550D01*
X36502672Y-213243816D01*
X36845997Y-212994377D01*
X37168692Y-212718769D01*
X37468769Y-212418692D01*
X37744377Y-212095997D01*
X37993816Y-211752672D01*
X38215550Y-211390835D01*
X38408211Y-211012716D01*
X38570612Y-210620647D01*
X38701750Y-210217045D01*
X38800818Y-209804398D01*
X38867204Y-209385250D01*
X38900500Y-208962186D01*
X38900500Y-208537814D01*
X44599500Y-208537814D01*
X44599500Y-208558097D01*
X44599500Y-208962186D01*
X44632796Y-209385250D01*
X44699182Y-209804398D01*
X44798250Y-210217045D01*
X44798254Y-210217056D01*
X44929385Y-210620641D01*
X44996000Y-210781463D01*
X45091789Y-211012716D01*
X45284450Y-211390835D01*
X45284457Y-211390848D01*
X45284460Y-211390853D01*
X45307375Y-211428246D01*
X45506184Y-211752672D01*
X45506192Y-211752683D01*
X45506198Y-211752692D01*
X45755617Y-212095989D01*
X45755627Y-212096003D01*
X45878919Y-212240358D01*
X46031231Y-212418692D01*
X46331308Y-212718769D01*
X46331314Y-212718774D01*
X46653996Y-212994372D01*
X46654010Y-212994382D01*
X46861749Y-213145313D01*
X46997328Y-213243816D01*
X47125685Y-213322473D01*
X47359146Y-213465539D01*
X47359151Y-213465542D01*
X47359156Y-213465544D01*
X47359165Y-213465550D01*
X47737284Y-213658211D01*
X48129353Y-213820612D01*
X48129358Y-213820614D01*
X48231979Y-213853957D01*
X48532955Y-213951750D01*
X48945602Y-214050818D01*
X49364750Y-214117204D01*
X49787814Y-214150500D01*
X49787822Y-214150500D01*
X50212178Y-214150500D01*
X50212186Y-214150500D01*
X50635250Y-214117204D01*
X51054398Y-214050818D01*
X51467045Y-213951750D01*
X51870647Y-213820612D01*
X52262716Y-213658211D01*
X52640835Y-213465550D01*
X53002672Y-213243816D01*
X53345997Y-212994377D01*
X53668692Y-212718769D01*
X53968769Y-212418692D01*
X54244377Y-212095997D01*
X54493816Y-211752672D01*
X54715550Y-211390835D01*
X54908211Y-211012716D01*
X55070612Y-210620647D01*
X55201750Y-210217045D01*
X55300818Y-209804398D01*
X55367204Y-209385250D01*
X55400500Y-208962186D01*
X55400500Y-208537814D01*
X61099500Y-208537814D01*
X61099500Y-208558097D01*
X61099500Y-208962186D01*
X61132796Y-209385250D01*
X61199182Y-209804398D01*
X61298250Y-210217045D01*
X61298254Y-210217056D01*
X61429385Y-210620641D01*
X61496000Y-210781463D01*
X61591789Y-211012716D01*
X61784450Y-211390835D01*
X61784457Y-211390848D01*
X61784460Y-211390853D01*
X61807375Y-211428246D01*
X62006184Y-211752672D01*
X62006192Y-211752683D01*
X62006198Y-211752692D01*
X62255617Y-212095989D01*
X62255627Y-212096003D01*
X62378919Y-212240358D01*
X62531231Y-212418692D01*
X62831308Y-212718769D01*
X62831314Y-212718774D01*
X63153996Y-212994372D01*
X63154010Y-212994382D01*
X63361749Y-213145313D01*
X63497328Y-213243816D01*
X63625685Y-213322473D01*
X63859146Y-213465539D01*
X63859151Y-213465542D01*
X63859156Y-213465544D01*
X63859165Y-213465550D01*
X64237284Y-213658211D01*
X64629353Y-213820612D01*
X64629358Y-213820614D01*
X64731979Y-213853957D01*
X65032955Y-213951750D01*
X65445602Y-214050818D01*
X65864750Y-214117204D01*
X66287814Y-214150500D01*
X66287822Y-214150500D01*
X66712178Y-214150500D01*
X66712186Y-214150500D01*
X67135250Y-214117204D01*
X67554398Y-214050818D01*
X67967045Y-213951750D01*
X68370647Y-213820612D01*
X68762716Y-213658211D01*
X69140835Y-213465550D01*
X69502672Y-213243816D01*
X69845997Y-212994377D01*
X70168692Y-212718769D01*
X70468769Y-212418692D01*
X70744377Y-212095997D01*
X70993816Y-211752672D01*
X71215550Y-211390835D01*
X71408211Y-211012716D01*
X71570612Y-210620647D01*
X71701750Y-210217045D01*
X71800818Y-209804398D01*
X71867204Y-209385250D01*
X71900500Y-208962186D01*
X71900500Y-208537814D01*
X77599500Y-208537814D01*
X77599500Y-208558097D01*
X77599500Y-208962186D01*
X77632796Y-209385250D01*
X77699182Y-209804398D01*
X77798250Y-210217045D01*
X77798254Y-210217056D01*
X77929385Y-210620641D01*
X77996000Y-210781463D01*
X78091789Y-211012716D01*
X78284450Y-211390835D01*
X78284457Y-211390848D01*
X78284460Y-211390853D01*
X78307375Y-211428246D01*
X78506184Y-211752672D01*
X78506192Y-211752683D01*
X78506198Y-211752692D01*
X78755617Y-212095989D01*
X78755627Y-212096003D01*
X78878919Y-212240358D01*
X79031231Y-212418692D01*
X79331308Y-212718769D01*
X79331314Y-212718774D01*
X79653996Y-212994372D01*
X79654010Y-212994382D01*
X79861749Y-213145313D01*
X79997328Y-213243816D01*
X80125685Y-213322473D01*
X80359146Y-213465539D01*
X80359151Y-213465542D01*
X80359156Y-213465544D01*
X80359165Y-213465550D01*
X80737284Y-213658211D01*
X81129353Y-213820612D01*
X81129358Y-213820614D01*
X81231979Y-213853957D01*
X81532955Y-213951750D01*
X81945602Y-214050818D01*
X82364750Y-214117204D01*
X82787814Y-214150500D01*
X82787822Y-214150500D01*
X83212178Y-214150500D01*
X83212186Y-214150500D01*
X83635250Y-214117204D01*
X84054398Y-214050818D01*
X84467045Y-213951750D01*
X84870647Y-213820612D01*
X85262716Y-213658211D01*
X85640835Y-213465550D01*
X86002672Y-213243816D01*
X86345997Y-212994377D01*
X86668692Y-212718769D01*
X86968769Y-212418692D01*
X87244377Y-212095997D01*
X87493816Y-211752672D01*
X87715550Y-211390835D01*
X87908211Y-211012716D01*
X88070612Y-210620647D01*
X88201750Y-210217045D01*
X88300818Y-209804398D01*
X88367204Y-209385250D01*
X88400500Y-208962186D01*
X88400500Y-208537814D01*
X94599500Y-208537814D01*
X94599500Y-208558097D01*
X94599500Y-208962186D01*
X94632796Y-209385250D01*
X94699182Y-209804398D01*
X94798250Y-210217045D01*
X94798254Y-210217056D01*
X94929385Y-210620641D01*
X94996000Y-210781463D01*
X95091789Y-211012716D01*
X95284450Y-211390835D01*
X95284457Y-211390848D01*
X95284460Y-211390853D01*
X95307375Y-211428246D01*
X95506184Y-211752672D01*
X95506192Y-211752683D01*
X95506198Y-211752692D01*
X95755617Y-212095989D01*
X95755627Y-212096003D01*
X95878919Y-212240358D01*
X96031231Y-212418692D01*
X96331308Y-212718769D01*
X96331314Y-212718774D01*
X96653996Y-212994372D01*
X96654010Y-212994382D01*
X96861749Y-213145313D01*
X96997328Y-213243816D01*
X97125685Y-213322473D01*
X97359146Y-213465539D01*
X97359151Y-213465542D01*
X97359156Y-213465544D01*
X97359165Y-213465550D01*
X97737284Y-213658211D01*
X98129353Y-213820612D01*
X98129358Y-213820614D01*
X98231979Y-213853957D01*
X98532955Y-213951750D01*
X98945602Y-214050818D01*
X99364750Y-214117204D01*
X99787814Y-214150500D01*
X99787822Y-214150500D01*
X100212178Y-214150500D01*
X100212186Y-214150500D01*
X100635250Y-214117204D01*
X101054398Y-214050818D01*
X101467045Y-213951750D01*
X101870647Y-213820612D01*
X102262716Y-213658211D01*
X102640835Y-213465550D01*
X103002672Y-213243816D01*
X103345997Y-212994377D01*
X103668692Y-212718769D01*
X103968769Y-212418692D01*
X104244377Y-212095997D01*
X104493816Y-211752672D01*
X104715550Y-211390835D01*
X104908211Y-211012716D01*
X105070612Y-210620647D01*
X105201750Y-210217045D01*
X105300818Y-209804398D01*
X105367204Y-209385250D01*
X105400500Y-208962186D01*
X105400500Y-208537814D01*
X111599500Y-208537814D01*
X111599500Y-208558097D01*
X111599500Y-208962186D01*
X111632796Y-209385250D01*
X111699182Y-209804398D01*
X111798250Y-210217045D01*
X111798254Y-210217056D01*
X111929385Y-210620641D01*
X111996000Y-210781463D01*
X112091789Y-211012716D01*
X112284450Y-211390835D01*
X112284457Y-211390848D01*
X112284460Y-211390853D01*
X112307375Y-211428246D01*
X112506184Y-211752672D01*
X112506192Y-211752683D01*
X112506198Y-211752692D01*
X112755617Y-212095989D01*
X112755627Y-212096003D01*
X112878919Y-212240358D01*
X113031231Y-212418692D01*
X113331308Y-212718769D01*
X113331314Y-212718774D01*
X113653996Y-212994372D01*
X113654010Y-212994382D01*
X113861749Y-213145313D01*
X113997328Y-213243816D01*
X114125685Y-213322473D01*
X114359146Y-213465539D01*
X114359151Y-213465542D01*
X114359156Y-213465544D01*
X114359165Y-213465550D01*
X114737284Y-213658211D01*
X115129353Y-213820612D01*
X115129358Y-213820614D01*
X115231979Y-213853957D01*
X115532955Y-213951750D01*
X115945602Y-214050818D01*
X116364750Y-214117204D01*
X116787814Y-214150500D01*
X116787822Y-214150500D01*
X117212178Y-214150500D01*
X117212186Y-214150500D01*
X117635250Y-214117204D01*
X118054398Y-214050818D01*
X118467045Y-213951750D01*
X118870647Y-213820612D01*
X119262716Y-213658211D01*
X119640835Y-213465550D01*
X120002672Y-213243816D01*
X120345997Y-212994377D01*
X120668692Y-212718769D01*
X120968769Y-212418692D01*
X121244377Y-212095997D01*
X121493816Y-211752672D01*
X121715550Y-211390835D01*
X121908211Y-211012716D01*
X122070612Y-210620647D01*
X122201750Y-210217045D01*
X122300818Y-209804398D01*
X122367204Y-209385250D01*
X122400500Y-208962186D01*
X122400500Y-208537814D01*
X128099500Y-208537814D01*
X128099500Y-208558097D01*
X128099500Y-208962186D01*
X128132796Y-209385250D01*
X128199182Y-209804398D01*
X128298250Y-210217045D01*
X128298254Y-210217056D01*
X128429385Y-210620641D01*
X128496000Y-210781463D01*
X128591789Y-211012716D01*
X128784450Y-211390835D01*
X128784457Y-211390848D01*
X128784460Y-211390853D01*
X128807375Y-211428246D01*
X129006184Y-211752672D01*
X129006192Y-211752683D01*
X129006198Y-211752692D01*
X129255617Y-212095989D01*
X129255627Y-212096003D01*
X129378919Y-212240358D01*
X129531231Y-212418692D01*
X129831308Y-212718769D01*
X129831314Y-212718774D01*
X130153996Y-212994372D01*
X130154010Y-212994382D01*
X130361749Y-213145313D01*
X130497328Y-213243816D01*
X130625685Y-213322473D01*
X130859146Y-213465539D01*
X130859151Y-213465542D01*
X130859156Y-213465544D01*
X130859165Y-213465550D01*
X131237284Y-213658211D01*
X131629353Y-213820612D01*
X131629358Y-213820614D01*
X131731979Y-213853957D01*
X132032955Y-213951750D01*
X132445602Y-214050818D01*
X132864750Y-214117204D01*
X133287814Y-214150500D01*
X133287822Y-214150500D01*
X133712178Y-214150500D01*
X133712186Y-214150500D01*
X134135250Y-214117204D01*
X134554398Y-214050818D01*
X134967045Y-213951750D01*
X135370647Y-213820612D01*
X135762716Y-213658211D01*
X136140835Y-213465550D01*
X136502672Y-213243816D01*
X136845997Y-212994377D01*
X137168692Y-212718769D01*
X137468769Y-212418692D01*
X137744377Y-212095997D01*
X137993816Y-211752672D01*
X138215550Y-211390835D01*
X138408211Y-211012716D01*
X138570612Y-210620647D01*
X138701750Y-210217045D01*
X138800818Y-209804398D01*
X138867204Y-209385250D01*
X138900500Y-208962186D01*
X138900500Y-208537814D01*
X144599500Y-208537814D01*
X144599500Y-208558097D01*
X144599500Y-208962186D01*
X144632796Y-209385250D01*
X144699182Y-209804398D01*
X144798250Y-210217045D01*
X144798254Y-210217056D01*
X144929385Y-210620641D01*
X144996000Y-210781463D01*
X145091789Y-211012716D01*
X145284450Y-211390835D01*
X145284457Y-211390848D01*
X145284460Y-211390853D01*
X145307375Y-211428246D01*
X145506184Y-211752672D01*
X145506192Y-211752683D01*
X145506198Y-211752692D01*
X145755617Y-212095989D01*
X145755627Y-212096003D01*
X145878919Y-212240358D01*
X146031231Y-212418692D01*
X146331308Y-212718769D01*
X146331314Y-212718774D01*
X146653996Y-212994372D01*
X146654010Y-212994382D01*
X146861749Y-213145313D01*
X146997328Y-213243816D01*
X147125685Y-213322473D01*
X147359146Y-213465539D01*
X147359151Y-213465542D01*
X147359156Y-213465544D01*
X147359165Y-213465550D01*
X147737284Y-213658211D01*
X148129353Y-213820612D01*
X148129358Y-213820614D01*
X148231979Y-213853957D01*
X148532955Y-213951750D01*
X148945602Y-214050818D01*
X149364750Y-214117204D01*
X149787814Y-214150500D01*
X149787822Y-214150500D01*
X150212178Y-214150500D01*
X150212186Y-214150500D01*
X150635250Y-214117204D01*
X151054398Y-214050818D01*
X151467045Y-213951750D01*
X151870647Y-213820612D01*
X152262716Y-213658211D01*
X152640835Y-213465550D01*
X153002672Y-213243816D01*
X153345997Y-212994377D01*
X153668692Y-212718769D01*
X153968769Y-212418692D01*
X154244377Y-212095997D01*
X154493816Y-211752672D01*
X154715550Y-211390835D01*
X154908211Y-211012716D01*
X155070612Y-210620647D01*
X155201750Y-210217045D01*
X155300818Y-209804398D01*
X155367204Y-209385250D01*
X155400500Y-208962186D01*
X155400500Y-208537814D01*
X161099500Y-208537814D01*
X161099500Y-208558097D01*
X161099500Y-208962186D01*
X161132796Y-209385250D01*
X161199182Y-209804398D01*
X161298250Y-210217045D01*
X161298254Y-210217056D01*
X161429385Y-210620641D01*
X161496000Y-210781463D01*
X161591789Y-211012716D01*
X161784450Y-211390835D01*
X161784457Y-211390848D01*
X161784460Y-211390853D01*
X161807375Y-211428246D01*
X162006184Y-211752672D01*
X162006192Y-211752683D01*
X162006198Y-211752692D01*
X162255617Y-212095989D01*
X162255627Y-212096003D01*
X162378919Y-212240358D01*
X162531231Y-212418692D01*
X162831308Y-212718769D01*
X162831314Y-212718774D01*
X163153996Y-212994372D01*
X163154010Y-212994382D01*
X163361749Y-213145313D01*
X163497328Y-213243816D01*
X163625685Y-213322473D01*
X163859146Y-213465539D01*
X163859151Y-213465542D01*
X163859156Y-213465544D01*
X163859165Y-213465550D01*
X164237284Y-213658211D01*
X164629353Y-213820612D01*
X164629358Y-213820614D01*
X164731979Y-213853957D01*
X165032955Y-213951750D01*
X165445602Y-214050818D01*
X165864750Y-214117204D01*
X166287814Y-214150500D01*
X166287822Y-214150500D01*
X166712178Y-214150500D01*
X166712186Y-214150500D01*
X167135250Y-214117204D01*
X167554398Y-214050818D01*
X167967045Y-213951750D01*
X168370647Y-213820612D01*
X168762716Y-213658211D01*
X169140835Y-213465550D01*
X169502672Y-213243816D01*
X169845997Y-212994377D01*
X170168692Y-212718769D01*
X170468769Y-212418692D01*
X170744377Y-212095997D01*
X170993816Y-211752672D01*
X171215550Y-211390835D01*
X171408211Y-211012716D01*
X171570612Y-210620647D01*
X171701750Y-210217045D01*
X171800818Y-209804398D01*
X171867204Y-209385250D01*
X171900500Y-208962186D01*
X171900500Y-208537814D01*
X171867204Y-208114750D01*
X171800818Y-207695602D01*
X171701750Y-207282955D01*
X171570612Y-206879353D01*
X171408211Y-206487284D01*
X171215550Y-206109165D01*
X171215544Y-206109156D01*
X171215542Y-206109151D01*
X171215539Y-206109146D01*
X170993823Y-205747340D01*
X170993816Y-205747328D01*
X170744377Y-205404003D01*
X170744372Y-205403996D01*
X170468774Y-205081314D01*
X170468769Y-205081308D01*
X170168692Y-204781231D01*
X170168685Y-204781225D01*
X169846003Y-204505627D01*
X169845989Y-204505617D01*
X169502692Y-204256198D01*
X169502683Y-204256192D01*
X169502672Y-204256184D01*
X169502659Y-204256176D01*
X169140853Y-204034460D01*
X169140848Y-204034457D01*
X169140838Y-204034452D01*
X169140835Y-204034450D01*
X168762716Y-203841789D01*
X168762702Y-203841783D01*
X168370641Y-203679385D01*
X168083478Y-203586081D01*
X167967045Y-203548250D01*
X167554398Y-203449182D01*
X167135250Y-203382796D01*
X166712191Y-203349500D01*
X166712186Y-203349500D01*
X166287814Y-203349500D01*
X166287808Y-203349500D01*
X165864749Y-203382796D01*
X165864748Y-203382796D01*
X165445607Y-203449181D01*
X165445604Y-203449181D01*
X165445602Y-203449182D01*
X165297817Y-203484661D01*
X165032966Y-203548247D01*
X165032960Y-203548248D01*
X165032955Y-203548250D01*
X165032943Y-203548254D01*
X164629358Y-203679385D01*
X164237297Y-203841783D01*
X164237284Y-203841789D01*
X163859151Y-204034457D01*
X163859146Y-204034460D01*
X163497340Y-204256176D01*
X163497307Y-204256198D01*
X163154010Y-204505617D01*
X163153996Y-204505627D01*
X162831314Y-204781225D01*
X162831300Y-204781238D01*
X162531238Y-205081300D01*
X162531225Y-205081314D01*
X162255627Y-205403996D01*
X162255617Y-205404010D01*
X162006198Y-205747307D01*
X162006176Y-205747340D01*
X161784460Y-206109146D01*
X161784457Y-206109151D01*
X161591789Y-206487284D01*
X161591783Y-206487297D01*
X161429385Y-206879358D01*
X161298254Y-207282943D01*
X161298247Y-207282966D01*
X161199181Y-207695607D01*
X161183000Y-207797774D01*
X161132796Y-208114750D01*
X161099500Y-208537814D01*
X155400500Y-208537814D01*
X155367204Y-208114750D01*
X155300818Y-207695602D01*
X155201750Y-207282955D01*
X155070612Y-206879353D01*
X154908211Y-206487284D01*
X154715550Y-206109165D01*
X154715544Y-206109156D01*
X154715542Y-206109151D01*
X154715539Y-206109146D01*
X154493823Y-205747340D01*
X154493816Y-205747328D01*
X154244377Y-205404003D01*
X154244372Y-205403996D01*
X153968774Y-205081314D01*
X153968769Y-205081308D01*
X153668692Y-204781231D01*
X153668685Y-204781225D01*
X153346003Y-204505627D01*
X153345989Y-204505617D01*
X153002692Y-204256198D01*
X153002683Y-204256192D01*
X153002672Y-204256184D01*
X153002659Y-204256176D01*
X152640853Y-204034460D01*
X152640848Y-204034457D01*
X152640838Y-204034452D01*
X152640835Y-204034450D01*
X152262716Y-203841789D01*
X152262702Y-203841783D01*
X151870641Y-203679385D01*
X151583478Y-203586081D01*
X151467045Y-203548250D01*
X151054398Y-203449182D01*
X150635250Y-203382796D01*
X150212191Y-203349500D01*
X150212186Y-203349500D01*
X149787814Y-203349500D01*
X149787808Y-203349500D01*
X149364749Y-203382796D01*
X149364748Y-203382796D01*
X148945607Y-203449181D01*
X148945604Y-203449181D01*
X148945602Y-203449182D01*
X148797817Y-203484661D01*
X148532966Y-203548247D01*
X148532960Y-203548248D01*
X148532955Y-203548250D01*
X148532943Y-203548254D01*
X148129358Y-203679385D01*
X147737297Y-203841783D01*
X147737284Y-203841789D01*
X147359151Y-204034457D01*
X147359146Y-204034460D01*
X146997340Y-204256176D01*
X146997307Y-204256198D01*
X146654010Y-204505617D01*
X146653996Y-204505627D01*
X146331314Y-204781225D01*
X146331300Y-204781238D01*
X146031238Y-205081300D01*
X146031225Y-205081314D01*
X145755627Y-205403996D01*
X145755617Y-205404010D01*
X145506198Y-205747307D01*
X145506176Y-205747340D01*
X145284460Y-206109146D01*
X145284457Y-206109151D01*
X145091789Y-206487284D01*
X145091783Y-206487297D01*
X144929385Y-206879358D01*
X144798254Y-207282943D01*
X144798247Y-207282966D01*
X144699181Y-207695607D01*
X144683000Y-207797774D01*
X144632796Y-208114750D01*
X144599500Y-208537814D01*
X138900500Y-208537814D01*
X138867204Y-208114750D01*
X138800818Y-207695602D01*
X138701750Y-207282955D01*
X138570612Y-206879353D01*
X138408211Y-206487284D01*
X138215550Y-206109165D01*
X138215544Y-206109156D01*
X138215542Y-206109151D01*
X138215539Y-206109146D01*
X137993823Y-205747340D01*
X137993816Y-205747328D01*
X137744377Y-205404003D01*
X137744372Y-205403996D01*
X137468774Y-205081314D01*
X137468769Y-205081308D01*
X137168692Y-204781231D01*
X137168685Y-204781225D01*
X136846003Y-204505627D01*
X136845989Y-204505617D01*
X136502692Y-204256198D01*
X136502683Y-204256192D01*
X136502672Y-204256184D01*
X136502659Y-204256176D01*
X136140853Y-204034460D01*
X136140848Y-204034457D01*
X136140838Y-204034452D01*
X136140835Y-204034450D01*
X135762716Y-203841789D01*
X135762702Y-203841783D01*
X135370641Y-203679385D01*
X135083478Y-203586081D01*
X134967045Y-203548250D01*
X134554398Y-203449182D01*
X134135250Y-203382796D01*
X133712191Y-203349500D01*
X133712186Y-203349500D01*
X133287814Y-203349500D01*
X133287808Y-203349500D01*
X132864749Y-203382796D01*
X132864748Y-203382796D01*
X132445607Y-203449181D01*
X132445604Y-203449181D01*
X132445602Y-203449182D01*
X132297817Y-203484661D01*
X132032966Y-203548247D01*
X132032960Y-203548248D01*
X132032955Y-203548250D01*
X132032943Y-203548254D01*
X131629358Y-203679385D01*
X131237297Y-203841783D01*
X131237284Y-203841789D01*
X130859151Y-204034457D01*
X130859146Y-204034460D01*
X130497340Y-204256176D01*
X130497307Y-204256198D01*
X130154010Y-204505617D01*
X130153996Y-204505627D01*
X129831314Y-204781225D01*
X129831300Y-204781238D01*
X129531238Y-205081300D01*
X129531225Y-205081314D01*
X129255627Y-205403996D01*
X129255617Y-205404010D01*
X129006198Y-205747307D01*
X129006176Y-205747340D01*
X128784460Y-206109146D01*
X128784457Y-206109151D01*
X128591789Y-206487284D01*
X128591783Y-206487297D01*
X128429385Y-206879358D01*
X128298254Y-207282943D01*
X128298247Y-207282966D01*
X128199181Y-207695607D01*
X128183000Y-207797774D01*
X128132796Y-208114750D01*
X128099500Y-208537814D01*
X122400500Y-208537814D01*
X122367204Y-208114750D01*
X122300818Y-207695602D01*
X122201750Y-207282955D01*
X122070612Y-206879353D01*
X121908211Y-206487284D01*
X121715550Y-206109165D01*
X121715544Y-206109156D01*
X121715542Y-206109151D01*
X121715539Y-206109146D01*
X121493823Y-205747340D01*
X121493816Y-205747328D01*
X121244377Y-205404003D01*
X121244372Y-205403996D01*
X120968774Y-205081314D01*
X120968769Y-205081308D01*
X120668692Y-204781231D01*
X120668685Y-204781225D01*
X120346003Y-204505627D01*
X120345989Y-204505617D01*
X120002692Y-204256198D01*
X120002683Y-204256192D01*
X120002672Y-204256184D01*
X120002659Y-204256176D01*
X119640853Y-204034460D01*
X119640848Y-204034457D01*
X119640838Y-204034452D01*
X119640835Y-204034450D01*
X119262716Y-203841789D01*
X119262702Y-203841783D01*
X118870641Y-203679385D01*
X118583478Y-203586081D01*
X118467045Y-203548250D01*
X118054398Y-203449182D01*
X117635250Y-203382796D01*
X117212191Y-203349500D01*
X117212186Y-203349500D01*
X116787814Y-203349500D01*
X116787808Y-203349500D01*
X116364749Y-203382796D01*
X116364748Y-203382796D01*
X115945607Y-203449181D01*
X115945604Y-203449181D01*
X115945602Y-203449182D01*
X115797817Y-203484661D01*
X115532966Y-203548247D01*
X115532960Y-203548248D01*
X115532955Y-203548250D01*
X115532943Y-203548254D01*
X115129358Y-203679385D01*
X114737297Y-203841783D01*
X114737284Y-203841789D01*
X114359151Y-204034457D01*
X114359146Y-204034460D01*
X113997340Y-204256176D01*
X113997307Y-204256198D01*
X113654010Y-204505617D01*
X113653996Y-204505627D01*
X113331314Y-204781225D01*
X113331300Y-204781238D01*
X113031238Y-205081300D01*
X113031225Y-205081314D01*
X112755627Y-205403996D01*
X112755617Y-205404010D01*
X112506198Y-205747307D01*
X112506176Y-205747340D01*
X112284460Y-206109146D01*
X112284457Y-206109151D01*
X112091789Y-206487284D01*
X112091783Y-206487297D01*
X111929385Y-206879358D01*
X111798254Y-207282943D01*
X111798247Y-207282966D01*
X111699181Y-207695607D01*
X111683000Y-207797774D01*
X111632796Y-208114750D01*
X111599500Y-208537814D01*
X105400500Y-208537814D01*
X105367204Y-208114750D01*
X105300818Y-207695602D01*
X105201750Y-207282955D01*
X105070612Y-206879353D01*
X104908211Y-206487284D01*
X104715550Y-206109165D01*
X104715544Y-206109156D01*
X104715542Y-206109151D01*
X104715539Y-206109146D01*
X104493823Y-205747340D01*
X104493816Y-205747328D01*
X104244377Y-205404003D01*
X104244372Y-205403996D01*
X103968774Y-205081314D01*
X103968769Y-205081308D01*
X103668692Y-204781231D01*
X103668685Y-204781225D01*
X103346003Y-204505627D01*
X103345989Y-204505617D01*
X103002692Y-204256198D01*
X103002683Y-204256192D01*
X103002672Y-204256184D01*
X103002659Y-204256176D01*
X102640853Y-204034460D01*
X102640848Y-204034457D01*
X102640838Y-204034452D01*
X102640835Y-204034450D01*
X102262716Y-203841789D01*
X102262702Y-203841783D01*
X101870641Y-203679385D01*
X101583478Y-203586081D01*
X101467045Y-203548250D01*
X101054398Y-203449182D01*
X100635250Y-203382796D01*
X100212191Y-203349500D01*
X100212186Y-203349500D01*
X99787814Y-203349500D01*
X99787808Y-203349500D01*
X99364749Y-203382796D01*
X99364748Y-203382796D01*
X98945607Y-203449181D01*
X98945604Y-203449181D01*
X98945602Y-203449182D01*
X98797817Y-203484661D01*
X98532966Y-203548247D01*
X98532960Y-203548248D01*
X98532955Y-203548250D01*
X98532943Y-203548254D01*
X98129358Y-203679385D01*
X97737297Y-203841783D01*
X97737284Y-203841789D01*
X97359151Y-204034457D01*
X97359146Y-204034460D01*
X96997340Y-204256176D01*
X96997307Y-204256198D01*
X96654010Y-204505617D01*
X96653996Y-204505627D01*
X96331314Y-204781225D01*
X96331300Y-204781238D01*
X96031238Y-205081300D01*
X96031225Y-205081314D01*
X95755627Y-205403996D01*
X95755617Y-205404010D01*
X95506198Y-205747307D01*
X95506176Y-205747340D01*
X95284460Y-206109146D01*
X95284457Y-206109151D01*
X95091789Y-206487284D01*
X95091783Y-206487297D01*
X94929385Y-206879358D01*
X94798254Y-207282943D01*
X94798247Y-207282966D01*
X94699181Y-207695607D01*
X94683000Y-207797774D01*
X94632796Y-208114750D01*
X94599500Y-208537814D01*
X88400500Y-208537814D01*
X88367204Y-208114750D01*
X88300818Y-207695602D01*
X88201750Y-207282955D01*
X88070612Y-206879353D01*
X87908211Y-206487284D01*
X87715550Y-206109165D01*
X87715544Y-206109156D01*
X87715542Y-206109151D01*
X87715539Y-206109146D01*
X87493823Y-205747340D01*
X87493816Y-205747328D01*
X87244377Y-205404003D01*
X87244372Y-205403996D01*
X86968774Y-205081314D01*
X86968769Y-205081308D01*
X86668692Y-204781231D01*
X86668685Y-204781225D01*
X86346003Y-204505627D01*
X86345989Y-204505617D01*
X86002692Y-204256198D01*
X86002683Y-204256192D01*
X86002672Y-204256184D01*
X86002659Y-204256176D01*
X85640853Y-204034460D01*
X85640848Y-204034457D01*
X85640838Y-204034452D01*
X85640835Y-204034450D01*
X85262716Y-203841789D01*
X85262702Y-203841783D01*
X84870641Y-203679385D01*
X84583478Y-203586081D01*
X84467045Y-203548250D01*
X84054398Y-203449182D01*
X83635250Y-203382796D01*
X83212191Y-203349500D01*
X83212186Y-203349500D01*
X82787814Y-203349500D01*
X82787808Y-203349500D01*
X82364749Y-203382796D01*
X82364748Y-203382796D01*
X81945607Y-203449181D01*
X81945604Y-203449181D01*
X81945602Y-203449182D01*
X81797817Y-203484661D01*
X81532966Y-203548247D01*
X81532960Y-203548248D01*
X81532955Y-203548250D01*
X81532943Y-203548254D01*
X81129358Y-203679385D01*
X80737297Y-203841783D01*
X80737284Y-203841789D01*
X80359151Y-204034457D01*
X80359146Y-204034460D01*
X79997340Y-204256176D01*
X79997307Y-204256198D01*
X79654010Y-204505617D01*
X79653996Y-204505627D01*
X79331314Y-204781225D01*
X79331300Y-204781238D01*
X79031238Y-205081300D01*
X79031225Y-205081314D01*
X78755627Y-205403996D01*
X78755617Y-205404010D01*
X78506198Y-205747307D01*
X78506176Y-205747340D01*
X78284460Y-206109146D01*
X78284457Y-206109151D01*
X78091789Y-206487284D01*
X78091783Y-206487297D01*
X77929385Y-206879358D01*
X77798254Y-207282943D01*
X77798247Y-207282966D01*
X77699181Y-207695607D01*
X77683000Y-207797774D01*
X77632796Y-208114750D01*
X77599500Y-208537814D01*
X71900500Y-208537814D01*
X71867204Y-208114750D01*
X71800818Y-207695602D01*
X71701750Y-207282955D01*
X71570612Y-206879353D01*
X71408211Y-206487284D01*
X71215550Y-206109165D01*
X71215544Y-206109156D01*
X71215542Y-206109151D01*
X71215539Y-206109146D01*
X70993823Y-205747340D01*
X70993816Y-205747328D01*
X70744377Y-205404003D01*
X70744372Y-205403996D01*
X70468774Y-205081314D01*
X70468769Y-205081308D01*
X70168692Y-204781231D01*
X70168685Y-204781225D01*
X69846003Y-204505627D01*
X69845989Y-204505617D01*
X69502692Y-204256198D01*
X69502683Y-204256192D01*
X69502672Y-204256184D01*
X69502659Y-204256176D01*
X69140853Y-204034460D01*
X69140848Y-204034457D01*
X69140838Y-204034452D01*
X69140835Y-204034450D01*
X68762716Y-203841789D01*
X68762702Y-203841783D01*
X68370641Y-203679385D01*
X68083478Y-203586081D01*
X67967045Y-203548250D01*
X67554398Y-203449182D01*
X67135250Y-203382796D01*
X66712191Y-203349500D01*
X66712186Y-203349500D01*
X66287814Y-203349500D01*
X66287808Y-203349500D01*
X65864749Y-203382796D01*
X65864748Y-203382796D01*
X65445607Y-203449181D01*
X65445604Y-203449181D01*
X65445602Y-203449182D01*
X65297817Y-203484661D01*
X65032966Y-203548247D01*
X65032960Y-203548248D01*
X65032955Y-203548250D01*
X65032943Y-203548254D01*
X64629358Y-203679385D01*
X64237297Y-203841783D01*
X64237284Y-203841789D01*
X63859151Y-204034457D01*
X63859146Y-204034460D01*
X63497340Y-204256176D01*
X63497307Y-204256198D01*
X63154010Y-204505617D01*
X63153996Y-204505627D01*
X62831314Y-204781225D01*
X62831300Y-204781238D01*
X62531238Y-205081300D01*
X62531225Y-205081314D01*
X62255627Y-205403996D01*
X62255617Y-205404010D01*
X62006198Y-205747307D01*
X62006176Y-205747340D01*
X61784460Y-206109146D01*
X61784457Y-206109151D01*
X61591789Y-206487284D01*
X61591783Y-206487297D01*
X61429385Y-206879358D01*
X61298254Y-207282943D01*
X61298247Y-207282966D01*
X61199181Y-207695607D01*
X61183000Y-207797774D01*
X61132796Y-208114750D01*
X61099500Y-208537814D01*
X55400500Y-208537814D01*
X55367204Y-208114750D01*
X55300818Y-207695602D01*
X55201750Y-207282955D01*
X55070612Y-206879353D01*
X54908211Y-206487284D01*
X54715550Y-206109165D01*
X54715544Y-206109156D01*
X54715542Y-206109151D01*
X54715539Y-206109146D01*
X54493823Y-205747340D01*
X54493816Y-205747328D01*
X54244377Y-205404003D01*
X54244372Y-205403996D01*
X53968774Y-205081314D01*
X53968769Y-205081308D01*
X53668692Y-204781231D01*
X53668685Y-204781225D01*
X53346003Y-204505627D01*
X53345989Y-204505617D01*
X53002692Y-204256198D01*
X53002683Y-204256192D01*
X53002672Y-204256184D01*
X53002659Y-204256176D01*
X52640853Y-204034460D01*
X52640848Y-204034457D01*
X52640838Y-204034452D01*
X52640835Y-204034450D01*
X52262716Y-203841789D01*
X52262702Y-203841783D01*
X51870641Y-203679385D01*
X51583478Y-203586081D01*
X51467045Y-203548250D01*
X51054398Y-203449182D01*
X50635250Y-203382796D01*
X50212191Y-203349500D01*
X50212186Y-203349500D01*
X49787814Y-203349500D01*
X49787808Y-203349500D01*
X49364749Y-203382796D01*
X49364748Y-203382796D01*
X48945607Y-203449181D01*
X48945604Y-203449181D01*
X48945602Y-203449182D01*
X48797817Y-203484661D01*
X48532966Y-203548247D01*
X48532960Y-203548248D01*
X48532955Y-203548250D01*
X48532943Y-203548254D01*
X48129358Y-203679385D01*
X47737297Y-203841783D01*
X47737284Y-203841789D01*
X47359151Y-204034457D01*
X47359146Y-204034460D01*
X46997340Y-204256176D01*
X46997307Y-204256198D01*
X46654010Y-204505617D01*
X46653996Y-204505627D01*
X46331314Y-204781225D01*
X46331300Y-204781238D01*
X46031238Y-205081300D01*
X46031225Y-205081314D01*
X45755627Y-205403996D01*
X45755617Y-205404010D01*
X45506198Y-205747307D01*
X45506176Y-205747340D01*
X45284460Y-206109146D01*
X45284457Y-206109151D01*
X45091789Y-206487284D01*
X45091783Y-206487297D01*
X44929385Y-206879358D01*
X44798254Y-207282943D01*
X44798247Y-207282966D01*
X44699181Y-207695607D01*
X44683000Y-207797774D01*
X44632796Y-208114750D01*
X44599500Y-208537814D01*
X38900500Y-208537814D01*
X38867204Y-208114750D01*
X38800818Y-207695602D01*
X38701750Y-207282955D01*
X38570612Y-206879353D01*
X38408211Y-206487284D01*
X38215550Y-206109165D01*
X38215544Y-206109156D01*
X38215542Y-206109151D01*
X38215539Y-206109146D01*
X37993823Y-205747340D01*
X37993816Y-205747328D01*
X37744377Y-205404003D01*
X37744372Y-205403996D01*
X37468774Y-205081314D01*
X37468769Y-205081308D01*
X37168692Y-204781231D01*
X37168685Y-204781225D01*
X36846003Y-204505627D01*
X36845989Y-204505617D01*
X36502692Y-204256198D01*
X36502683Y-204256192D01*
X36502672Y-204256184D01*
X36502659Y-204256176D01*
X36140853Y-204034460D01*
X36140848Y-204034457D01*
X36140838Y-204034452D01*
X36140835Y-204034450D01*
X35762716Y-203841789D01*
X35762702Y-203841783D01*
X35370641Y-203679385D01*
X35083478Y-203586081D01*
X34967045Y-203548250D01*
X34554398Y-203449182D01*
X34135250Y-203382796D01*
X33712191Y-203349500D01*
X33712186Y-203349500D01*
X33287814Y-203349500D01*
X33287808Y-203349500D01*
X32864749Y-203382796D01*
X32864748Y-203382796D01*
X32445607Y-203449181D01*
X32445604Y-203449181D01*
X32445602Y-203449182D01*
X32297817Y-203484661D01*
X32032966Y-203548247D01*
X32032960Y-203548248D01*
X32032955Y-203548250D01*
X32032943Y-203548254D01*
X31629358Y-203679385D01*
X31237297Y-203841783D01*
X31237284Y-203841789D01*
X30859151Y-204034457D01*
X30859146Y-204034460D01*
X30497340Y-204256176D01*
X30497307Y-204256198D01*
X30154010Y-204505617D01*
X30153996Y-204505627D01*
X29831314Y-204781225D01*
X29831300Y-204781238D01*
X29531238Y-205081300D01*
X29531225Y-205081314D01*
X29255627Y-205403996D01*
X29255617Y-205404010D01*
X29006198Y-205747307D01*
X29006176Y-205747340D01*
X28784460Y-206109146D01*
X28784457Y-206109151D01*
X28591789Y-206487284D01*
X28591783Y-206487297D01*
X28429385Y-206879358D01*
X28298254Y-207282943D01*
X28298247Y-207282966D01*
X28199181Y-207695607D01*
X28183000Y-207797774D01*
X28132796Y-208114750D01*
X28099500Y-208537814D01*
X25500500Y-208537814D01*
X25500500Y-190037814D01*
X28099500Y-190037814D01*
X28099500Y-190058097D01*
X28099500Y-190462186D01*
X28132796Y-190885250D01*
X28199182Y-191304398D01*
X28298250Y-191717045D01*
X28298254Y-191717056D01*
X28429385Y-192120641D01*
X28496000Y-192281463D01*
X28591789Y-192512716D01*
X28784450Y-192890835D01*
X28784457Y-192890848D01*
X28784460Y-192890853D01*
X28807375Y-192928246D01*
X29006184Y-193252672D01*
X29006192Y-193252683D01*
X29006198Y-193252692D01*
X29255617Y-193595989D01*
X29255627Y-193596003D01*
X29378919Y-193740358D01*
X29531231Y-193918692D01*
X29831308Y-194218769D01*
X29831314Y-194218774D01*
X30153996Y-194494372D01*
X30154010Y-194494382D01*
X30361749Y-194645313D01*
X30497328Y-194743816D01*
X30625685Y-194822473D01*
X30859146Y-194965539D01*
X30859151Y-194965542D01*
X30859156Y-194965544D01*
X30859165Y-194965550D01*
X31237284Y-195158211D01*
X31629353Y-195320612D01*
X31629358Y-195320614D01*
X31731979Y-195353957D01*
X32032955Y-195451750D01*
X32445602Y-195550818D01*
X32864750Y-195617204D01*
X33287814Y-195650500D01*
X33287822Y-195650500D01*
X33712178Y-195650500D01*
X33712186Y-195650500D01*
X34135250Y-195617204D01*
X34554398Y-195550818D01*
X34967045Y-195451750D01*
X35370647Y-195320612D01*
X35762716Y-195158211D01*
X36140835Y-194965550D01*
X36502672Y-194743816D01*
X36845997Y-194494377D01*
X37168692Y-194218769D01*
X37468769Y-193918692D01*
X37744377Y-193595997D01*
X37993816Y-193252672D01*
X38215550Y-192890835D01*
X38408211Y-192512716D01*
X38570612Y-192120647D01*
X38701750Y-191717045D01*
X38800818Y-191304398D01*
X38867204Y-190885250D01*
X38900500Y-190462186D01*
X38900500Y-190037814D01*
X44599500Y-190037814D01*
X44599500Y-190058097D01*
X44599500Y-190462186D01*
X44632796Y-190885250D01*
X44699182Y-191304398D01*
X44798250Y-191717045D01*
X44798254Y-191717056D01*
X44929385Y-192120641D01*
X44996000Y-192281463D01*
X45091789Y-192512716D01*
X45284450Y-192890835D01*
X45284457Y-192890848D01*
X45284460Y-192890853D01*
X45307375Y-192928246D01*
X45506184Y-193252672D01*
X45506192Y-193252683D01*
X45506198Y-193252692D01*
X45755617Y-193595989D01*
X45755627Y-193596003D01*
X45878919Y-193740358D01*
X46031231Y-193918692D01*
X46331308Y-194218769D01*
X46331314Y-194218774D01*
X46653996Y-194494372D01*
X46654010Y-194494382D01*
X46861749Y-194645313D01*
X46997328Y-194743816D01*
X47125685Y-194822473D01*
X47359146Y-194965539D01*
X47359151Y-194965542D01*
X47359156Y-194965544D01*
X47359165Y-194965550D01*
X47737284Y-195158211D01*
X48129353Y-195320612D01*
X48129358Y-195320614D01*
X48231979Y-195353957D01*
X48532955Y-195451750D01*
X48945602Y-195550818D01*
X49364750Y-195617204D01*
X49787814Y-195650500D01*
X49787822Y-195650500D01*
X50212178Y-195650500D01*
X50212186Y-195650500D01*
X50635250Y-195617204D01*
X51054398Y-195550818D01*
X51467045Y-195451750D01*
X51870647Y-195320612D01*
X52262716Y-195158211D01*
X52640835Y-194965550D01*
X53002672Y-194743816D01*
X53345997Y-194494377D01*
X53668692Y-194218769D01*
X53968769Y-193918692D01*
X54244377Y-193595997D01*
X54493816Y-193252672D01*
X54715550Y-192890835D01*
X54908211Y-192512716D01*
X55070612Y-192120647D01*
X55201750Y-191717045D01*
X55300818Y-191304398D01*
X55367204Y-190885250D01*
X55400500Y-190462186D01*
X55400500Y-190037814D01*
X61099500Y-190037814D01*
X61099500Y-190058097D01*
X61099500Y-190462186D01*
X61132796Y-190885250D01*
X61199182Y-191304398D01*
X61298250Y-191717045D01*
X61298254Y-191717056D01*
X61429385Y-192120641D01*
X61496000Y-192281463D01*
X61591789Y-192512716D01*
X61784450Y-192890835D01*
X61784457Y-192890848D01*
X61784460Y-192890853D01*
X61807375Y-192928246D01*
X62006184Y-193252672D01*
X62006192Y-193252683D01*
X62006198Y-193252692D01*
X62255617Y-193595989D01*
X62255627Y-193596003D01*
X62378919Y-193740358D01*
X62531231Y-193918692D01*
X62831308Y-194218769D01*
X62831314Y-194218774D01*
X63153996Y-194494372D01*
X63154010Y-194494382D01*
X63361749Y-194645313D01*
X63497328Y-194743816D01*
X63625685Y-194822473D01*
X63859146Y-194965539D01*
X63859151Y-194965542D01*
X63859156Y-194965544D01*
X63859165Y-194965550D01*
X64237284Y-195158211D01*
X64629353Y-195320612D01*
X64629358Y-195320614D01*
X64731979Y-195353957D01*
X65032955Y-195451750D01*
X65445602Y-195550818D01*
X65864750Y-195617204D01*
X66287814Y-195650500D01*
X66287822Y-195650500D01*
X66712178Y-195650500D01*
X66712186Y-195650500D01*
X67135250Y-195617204D01*
X67554398Y-195550818D01*
X67967045Y-195451750D01*
X68370647Y-195320612D01*
X68762716Y-195158211D01*
X69140835Y-194965550D01*
X69502672Y-194743816D01*
X69845997Y-194494377D01*
X70168692Y-194218769D01*
X70468769Y-193918692D01*
X70744377Y-193595997D01*
X70993816Y-193252672D01*
X71215550Y-192890835D01*
X71408211Y-192512716D01*
X71570612Y-192120647D01*
X71701750Y-191717045D01*
X71800818Y-191304398D01*
X71867204Y-190885250D01*
X71900500Y-190462186D01*
X71900500Y-190037814D01*
X77599500Y-190037814D01*
X77599500Y-190058097D01*
X77599500Y-190462186D01*
X77632796Y-190885250D01*
X77699182Y-191304398D01*
X77798250Y-191717045D01*
X77798254Y-191717056D01*
X77929385Y-192120641D01*
X77996000Y-192281463D01*
X78091789Y-192512716D01*
X78284450Y-192890835D01*
X78284457Y-192890848D01*
X78284460Y-192890853D01*
X78307375Y-192928246D01*
X78506184Y-193252672D01*
X78506192Y-193252683D01*
X78506198Y-193252692D01*
X78755617Y-193595989D01*
X78755627Y-193596003D01*
X78878919Y-193740358D01*
X79031231Y-193918692D01*
X79331308Y-194218769D01*
X79331314Y-194218774D01*
X79653996Y-194494372D01*
X79654010Y-194494382D01*
X79861749Y-194645313D01*
X79997328Y-194743816D01*
X80125685Y-194822473D01*
X80359146Y-194965539D01*
X80359151Y-194965542D01*
X80359156Y-194965544D01*
X80359165Y-194965550D01*
X80737284Y-195158211D01*
X81129353Y-195320612D01*
X81129358Y-195320614D01*
X81231979Y-195353957D01*
X81532955Y-195451750D01*
X81945602Y-195550818D01*
X82364750Y-195617204D01*
X82787814Y-195650500D01*
X82787822Y-195650500D01*
X83212178Y-195650500D01*
X83212186Y-195650500D01*
X83635250Y-195617204D01*
X84054398Y-195550818D01*
X84467045Y-195451750D01*
X84870647Y-195320612D01*
X85262716Y-195158211D01*
X85640835Y-194965550D01*
X86002672Y-194743816D01*
X86345997Y-194494377D01*
X86668692Y-194218769D01*
X86968769Y-193918692D01*
X87244377Y-193595997D01*
X87493816Y-193252672D01*
X87715550Y-192890835D01*
X87908211Y-192512716D01*
X88070612Y-192120647D01*
X88201750Y-191717045D01*
X88300818Y-191304398D01*
X88367204Y-190885250D01*
X88400500Y-190462186D01*
X88400500Y-190037814D01*
X94599500Y-190037814D01*
X94599500Y-190058097D01*
X94599500Y-190462186D01*
X94632796Y-190885250D01*
X94699182Y-191304398D01*
X94798250Y-191717045D01*
X94798254Y-191717056D01*
X94929385Y-192120641D01*
X94996000Y-192281463D01*
X95091789Y-192512716D01*
X95284450Y-192890835D01*
X95284457Y-192890848D01*
X95284460Y-192890853D01*
X95307375Y-192928246D01*
X95506184Y-193252672D01*
X95506192Y-193252683D01*
X95506198Y-193252692D01*
X95755617Y-193595989D01*
X95755627Y-193596003D01*
X95878919Y-193740358D01*
X96031231Y-193918692D01*
X96331308Y-194218769D01*
X96331314Y-194218774D01*
X96653996Y-194494372D01*
X96654010Y-194494382D01*
X96861749Y-194645313D01*
X96997328Y-194743816D01*
X97125685Y-194822473D01*
X97359146Y-194965539D01*
X97359151Y-194965542D01*
X97359156Y-194965544D01*
X97359165Y-194965550D01*
X97737284Y-195158211D01*
X98129353Y-195320612D01*
X98129358Y-195320614D01*
X98231979Y-195353957D01*
X98532955Y-195451750D01*
X98945602Y-195550818D01*
X99364750Y-195617204D01*
X99787814Y-195650500D01*
X99787822Y-195650500D01*
X100212178Y-195650500D01*
X100212186Y-195650500D01*
X100635250Y-195617204D01*
X101054398Y-195550818D01*
X101467045Y-195451750D01*
X101870647Y-195320612D01*
X102262716Y-195158211D01*
X102640835Y-194965550D01*
X103002672Y-194743816D01*
X103345997Y-194494377D01*
X103668692Y-194218769D01*
X103968769Y-193918692D01*
X104244377Y-193595997D01*
X104493816Y-193252672D01*
X104715550Y-192890835D01*
X104908211Y-192512716D01*
X105070612Y-192120647D01*
X105201750Y-191717045D01*
X105300818Y-191304398D01*
X105367204Y-190885250D01*
X105400500Y-190462186D01*
X105400500Y-190037814D01*
X111599500Y-190037814D01*
X111599500Y-190058097D01*
X111599500Y-190462186D01*
X111632796Y-190885250D01*
X111699182Y-191304398D01*
X111798250Y-191717045D01*
X111798254Y-191717056D01*
X111929385Y-192120641D01*
X111996000Y-192281463D01*
X112091789Y-192512716D01*
X112284450Y-192890835D01*
X112284457Y-192890848D01*
X112284460Y-192890853D01*
X112307375Y-192928246D01*
X112506184Y-193252672D01*
X112506192Y-193252683D01*
X112506198Y-193252692D01*
X112755617Y-193595989D01*
X112755627Y-193596003D01*
X112878919Y-193740358D01*
X113031231Y-193918692D01*
X113331308Y-194218769D01*
X113331314Y-194218774D01*
X113653996Y-194494372D01*
X113654010Y-194494382D01*
X113861749Y-194645313D01*
X113997328Y-194743816D01*
X114125685Y-194822473D01*
X114359146Y-194965539D01*
X114359151Y-194965542D01*
X114359156Y-194965544D01*
X114359165Y-194965550D01*
X114737284Y-195158211D01*
X115129353Y-195320612D01*
X115129358Y-195320614D01*
X115231979Y-195353957D01*
X115532955Y-195451750D01*
X115945602Y-195550818D01*
X116364750Y-195617204D01*
X116787814Y-195650500D01*
X116787822Y-195650500D01*
X117212178Y-195650500D01*
X117212186Y-195650500D01*
X117635250Y-195617204D01*
X118054398Y-195550818D01*
X118467045Y-195451750D01*
X118870647Y-195320612D01*
X119262716Y-195158211D01*
X119640835Y-194965550D01*
X120002672Y-194743816D01*
X120345997Y-194494377D01*
X120668692Y-194218769D01*
X120968769Y-193918692D01*
X121244377Y-193595997D01*
X121493816Y-193252672D01*
X121715550Y-192890835D01*
X121908211Y-192512716D01*
X122070612Y-192120647D01*
X122201750Y-191717045D01*
X122300818Y-191304398D01*
X122367204Y-190885250D01*
X122400500Y-190462186D01*
X122400500Y-190037814D01*
X128099500Y-190037814D01*
X128099500Y-190058097D01*
X128099500Y-190462186D01*
X128132796Y-190885250D01*
X128199182Y-191304398D01*
X128298250Y-191717045D01*
X128298254Y-191717056D01*
X128429385Y-192120641D01*
X128496000Y-192281463D01*
X128591789Y-192512716D01*
X128784450Y-192890835D01*
X128784457Y-192890848D01*
X128784460Y-192890853D01*
X128807375Y-192928246D01*
X129006184Y-193252672D01*
X129006192Y-193252683D01*
X129006198Y-193252692D01*
X129255617Y-193595989D01*
X129255627Y-193596003D01*
X129378919Y-193740358D01*
X129531231Y-193918692D01*
X129831308Y-194218769D01*
X129831314Y-194218774D01*
X130153996Y-194494372D01*
X130154010Y-194494382D01*
X130361749Y-194645313D01*
X130497328Y-194743816D01*
X130625685Y-194822473D01*
X130859146Y-194965539D01*
X130859151Y-194965542D01*
X130859156Y-194965544D01*
X130859165Y-194965550D01*
X131237284Y-195158211D01*
X131629353Y-195320612D01*
X131629358Y-195320614D01*
X131731979Y-195353957D01*
X132032955Y-195451750D01*
X132445602Y-195550818D01*
X132864750Y-195617204D01*
X133287814Y-195650500D01*
X133287822Y-195650500D01*
X133712178Y-195650500D01*
X133712186Y-195650500D01*
X134135250Y-195617204D01*
X134554398Y-195550818D01*
X134967045Y-195451750D01*
X135370647Y-195320612D01*
X135762716Y-195158211D01*
X136140835Y-194965550D01*
X136502672Y-194743816D01*
X136845997Y-194494377D01*
X137168692Y-194218769D01*
X137468769Y-193918692D01*
X137744377Y-193595997D01*
X137993816Y-193252672D01*
X138215550Y-192890835D01*
X138408211Y-192512716D01*
X138570612Y-192120647D01*
X138701750Y-191717045D01*
X138800818Y-191304398D01*
X138867204Y-190885250D01*
X138900500Y-190462186D01*
X138900500Y-190037814D01*
X144599500Y-190037814D01*
X144599500Y-190058097D01*
X144599500Y-190462186D01*
X144632796Y-190885250D01*
X144699182Y-191304398D01*
X144798250Y-191717045D01*
X144798254Y-191717056D01*
X144929385Y-192120641D01*
X144996000Y-192281463D01*
X145091789Y-192512716D01*
X145284450Y-192890835D01*
X145284457Y-192890848D01*
X145284460Y-192890853D01*
X145307375Y-192928246D01*
X145506184Y-193252672D01*
X145506192Y-193252683D01*
X145506198Y-193252692D01*
X145755617Y-193595989D01*
X145755627Y-193596003D01*
X145878919Y-193740358D01*
X146031231Y-193918692D01*
X146331308Y-194218769D01*
X146331314Y-194218774D01*
X146653996Y-194494372D01*
X146654010Y-194494382D01*
X146861749Y-194645313D01*
X146997328Y-194743816D01*
X147125685Y-194822473D01*
X147359146Y-194965539D01*
X147359151Y-194965542D01*
X147359156Y-194965544D01*
X147359165Y-194965550D01*
X147737284Y-195158211D01*
X148129353Y-195320612D01*
X148129358Y-195320614D01*
X148231979Y-195353957D01*
X148532955Y-195451750D01*
X148945602Y-195550818D01*
X149364750Y-195617204D01*
X149787814Y-195650500D01*
X149787822Y-195650500D01*
X150212178Y-195650500D01*
X150212186Y-195650500D01*
X150635250Y-195617204D01*
X151054398Y-195550818D01*
X151467045Y-195451750D01*
X151870647Y-195320612D01*
X152262716Y-195158211D01*
X152640835Y-194965550D01*
X153002672Y-194743816D01*
X153345997Y-194494377D01*
X153668692Y-194218769D01*
X153968769Y-193918692D01*
X154244377Y-193595997D01*
X154493816Y-193252672D01*
X154715550Y-192890835D01*
X154908211Y-192512716D01*
X155070612Y-192120647D01*
X155201750Y-191717045D01*
X155300818Y-191304398D01*
X155367204Y-190885250D01*
X155400500Y-190462186D01*
X155400500Y-190037814D01*
X161099500Y-190037814D01*
X161099500Y-190058097D01*
X161099500Y-190462186D01*
X161132796Y-190885250D01*
X161199182Y-191304398D01*
X161298250Y-191717045D01*
X161298254Y-191717056D01*
X161429385Y-192120641D01*
X161496000Y-192281463D01*
X161591789Y-192512716D01*
X161784450Y-192890835D01*
X161784457Y-192890848D01*
X161784460Y-192890853D01*
X161807375Y-192928246D01*
X162006184Y-193252672D01*
X162006192Y-193252683D01*
X162006198Y-193252692D01*
X162255617Y-193595989D01*
X162255627Y-193596003D01*
X162378919Y-193740358D01*
X162531231Y-193918692D01*
X162831308Y-194218769D01*
X162831314Y-194218774D01*
X163153996Y-194494372D01*
X163154010Y-194494382D01*
X163361749Y-194645313D01*
X163497328Y-194743816D01*
X163625685Y-194822473D01*
X163859146Y-194965539D01*
X163859151Y-194965542D01*
X163859156Y-194965544D01*
X163859165Y-194965550D01*
X164237284Y-195158211D01*
X164629353Y-195320612D01*
X164629358Y-195320614D01*
X164731979Y-195353957D01*
X165032955Y-195451750D01*
X165445602Y-195550818D01*
X165864750Y-195617204D01*
X166287814Y-195650500D01*
X166287822Y-195650500D01*
X166712178Y-195650500D01*
X166712186Y-195650500D01*
X167135250Y-195617204D01*
X167554398Y-195550818D01*
X167967045Y-195451750D01*
X168370647Y-195320612D01*
X168762716Y-195158211D01*
X169140835Y-194965550D01*
X169502672Y-194743816D01*
X169845997Y-194494377D01*
X170168692Y-194218769D01*
X170468769Y-193918692D01*
X170744377Y-193595997D01*
X170993816Y-193252672D01*
X171215550Y-192890835D01*
X171408211Y-192512716D01*
X171570612Y-192120647D01*
X171701750Y-191717045D01*
X171800818Y-191304398D01*
X171867204Y-190885250D01*
X171900500Y-190462186D01*
X171900500Y-190037814D01*
X171867204Y-189614750D01*
X171800818Y-189195602D01*
X171701750Y-188782955D01*
X171570612Y-188379353D01*
X171408211Y-187987284D01*
X171215550Y-187609165D01*
X171215544Y-187609156D01*
X171215542Y-187609151D01*
X171215539Y-187609146D01*
X170993823Y-187247340D01*
X170993816Y-187247328D01*
X170744377Y-186904003D01*
X170744372Y-186903996D01*
X170468774Y-186581314D01*
X170468769Y-186581308D01*
X170168692Y-186281231D01*
X170168685Y-186281225D01*
X169846003Y-186005627D01*
X169845989Y-186005617D01*
X169502692Y-185756198D01*
X169502683Y-185756192D01*
X169502672Y-185756184D01*
X169502659Y-185756176D01*
X169140853Y-185534460D01*
X169140848Y-185534457D01*
X169140838Y-185534452D01*
X169140835Y-185534450D01*
X168762716Y-185341789D01*
X168762702Y-185341783D01*
X168370641Y-185179385D01*
X168083478Y-185086081D01*
X167967045Y-185048250D01*
X167554398Y-184949182D01*
X167135250Y-184882796D01*
X166712191Y-184849500D01*
X166712186Y-184849500D01*
X166287814Y-184849500D01*
X166287808Y-184849500D01*
X165864749Y-184882796D01*
X165864748Y-184882796D01*
X165445607Y-184949181D01*
X165445604Y-184949181D01*
X165445602Y-184949182D01*
X165297817Y-184984661D01*
X165032966Y-185048247D01*
X165032960Y-185048248D01*
X165032955Y-185048250D01*
X165032943Y-185048254D01*
X164629358Y-185179385D01*
X164237297Y-185341783D01*
X164237284Y-185341789D01*
X163859151Y-185534457D01*
X163859146Y-185534460D01*
X163497340Y-185756176D01*
X163497307Y-185756198D01*
X163154010Y-186005617D01*
X163153996Y-186005627D01*
X162831314Y-186281225D01*
X162831300Y-186281238D01*
X162531238Y-186581300D01*
X162531225Y-186581314D01*
X162255627Y-186903996D01*
X162255617Y-186904010D01*
X162006198Y-187247307D01*
X162006176Y-187247340D01*
X161784460Y-187609146D01*
X161784457Y-187609151D01*
X161591789Y-187987284D01*
X161591783Y-187987297D01*
X161429385Y-188379358D01*
X161298254Y-188782943D01*
X161298247Y-188782966D01*
X161199181Y-189195607D01*
X161183000Y-189297774D01*
X161132796Y-189614750D01*
X161099500Y-190037814D01*
X155400500Y-190037814D01*
X155367204Y-189614750D01*
X155300818Y-189195602D01*
X155201750Y-188782955D01*
X155070612Y-188379353D01*
X154908211Y-187987284D01*
X154715550Y-187609165D01*
X154715544Y-187609156D01*
X154715542Y-187609151D01*
X154715539Y-187609146D01*
X154493823Y-187247340D01*
X154493816Y-187247328D01*
X154244377Y-186904003D01*
X154244372Y-186903996D01*
X153968774Y-186581314D01*
X153968769Y-186581308D01*
X153668692Y-186281231D01*
X153668685Y-186281225D01*
X153346003Y-186005627D01*
X153345989Y-186005617D01*
X153002692Y-185756198D01*
X153002683Y-185756192D01*
X153002672Y-185756184D01*
X153002659Y-185756176D01*
X152640853Y-185534460D01*
X152640848Y-185534457D01*
X152640838Y-185534452D01*
X152640835Y-185534450D01*
X152262716Y-185341789D01*
X152262702Y-185341783D01*
X151870641Y-185179385D01*
X151583478Y-185086081D01*
X151467045Y-185048250D01*
X151054398Y-184949182D01*
X150635250Y-184882796D01*
X150212191Y-184849500D01*
X150212186Y-184849500D01*
X149787814Y-184849500D01*
X149787808Y-184849500D01*
X149364749Y-184882796D01*
X149364748Y-184882796D01*
X148945607Y-184949181D01*
X148945604Y-184949181D01*
X148945602Y-184949182D01*
X148797817Y-184984661D01*
X148532966Y-185048247D01*
X148532960Y-185048248D01*
X148532955Y-185048250D01*
X148532943Y-185048254D01*
X148129358Y-185179385D01*
X147737297Y-185341783D01*
X147737284Y-185341789D01*
X147359151Y-185534457D01*
X147359146Y-185534460D01*
X146997340Y-185756176D01*
X146997307Y-185756198D01*
X146654010Y-186005617D01*
X146653996Y-186005627D01*
X146331314Y-186281225D01*
X146331300Y-186281238D01*
X146031238Y-186581300D01*
X146031225Y-186581314D01*
X145755627Y-186903996D01*
X145755617Y-186904010D01*
X145506198Y-187247307D01*
X145506176Y-187247340D01*
X145284460Y-187609146D01*
X145284457Y-187609151D01*
X145091789Y-187987284D01*
X145091783Y-187987297D01*
X144929385Y-188379358D01*
X144798254Y-188782943D01*
X144798247Y-188782966D01*
X144699181Y-189195607D01*
X144683000Y-189297774D01*
X144632796Y-189614750D01*
X144599500Y-190037814D01*
X138900500Y-190037814D01*
X138867204Y-189614750D01*
X138800818Y-189195602D01*
X138701750Y-188782955D01*
X138570612Y-188379353D01*
X138408211Y-187987284D01*
X138215550Y-187609165D01*
X138215544Y-187609156D01*
X138215542Y-187609151D01*
X138215539Y-187609146D01*
X137993823Y-187247340D01*
X137993816Y-187247328D01*
X137744377Y-186904003D01*
X137744372Y-186903996D01*
X137468774Y-186581314D01*
X137468769Y-186581308D01*
X137168692Y-186281231D01*
X137168685Y-186281225D01*
X136846003Y-186005627D01*
X136845989Y-186005617D01*
X136502692Y-185756198D01*
X136502683Y-185756192D01*
X136502672Y-185756184D01*
X136502659Y-185756176D01*
X136140853Y-185534460D01*
X136140848Y-185534457D01*
X136140838Y-185534452D01*
X136140835Y-185534450D01*
X135762716Y-185341789D01*
X135762702Y-185341783D01*
X135370641Y-185179385D01*
X135083478Y-185086081D01*
X134967045Y-185048250D01*
X134554398Y-184949182D01*
X134135250Y-184882796D01*
X133712191Y-184849500D01*
X133712186Y-184849500D01*
X133287814Y-184849500D01*
X133287808Y-184849500D01*
X132864749Y-184882796D01*
X132864748Y-184882796D01*
X132445607Y-184949181D01*
X132445604Y-184949181D01*
X132445602Y-184949182D01*
X132297817Y-184984661D01*
X132032966Y-185048247D01*
X132032960Y-185048248D01*
X132032955Y-185048250D01*
X132032943Y-185048254D01*
X131629358Y-185179385D01*
X131237297Y-185341783D01*
X131237284Y-185341789D01*
X130859151Y-185534457D01*
X130859146Y-185534460D01*
X130497340Y-185756176D01*
X130497307Y-185756198D01*
X130154010Y-186005617D01*
X130153996Y-186005627D01*
X129831314Y-186281225D01*
X129831300Y-186281238D01*
X129531238Y-186581300D01*
X129531225Y-186581314D01*
X129255627Y-186903996D01*
X129255617Y-186904010D01*
X129006198Y-187247307D01*
X129006176Y-187247340D01*
X128784460Y-187609146D01*
X128784457Y-187609151D01*
X128591789Y-187987284D01*
X128591783Y-187987297D01*
X128429385Y-188379358D01*
X128298254Y-188782943D01*
X128298247Y-188782966D01*
X128199181Y-189195607D01*
X128183000Y-189297774D01*
X128132796Y-189614750D01*
X128099500Y-190037814D01*
X122400500Y-190037814D01*
X122367204Y-189614750D01*
X122300818Y-189195602D01*
X122201750Y-188782955D01*
X122070612Y-188379353D01*
X121908211Y-187987284D01*
X121715550Y-187609165D01*
X121715544Y-187609156D01*
X121715542Y-187609151D01*
X121715539Y-187609146D01*
X121493823Y-187247340D01*
X121493816Y-187247328D01*
X121244377Y-186904003D01*
X121244372Y-186903996D01*
X120968774Y-186581314D01*
X120968769Y-186581308D01*
X120668692Y-186281231D01*
X120668685Y-186281225D01*
X120346003Y-186005627D01*
X120345989Y-186005617D01*
X120002692Y-185756198D01*
X120002683Y-185756192D01*
X120002672Y-185756184D01*
X120002659Y-185756176D01*
X119640853Y-185534460D01*
X119640848Y-185534457D01*
X119640838Y-185534452D01*
X119640835Y-185534450D01*
X119262716Y-185341789D01*
X119262702Y-185341783D01*
X118870641Y-185179385D01*
X118583478Y-185086081D01*
X118467045Y-185048250D01*
X118054398Y-184949182D01*
X117635250Y-184882796D01*
X117212191Y-184849500D01*
X117212186Y-184849500D01*
X116787814Y-184849500D01*
X116787808Y-184849500D01*
X116364749Y-184882796D01*
X116364748Y-184882796D01*
X115945607Y-184949181D01*
X115945604Y-184949181D01*
X115945602Y-184949182D01*
X115797817Y-184984661D01*
X115532966Y-185048247D01*
X115532960Y-185048248D01*
X115532955Y-185048250D01*
X115532943Y-185048254D01*
X115129358Y-185179385D01*
X114737297Y-185341783D01*
X114737284Y-185341789D01*
X114359151Y-185534457D01*
X114359146Y-185534460D01*
X113997340Y-185756176D01*
X113997307Y-185756198D01*
X113654010Y-186005617D01*
X113653996Y-186005627D01*
X113331314Y-186281225D01*
X113331300Y-186281238D01*
X113031238Y-186581300D01*
X113031225Y-186581314D01*
X112755627Y-186903996D01*
X112755617Y-186904010D01*
X112506198Y-187247307D01*
X112506176Y-187247340D01*
X112284460Y-187609146D01*
X112284457Y-187609151D01*
X112091789Y-187987284D01*
X112091783Y-187987297D01*
X111929385Y-188379358D01*
X111798254Y-188782943D01*
X111798247Y-188782966D01*
X111699181Y-189195607D01*
X111683000Y-189297774D01*
X111632796Y-189614750D01*
X111599500Y-190037814D01*
X105400500Y-190037814D01*
X105367204Y-189614750D01*
X105300818Y-189195602D01*
X105201750Y-188782955D01*
X105070612Y-188379353D01*
X104908211Y-187987284D01*
X104715550Y-187609165D01*
X104715544Y-187609156D01*
X104715542Y-187609151D01*
X104715539Y-187609146D01*
X104493823Y-187247340D01*
X104493816Y-187247328D01*
X104244377Y-186904003D01*
X104244372Y-186903996D01*
X103968774Y-186581314D01*
X103968769Y-186581308D01*
X103668692Y-186281231D01*
X103668685Y-186281225D01*
X103346003Y-186005627D01*
X103345989Y-186005617D01*
X103002692Y-185756198D01*
X103002683Y-185756192D01*
X103002672Y-185756184D01*
X103002659Y-185756176D01*
X102640853Y-185534460D01*
X102640848Y-185534457D01*
X102640838Y-185534452D01*
X102640835Y-185534450D01*
X102262716Y-185341789D01*
X102262702Y-185341783D01*
X101870641Y-185179385D01*
X101583478Y-185086081D01*
X101467045Y-185048250D01*
X101054398Y-184949182D01*
X100635250Y-184882796D01*
X100212191Y-184849500D01*
X100212186Y-184849500D01*
X99787814Y-184849500D01*
X99787808Y-184849500D01*
X99364749Y-184882796D01*
X99364748Y-184882796D01*
X98945607Y-184949181D01*
X98945604Y-184949181D01*
X98945602Y-184949182D01*
X98797817Y-184984661D01*
X98532966Y-185048247D01*
X98532960Y-185048248D01*
X98532955Y-185048250D01*
X98532943Y-185048254D01*
X98129358Y-185179385D01*
X97737297Y-185341783D01*
X97737284Y-185341789D01*
X97359151Y-185534457D01*
X97359146Y-185534460D01*
X96997340Y-185756176D01*
X96997307Y-185756198D01*
X96654010Y-186005617D01*
X96653996Y-186005627D01*
X96331314Y-186281225D01*
X96331300Y-186281238D01*
X96031238Y-186581300D01*
X96031225Y-186581314D01*
X95755627Y-186903996D01*
X95755617Y-186904010D01*
X95506198Y-187247307D01*
X95506176Y-187247340D01*
X95284460Y-187609146D01*
X95284457Y-187609151D01*
X95091789Y-187987284D01*
X95091783Y-187987297D01*
X94929385Y-188379358D01*
X94798254Y-188782943D01*
X94798247Y-188782966D01*
X94699181Y-189195607D01*
X94683000Y-189297774D01*
X94632796Y-189614750D01*
X94599500Y-190037814D01*
X88400500Y-190037814D01*
X88367204Y-189614750D01*
X88300818Y-189195602D01*
X88201750Y-188782955D01*
X88070612Y-188379353D01*
X87908211Y-187987284D01*
X87715550Y-187609165D01*
X87715544Y-187609156D01*
X87715542Y-187609151D01*
X87715539Y-187609146D01*
X87493823Y-187247340D01*
X87493816Y-187247328D01*
X87244377Y-186904003D01*
X87244372Y-186903996D01*
X86968774Y-186581314D01*
X86968769Y-186581308D01*
X86668692Y-186281231D01*
X86668685Y-186281225D01*
X86346003Y-186005627D01*
X86345989Y-186005617D01*
X86002692Y-185756198D01*
X86002683Y-185756192D01*
X86002672Y-185756184D01*
X86002659Y-185756176D01*
X85640853Y-185534460D01*
X85640848Y-185534457D01*
X85640838Y-185534452D01*
X85640835Y-185534450D01*
X85262716Y-185341789D01*
X85262702Y-185341783D01*
X84870641Y-185179385D01*
X84583478Y-185086081D01*
X84467045Y-185048250D01*
X84054398Y-184949182D01*
X83635250Y-184882796D01*
X83212191Y-184849500D01*
X83212186Y-184849500D01*
X82787814Y-184849500D01*
X82787808Y-184849500D01*
X82364749Y-184882796D01*
X82364748Y-184882796D01*
X81945607Y-184949181D01*
X81945604Y-184949181D01*
X81945602Y-184949182D01*
X81797817Y-184984661D01*
X81532966Y-185048247D01*
X81532960Y-185048248D01*
X81532955Y-185048250D01*
X81532943Y-185048254D01*
X81129358Y-185179385D01*
X80737297Y-185341783D01*
X80737284Y-185341789D01*
X80359151Y-185534457D01*
X80359146Y-185534460D01*
X79997340Y-185756176D01*
X79997307Y-185756198D01*
X79654010Y-186005617D01*
X79653996Y-186005627D01*
X79331314Y-186281225D01*
X79331300Y-186281238D01*
X79031238Y-186581300D01*
X79031225Y-186581314D01*
X78755627Y-186903996D01*
X78755617Y-186904010D01*
X78506198Y-187247307D01*
X78506176Y-187247340D01*
X78284460Y-187609146D01*
X78284457Y-187609151D01*
X78091789Y-187987284D01*
X78091783Y-187987297D01*
X77929385Y-188379358D01*
X77798254Y-188782943D01*
X77798247Y-188782966D01*
X77699181Y-189195607D01*
X77683000Y-189297774D01*
X77632796Y-189614750D01*
X77599500Y-190037814D01*
X71900500Y-190037814D01*
X71867204Y-189614750D01*
X71800818Y-189195602D01*
X71701750Y-188782955D01*
X71570612Y-188379353D01*
X71408211Y-187987284D01*
X71215550Y-187609165D01*
X71215544Y-187609156D01*
X71215542Y-187609151D01*
X71215539Y-187609146D01*
X70993823Y-187247340D01*
X70993816Y-187247328D01*
X70744377Y-186904003D01*
X70744372Y-186903996D01*
X70468774Y-186581314D01*
X70468769Y-186581308D01*
X70168692Y-186281231D01*
X70168685Y-186281225D01*
X69846003Y-186005627D01*
X69845989Y-186005617D01*
X69502692Y-185756198D01*
X69502683Y-185756192D01*
X69502672Y-185756184D01*
X69502659Y-185756176D01*
X69140853Y-185534460D01*
X69140848Y-185534457D01*
X69140838Y-185534452D01*
X69140835Y-185534450D01*
X68762716Y-185341789D01*
X68762702Y-185341783D01*
X68370641Y-185179385D01*
X68083478Y-185086081D01*
X67967045Y-185048250D01*
X67554398Y-184949182D01*
X67135250Y-184882796D01*
X66712191Y-184849500D01*
X66712186Y-184849500D01*
X66287814Y-184849500D01*
X66287808Y-184849500D01*
X65864749Y-184882796D01*
X65864748Y-184882796D01*
X65445607Y-184949181D01*
X65445604Y-184949181D01*
X65445602Y-184949182D01*
X65297817Y-184984661D01*
X65032966Y-185048247D01*
X65032960Y-185048248D01*
X65032955Y-185048250D01*
X65032943Y-185048254D01*
X64629358Y-185179385D01*
X64237297Y-185341783D01*
X64237284Y-185341789D01*
X63859151Y-185534457D01*
X63859146Y-185534460D01*
X63497340Y-185756176D01*
X63497307Y-185756198D01*
X63154010Y-186005617D01*
X63153996Y-186005627D01*
X62831314Y-186281225D01*
X62831300Y-186281238D01*
X62531238Y-186581300D01*
X62531225Y-186581314D01*
X62255627Y-186903996D01*
X62255617Y-186904010D01*
X62006198Y-187247307D01*
X62006176Y-187247340D01*
X61784460Y-187609146D01*
X61784457Y-187609151D01*
X61591789Y-187987284D01*
X61591783Y-187987297D01*
X61429385Y-188379358D01*
X61298254Y-188782943D01*
X61298247Y-188782966D01*
X61199181Y-189195607D01*
X61183000Y-189297774D01*
X61132796Y-189614750D01*
X61099500Y-190037814D01*
X55400500Y-190037814D01*
X55367204Y-189614750D01*
X55300818Y-189195602D01*
X55201750Y-188782955D01*
X55070612Y-188379353D01*
X54908211Y-187987284D01*
X54715550Y-187609165D01*
X54715544Y-187609156D01*
X54715542Y-187609151D01*
X54715539Y-187609146D01*
X54493823Y-187247340D01*
X54493816Y-187247328D01*
X54244377Y-186904003D01*
X54244372Y-186903996D01*
X53968774Y-186581314D01*
X53968769Y-186581308D01*
X53668692Y-186281231D01*
X53668685Y-186281225D01*
X53346003Y-186005627D01*
X53345989Y-186005617D01*
X53002692Y-185756198D01*
X53002683Y-185756192D01*
X53002672Y-185756184D01*
X53002659Y-185756176D01*
X52640853Y-185534460D01*
X52640848Y-185534457D01*
X52640838Y-185534452D01*
X52640835Y-185534450D01*
X52262716Y-185341789D01*
X52262702Y-185341783D01*
X51870641Y-185179385D01*
X51583478Y-185086081D01*
X51467045Y-185048250D01*
X51054398Y-184949182D01*
X50635250Y-184882796D01*
X50212191Y-184849500D01*
X50212186Y-184849500D01*
X49787814Y-184849500D01*
X49787808Y-184849500D01*
X49364749Y-184882796D01*
X49364748Y-184882796D01*
X48945607Y-184949181D01*
X48945604Y-184949181D01*
X48945602Y-184949182D01*
X48797817Y-184984661D01*
X48532966Y-185048247D01*
X48532960Y-185048248D01*
X48532955Y-185048250D01*
X48532943Y-185048254D01*
X48129358Y-185179385D01*
X47737297Y-185341783D01*
X47737284Y-185341789D01*
X47359151Y-185534457D01*
X47359146Y-185534460D01*
X46997340Y-185756176D01*
X46997307Y-185756198D01*
X46654010Y-186005617D01*
X46653996Y-186005627D01*
X46331314Y-186281225D01*
X46331300Y-186281238D01*
X46031238Y-186581300D01*
X46031225Y-186581314D01*
X45755627Y-186903996D01*
X45755617Y-186904010D01*
X45506198Y-187247307D01*
X45506176Y-187247340D01*
X45284460Y-187609146D01*
X45284457Y-187609151D01*
X45091789Y-187987284D01*
X45091783Y-187987297D01*
X44929385Y-188379358D01*
X44798254Y-188782943D01*
X44798247Y-188782966D01*
X44699181Y-189195607D01*
X44683000Y-189297774D01*
X44632796Y-189614750D01*
X44599500Y-190037814D01*
X38900500Y-190037814D01*
X38867204Y-189614750D01*
X38800818Y-189195602D01*
X38701750Y-188782955D01*
X38570612Y-188379353D01*
X38408211Y-187987284D01*
X38215550Y-187609165D01*
X38215544Y-187609156D01*
X38215542Y-187609151D01*
X38215539Y-187609146D01*
X37993823Y-187247340D01*
X37993816Y-187247328D01*
X37744377Y-186904003D01*
X37744372Y-186903996D01*
X37468774Y-186581314D01*
X37468769Y-186581308D01*
X37168692Y-186281231D01*
X37168685Y-186281225D01*
X36846003Y-186005627D01*
X36845989Y-186005617D01*
X36502692Y-185756198D01*
X36502683Y-185756192D01*
X36502672Y-185756184D01*
X36502659Y-185756176D01*
X36140853Y-185534460D01*
X36140848Y-185534457D01*
X36140838Y-185534452D01*
X36140835Y-185534450D01*
X35762716Y-185341789D01*
X35762702Y-185341783D01*
X35370641Y-185179385D01*
X35083478Y-185086081D01*
X34967045Y-185048250D01*
X34554398Y-184949182D01*
X34135250Y-184882796D01*
X33712191Y-184849500D01*
X33712186Y-184849500D01*
X33287814Y-184849500D01*
X33287808Y-184849500D01*
X32864749Y-184882796D01*
X32864748Y-184882796D01*
X32445607Y-184949181D01*
X32445604Y-184949181D01*
X32445602Y-184949182D01*
X32297817Y-184984661D01*
X32032966Y-185048247D01*
X32032960Y-185048248D01*
X32032955Y-185048250D01*
X32032943Y-185048254D01*
X31629358Y-185179385D01*
X31237297Y-185341783D01*
X31237284Y-185341789D01*
X30859151Y-185534457D01*
X30859146Y-185534460D01*
X30497340Y-185756176D01*
X30497307Y-185756198D01*
X30154010Y-186005617D01*
X30153996Y-186005627D01*
X29831314Y-186281225D01*
X29831300Y-186281238D01*
X29531238Y-186581300D01*
X29531225Y-186581314D01*
X29255627Y-186903996D01*
X29255617Y-186904010D01*
X29006198Y-187247307D01*
X29006176Y-187247340D01*
X28784460Y-187609146D01*
X28784457Y-187609151D01*
X28591789Y-187987284D01*
X28591783Y-187987297D01*
X28429385Y-188379358D01*
X28298254Y-188782943D01*
X28298247Y-188782966D01*
X28199181Y-189195607D01*
X28183000Y-189297774D01*
X28132796Y-189614750D01*
X28099500Y-190037814D01*
X25500500Y-190037814D01*
X25500500Y-171537814D01*
X28099500Y-171537814D01*
X28099500Y-171558097D01*
X28099500Y-171962186D01*
X28132796Y-172385250D01*
X28199182Y-172804398D01*
X28298250Y-173217045D01*
X28298254Y-173217056D01*
X28429385Y-173620641D01*
X28496000Y-173781463D01*
X28591789Y-174012716D01*
X28784450Y-174390835D01*
X28784457Y-174390848D01*
X28784460Y-174390853D01*
X28807375Y-174428246D01*
X29006184Y-174752672D01*
X29006192Y-174752683D01*
X29006198Y-174752692D01*
X29255617Y-175095989D01*
X29255627Y-175096003D01*
X29378919Y-175240358D01*
X29531231Y-175418692D01*
X29831308Y-175718769D01*
X29831314Y-175718774D01*
X30153996Y-175994372D01*
X30154010Y-175994382D01*
X30361749Y-176145313D01*
X30497328Y-176243816D01*
X30625685Y-176322473D01*
X30859146Y-176465539D01*
X30859151Y-176465542D01*
X30859156Y-176465544D01*
X30859165Y-176465550D01*
X31237284Y-176658211D01*
X31629353Y-176820612D01*
X31629358Y-176820614D01*
X31731979Y-176853957D01*
X32032955Y-176951750D01*
X32445602Y-177050818D01*
X32864750Y-177117204D01*
X33287814Y-177150500D01*
X33287822Y-177150500D01*
X33712178Y-177150500D01*
X33712186Y-177150500D01*
X34135250Y-177117204D01*
X34554398Y-177050818D01*
X34967045Y-176951750D01*
X35370647Y-176820612D01*
X35762716Y-176658211D01*
X36140835Y-176465550D01*
X36502672Y-176243816D01*
X36845997Y-175994377D01*
X37168692Y-175718769D01*
X37468769Y-175418692D01*
X37744377Y-175095997D01*
X37993816Y-174752672D01*
X38215550Y-174390835D01*
X38408211Y-174012716D01*
X38570612Y-173620647D01*
X38701750Y-173217045D01*
X38800818Y-172804398D01*
X38867204Y-172385250D01*
X38900500Y-171962186D01*
X38900500Y-171537814D01*
X161099500Y-171537814D01*
X161099500Y-171558097D01*
X161099500Y-171962186D01*
X161132796Y-172385250D01*
X161199182Y-172804398D01*
X161298250Y-173217045D01*
X161298254Y-173217056D01*
X161429385Y-173620641D01*
X161496000Y-173781463D01*
X161591789Y-174012716D01*
X161784450Y-174390835D01*
X161784457Y-174390848D01*
X161784460Y-174390853D01*
X161807375Y-174428246D01*
X162006184Y-174752672D01*
X162006192Y-174752683D01*
X162006198Y-174752692D01*
X162255617Y-175095989D01*
X162255627Y-175096003D01*
X162378919Y-175240358D01*
X162531231Y-175418692D01*
X162831308Y-175718769D01*
X162831314Y-175718774D01*
X163153996Y-175994372D01*
X163154010Y-175994382D01*
X163361749Y-176145313D01*
X163497328Y-176243816D01*
X163625685Y-176322473D01*
X163859146Y-176465539D01*
X163859151Y-176465542D01*
X163859156Y-176465544D01*
X163859165Y-176465550D01*
X164237284Y-176658211D01*
X164629353Y-176820612D01*
X164629358Y-176820614D01*
X164731979Y-176853957D01*
X165032955Y-176951750D01*
X165445602Y-177050818D01*
X165864750Y-177117204D01*
X166287814Y-177150500D01*
X166287822Y-177150500D01*
X166712178Y-177150500D01*
X166712186Y-177150500D01*
X167135250Y-177117204D01*
X167554398Y-177050818D01*
X167967045Y-176951750D01*
X168370647Y-176820612D01*
X168762716Y-176658211D01*
X169140835Y-176465550D01*
X169502672Y-176243816D01*
X169845997Y-175994377D01*
X170168692Y-175718769D01*
X170468769Y-175418692D01*
X170744377Y-175095997D01*
X170993816Y-174752672D01*
X171215550Y-174390835D01*
X171408211Y-174012716D01*
X171570612Y-173620647D01*
X171701750Y-173217045D01*
X171800818Y-172804398D01*
X171867204Y-172385250D01*
X171900500Y-171962186D01*
X171900500Y-171537814D01*
X171867204Y-171114750D01*
X171800818Y-170695602D01*
X171701750Y-170282955D01*
X171570612Y-169879353D01*
X171408211Y-169487284D01*
X171215550Y-169109165D01*
X171215544Y-169109156D01*
X171215542Y-169109151D01*
X171215539Y-169109146D01*
X170993823Y-168747340D01*
X170993816Y-168747328D01*
X170744377Y-168404003D01*
X170744372Y-168403996D01*
X170468774Y-168081314D01*
X170468769Y-168081308D01*
X170168692Y-167781231D01*
X170168685Y-167781225D01*
X169846003Y-167505627D01*
X169845989Y-167505617D01*
X169502692Y-167256198D01*
X169502683Y-167256192D01*
X169502672Y-167256184D01*
X169502659Y-167256176D01*
X169140853Y-167034460D01*
X169140848Y-167034457D01*
X169140838Y-167034452D01*
X169140835Y-167034450D01*
X168762716Y-166841789D01*
X168762702Y-166841783D01*
X168370641Y-166679385D01*
X168083478Y-166586081D01*
X167967045Y-166548250D01*
X167554398Y-166449182D01*
X167135250Y-166382796D01*
X166712191Y-166349500D01*
X166712186Y-166349500D01*
X166287814Y-166349500D01*
X166287808Y-166349500D01*
X165864749Y-166382796D01*
X165864748Y-166382796D01*
X165445607Y-166449181D01*
X165445604Y-166449181D01*
X165445602Y-166449182D01*
X165297817Y-166484661D01*
X165032966Y-166548247D01*
X165032960Y-166548248D01*
X165032955Y-166548250D01*
X165032943Y-166548254D01*
X164629358Y-166679385D01*
X164237297Y-166841783D01*
X164237284Y-166841789D01*
X163859151Y-167034457D01*
X163859146Y-167034460D01*
X163497340Y-167256176D01*
X163497307Y-167256198D01*
X163154010Y-167505617D01*
X163153996Y-167505627D01*
X162831314Y-167781225D01*
X162831300Y-167781238D01*
X162531238Y-168081300D01*
X162531225Y-168081314D01*
X162255627Y-168403996D01*
X162255617Y-168404010D01*
X162006198Y-168747307D01*
X162006176Y-168747340D01*
X161784460Y-169109146D01*
X161784457Y-169109151D01*
X161591789Y-169487284D01*
X161591783Y-169487297D01*
X161429385Y-169879358D01*
X161298254Y-170282943D01*
X161298247Y-170282966D01*
X161199181Y-170695607D01*
X161183000Y-170797774D01*
X161132796Y-171114750D01*
X161099500Y-171537814D01*
X38900500Y-171537814D01*
X38867204Y-171114750D01*
X38800818Y-170695602D01*
X38701750Y-170282955D01*
X38570612Y-169879353D01*
X38408211Y-169487284D01*
X38215550Y-169109165D01*
X38215544Y-169109156D01*
X38215542Y-169109151D01*
X38215539Y-169109146D01*
X37993823Y-168747340D01*
X37993816Y-168747328D01*
X37744377Y-168404003D01*
X37744372Y-168403996D01*
X37468774Y-168081314D01*
X37468769Y-168081308D01*
X37168692Y-167781231D01*
X37168685Y-167781225D01*
X36846003Y-167505627D01*
X36845989Y-167505617D01*
X36502692Y-167256198D01*
X36502683Y-167256192D01*
X36502672Y-167256184D01*
X36502659Y-167256176D01*
X36140853Y-167034460D01*
X36140848Y-167034457D01*
X36140838Y-167034452D01*
X36140835Y-167034450D01*
X35762716Y-166841789D01*
X35762702Y-166841783D01*
X35370641Y-166679385D01*
X35083478Y-166586081D01*
X34967045Y-166548250D01*
X34554398Y-166449182D01*
X34135250Y-166382796D01*
X33712191Y-166349500D01*
X33712186Y-166349500D01*
X33287814Y-166349500D01*
X33287808Y-166349500D01*
X32864749Y-166382796D01*
X32864748Y-166382796D01*
X32445607Y-166449181D01*
X32445604Y-166449181D01*
X32445602Y-166449182D01*
X32297817Y-166484661D01*
X32032966Y-166548247D01*
X32032960Y-166548248D01*
X32032955Y-166548250D01*
X32032943Y-166548254D01*
X31629358Y-166679385D01*
X31237297Y-166841783D01*
X31237284Y-166841789D01*
X30859151Y-167034457D01*
X30859146Y-167034460D01*
X30497340Y-167256176D01*
X30497307Y-167256198D01*
X30154010Y-167505617D01*
X30153996Y-167505627D01*
X29831314Y-167781225D01*
X29831300Y-167781238D01*
X29531238Y-168081300D01*
X29531225Y-168081314D01*
X29255627Y-168403996D01*
X29255617Y-168404010D01*
X29006198Y-168747307D01*
X29006176Y-168747340D01*
X28784460Y-169109146D01*
X28784457Y-169109151D01*
X28591789Y-169487284D01*
X28591783Y-169487297D01*
X28429385Y-169879358D01*
X28298254Y-170282943D01*
X28298247Y-170282966D01*
X28199181Y-170695607D01*
X28183000Y-170797774D01*
X28132796Y-171114750D01*
X28099500Y-171537814D01*
X25500500Y-171537814D01*
X25500500Y-155053471D01*
X45999500Y-155053471D01*
X45999500Y-155446528D01*
X46038026Y-155837702D01*
X46114704Y-156223194D01*
X46114707Y-156223205D01*
X46228810Y-156599354D01*
X46379230Y-156962499D01*
X46379232Y-156962504D01*
X46564511Y-157309137D01*
X46564522Y-157309155D01*
X46782887Y-157635960D01*
X46782897Y-157635974D01*
X47032254Y-157939817D01*
X47310182Y-158217745D01*
X47310187Y-158217749D01*
X47310188Y-158217750D01*
X47614031Y-158467107D01*
X47940851Y-158685482D01*
X47940860Y-158685487D01*
X47940862Y-158685488D01*
X48287495Y-158870767D01*
X48287497Y-158870767D01*
X48287503Y-158870771D01*
X48650647Y-159021190D01*
X49026785Y-159135290D01*
X49026791Y-159135291D01*
X49026794Y-159135292D01*
X49026805Y-159135295D01*
X49412297Y-159211973D01*
X49803468Y-159250500D01*
X49803471Y-159250500D01*
X50196529Y-159250500D01*
X50196532Y-159250500D01*
X50587703Y-159211973D01*
X50662748Y-159197045D01*
X50973194Y-159135295D01*
X50973205Y-159135292D01*
X50973205Y-159135291D01*
X50973215Y-159135290D01*
X51349353Y-159021190D01*
X51712497Y-158870771D01*
X52059149Y-158685482D01*
X52385969Y-158467107D01*
X52689812Y-158217750D01*
X52967750Y-157939812D01*
X53217107Y-157635969D01*
X53435482Y-157309149D01*
X53620771Y-156962497D01*
X53771190Y-156599353D01*
X53885290Y-156223215D01*
X53885292Y-156223205D01*
X53885295Y-156223194D01*
X53961973Y-155837702D01*
X54000500Y-155446528D01*
X54000500Y-155053471D01*
X145999500Y-155053471D01*
X145999500Y-155446528D01*
X146038026Y-155837702D01*
X146114704Y-156223194D01*
X146114707Y-156223205D01*
X146228810Y-156599354D01*
X146379230Y-156962499D01*
X146379232Y-156962504D01*
X146564511Y-157309137D01*
X146564522Y-157309155D01*
X146782887Y-157635960D01*
X146782897Y-157635974D01*
X147032254Y-157939817D01*
X147310182Y-158217745D01*
X147310187Y-158217749D01*
X147310188Y-158217750D01*
X147614031Y-158467107D01*
X147940851Y-158685482D01*
X147940860Y-158685487D01*
X147940862Y-158685488D01*
X148287495Y-158870767D01*
X148287497Y-158870767D01*
X148287503Y-158870771D01*
X148650647Y-159021190D01*
X149026785Y-159135290D01*
X149026791Y-159135291D01*
X149026794Y-159135292D01*
X149026805Y-159135295D01*
X149412297Y-159211973D01*
X149803468Y-159250500D01*
X149803471Y-159250500D01*
X150196529Y-159250500D01*
X150196532Y-159250500D01*
X150587703Y-159211973D01*
X150662748Y-159197045D01*
X150973194Y-159135295D01*
X150973205Y-159135292D01*
X150973205Y-159135291D01*
X150973215Y-159135290D01*
X151349353Y-159021190D01*
X151712497Y-158870771D01*
X152059149Y-158685482D01*
X152385969Y-158467107D01*
X152689812Y-158217750D01*
X152967750Y-157939812D01*
X153217107Y-157635969D01*
X153435482Y-157309149D01*
X153620771Y-156962497D01*
X153771190Y-156599353D01*
X153885290Y-156223215D01*
X153885292Y-156223205D01*
X153885295Y-156223194D01*
X153961973Y-155837702D01*
X154000500Y-155446528D01*
X154000500Y-155053471D01*
X153961973Y-154662297D01*
X153885295Y-154276805D01*
X153885292Y-154276794D01*
X153885291Y-154276791D01*
X153885290Y-154276785D01*
X153771190Y-153900647D01*
X153620771Y-153537503D01*
X153608355Y-153514275D01*
X153435488Y-153190862D01*
X153435487Y-153190860D01*
X153435482Y-153190851D01*
X153217107Y-152864031D01*
X152967750Y-152560188D01*
X152967749Y-152560187D01*
X152967745Y-152560182D01*
X152689817Y-152282254D01*
X152385974Y-152032897D01*
X152385973Y-152032896D01*
X152385969Y-152032893D01*
X152059149Y-151814518D01*
X152059144Y-151814515D01*
X152059137Y-151814511D01*
X151712504Y-151629232D01*
X151712499Y-151629230D01*
X151349354Y-151478810D01*
X150973205Y-151364707D01*
X150973194Y-151364704D01*
X150587702Y-151288026D01*
X150293089Y-151259010D01*
X150196532Y-151249500D01*
X149803468Y-151249500D01*
X149714251Y-151258287D01*
X149412297Y-151288026D01*
X149026805Y-151364704D01*
X149026794Y-151364707D01*
X148650645Y-151478810D01*
X148287500Y-151629230D01*
X148287495Y-151629232D01*
X147940862Y-151814511D01*
X147940844Y-151814522D01*
X147614039Y-152032887D01*
X147614025Y-152032897D01*
X147310182Y-152282254D01*
X147032254Y-152560182D01*
X146782897Y-152864025D01*
X146782887Y-152864039D01*
X146564522Y-153190844D01*
X146564511Y-153190862D01*
X146379232Y-153537495D01*
X146379230Y-153537500D01*
X146228810Y-153900645D01*
X146114707Y-154276794D01*
X146114704Y-154276805D01*
X146038026Y-154662297D01*
X145999500Y-155053471D01*
X54000500Y-155053471D01*
X53961973Y-154662297D01*
X53885295Y-154276805D01*
X53885292Y-154276794D01*
X53885291Y-154276791D01*
X53885290Y-154276785D01*
X53771190Y-153900647D01*
X53620771Y-153537503D01*
X53608355Y-153514275D01*
X53435488Y-153190862D01*
X53435487Y-153190860D01*
X53435482Y-153190851D01*
X53217107Y-152864031D01*
X52967750Y-152560188D01*
X52967749Y-152560187D01*
X52967745Y-152560182D01*
X52689817Y-152282254D01*
X52385974Y-152032897D01*
X52385973Y-152032896D01*
X52385969Y-152032893D01*
X52059149Y-151814518D01*
X52059144Y-151814515D01*
X52059137Y-151814511D01*
X51712504Y-151629232D01*
X51712499Y-151629230D01*
X51349354Y-151478810D01*
X50973205Y-151364707D01*
X50973194Y-151364704D01*
X50587702Y-151288026D01*
X50293089Y-151259010D01*
X50196532Y-151249500D01*
X49803468Y-151249500D01*
X49714251Y-151258287D01*
X49412297Y-151288026D01*
X49026805Y-151364704D01*
X49026794Y-151364707D01*
X48650645Y-151478810D01*
X48287500Y-151629230D01*
X48287495Y-151629232D01*
X47940862Y-151814511D01*
X47940844Y-151814522D01*
X47614039Y-152032887D01*
X47614025Y-152032897D01*
X47310182Y-152282254D01*
X47032254Y-152560182D01*
X46782897Y-152864025D01*
X46782887Y-152864039D01*
X46564522Y-153190844D01*
X46564511Y-153190862D01*
X46379232Y-153537495D01*
X46379230Y-153537500D01*
X46228810Y-153900645D01*
X46114707Y-154276794D01*
X46114704Y-154276805D01*
X46038026Y-154662297D01*
X45999500Y-155053471D01*
X25500500Y-155053471D01*
X25500500Y-147631995D01*
X68199500Y-147631995D01*
X68199500Y-147868004D01*
X68199501Y-147868020D01*
X68230306Y-148102010D01*
X68291394Y-148329993D01*
X68381714Y-148548045D01*
X68381719Y-148548056D01*
X68452677Y-148670957D01*
X68499727Y-148752450D01*
X68499729Y-148752453D01*
X68499730Y-148752454D01*
X68643406Y-148939697D01*
X68643412Y-148939704D01*
X68810295Y-149106587D01*
X68810301Y-149106592D01*
X68997550Y-149250273D01*
X69128918Y-149326118D01*
X69201943Y-149368280D01*
X69201948Y-149368282D01*
X69201951Y-149368284D01*
X69420007Y-149458606D01*
X69647986Y-149519693D01*
X69881989Y-149550500D01*
X69881996Y-149550500D01*
X70118004Y-149550500D01*
X70118011Y-149550500D01*
X70352014Y-149519693D01*
X70579993Y-149458606D01*
X70798049Y-149368284D01*
X71002450Y-149250273D01*
X71189699Y-149106592D01*
X71356592Y-148939699D01*
X71500273Y-148752450D01*
X71618284Y-148548049D01*
X71708606Y-148329993D01*
X71769693Y-148102014D01*
X71800500Y-147868011D01*
X71800500Y-147631995D01*
X128199500Y-147631995D01*
X128199500Y-147868004D01*
X128199501Y-147868020D01*
X128230306Y-148102010D01*
X128291394Y-148329993D01*
X128381714Y-148548045D01*
X128381719Y-148548056D01*
X128452677Y-148670957D01*
X128499727Y-148752450D01*
X128499729Y-148752453D01*
X128499730Y-148752454D01*
X128643406Y-148939697D01*
X128643412Y-148939704D01*
X128810295Y-149106587D01*
X128810301Y-149106592D01*
X128997550Y-149250273D01*
X129128918Y-149326118D01*
X129201943Y-149368280D01*
X129201948Y-149368282D01*
X129201951Y-149368284D01*
X129420007Y-149458606D01*
X129647986Y-149519693D01*
X129881989Y-149550500D01*
X129881996Y-149550500D01*
X130118004Y-149550500D01*
X130118011Y-149550500D01*
X130352014Y-149519693D01*
X130579993Y-149458606D01*
X130798049Y-149368284D01*
X131002450Y-149250273D01*
X131189699Y-149106592D01*
X131356592Y-148939699D01*
X131500273Y-148752450D01*
X131618284Y-148548049D01*
X131708606Y-148329993D01*
X131769693Y-148102014D01*
X131800500Y-147868011D01*
X131800500Y-147631989D01*
X131769693Y-147397986D01*
X131708606Y-147170007D01*
X131618284Y-146951951D01*
X131618282Y-146951948D01*
X131618280Y-146951943D01*
X131576118Y-146878918D01*
X131500273Y-146747550D01*
X131356592Y-146560301D01*
X131356587Y-146560295D01*
X131189704Y-146393412D01*
X131189697Y-146393406D01*
X131002454Y-146249730D01*
X131002453Y-146249729D01*
X131002450Y-146249727D01*
X130920957Y-146202677D01*
X130798056Y-146131719D01*
X130798045Y-146131714D01*
X130579993Y-146041394D01*
X130352010Y-145980306D01*
X130118020Y-145949501D01*
X130118017Y-145949500D01*
X130118011Y-145949500D01*
X129881989Y-145949500D01*
X129881983Y-145949500D01*
X129881979Y-145949501D01*
X129647989Y-145980306D01*
X129420006Y-146041394D01*
X129201954Y-146131714D01*
X129201943Y-146131719D01*
X128997545Y-146249730D01*
X128810302Y-146393406D01*
X128810295Y-146393412D01*
X128643412Y-146560295D01*
X128643406Y-146560302D01*
X128499730Y-146747545D01*
X128381719Y-146951943D01*
X128381714Y-146951954D01*
X128291394Y-147170006D01*
X128230306Y-147397989D01*
X128199501Y-147631979D01*
X128199500Y-147631995D01*
X71800500Y-147631995D01*
X71800500Y-147631989D01*
X71769693Y-147397986D01*
X71708606Y-147170007D01*
X71618284Y-146951951D01*
X71618282Y-146951948D01*
X71618280Y-146951943D01*
X71576118Y-146878918D01*
X71500273Y-146747550D01*
X71356592Y-146560301D01*
X71356587Y-146560295D01*
X71189704Y-146393412D01*
X71189697Y-146393406D01*
X71002454Y-146249730D01*
X71002453Y-146249729D01*
X71002450Y-146249727D01*
X70920957Y-146202677D01*
X70798056Y-146131719D01*
X70798045Y-146131714D01*
X70579993Y-146041394D01*
X70352010Y-145980306D01*
X70118020Y-145949501D01*
X70118017Y-145949500D01*
X70118011Y-145949500D01*
X69881989Y-145949500D01*
X69881983Y-145949500D01*
X69881979Y-145949501D01*
X69647989Y-145980306D01*
X69420006Y-146041394D01*
X69201954Y-146131714D01*
X69201943Y-146131719D01*
X68997545Y-146249730D01*
X68810302Y-146393406D01*
X68810295Y-146393412D01*
X68643412Y-146560295D01*
X68643406Y-146560302D01*
X68499730Y-146747545D01*
X68381719Y-146951943D01*
X68381714Y-146951954D01*
X68291394Y-147170006D01*
X68230306Y-147397989D01*
X68199501Y-147631979D01*
X68199500Y-147631995D01*
X25500500Y-147631995D01*
X25500500Y-140031669D01*
X82499500Y-140031669D01*
X82499500Y-140468330D01*
X82537557Y-140903320D01*
X82537557Y-140903324D01*
X82613379Y-141333327D01*
X82613383Y-141333344D01*
X82726392Y-141755105D01*
X82875740Y-142165434D01*
X82875746Y-142165449D01*
X83060272Y-142561164D01*
X83060277Y-142561174D01*
X83278603Y-142939326D01*
X83278607Y-142939332D01*
X83278614Y-142939343D01*
X83529057Y-143297013D01*
X83731930Y-143538787D01*
X83809732Y-143631507D01*
X84118493Y-143940268D01*
X84208395Y-144015705D01*
X84452986Y-144220942D01*
X84810656Y-144471385D01*
X84810663Y-144471389D01*
X84810674Y-144471397D01*
X85188826Y-144689723D01*
X85188835Y-144689727D01*
X85584550Y-144874253D01*
X85584555Y-144874255D01*
X85584568Y-144874261D01*
X85994888Y-145023605D01*
X85994889Y-145023605D01*
X85994894Y-145023607D01*
X86127398Y-145059110D01*
X86416663Y-145136619D01*
X86846682Y-145212443D01*
X87281671Y-145250499D01*
X87281672Y-145250500D01*
X87281673Y-145250500D01*
X87718328Y-145250500D01*
X87718328Y-145250499D01*
X88153318Y-145212443D01*
X88583337Y-145136619D01*
X89005112Y-145023605D01*
X89415432Y-144874261D01*
X89811174Y-144689723D01*
X90189326Y-144471397D01*
X90547012Y-144220943D01*
X90881507Y-143940268D01*
X91190268Y-143631507D01*
X91470943Y-143297012D01*
X91721397Y-142939326D01*
X91939723Y-142561174D01*
X92124261Y-142165432D01*
X92273605Y-141755112D01*
X92386619Y-141333337D01*
X92462443Y-140903318D01*
X92500500Y-140468327D01*
X92500500Y-140031673D01*
X92500500Y-140031669D01*
X107499500Y-140031669D01*
X107499500Y-140468330D01*
X107537557Y-140903320D01*
X107537557Y-140903324D01*
X107613379Y-141333327D01*
X107613383Y-141333344D01*
X107726392Y-141755105D01*
X107875740Y-142165434D01*
X107875746Y-142165449D01*
X108060272Y-142561164D01*
X108060277Y-142561174D01*
X108278603Y-142939326D01*
X108278607Y-142939332D01*
X108278614Y-142939343D01*
X108529057Y-143297013D01*
X108731930Y-143538787D01*
X108809732Y-143631507D01*
X109118493Y-143940268D01*
X109208395Y-144015705D01*
X109452986Y-144220942D01*
X109810656Y-144471385D01*
X109810663Y-144471389D01*
X109810674Y-144471397D01*
X110188826Y-144689723D01*
X110188835Y-144689727D01*
X110584550Y-144874253D01*
X110584555Y-144874255D01*
X110584568Y-144874261D01*
X110994888Y-145023605D01*
X110994889Y-145023605D01*
X110994894Y-145023607D01*
X111127398Y-145059110D01*
X111416663Y-145136619D01*
X111846682Y-145212443D01*
X112281671Y-145250499D01*
X112281672Y-145250500D01*
X112281673Y-145250500D01*
X112718328Y-145250500D01*
X112718328Y-145250499D01*
X113153318Y-145212443D01*
X113583337Y-145136619D01*
X114005112Y-145023605D01*
X114415432Y-144874261D01*
X114811174Y-144689723D01*
X115189326Y-144471397D01*
X115547012Y-144220943D01*
X115881507Y-143940268D01*
X116190268Y-143631507D01*
X116470943Y-143297012D01*
X116721397Y-142939326D01*
X116939723Y-142561174D01*
X117124261Y-142165432D01*
X117273605Y-141755112D01*
X117386619Y-141333337D01*
X117462443Y-140903318D01*
X117500500Y-140468327D01*
X117500500Y-140031673D01*
X117462443Y-139596682D01*
X117386619Y-139166663D01*
X117273605Y-138744888D01*
X117124261Y-138334568D01*
X116939723Y-137938826D01*
X116721397Y-137560674D01*
X116721389Y-137560663D01*
X116721385Y-137560656D01*
X116470942Y-137202986D01*
X116190265Y-136868490D01*
X115881509Y-136559734D01*
X115547013Y-136279057D01*
X115189343Y-136028614D01*
X115189332Y-136028607D01*
X115189326Y-136028603D01*
X115076978Y-135963739D01*
X114811180Y-135810280D01*
X114811164Y-135810272D01*
X114415449Y-135625746D01*
X114415434Y-135625740D01*
X114415432Y-135625739D01*
X114261301Y-135569640D01*
X114005105Y-135476392D01*
X113583344Y-135363383D01*
X113583347Y-135363383D01*
X113583337Y-135363381D01*
X113583331Y-135363379D01*
X113583327Y-135363379D01*
X113153322Y-135287557D01*
X112718330Y-135249500D01*
X112718327Y-135249500D01*
X112281673Y-135249500D01*
X112281669Y-135249500D01*
X111846679Y-135287557D01*
X111846675Y-135287557D01*
X111416672Y-135363379D01*
X111416655Y-135363383D01*
X110994894Y-135476392D01*
X110584565Y-135625740D01*
X110584550Y-135625746D01*
X110188835Y-135810272D01*
X110188819Y-135810280D01*
X109810682Y-136028598D01*
X109810656Y-136028614D01*
X109452986Y-136279057D01*
X109118490Y-136559734D01*
X108809734Y-136868490D01*
X108529057Y-137202986D01*
X108278614Y-137560656D01*
X108278598Y-137560682D01*
X108060280Y-137938819D01*
X108060272Y-137938835D01*
X107875746Y-138334550D01*
X107875740Y-138334565D01*
X107726392Y-138744894D01*
X107613383Y-139166655D01*
X107613379Y-139166672D01*
X107537557Y-139596675D01*
X107537557Y-139596679D01*
X107499500Y-140031669D01*
X92500500Y-140031669D01*
X92462443Y-139596682D01*
X92386619Y-139166663D01*
X92273605Y-138744888D01*
X92124261Y-138334568D01*
X91939723Y-137938826D01*
X91721397Y-137560674D01*
X91721389Y-137560663D01*
X91721385Y-137560656D01*
X91470942Y-137202986D01*
X91190265Y-136868490D01*
X90881509Y-136559734D01*
X90547013Y-136279057D01*
X90189343Y-136028614D01*
X90189332Y-136028607D01*
X90189326Y-136028603D01*
X90076978Y-135963739D01*
X89811180Y-135810280D01*
X89811164Y-135810272D01*
X89415449Y-135625746D01*
X89415434Y-135625740D01*
X89415432Y-135625739D01*
X89261301Y-135569640D01*
X89005105Y-135476392D01*
X88583344Y-135363383D01*
X88583347Y-135363383D01*
X88583337Y-135363381D01*
X88583331Y-135363379D01*
X88583327Y-135363379D01*
X88153322Y-135287557D01*
X87718330Y-135249500D01*
X87718327Y-135249500D01*
X87281673Y-135249500D01*
X87281669Y-135249500D01*
X86846679Y-135287557D01*
X86846675Y-135287557D01*
X86416672Y-135363379D01*
X86416655Y-135363383D01*
X85994894Y-135476392D01*
X85584565Y-135625740D01*
X85584550Y-135625746D01*
X85188835Y-135810272D01*
X85188819Y-135810280D01*
X84810682Y-136028598D01*
X84810656Y-136028614D01*
X84452986Y-136279057D01*
X84118490Y-136559734D01*
X83809734Y-136868490D01*
X83529057Y-137202986D01*
X83278614Y-137560656D01*
X83278598Y-137560682D01*
X83060280Y-137938819D01*
X83060272Y-137938835D01*
X82875746Y-138334550D01*
X82875740Y-138334565D01*
X82726392Y-138744894D01*
X82613383Y-139166655D01*
X82613379Y-139166672D01*
X82537557Y-139596675D01*
X82537557Y-139596679D01*
X82499500Y-140031669D01*
X25500500Y-140031669D01*
X25500500Y-121553471D01*
X45999500Y-121553471D01*
X45999500Y-121946528D01*
X46038026Y-122337702D01*
X46114704Y-122723194D01*
X46114707Y-122723205D01*
X46228810Y-123099354D01*
X46379230Y-123462499D01*
X46379232Y-123462504D01*
X46564511Y-123809137D01*
X46564522Y-123809155D01*
X46782887Y-124135960D01*
X46782897Y-124135974D01*
X47032254Y-124439817D01*
X47310182Y-124717745D01*
X47310187Y-124717749D01*
X47310188Y-124717750D01*
X47614031Y-124967107D01*
X47940851Y-125185482D01*
X47940860Y-125185487D01*
X47940862Y-125185488D01*
X48287495Y-125370767D01*
X48287497Y-125370767D01*
X48287503Y-125370771D01*
X48650647Y-125521190D01*
X49026785Y-125635290D01*
X49026791Y-125635291D01*
X49026794Y-125635292D01*
X49026805Y-125635295D01*
X49412297Y-125711973D01*
X49803468Y-125750500D01*
X49803471Y-125750500D01*
X50196529Y-125750500D01*
X50196532Y-125750500D01*
X50587703Y-125711973D01*
X50662748Y-125697045D01*
X50973194Y-125635295D01*
X50973205Y-125635292D01*
X50973205Y-125635291D01*
X50973215Y-125635290D01*
X51349353Y-125521190D01*
X51712497Y-125370771D01*
X52059149Y-125185482D01*
X52385969Y-124967107D01*
X52689812Y-124717750D01*
X52967750Y-124439812D01*
X53217107Y-124135969D01*
X53435482Y-123809149D01*
X53620771Y-123462497D01*
X53771190Y-123099353D01*
X53885290Y-122723215D01*
X53885292Y-122723205D01*
X53885295Y-122723194D01*
X53961973Y-122337702D01*
X54000500Y-121946528D01*
X54000500Y-121553471D01*
X145999500Y-121553471D01*
X145999500Y-121946528D01*
X146038026Y-122337702D01*
X146114704Y-122723194D01*
X146114707Y-122723205D01*
X146228810Y-123099354D01*
X146379230Y-123462499D01*
X146379232Y-123462504D01*
X146564511Y-123809137D01*
X146564522Y-123809155D01*
X146782887Y-124135960D01*
X146782897Y-124135974D01*
X147032254Y-124439817D01*
X147310182Y-124717745D01*
X147310187Y-124717749D01*
X147310188Y-124717750D01*
X147614031Y-124967107D01*
X147940851Y-125185482D01*
X147940860Y-125185487D01*
X147940862Y-125185488D01*
X148287495Y-125370767D01*
X148287497Y-125370767D01*
X148287503Y-125370771D01*
X148650647Y-125521190D01*
X149026785Y-125635290D01*
X149026791Y-125635291D01*
X149026794Y-125635292D01*
X149026805Y-125635295D01*
X149412297Y-125711973D01*
X149803468Y-125750500D01*
X149803471Y-125750500D01*
X150196529Y-125750500D01*
X150196532Y-125750500D01*
X150587703Y-125711973D01*
X150662748Y-125697045D01*
X150973194Y-125635295D01*
X150973205Y-125635292D01*
X150973205Y-125635291D01*
X150973215Y-125635290D01*
X151349353Y-125521190D01*
X151712497Y-125370771D01*
X152059149Y-125185482D01*
X152385969Y-124967107D01*
X152689812Y-124717750D01*
X152967750Y-124439812D01*
X153217107Y-124135969D01*
X153435482Y-123809149D01*
X153620771Y-123462497D01*
X153771190Y-123099353D01*
X153885290Y-122723215D01*
X153885292Y-122723205D01*
X153885295Y-122723194D01*
X153961973Y-122337702D01*
X154000500Y-121946528D01*
X154000500Y-121553471D01*
X153961973Y-121162297D01*
X153885295Y-120776805D01*
X153885292Y-120776794D01*
X153885291Y-120776791D01*
X153885290Y-120776785D01*
X153771190Y-120400647D01*
X153620771Y-120037503D01*
X153608355Y-120014275D01*
X153435488Y-119690862D01*
X153435487Y-119690860D01*
X153435482Y-119690851D01*
X153217107Y-119364031D01*
X152967750Y-119060188D01*
X152967749Y-119060187D01*
X152967745Y-119060182D01*
X152689817Y-118782254D01*
X152385974Y-118532897D01*
X152385973Y-118532896D01*
X152385969Y-118532893D01*
X152059149Y-118314518D01*
X152059144Y-118314515D01*
X152059137Y-118314511D01*
X151712504Y-118129232D01*
X151712499Y-118129230D01*
X151349354Y-117978810D01*
X150973205Y-117864707D01*
X150973194Y-117864704D01*
X150587702Y-117788026D01*
X150293089Y-117759010D01*
X150196532Y-117749500D01*
X149803468Y-117749500D01*
X149714251Y-117758287D01*
X149412297Y-117788026D01*
X149026805Y-117864704D01*
X149026794Y-117864707D01*
X148650645Y-117978810D01*
X148287500Y-118129230D01*
X148287495Y-118129232D01*
X147940862Y-118314511D01*
X147940844Y-118314522D01*
X147614039Y-118532887D01*
X147614025Y-118532897D01*
X147310182Y-118782254D01*
X147032254Y-119060182D01*
X146782897Y-119364025D01*
X146782887Y-119364039D01*
X146564522Y-119690844D01*
X146564511Y-119690862D01*
X146379232Y-120037495D01*
X146379230Y-120037500D01*
X146228810Y-120400645D01*
X146114707Y-120776794D01*
X146114704Y-120776805D01*
X146038026Y-121162297D01*
X145999500Y-121553471D01*
X54000500Y-121553471D01*
X53961973Y-121162297D01*
X53885295Y-120776805D01*
X53885292Y-120776794D01*
X53885291Y-120776791D01*
X53885290Y-120776785D01*
X53771190Y-120400647D01*
X53620771Y-120037503D01*
X53608355Y-120014275D01*
X53435488Y-119690862D01*
X53435487Y-119690860D01*
X53435482Y-119690851D01*
X53217107Y-119364031D01*
X52967750Y-119060188D01*
X52967749Y-119060187D01*
X52967745Y-119060182D01*
X52689817Y-118782254D01*
X52385974Y-118532897D01*
X52385973Y-118532896D01*
X52385969Y-118532893D01*
X52059149Y-118314518D01*
X52059144Y-118314515D01*
X52059137Y-118314511D01*
X51712504Y-118129232D01*
X51712499Y-118129230D01*
X51349354Y-117978810D01*
X50973205Y-117864707D01*
X50973194Y-117864704D01*
X50587702Y-117788026D01*
X50293089Y-117759010D01*
X50196532Y-117749500D01*
X49803468Y-117749500D01*
X49714251Y-117758287D01*
X49412297Y-117788026D01*
X49026805Y-117864704D01*
X49026794Y-117864707D01*
X48650645Y-117978810D01*
X48287500Y-118129230D01*
X48287495Y-118129232D01*
X47940862Y-118314511D01*
X47940844Y-118314522D01*
X47614039Y-118532887D01*
X47614025Y-118532897D01*
X47310182Y-118782254D01*
X47032254Y-119060182D01*
X46782897Y-119364025D01*
X46782887Y-119364039D01*
X46564522Y-119690844D01*
X46564511Y-119690862D01*
X46379232Y-120037495D01*
X46379230Y-120037500D01*
X46228810Y-120400645D01*
X46114707Y-120776794D01*
X46114704Y-120776805D01*
X46038026Y-121162297D01*
X45999500Y-121553471D01*
X25500500Y-121553471D01*
X25500500Y-116631995D01*
X68199500Y-116631995D01*
X68199500Y-116868004D01*
X68199501Y-116868020D01*
X68230306Y-117102010D01*
X68291394Y-117329993D01*
X68381714Y-117548045D01*
X68381719Y-117548056D01*
X68452677Y-117670957D01*
X68499727Y-117752450D01*
X68499729Y-117752453D01*
X68499730Y-117752454D01*
X68643406Y-117939697D01*
X68643412Y-117939704D01*
X68810295Y-118106587D01*
X68810301Y-118106592D01*
X68997550Y-118250273D01*
X69108826Y-118314518D01*
X69201943Y-118368280D01*
X69201948Y-118368282D01*
X69201951Y-118368284D01*
X69420007Y-118458606D01*
X69647986Y-118519693D01*
X69881989Y-118550500D01*
X69881996Y-118550500D01*
X70118004Y-118550500D01*
X70118011Y-118550500D01*
X70352014Y-118519693D01*
X70579993Y-118458606D01*
X70798049Y-118368284D01*
X71002450Y-118250273D01*
X71189699Y-118106592D01*
X71356592Y-117939699D01*
X71500273Y-117752450D01*
X71618284Y-117548049D01*
X71708606Y-117329993D01*
X71769693Y-117102014D01*
X71800500Y-116868011D01*
X71800500Y-116631989D01*
X71769693Y-116397986D01*
X71708606Y-116170007D01*
X71618284Y-115951951D01*
X71618282Y-115951948D01*
X71618280Y-115951943D01*
X71576118Y-115878918D01*
X71500273Y-115747550D01*
X71356592Y-115560301D01*
X71356587Y-115560295D01*
X71189704Y-115393412D01*
X71189697Y-115393406D01*
X71002454Y-115249730D01*
X71002453Y-115249729D01*
X71002450Y-115249727D01*
X70920957Y-115202677D01*
X70798056Y-115131719D01*
X70798045Y-115131714D01*
X70579993Y-115041394D01*
X70352010Y-114980306D01*
X70118020Y-114949501D01*
X70118017Y-114949500D01*
X70118011Y-114949500D01*
X69881989Y-114949500D01*
X69881983Y-114949500D01*
X69881979Y-114949501D01*
X69647989Y-114980306D01*
X69420006Y-115041394D01*
X69201954Y-115131714D01*
X69201943Y-115131719D01*
X68997545Y-115249730D01*
X68810302Y-115393406D01*
X68810295Y-115393412D01*
X68643412Y-115560295D01*
X68643406Y-115560302D01*
X68499730Y-115747545D01*
X68381719Y-115951943D01*
X68381714Y-115951954D01*
X68291394Y-116170006D01*
X68230306Y-116397989D01*
X68199501Y-116631979D01*
X68199500Y-116631995D01*
X25500500Y-116631995D01*
X25500500Y-111531669D01*
X82499500Y-111531669D01*
X82499500Y-111968330D01*
X82537557Y-112403320D01*
X82537557Y-112403324D01*
X82613379Y-112833327D01*
X82613383Y-112833344D01*
X82726392Y-113255105D01*
X82875740Y-113665434D01*
X82875746Y-113665449D01*
X83060272Y-114061164D01*
X83060277Y-114061174D01*
X83278603Y-114439326D01*
X83278607Y-114439332D01*
X83278614Y-114439343D01*
X83529057Y-114797013D01*
X83682859Y-114980306D01*
X83809732Y-115131507D01*
X84118493Y-115440268D01*
X84208395Y-115515705D01*
X84452986Y-115720942D01*
X84810656Y-115971385D01*
X84810663Y-115971389D01*
X84810674Y-115971397D01*
X85188826Y-116189723D01*
X85188835Y-116189727D01*
X85584550Y-116374253D01*
X85584555Y-116374255D01*
X85584568Y-116374261D01*
X85994888Y-116523605D01*
X85994889Y-116523605D01*
X85994894Y-116523607D01*
X86127398Y-116559110D01*
X86416663Y-116636619D01*
X86846682Y-116712443D01*
X87281671Y-116750499D01*
X87281672Y-116750500D01*
X87281673Y-116750500D01*
X87718328Y-116750500D01*
X87718328Y-116750499D01*
X88153318Y-116712443D01*
X88583337Y-116636619D01*
X89005112Y-116523605D01*
X89415432Y-116374261D01*
X89811174Y-116189723D01*
X90189326Y-115971397D01*
X90547012Y-115720943D01*
X90881507Y-115440268D01*
X91190268Y-115131507D01*
X91470943Y-114797012D01*
X91721397Y-114439326D01*
X91939723Y-114061174D01*
X92124261Y-113665432D01*
X92273605Y-113255112D01*
X92386619Y-112833337D01*
X92462443Y-112403318D01*
X92500500Y-111968327D01*
X92500500Y-111531673D01*
X92500500Y-111531669D01*
X107499500Y-111531669D01*
X107499500Y-111968330D01*
X107537557Y-112403320D01*
X107537557Y-112403324D01*
X107613379Y-112833327D01*
X107613383Y-112833344D01*
X107726392Y-113255105D01*
X107875740Y-113665434D01*
X107875746Y-113665449D01*
X108060272Y-114061164D01*
X108060277Y-114061174D01*
X108278603Y-114439326D01*
X108278607Y-114439332D01*
X108278614Y-114439343D01*
X108529057Y-114797013D01*
X108682859Y-114980306D01*
X108809732Y-115131507D01*
X109118493Y-115440268D01*
X109208395Y-115515705D01*
X109452986Y-115720942D01*
X109810656Y-115971385D01*
X109810663Y-115971389D01*
X109810674Y-115971397D01*
X110188826Y-116189723D01*
X110188835Y-116189727D01*
X110584550Y-116374253D01*
X110584555Y-116374255D01*
X110584568Y-116374261D01*
X110994888Y-116523605D01*
X110994889Y-116523605D01*
X110994894Y-116523607D01*
X111127398Y-116559110D01*
X111416663Y-116636619D01*
X111846682Y-116712443D01*
X112281671Y-116750499D01*
X112281672Y-116750500D01*
X112281673Y-116750500D01*
X112718328Y-116750500D01*
X112718328Y-116750499D01*
X113153318Y-116712443D01*
X113583337Y-116636619D01*
X113600594Y-116631995D01*
X128199500Y-116631995D01*
X128199500Y-116868004D01*
X128199501Y-116868020D01*
X128230306Y-117102010D01*
X128291394Y-117329993D01*
X128381714Y-117548045D01*
X128381719Y-117548056D01*
X128452677Y-117670957D01*
X128499727Y-117752450D01*
X128499729Y-117752453D01*
X128499730Y-117752454D01*
X128643406Y-117939697D01*
X128643412Y-117939704D01*
X128810295Y-118106587D01*
X128810301Y-118106592D01*
X128997550Y-118250273D01*
X129108826Y-118314518D01*
X129201943Y-118368280D01*
X129201948Y-118368282D01*
X129201951Y-118368284D01*
X129420007Y-118458606D01*
X129647986Y-118519693D01*
X129881989Y-118550500D01*
X129881996Y-118550500D01*
X130118004Y-118550500D01*
X130118011Y-118550500D01*
X130352014Y-118519693D01*
X130579993Y-118458606D01*
X130798049Y-118368284D01*
X131002450Y-118250273D01*
X131189699Y-118106592D01*
X131356592Y-117939699D01*
X131500273Y-117752450D01*
X131618284Y-117548049D01*
X131708606Y-117329993D01*
X131769693Y-117102014D01*
X131800500Y-116868011D01*
X131800500Y-116631989D01*
X131769693Y-116397986D01*
X131708606Y-116170007D01*
X131618284Y-115951951D01*
X131618282Y-115951948D01*
X131618280Y-115951943D01*
X131576118Y-115878918D01*
X131500273Y-115747550D01*
X131356592Y-115560301D01*
X131356587Y-115560295D01*
X131189704Y-115393412D01*
X131189697Y-115393406D01*
X131002454Y-115249730D01*
X131002453Y-115249729D01*
X131002450Y-115249727D01*
X130920957Y-115202677D01*
X130798056Y-115131719D01*
X130798045Y-115131714D01*
X130579993Y-115041394D01*
X130352010Y-114980306D01*
X130118020Y-114949501D01*
X130118017Y-114949500D01*
X130118011Y-114949500D01*
X129881989Y-114949500D01*
X129881983Y-114949500D01*
X129881979Y-114949501D01*
X129647989Y-114980306D01*
X129420006Y-115041394D01*
X129201954Y-115131714D01*
X129201943Y-115131719D01*
X128997545Y-115249730D01*
X128810302Y-115393406D01*
X128810295Y-115393412D01*
X128643412Y-115560295D01*
X128643406Y-115560302D01*
X128499730Y-115747545D01*
X128381719Y-115951943D01*
X128381714Y-115951954D01*
X128291394Y-116170006D01*
X128230306Y-116397989D01*
X128199501Y-116631979D01*
X128199500Y-116631995D01*
X113600594Y-116631995D01*
X114005112Y-116523605D01*
X114415432Y-116374261D01*
X114811174Y-116189723D01*
X115189326Y-115971397D01*
X115547012Y-115720943D01*
X115881507Y-115440268D01*
X116190268Y-115131507D01*
X116470943Y-114797012D01*
X116721397Y-114439326D01*
X116939723Y-114061174D01*
X117124261Y-113665432D01*
X117273605Y-113255112D01*
X117386619Y-112833337D01*
X117462443Y-112403318D01*
X117500500Y-111968327D01*
X117500500Y-111531673D01*
X117462443Y-111096682D01*
X117386619Y-110666663D01*
X117273605Y-110244888D01*
X117124261Y-109834568D01*
X116939723Y-109438826D01*
X116721397Y-109060674D01*
X116721389Y-109060663D01*
X116721385Y-109060656D01*
X116470942Y-108702986D01*
X116190265Y-108368490D01*
X115881509Y-108059734D01*
X115547013Y-107779057D01*
X115189343Y-107528614D01*
X115189332Y-107528607D01*
X115189326Y-107528603D01*
X115076978Y-107463739D01*
X114811180Y-107310280D01*
X114811164Y-107310272D01*
X114415449Y-107125746D01*
X114415434Y-107125740D01*
X114415432Y-107125739D01*
X114261301Y-107069640D01*
X114005105Y-106976392D01*
X113583344Y-106863383D01*
X113583347Y-106863383D01*
X113583337Y-106863381D01*
X113583331Y-106863379D01*
X113583327Y-106863379D01*
X113153322Y-106787557D01*
X112718330Y-106749500D01*
X112718327Y-106749500D01*
X112281673Y-106749500D01*
X112281669Y-106749500D01*
X111846679Y-106787557D01*
X111846675Y-106787557D01*
X111416672Y-106863379D01*
X111416655Y-106863383D01*
X110994894Y-106976392D01*
X110584565Y-107125740D01*
X110584550Y-107125746D01*
X110188835Y-107310272D01*
X110188819Y-107310280D01*
X109810682Y-107528598D01*
X109810656Y-107528614D01*
X109452986Y-107779057D01*
X109118490Y-108059734D01*
X108809734Y-108368490D01*
X108529057Y-108702986D01*
X108278614Y-109060656D01*
X108278598Y-109060682D01*
X108060280Y-109438819D01*
X108060272Y-109438835D01*
X107875746Y-109834550D01*
X107875740Y-109834565D01*
X107726392Y-110244894D01*
X107613383Y-110666655D01*
X107613379Y-110666672D01*
X107537557Y-111096675D01*
X107537557Y-111096679D01*
X107499500Y-111531669D01*
X92500500Y-111531669D01*
X92462443Y-111096682D01*
X92386619Y-110666663D01*
X92273605Y-110244888D01*
X92124261Y-109834568D01*
X91939723Y-109438826D01*
X91721397Y-109060674D01*
X91721389Y-109060663D01*
X91721385Y-109060656D01*
X91470942Y-108702986D01*
X91190265Y-108368490D01*
X90881509Y-108059734D01*
X90547013Y-107779057D01*
X90189343Y-107528614D01*
X90189332Y-107528607D01*
X90189326Y-107528603D01*
X90076978Y-107463739D01*
X89811180Y-107310280D01*
X89811164Y-107310272D01*
X89415449Y-107125746D01*
X89415434Y-107125740D01*
X89415432Y-107125739D01*
X89261301Y-107069640D01*
X89005105Y-106976392D01*
X88583344Y-106863383D01*
X88583347Y-106863383D01*
X88583337Y-106863381D01*
X88583331Y-106863379D01*
X88583327Y-106863379D01*
X88153322Y-106787557D01*
X87718330Y-106749500D01*
X87718327Y-106749500D01*
X87281673Y-106749500D01*
X87281669Y-106749500D01*
X86846679Y-106787557D01*
X86846675Y-106787557D01*
X86416672Y-106863379D01*
X86416655Y-106863383D01*
X85994894Y-106976392D01*
X85584565Y-107125740D01*
X85584550Y-107125746D01*
X85188835Y-107310272D01*
X85188819Y-107310280D01*
X84810682Y-107528598D01*
X84810656Y-107528614D01*
X84452986Y-107779057D01*
X84118490Y-108059734D01*
X83809734Y-108368490D01*
X83529057Y-108702986D01*
X83278614Y-109060656D01*
X83278598Y-109060682D01*
X83060280Y-109438819D01*
X83060272Y-109438835D01*
X82875746Y-109834550D01*
X82875740Y-109834565D01*
X82726392Y-110244894D01*
X82613383Y-110666655D01*
X82613379Y-110666672D01*
X82537557Y-111096675D01*
X82537557Y-111096679D01*
X82499500Y-111531669D01*
X25500500Y-111531669D01*
X25500500Y-88053471D01*
X45999500Y-88053471D01*
X45999500Y-88446528D01*
X46038026Y-88837702D01*
X46114704Y-89223194D01*
X46114707Y-89223205D01*
X46228810Y-89599354D01*
X46379230Y-89962499D01*
X46379232Y-89962504D01*
X46564511Y-90309137D01*
X46564522Y-90309155D01*
X46782887Y-90635960D01*
X46782897Y-90635974D01*
X47032254Y-90939817D01*
X47310182Y-91217745D01*
X47310187Y-91217749D01*
X47310188Y-91217750D01*
X47614031Y-91467107D01*
X47940851Y-91685482D01*
X47940860Y-91685487D01*
X47940862Y-91685488D01*
X48287495Y-91870767D01*
X48287497Y-91870767D01*
X48287503Y-91870771D01*
X48650647Y-92021190D01*
X49026785Y-92135290D01*
X49026791Y-92135291D01*
X49026794Y-92135292D01*
X49026805Y-92135295D01*
X49412297Y-92211973D01*
X49803468Y-92250500D01*
X49803471Y-92250500D01*
X50196529Y-92250500D01*
X50196532Y-92250500D01*
X50587703Y-92211973D01*
X50662748Y-92197045D01*
X50973194Y-92135295D01*
X50973205Y-92135292D01*
X50973205Y-92135291D01*
X50973215Y-92135290D01*
X51349353Y-92021190D01*
X51712497Y-91870771D01*
X52059149Y-91685482D01*
X52385969Y-91467107D01*
X52689812Y-91217750D01*
X52967750Y-90939812D01*
X53217107Y-90635969D01*
X53435482Y-90309149D01*
X53620771Y-89962497D01*
X53771190Y-89599353D01*
X53885290Y-89223215D01*
X53885292Y-89223205D01*
X53885295Y-89223194D01*
X53961973Y-88837702D01*
X54000500Y-88446528D01*
X54000500Y-88053471D01*
X53997558Y-88023605D01*
X53961973Y-87662297D01*
X53885295Y-87276805D01*
X53885292Y-87276794D01*
X53885291Y-87276791D01*
X53885290Y-87276785D01*
X53771190Y-86900647D01*
X53620771Y-86537503D01*
X53608355Y-86514275D01*
X53435488Y-86190862D01*
X53435487Y-86190860D01*
X53435482Y-86190851D01*
X53217107Y-85864031D01*
X53026680Y-85631995D01*
X68199500Y-85631995D01*
X68199500Y-85868004D01*
X68199501Y-85868020D01*
X68230306Y-86102010D01*
X68291394Y-86329993D01*
X68381714Y-86548045D01*
X68381719Y-86548056D01*
X68452677Y-86670957D01*
X68499727Y-86752450D01*
X68499729Y-86752453D01*
X68499730Y-86752454D01*
X68643406Y-86939697D01*
X68643412Y-86939704D01*
X68810295Y-87106587D01*
X68810301Y-87106592D01*
X68997550Y-87250273D01*
X69128918Y-87326118D01*
X69201943Y-87368280D01*
X69201948Y-87368282D01*
X69201951Y-87368284D01*
X69420007Y-87458606D01*
X69647986Y-87519693D01*
X69881989Y-87550500D01*
X69881996Y-87550500D01*
X70118004Y-87550500D01*
X70118011Y-87550500D01*
X70352014Y-87519693D01*
X70579993Y-87458606D01*
X70798049Y-87368284D01*
X71002450Y-87250273D01*
X71189699Y-87106592D01*
X71356592Y-86939699D01*
X71500273Y-86752450D01*
X71618284Y-86548049D01*
X71708606Y-86329993D01*
X71769693Y-86102014D01*
X71800500Y-85868011D01*
X71800500Y-85631989D01*
X71769693Y-85397986D01*
X71708606Y-85170007D01*
X71618284Y-84951951D01*
X71618282Y-84951948D01*
X71618280Y-84951943D01*
X71538939Y-84814522D01*
X71500273Y-84747550D01*
X71356592Y-84560301D01*
X71356587Y-84560295D01*
X71189704Y-84393412D01*
X71189697Y-84393406D01*
X71002454Y-84249730D01*
X71002453Y-84249729D01*
X71002450Y-84249727D01*
X70920957Y-84202677D01*
X70798056Y-84131719D01*
X70798045Y-84131714D01*
X70579993Y-84041394D01*
X70352010Y-83980306D01*
X70118020Y-83949501D01*
X70118017Y-83949500D01*
X70118011Y-83949500D01*
X69881989Y-83949500D01*
X69881983Y-83949500D01*
X69881979Y-83949501D01*
X69647989Y-83980306D01*
X69420006Y-84041394D01*
X69201954Y-84131714D01*
X69201943Y-84131719D01*
X68997545Y-84249730D01*
X68810302Y-84393406D01*
X68810295Y-84393412D01*
X68643412Y-84560295D01*
X68643406Y-84560302D01*
X68499730Y-84747545D01*
X68381719Y-84951943D01*
X68381714Y-84951954D01*
X68291394Y-85170006D01*
X68230306Y-85397989D01*
X68199501Y-85631979D01*
X68199500Y-85631995D01*
X53026680Y-85631995D01*
X52967750Y-85560188D01*
X52967749Y-85560187D01*
X52967745Y-85560182D01*
X52689817Y-85282254D01*
X52385974Y-85032897D01*
X52385973Y-85032896D01*
X52385969Y-85032893D01*
X52059149Y-84814518D01*
X52059144Y-84814515D01*
X52059137Y-84814511D01*
X51712504Y-84629232D01*
X51712499Y-84629230D01*
X51349354Y-84478810D01*
X50973205Y-84364707D01*
X50973194Y-84364704D01*
X50587702Y-84288026D01*
X50293089Y-84259010D01*
X50196532Y-84249500D01*
X49803468Y-84249500D01*
X49714251Y-84258287D01*
X49412297Y-84288026D01*
X49026805Y-84364704D01*
X49026794Y-84364707D01*
X48650645Y-84478810D01*
X48287500Y-84629230D01*
X48287495Y-84629232D01*
X47940862Y-84814511D01*
X47940844Y-84814522D01*
X47614039Y-85032887D01*
X47614025Y-85032897D01*
X47310182Y-85282254D01*
X47032254Y-85560182D01*
X46782897Y-85864025D01*
X46782887Y-85864039D01*
X46564522Y-86190844D01*
X46564511Y-86190862D01*
X46379232Y-86537495D01*
X46379230Y-86537500D01*
X46228810Y-86900645D01*
X46114707Y-87276794D01*
X46114704Y-87276805D01*
X46038026Y-87662297D01*
X45999500Y-88053471D01*
X25500500Y-88053471D01*
X25500500Y-83031669D01*
X82499500Y-83031669D01*
X82499500Y-83468330D01*
X82537557Y-83903320D01*
X82537557Y-83903324D01*
X82613379Y-84333327D01*
X82613383Y-84333344D01*
X82726392Y-84755105D01*
X82875740Y-85165434D01*
X82875746Y-85165449D01*
X83060272Y-85561164D01*
X83060280Y-85561180D01*
X83096992Y-85624767D01*
X83278603Y-85939326D01*
X83278607Y-85939332D01*
X83278614Y-85939343D01*
X83529057Y-86297013D01*
X83730846Y-86537495D01*
X83809732Y-86631507D01*
X84118493Y-86940268D01*
X84208395Y-87015705D01*
X84452986Y-87220942D01*
X84810656Y-87471385D01*
X84810663Y-87471389D01*
X84810674Y-87471397D01*
X85188826Y-87689723D01*
X85188835Y-87689727D01*
X85584550Y-87874253D01*
X85584555Y-87874255D01*
X85584568Y-87874261D01*
X85994888Y-88023605D01*
X85994889Y-88023605D01*
X85994894Y-88023607D01*
X86127398Y-88059110D01*
X86416663Y-88136619D01*
X86846682Y-88212443D01*
X87281671Y-88250499D01*
X87281672Y-88250500D01*
X87281673Y-88250500D01*
X87718328Y-88250500D01*
X87718328Y-88250499D01*
X88153318Y-88212443D01*
X88583337Y-88136619D01*
X89005112Y-88023605D01*
X89415432Y-87874261D01*
X89811174Y-87689723D01*
X90189326Y-87471397D01*
X90547012Y-87220943D01*
X90881507Y-86940268D01*
X91190268Y-86631507D01*
X91470943Y-86297012D01*
X91721397Y-85939326D01*
X91939723Y-85561174D01*
X92124261Y-85165432D01*
X92273605Y-84755112D01*
X92386619Y-84333337D01*
X92462443Y-83903318D01*
X92500500Y-83468327D01*
X92500500Y-83031673D01*
X92500500Y-83031669D01*
X107499500Y-83031669D01*
X107499500Y-83468330D01*
X107537557Y-83903320D01*
X107537557Y-83903324D01*
X107613379Y-84333327D01*
X107613383Y-84333344D01*
X107726392Y-84755105D01*
X107875740Y-85165434D01*
X107875746Y-85165449D01*
X108060272Y-85561164D01*
X108060280Y-85561180D01*
X108096992Y-85624767D01*
X108278603Y-85939326D01*
X108278607Y-85939332D01*
X108278614Y-85939343D01*
X108529057Y-86297013D01*
X108730846Y-86537495D01*
X108809732Y-86631507D01*
X109118493Y-86940268D01*
X109208395Y-87015705D01*
X109452986Y-87220942D01*
X109810656Y-87471385D01*
X109810663Y-87471389D01*
X109810674Y-87471397D01*
X110188826Y-87689723D01*
X110188835Y-87689727D01*
X110584550Y-87874253D01*
X110584555Y-87874255D01*
X110584568Y-87874261D01*
X110994888Y-88023605D01*
X110994889Y-88023605D01*
X110994894Y-88023607D01*
X111127398Y-88059110D01*
X111416663Y-88136619D01*
X111846682Y-88212443D01*
X112281671Y-88250499D01*
X112281672Y-88250500D01*
X112281673Y-88250500D01*
X112718328Y-88250500D01*
X112718328Y-88250499D01*
X113153318Y-88212443D01*
X113583337Y-88136619D01*
X113893650Y-88053471D01*
X145999500Y-88053471D01*
X145999500Y-88446528D01*
X146038026Y-88837702D01*
X146114704Y-89223194D01*
X146114707Y-89223205D01*
X146228810Y-89599354D01*
X146379230Y-89962499D01*
X146379232Y-89962504D01*
X146564511Y-90309137D01*
X146564522Y-90309155D01*
X146782887Y-90635960D01*
X146782897Y-90635974D01*
X147032254Y-90939817D01*
X147310182Y-91217745D01*
X147310187Y-91217749D01*
X147310188Y-91217750D01*
X147614031Y-91467107D01*
X147940851Y-91685482D01*
X147940860Y-91685487D01*
X147940862Y-91685488D01*
X148287495Y-91870767D01*
X148287497Y-91870767D01*
X148287503Y-91870771D01*
X148650647Y-92021190D01*
X149026785Y-92135290D01*
X149026791Y-92135291D01*
X149026794Y-92135292D01*
X149026805Y-92135295D01*
X149412297Y-92211973D01*
X149803468Y-92250500D01*
X149803471Y-92250500D01*
X150196529Y-92250500D01*
X150196532Y-92250500D01*
X150587703Y-92211973D01*
X150662748Y-92197045D01*
X150973194Y-92135295D01*
X150973205Y-92135292D01*
X150973205Y-92135291D01*
X150973215Y-92135290D01*
X151349353Y-92021190D01*
X151712497Y-91870771D01*
X152059149Y-91685482D01*
X152385969Y-91467107D01*
X152689812Y-91217750D01*
X152967750Y-90939812D01*
X153217107Y-90635969D01*
X153435482Y-90309149D01*
X153620771Y-89962497D01*
X153771190Y-89599353D01*
X153885290Y-89223215D01*
X153885292Y-89223205D01*
X153885295Y-89223194D01*
X153961973Y-88837702D01*
X154000500Y-88446528D01*
X154000500Y-88053471D01*
X153997558Y-88023605D01*
X153961973Y-87662297D01*
X153885295Y-87276805D01*
X153885292Y-87276794D01*
X153885291Y-87276791D01*
X153885290Y-87276785D01*
X153771190Y-86900647D01*
X153620771Y-86537503D01*
X153608355Y-86514275D01*
X153435488Y-86190862D01*
X153435487Y-86190860D01*
X153435482Y-86190851D01*
X153217107Y-85864031D01*
X152967750Y-85560188D01*
X152967749Y-85560187D01*
X152967745Y-85560182D01*
X152689817Y-85282254D01*
X152385974Y-85032897D01*
X152385973Y-85032896D01*
X152385969Y-85032893D01*
X152059149Y-84814518D01*
X152059144Y-84814515D01*
X152059137Y-84814511D01*
X151712504Y-84629232D01*
X151712499Y-84629230D01*
X151349354Y-84478810D01*
X150973205Y-84364707D01*
X150973194Y-84364704D01*
X150587702Y-84288026D01*
X150293089Y-84259010D01*
X150196532Y-84249500D01*
X149803468Y-84249500D01*
X149714251Y-84258287D01*
X149412297Y-84288026D01*
X149026805Y-84364704D01*
X149026794Y-84364707D01*
X148650645Y-84478810D01*
X148287500Y-84629230D01*
X148287495Y-84629232D01*
X147940862Y-84814511D01*
X147940844Y-84814522D01*
X147614039Y-85032887D01*
X147614025Y-85032897D01*
X147310182Y-85282254D01*
X147032254Y-85560182D01*
X146782897Y-85864025D01*
X146782887Y-85864039D01*
X146564522Y-86190844D01*
X146564511Y-86190862D01*
X146379232Y-86537495D01*
X146379230Y-86537500D01*
X146228810Y-86900645D01*
X146114707Y-87276794D01*
X146114704Y-87276805D01*
X146038026Y-87662297D01*
X145999500Y-88053471D01*
X113893650Y-88053471D01*
X114005112Y-88023605D01*
X114415432Y-87874261D01*
X114811174Y-87689723D01*
X115189326Y-87471397D01*
X115547012Y-87220943D01*
X115881507Y-86940268D01*
X116190268Y-86631507D01*
X116470943Y-86297012D01*
X116721397Y-85939326D01*
X116898835Y-85631995D01*
X128199500Y-85631995D01*
X128199500Y-85868004D01*
X128199501Y-85868020D01*
X128230306Y-86102010D01*
X128291394Y-86329993D01*
X128381714Y-86548045D01*
X128381719Y-86548056D01*
X128452677Y-86670957D01*
X128499727Y-86752450D01*
X128499729Y-86752453D01*
X128499730Y-86752454D01*
X128643406Y-86939697D01*
X128643412Y-86939704D01*
X128810295Y-87106587D01*
X128810301Y-87106592D01*
X128997550Y-87250273D01*
X129128918Y-87326118D01*
X129201943Y-87368280D01*
X129201948Y-87368282D01*
X129201951Y-87368284D01*
X129420007Y-87458606D01*
X129647986Y-87519693D01*
X129881989Y-87550500D01*
X129881996Y-87550500D01*
X130118004Y-87550500D01*
X130118011Y-87550500D01*
X130352014Y-87519693D01*
X130579993Y-87458606D01*
X130798049Y-87368284D01*
X131002450Y-87250273D01*
X131189699Y-87106592D01*
X131356592Y-86939699D01*
X131500273Y-86752450D01*
X131618284Y-86548049D01*
X131708606Y-86329993D01*
X131769693Y-86102014D01*
X131800500Y-85868011D01*
X131800500Y-85631989D01*
X131769693Y-85397986D01*
X131708606Y-85170007D01*
X131618284Y-84951951D01*
X131618282Y-84951948D01*
X131618280Y-84951943D01*
X131538939Y-84814522D01*
X131500273Y-84747550D01*
X131356592Y-84560301D01*
X131356587Y-84560295D01*
X131189704Y-84393412D01*
X131189697Y-84393406D01*
X131002454Y-84249730D01*
X131002453Y-84249729D01*
X131002450Y-84249727D01*
X130920957Y-84202677D01*
X130798056Y-84131719D01*
X130798045Y-84131714D01*
X130579993Y-84041394D01*
X130352010Y-83980306D01*
X130118020Y-83949501D01*
X130118017Y-83949500D01*
X130118011Y-83949500D01*
X129881989Y-83949500D01*
X129881983Y-83949500D01*
X129881979Y-83949501D01*
X129647989Y-83980306D01*
X129420006Y-84041394D01*
X129201954Y-84131714D01*
X129201943Y-84131719D01*
X128997545Y-84249730D01*
X128810302Y-84393406D01*
X128810295Y-84393412D01*
X128643412Y-84560295D01*
X128643406Y-84560302D01*
X128499730Y-84747545D01*
X128381719Y-84951943D01*
X128381714Y-84951954D01*
X128291394Y-85170006D01*
X128230306Y-85397989D01*
X128199501Y-85631979D01*
X128199500Y-85631995D01*
X116898835Y-85631995D01*
X116939723Y-85561174D01*
X117124261Y-85165432D01*
X117273605Y-84755112D01*
X117386619Y-84333337D01*
X117462443Y-83903318D01*
X117500500Y-83468327D01*
X117500500Y-83031673D01*
X117462443Y-82596682D01*
X117386619Y-82166663D01*
X117273605Y-81744888D01*
X117124261Y-81334568D01*
X116939723Y-80938826D01*
X116721397Y-80560674D01*
X116721389Y-80560663D01*
X116721385Y-80560656D01*
X116470942Y-80202986D01*
X116190265Y-79868490D01*
X115881509Y-79559734D01*
X115547013Y-79279057D01*
X115189343Y-79028614D01*
X115189332Y-79028607D01*
X115189326Y-79028603D01*
X115076978Y-78963739D01*
X114811180Y-78810280D01*
X114811164Y-78810272D01*
X114415449Y-78625746D01*
X114415434Y-78625740D01*
X114415432Y-78625739D01*
X114261301Y-78569640D01*
X114005105Y-78476392D01*
X113583344Y-78363383D01*
X113583347Y-78363383D01*
X113583337Y-78363381D01*
X113583331Y-78363379D01*
X113583327Y-78363379D01*
X113153322Y-78287557D01*
X112718330Y-78249500D01*
X112718327Y-78249500D01*
X112281673Y-78249500D01*
X112281669Y-78249500D01*
X111846679Y-78287557D01*
X111846675Y-78287557D01*
X111416672Y-78363379D01*
X111416655Y-78363383D01*
X110994894Y-78476392D01*
X110584565Y-78625740D01*
X110584550Y-78625746D01*
X110188835Y-78810272D01*
X110188819Y-78810280D01*
X109810682Y-79028598D01*
X109810656Y-79028614D01*
X109452986Y-79279057D01*
X109118490Y-79559734D01*
X108809734Y-79868490D01*
X108529057Y-80202986D01*
X108278614Y-80560656D01*
X108278598Y-80560682D01*
X108060280Y-80938819D01*
X108060272Y-80938835D01*
X107875746Y-81334550D01*
X107875740Y-81334565D01*
X107726392Y-81744894D01*
X107613383Y-82166655D01*
X107613379Y-82166672D01*
X107537557Y-82596675D01*
X107537557Y-82596679D01*
X107499500Y-83031669D01*
X92500500Y-83031669D01*
X92462443Y-82596682D01*
X92386619Y-82166663D01*
X92273605Y-81744888D01*
X92124261Y-81334568D01*
X91939723Y-80938826D01*
X91721397Y-80560674D01*
X91721389Y-80560663D01*
X91721385Y-80560656D01*
X91470942Y-80202986D01*
X91190265Y-79868490D01*
X90881509Y-79559734D01*
X90547013Y-79279057D01*
X90189343Y-79028614D01*
X90189332Y-79028607D01*
X90189326Y-79028603D01*
X90076978Y-78963739D01*
X89811180Y-78810280D01*
X89811164Y-78810272D01*
X89415449Y-78625746D01*
X89415434Y-78625740D01*
X89415432Y-78625739D01*
X89261301Y-78569640D01*
X89005105Y-78476392D01*
X88583344Y-78363383D01*
X88583347Y-78363383D01*
X88583337Y-78363381D01*
X88583331Y-78363379D01*
X88583327Y-78363379D01*
X88153322Y-78287557D01*
X87718330Y-78249500D01*
X87718327Y-78249500D01*
X87281673Y-78249500D01*
X87281669Y-78249500D01*
X86846679Y-78287557D01*
X86846675Y-78287557D01*
X86416672Y-78363379D01*
X86416655Y-78363383D01*
X85994894Y-78476392D01*
X85584565Y-78625740D01*
X85584550Y-78625746D01*
X85188835Y-78810272D01*
X85188819Y-78810280D01*
X84810682Y-79028598D01*
X84810656Y-79028614D01*
X84452986Y-79279057D01*
X84118490Y-79559734D01*
X83809734Y-79868490D01*
X83529057Y-80202986D01*
X83278614Y-80560656D01*
X83278598Y-80560682D01*
X83060280Y-80938819D01*
X83060272Y-80938835D01*
X82875746Y-81334550D01*
X82875740Y-81334565D01*
X82726392Y-81744894D01*
X82613383Y-82166655D01*
X82613379Y-82166672D01*
X82537557Y-82596675D01*
X82537557Y-82596679D01*
X82499500Y-83031669D01*
X25500500Y-83031669D01*
X25500500Y-54553471D01*
X45999500Y-54553471D01*
X45999500Y-54946528D01*
X46038026Y-55337702D01*
X46114704Y-55723194D01*
X46114707Y-55723205D01*
X46228810Y-56099354D01*
X46379230Y-56462499D01*
X46379232Y-56462504D01*
X46564511Y-56809137D01*
X46564522Y-56809155D01*
X46782887Y-57135960D01*
X46782897Y-57135974D01*
X47032254Y-57439817D01*
X47310182Y-57717745D01*
X47310187Y-57717749D01*
X47310188Y-57717750D01*
X47614031Y-57967107D01*
X47940851Y-58185482D01*
X47940860Y-58185487D01*
X47940862Y-58185488D01*
X48287495Y-58370767D01*
X48287497Y-58370767D01*
X48287503Y-58370771D01*
X48650647Y-58521190D01*
X49026785Y-58635290D01*
X49026791Y-58635291D01*
X49026794Y-58635292D01*
X49026805Y-58635295D01*
X49383329Y-58706211D01*
X49412297Y-58711973D01*
X49803468Y-58750500D01*
X49803471Y-58750500D01*
X50196529Y-58750500D01*
X50196532Y-58750500D01*
X50587703Y-58711973D01*
X50662748Y-58697045D01*
X50973194Y-58635295D01*
X50973205Y-58635292D01*
X50973205Y-58635291D01*
X50973215Y-58635290D01*
X51349353Y-58521190D01*
X51712497Y-58370771D01*
X52059149Y-58185482D01*
X52385969Y-57967107D01*
X52689812Y-57717750D01*
X52967750Y-57439812D01*
X53217107Y-57135969D01*
X53435482Y-56809149D01*
X53620771Y-56462497D01*
X53771190Y-56099353D01*
X53885290Y-55723215D01*
X53885292Y-55723205D01*
X53885295Y-55723194D01*
X53961973Y-55337702D01*
X53985186Y-55102014D01*
X54000500Y-54946532D01*
X54000500Y-54631995D01*
X68199500Y-54631995D01*
X68199500Y-54868004D01*
X68199501Y-54868020D01*
X68230306Y-55102010D01*
X68291394Y-55329993D01*
X68381714Y-55548045D01*
X68381719Y-55548056D01*
X68400375Y-55580368D01*
X68499727Y-55752450D01*
X68499729Y-55752453D01*
X68499730Y-55752454D01*
X68643406Y-55939697D01*
X68643412Y-55939704D01*
X68810295Y-56106587D01*
X68810301Y-56106592D01*
X68997550Y-56250273D01*
X69128918Y-56326118D01*
X69201943Y-56368280D01*
X69201948Y-56368282D01*
X69201951Y-56368284D01*
X69420007Y-56458606D01*
X69647986Y-56519693D01*
X69881989Y-56550500D01*
X69881996Y-56550500D01*
X70118004Y-56550500D01*
X70118011Y-56550500D01*
X70352014Y-56519693D01*
X70579993Y-56458606D01*
X70798049Y-56368284D01*
X71002450Y-56250273D01*
X71189699Y-56106592D01*
X71356592Y-55939699D01*
X71500273Y-55752450D01*
X71618284Y-55548049D01*
X71708606Y-55329993D01*
X71769693Y-55102014D01*
X71800500Y-54868011D01*
X71800500Y-54631989D01*
X71787293Y-54531669D01*
X82499500Y-54531669D01*
X82499500Y-54968330D01*
X82537557Y-55403320D01*
X82537557Y-55403324D01*
X82613379Y-55833327D01*
X82613383Y-55833344D01*
X82726392Y-56255105D01*
X82875740Y-56665434D01*
X82875746Y-56665449D01*
X83060272Y-57061164D01*
X83060280Y-57061180D01*
X83213739Y-57326978D01*
X83278603Y-57439326D01*
X83278607Y-57439332D01*
X83278614Y-57439343D01*
X83529057Y-57797013D01*
X83671784Y-57967107D01*
X83809732Y-58131507D01*
X84118493Y-58440268D01*
X84208395Y-58515705D01*
X84452986Y-58720942D01*
X84810656Y-58971385D01*
X84810663Y-58971389D01*
X84810674Y-58971397D01*
X85188826Y-59189723D01*
X85188835Y-59189727D01*
X85584550Y-59374253D01*
X85584555Y-59374255D01*
X85584568Y-59374261D01*
X85994888Y-59523605D01*
X85994889Y-59523605D01*
X85994894Y-59523607D01*
X86127398Y-59559110D01*
X86416663Y-59636619D01*
X86846682Y-59712443D01*
X87281671Y-59750499D01*
X87281672Y-59750500D01*
X87281673Y-59750500D01*
X87718328Y-59750500D01*
X87718328Y-59750499D01*
X88153318Y-59712443D01*
X88583337Y-59636619D01*
X89005112Y-59523605D01*
X89415432Y-59374261D01*
X89811174Y-59189723D01*
X90189326Y-58971397D01*
X90547012Y-58720943D01*
X90881507Y-58440268D01*
X91190268Y-58131507D01*
X91470943Y-57797012D01*
X91721397Y-57439326D01*
X91939723Y-57061174D01*
X92124261Y-56665432D01*
X92273605Y-56255112D01*
X92386619Y-55833337D01*
X92462443Y-55403318D01*
X92500500Y-54968327D01*
X92500500Y-54531673D01*
X92500500Y-54531669D01*
X107499500Y-54531669D01*
X107499500Y-54968330D01*
X107537557Y-55403320D01*
X107537557Y-55403324D01*
X107613379Y-55833327D01*
X107613383Y-55833344D01*
X107726392Y-56255105D01*
X107875740Y-56665434D01*
X107875746Y-56665449D01*
X108060272Y-57061164D01*
X108060280Y-57061180D01*
X108213739Y-57326978D01*
X108278603Y-57439326D01*
X108278607Y-57439332D01*
X108278614Y-57439343D01*
X108529057Y-57797013D01*
X108671784Y-57967107D01*
X108809732Y-58131507D01*
X109118493Y-58440268D01*
X109208395Y-58515705D01*
X109452986Y-58720942D01*
X109810656Y-58971385D01*
X109810663Y-58971389D01*
X109810674Y-58971397D01*
X110188826Y-59189723D01*
X110188835Y-59189727D01*
X110584550Y-59374253D01*
X110584555Y-59374255D01*
X110584568Y-59374261D01*
X110994888Y-59523605D01*
X110994889Y-59523605D01*
X110994894Y-59523607D01*
X111127398Y-59559110D01*
X111416663Y-59636619D01*
X111846682Y-59712443D01*
X112281671Y-59750499D01*
X112281672Y-59750500D01*
X112281673Y-59750500D01*
X112718328Y-59750500D01*
X112718328Y-59750499D01*
X113153318Y-59712443D01*
X113583337Y-59636619D01*
X114005112Y-59523605D01*
X114415432Y-59374261D01*
X114811174Y-59189723D01*
X115189326Y-58971397D01*
X115547012Y-58720943D01*
X115881507Y-58440268D01*
X116190268Y-58131507D01*
X116470943Y-57797012D01*
X116721397Y-57439326D01*
X116939723Y-57061174D01*
X117124261Y-56665432D01*
X117273605Y-56255112D01*
X117386619Y-55833337D01*
X117462443Y-55403318D01*
X117500500Y-54968327D01*
X117500500Y-54631995D01*
X128199500Y-54631995D01*
X128199500Y-54868004D01*
X128199501Y-54868020D01*
X128230306Y-55102010D01*
X128291394Y-55329993D01*
X128381714Y-55548045D01*
X128381719Y-55548056D01*
X128400375Y-55580368D01*
X128499727Y-55752450D01*
X128499729Y-55752453D01*
X128499730Y-55752454D01*
X128643406Y-55939697D01*
X128643412Y-55939704D01*
X128810295Y-56106587D01*
X128810301Y-56106592D01*
X128997550Y-56250273D01*
X129128918Y-56326118D01*
X129201943Y-56368280D01*
X129201948Y-56368282D01*
X129201951Y-56368284D01*
X129420007Y-56458606D01*
X129647986Y-56519693D01*
X129881989Y-56550500D01*
X129881996Y-56550500D01*
X130118004Y-56550500D01*
X130118011Y-56550500D01*
X130352014Y-56519693D01*
X130579993Y-56458606D01*
X130798049Y-56368284D01*
X131002450Y-56250273D01*
X131189699Y-56106592D01*
X131356592Y-55939699D01*
X131500273Y-55752450D01*
X131618284Y-55548049D01*
X131708606Y-55329993D01*
X131769693Y-55102014D01*
X131800500Y-54868011D01*
X131800500Y-54631989D01*
X131790200Y-54553754D01*
X131790163Y-54553471D01*
X145999500Y-54553471D01*
X145999500Y-54946528D01*
X146038026Y-55337702D01*
X146114704Y-55723194D01*
X146114707Y-55723205D01*
X146228810Y-56099354D01*
X146379230Y-56462499D01*
X146379232Y-56462504D01*
X146564511Y-56809137D01*
X146564522Y-56809155D01*
X146782887Y-57135960D01*
X146782897Y-57135974D01*
X147032254Y-57439817D01*
X147310182Y-57717745D01*
X147310187Y-57717749D01*
X147310188Y-57717750D01*
X147614031Y-57967107D01*
X147940851Y-58185482D01*
X147940860Y-58185487D01*
X147940862Y-58185488D01*
X148287495Y-58370767D01*
X148287497Y-58370767D01*
X148287503Y-58370771D01*
X148650647Y-58521190D01*
X149026785Y-58635290D01*
X149026791Y-58635291D01*
X149026794Y-58635292D01*
X149026805Y-58635295D01*
X149383329Y-58706211D01*
X149412297Y-58711973D01*
X149803468Y-58750500D01*
X149803471Y-58750500D01*
X150196529Y-58750500D01*
X150196532Y-58750500D01*
X150587703Y-58711973D01*
X150662748Y-58697045D01*
X150973194Y-58635295D01*
X150973205Y-58635292D01*
X150973205Y-58635291D01*
X150973215Y-58635290D01*
X151349353Y-58521190D01*
X151712497Y-58370771D01*
X152059149Y-58185482D01*
X152385969Y-57967107D01*
X152689812Y-57717750D01*
X152967750Y-57439812D01*
X153217107Y-57135969D01*
X153435482Y-56809149D01*
X153620771Y-56462497D01*
X153771190Y-56099353D01*
X153885290Y-55723215D01*
X153885292Y-55723205D01*
X153885295Y-55723194D01*
X153961973Y-55337702D01*
X153985186Y-55102014D01*
X154000500Y-54946532D01*
X154000500Y-54553468D01*
X153961973Y-54162297D01*
X153885295Y-53776805D01*
X153885292Y-53776794D01*
X153885291Y-53776791D01*
X153885290Y-53776785D01*
X153771190Y-53400647D01*
X153620771Y-53037503D01*
X153608355Y-53014275D01*
X153435488Y-52690862D01*
X153435487Y-52690860D01*
X153435482Y-52690851D01*
X153217107Y-52364031D01*
X152967750Y-52060188D01*
X152967749Y-52060187D01*
X152967745Y-52060182D01*
X152689817Y-51782254D01*
X152385974Y-51532897D01*
X152385973Y-51532896D01*
X152385969Y-51532893D01*
X152059149Y-51314518D01*
X152059144Y-51314515D01*
X152059137Y-51314511D01*
X151712504Y-51129232D01*
X151712499Y-51129230D01*
X151349354Y-50978810D01*
X150973205Y-50864707D01*
X150973194Y-50864704D01*
X150587702Y-50788026D01*
X150293089Y-50759010D01*
X150196532Y-50749500D01*
X149803468Y-50749500D01*
X149714251Y-50758287D01*
X149412297Y-50788026D01*
X149026805Y-50864704D01*
X149026794Y-50864707D01*
X148650645Y-50978810D01*
X148287500Y-51129230D01*
X148287495Y-51129232D01*
X147940862Y-51314511D01*
X147940844Y-51314522D01*
X147614039Y-51532887D01*
X147614025Y-51532897D01*
X147310182Y-51782254D01*
X147032254Y-52060182D01*
X146782897Y-52364025D01*
X146782887Y-52364039D01*
X146564522Y-52690844D01*
X146564511Y-52690862D01*
X146379232Y-53037495D01*
X146379230Y-53037500D01*
X146228810Y-53400645D01*
X146114707Y-53776794D01*
X146114704Y-53776805D01*
X146038026Y-54162297D01*
X145999500Y-54553471D01*
X131790163Y-54553471D01*
X131769693Y-54397988D01*
X131769693Y-54397986D01*
X131708606Y-54170007D01*
X131618284Y-53951951D01*
X131618282Y-53951948D01*
X131618280Y-53951943D01*
X131517163Y-53776805D01*
X131500273Y-53747550D01*
X131356592Y-53560301D01*
X131356587Y-53560295D01*
X131189704Y-53393412D01*
X131189697Y-53393406D01*
X131002454Y-53249730D01*
X131002453Y-53249729D01*
X131002450Y-53249727D01*
X130920957Y-53202677D01*
X130798056Y-53131719D01*
X130798045Y-53131714D01*
X130579993Y-53041394D01*
X130352010Y-52980306D01*
X130118020Y-52949501D01*
X130118017Y-52949500D01*
X130118011Y-52949500D01*
X129881989Y-52949500D01*
X129881983Y-52949500D01*
X129881979Y-52949501D01*
X129647989Y-52980306D01*
X129420006Y-53041394D01*
X129201954Y-53131714D01*
X129201943Y-53131719D01*
X128997545Y-53249730D01*
X128810302Y-53393406D01*
X128810295Y-53393412D01*
X128643412Y-53560295D01*
X128643406Y-53560302D01*
X128499730Y-53747545D01*
X128381719Y-53951943D01*
X128381714Y-53951954D01*
X128291394Y-54170006D01*
X128230306Y-54397989D01*
X128199501Y-54631979D01*
X128199500Y-54631995D01*
X117500500Y-54631995D01*
X117500500Y-54531673D01*
X117462443Y-54096682D01*
X117386619Y-53666663D01*
X117288127Y-53299085D01*
X117273607Y-53244894D01*
X117232415Y-53131719D01*
X117124261Y-52834568D01*
X117057244Y-52690851D01*
X116939727Y-52438835D01*
X116939719Y-52438819D01*
X116926013Y-52415080D01*
X116721397Y-52060674D01*
X116721389Y-52060663D01*
X116721385Y-52060656D01*
X116470942Y-51702986D01*
X116190265Y-51368490D01*
X115881509Y-51059734D01*
X115547013Y-50779057D01*
X115189343Y-50528614D01*
X115189332Y-50528607D01*
X115189326Y-50528603D01*
X115076978Y-50463739D01*
X114811180Y-50310280D01*
X114811164Y-50310272D01*
X114415449Y-50125746D01*
X114415434Y-50125740D01*
X114415432Y-50125739D01*
X114261301Y-50069640D01*
X114005105Y-49976392D01*
X113583344Y-49863383D01*
X113583347Y-49863383D01*
X113583337Y-49863381D01*
X113583331Y-49863379D01*
X113583327Y-49863379D01*
X113153322Y-49787557D01*
X112718330Y-49749500D01*
X112718327Y-49749500D01*
X112281673Y-49749500D01*
X112281669Y-49749500D01*
X111846679Y-49787557D01*
X111846675Y-49787557D01*
X111416672Y-49863379D01*
X111416655Y-49863383D01*
X110994894Y-49976392D01*
X110584565Y-50125740D01*
X110584550Y-50125746D01*
X110188835Y-50310272D01*
X110188819Y-50310280D01*
X109810682Y-50528598D01*
X109810656Y-50528614D01*
X109452986Y-50779057D01*
X109118490Y-51059734D01*
X108809734Y-51368490D01*
X108529057Y-51702986D01*
X108278614Y-52060656D01*
X108278598Y-52060682D01*
X108060280Y-52438819D01*
X108060272Y-52438835D01*
X107875746Y-52834550D01*
X107875740Y-52834565D01*
X107726392Y-53244894D01*
X107613383Y-53666655D01*
X107613379Y-53666672D01*
X107537557Y-54096675D01*
X107537557Y-54096679D01*
X107499500Y-54531669D01*
X92500500Y-54531669D01*
X92462443Y-54096682D01*
X92386619Y-53666663D01*
X92288127Y-53299085D01*
X92273607Y-53244894D01*
X92232415Y-53131719D01*
X92124261Y-52834568D01*
X92057244Y-52690851D01*
X91939727Y-52438835D01*
X91939719Y-52438819D01*
X91926013Y-52415080D01*
X91721397Y-52060674D01*
X91721389Y-52060663D01*
X91721385Y-52060656D01*
X91470942Y-51702986D01*
X91190265Y-51368490D01*
X90881509Y-51059734D01*
X90547013Y-50779057D01*
X90189343Y-50528614D01*
X90189332Y-50528607D01*
X90189326Y-50528603D01*
X90076978Y-50463739D01*
X89811180Y-50310280D01*
X89811164Y-50310272D01*
X89415449Y-50125746D01*
X89415434Y-50125740D01*
X89415432Y-50125739D01*
X89261301Y-50069640D01*
X89005105Y-49976392D01*
X88583344Y-49863383D01*
X88583347Y-49863383D01*
X88583337Y-49863381D01*
X88583331Y-49863379D01*
X88583327Y-49863379D01*
X88153322Y-49787557D01*
X87718330Y-49749500D01*
X87718327Y-49749500D01*
X87281673Y-49749500D01*
X87281669Y-49749500D01*
X86846679Y-49787557D01*
X86846675Y-49787557D01*
X86416672Y-49863379D01*
X86416655Y-49863383D01*
X85994894Y-49976392D01*
X85584565Y-50125740D01*
X85584550Y-50125746D01*
X85188835Y-50310272D01*
X85188819Y-50310280D01*
X84810682Y-50528598D01*
X84810656Y-50528614D01*
X84452986Y-50779057D01*
X84118490Y-51059734D01*
X83809734Y-51368490D01*
X83529057Y-51702986D01*
X83278614Y-52060656D01*
X83278598Y-52060682D01*
X83060280Y-52438819D01*
X83060272Y-52438835D01*
X82875746Y-52834550D01*
X82875740Y-52834565D01*
X82726392Y-53244894D01*
X82613383Y-53666655D01*
X82613379Y-53666672D01*
X82537557Y-54096675D01*
X82537557Y-54096679D01*
X82499500Y-54531669D01*
X71787293Y-54531669D01*
X71769693Y-54397986D01*
X71708606Y-54170007D01*
X71618284Y-53951951D01*
X71618282Y-53951948D01*
X71618280Y-53951943D01*
X71517163Y-53776805D01*
X71500273Y-53747550D01*
X71356592Y-53560301D01*
X71356587Y-53560295D01*
X71189704Y-53393412D01*
X71189697Y-53393406D01*
X71002454Y-53249730D01*
X71002453Y-53249729D01*
X71002450Y-53249727D01*
X70920957Y-53202677D01*
X70798056Y-53131719D01*
X70798045Y-53131714D01*
X70579993Y-53041394D01*
X70352010Y-52980306D01*
X70118020Y-52949501D01*
X70118017Y-52949500D01*
X70118011Y-52949500D01*
X69881989Y-52949500D01*
X69881983Y-52949500D01*
X69881979Y-52949501D01*
X69647989Y-52980306D01*
X69420006Y-53041394D01*
X69201954Y-53131714D01*
X69201943Y-53131719D01*
X68997545Y-53249730D01*
X68810302Y-53393406D01*
X68810295Y-53393412D01*
X68643412Y-53560295D01*
X68643406Y-53560302D01*
X68499730Y-53747545D01*
X68381719Y-53951943D01*
X68381714Y-53951954D01*
X68291394Y-54170006D01*
X68230306Y-54397989D01*
X68199501Y-54631979D01*
X68199500Y-54631995D01*
X54000500Y-54631995D01*
X54000500Y-54553468D01*
X53961973Y-54162297D01*
X53885295Y-53776805D01*
X53885292Y-53776794D01*
X53885291Y-53776791D01*
X53885290Y-53776785D01*
X53771190Y-53400647D01*
X53620771Y-53037503D01*
X53608355Y-53014275D01*
X53435488Y-52690862D01*
X53435487Y-52690860D01*
X53435482Y-52690851D01*
X53217107Y-52364031D01*
X52967750Y-52060188D01*
X52967749Y-52060187D01*
X52967745Y-52060182D01*
X52689817Y-51782254D01*
X52385974Y-51532897D01*
X52385973Y-51532896D01*
X52385969Y-51532893D01*
X52059149Y-51314518D01*
X52059144Y-51314515D01*
X52059137Y-51314511D01*
X51712504Y-51129232D01*
X51712499Y-51129230D01*
X51349354Y-50978810D01*
X50973205Y-50864707D01*
X50973194Y-50864704D01*
X50587702Y-50788026D01*
X50293089Y-50759010D01*
X50196532Y-50749500D01*
X49803468Y-50749500D01*
X49714251Y-50758287D01*
X49412297Y-50788026D01*
X49026805Y-50864704D01*
X49026794Y-50864707D01*
X48650645Y-50978810D01*
X48287500Y-51129230D01*
X48287495Y-51129232D01*
X47940862Y-51314511D01*
X47940844Y-51314522D01*
X47614039Y-51532887D01*
X47614025Y-51532897D01*
X47310182Y-51782254D01*
X47032254Y-52060182D01*
X46782897Y-52364025D01*
X46782887Y-52364039D01*
X46564522Y-52690844D01*
X46564511Y-52690862D01*
X46379232Y-53037495D01*
X46379230Y-53037500D01*
X46228810Y-53400645D01*
X46114707Y-53776794D01*
X46114704Y-53776805D01*
X46038026Y-54162297D01*
X45999500Y-54553471D01*
X25500500Y-54553471D01*
X25500500Y-30624500D01*
X25520185Y-30557461D01*
X25572989Y-30511706D01*
X25624500Y-30500500D01*
X174375500Y-30500500D01*
X174442539Y-30520185D01*
G37*
%TD.AperFunction*%
%TD*%
M02*
